<svg xmlns="http://www.w3.org/2000/svg" xmlns:xlink="http://www.w3.org/1999/xlink" fill="none" viewBox="0 0 1718 6201"
    width="1980px" preserveAspectRatio="xMidYMid">
    <defs>
        <path id="reuse-0"
            d="m423.176 1150.3-.153-.06 23.24-63.85 2.597.95a2.436 2.436 0 0 0 3.125-1.46 2.434 2.434 0 0 0-1.457-3.12l-14.413-5.25-38.56-24.59 1.111-3.05a2.442 2.442 0 0 0-1.458-3.13 2.437 2.437 0 0 0-3.125 1.46l-1.11 3.05-45.346-5.95-14.413-5.24a2.44 2.44 0 0 0-3.126 1.45 2.442 2.442 0 0 0 1.458 3.13l2.597.94-23.24 63.85-.153-.05a5.046 5.046 0 0 0-6.459 3.01l-1.779 4.89a5.047 5.047 0 0 0 3.012 6.46l53.922 19.62-4.955 13.62-47.648 12.33a2.43 2.43 0 0 0-1.749 2.97 2.438 2.438 0 0 0 2.971 1.75l25.687-6.65 13.806 12.96c.067.07.138.13.213.18.009.01.019.01.028.02.05.04.1.07.153.11.028.01.057.03.086.04.022.02.045.03.068.04.094.05.189.09.286.13h.002c.098.04.2.06.302.09.026 0 .052.01.077.01.032.01.063.01.095.02.062.01.123.01.185.02h.034c.093.01.185.01.277 0l18.91-1.05 15.404 21.6c.298.42.702.71 1.15.87.729.27 1.572.18 2.251-.3a2.437 2.437 0 0 0 .57-3.4l-28.575-40.08 4.954-13.61 53.922 19.63c2.611.95 5.509-.4 6.459-3.01l1.779-4.89a5.047 5.047 0 0 0-3.012-6.46Zm-74.975 23.96-8.864-8.33 13.13-3.39-4.266 11.72Zm47.646-116.65 19.144 12.21-20.829-7.58 1.685-4.63Zm-4.583-1.67-1.684 4.63-20.829-7.58 22.513 2.95Zm-52.539-8.69 7.478 2.72c.002 0 .003.01.005.01h.008L434.19 1082H434.203l7.478 2.72-23.24 63.86-102.956-37.48 23.24-63.85Zm26.199 128-12.14.68 4.266-11.73 7.874 11.05Zm54.902-15.27a.168.168 0 0 1-.208.1l-112.426-40.92c-.085-.04-.128-.13-.097-.21l1.779-4.89a.16.16 0 0 1 .208-.1l112.426 40.92c.085.03.128.13.097.21l-1.779 4.89Z" />
        <path id="reuse-1"
            d="m430.527 1092.08-24.441-8.89a2.44 2.44 0 0 0-3.125 1.45 2.441 2.441 0 0 0 1.457 3.13l24.441 8.89a2.431 2.431 0 0 0 3.125-1.45 2.441 2.441 0 0 0-1.457-3.13ZM426.968 1101.86l-24.44-8.9a2.437 2.437 0 0 0-3.126 1.46 2.446 2.446 0 0 0 1.458 3.13l24.44 8.89a2.436 2.436 0 0 0 3.125-1.46 2.434 2.434 0 0 0-1.457-3.12ZM423.409 1111.63l-17.108-6.22a2.436 2.436 0 0 0-3.125 1.46 2.434 2.434 0 0 0 1.457 3.12l17.108 6.23a2.437 2.437 0 0 0 3.126-1.46 2.446 2.446 0 0 0-1.458-3.13ZM419.852 1121.41l-17.109-6.23a2.442 2.442 0 0 0-1.667 4.59l17.108 6.22a2.44 2.44 0 0 0 3.125-1.45 2.441 2.441 0 0 0-1.457-3.13ZM416.293 1131.19l-17.108-6.23a2.436 2.436 0 0 0-3.125 1.46 2.434 2.434 0 0 0 1.457 3.12l17.108 6.23a2.437 2.437 0 1 0 1.668-4.58ZM385.185 1125.4l-2.596-.94 14.288-39.26c1.441-3.96-.607-8.35-4.566-9.79-3.959-1.45-8.352.6-9.793 4.56l-14.288 39.26-5.194-1.89 7.172-19.71c1.441-3.96-.607-8.35-4.566-9.79-3.959-1.44-8.352.61-9.792 4.57l-7.173 19.7-5.193-1.89 2.724-7.48c1.441-3.96-.607-8.35-4.566-9.8-3.959-1.44-8.352.61-9.793 4.57l-2.724 7.49-2.597-.95a2.437 2.437 0 1 0-1.668 4.58l58.658 21.35a2.44 2.44 0 0 0 3.125-1.45 2.442 2.442 0 0 0-1.458-3.13Zm-46.284-16.85-5.193-1.89 2.724-7.48a2.768 2.768 0 0 1 3.542-1.65 2.765 2.765 0 0 1 1.652 3.54l-2.725 7.48Zm19.553 7.12-5.194-1.89 7.172-19.7a2.765 2.765 0 0 1 3.542-1.66 2.772 2.772 0 0 1 1.652 3.55l-7.172 19.7Zm19.552 7.12-5.194-1.89 14.289-39.26a2.768 2.768 0 0 1 3.542-1.65 2.765 2.765 0 0 1 1.652 3.54l-14.289 39.26Z" />
        <path id="reuse-2" fill="#fff" d="m326.483 1021 141.45 51.483-51.484 141.45-141.45-51.484z" />
    </defs>
    <path fill="#fff" d="M0 0h1718v6201H0z" />
    <g fill="#000" clip-path="url(#a)">
        <path
            d="M231.005 587.756a2.394 2.394 0 0 0-3.368.341l-20.522 25.144a2.393 2.393 0 0 0 1.406 3.864l31.883 6.07a2.393 2.393 0 1 0 .895-4.702l-27.935-5.319 17.981-22.03a2.394 2.394 0 0 0-.34-3.368ZM283.803 606.495a2.392 2.392 0 0 0 3.367-.341l20.522-25.144a2.395 2.395 0 0 0-1.407-3.864l-31.882-6.07a2.393 2.393 0 0 0-.896 4.702l27.935 5.319-17.98 22.03a2.392 2.392 0 0 0 .341 3.368ZM259.879 577.13l-9.6 38.842a2.395 2.395 0 0 0 4.648 1.149l9.6-38.842a2.395 2.395 0 0 0-4.648-1.149Z" />
        <path
            d="m299.161 499.566-136.456 49.666a2.394 2.394 0 0 0-1.43 3.068l44.753 122.96a2.393 2.393 0 0 0 3.068 1.43l136.456-49.665a2.394 2.394 0 0 0 1.43-3.068l-8.732-23.992a2.394 2.394 0 0 0-4.499 1.637l7.914 21.743-131.957 48.028-36.567-100.467 131.957-48.028 25.379 69.727a2.394 2.394 0 1 0 4.498-1.637l-32.746-89.971a2.395 2.395 0 0 0-3.068-1.431Zm-132.569 53.346 83.223-30.291 4.912 13.496-83.223 30.291-4.912-13.496Zm92.633-18.432-4.912-13.496 44.236-16.1 4.912 13.495-44.236 16.101Z" />
        <path
            d="M278.089 517.255a2.556 2.556 0 0 0-1.526 3.273 2.557 2.557 0 0 0 3.272 1.526 2.556 2.556 0 0 0 1.526-3.273 2.556 2.556 0 0 0-3.272-1.526ZM265.793 521.731a2.555 2.555 0 0 0-1.526 3.272 2.556 2.556 0 0 0 3.272 1.526 2.556 2.556 0 0 0 1.526-3.272 2.555 2.555 0 0 0-3.272-1.526ZM290.385 512.78a2.555 2.555 0 0 0-1.526 3.272 2.555 2.555 0 0 0 3.272 1.526 2.555 2.555 0 0 0 1.526-3.272 2.555 2.555 0 0 0-3.272-1.526Z" />
    </g>
    <g fill="#000" clip-path="url(#b)">
        <path
            d="M1505.27 896.336 1364 959.235c-6.14 2.731-8.91 9.944-6.18 16.078l25.16 56.507c2.73 6.14 9.95 8.91 16.08 6.18l141.28-62.904c6.13-2.731 8.9-9.944 6.17-16.079l-25.16-56.509c-2.73-6.135-9.95-8.904-16.08-6.172Zm35.94 65.04a6.388 6.388 0 0 1-3.23 8.422L1396.7 1032.7c-3.21 1.43-6.99-.02-8.42-3.24l-25.16-56.505c-1.43-3.214.02-6.992 3.23-8.422l141.28-62.9c3.21-1.43 6.99.02 8.42 3.233l25.16 56.51Z" />
        <path
            d="m1493.7 969.199-67.81 30.192a2.896 2.896 0 0 0-1.47 3.829 2.895 2.895 0 0 0 3.82 1.47l67.82-30.193a2.904 2.904 0 0 0 1.47-3.829 2.905 2.905 0 0 0-3.83-1.469ZM1414.58 1004.42l-5.65 2.52a2.903 2.903 0 0 0-1.47 3.83 2.91 2.91 0 0 0 3.83 1.47l5.65-2.52a2.894 2.894 0 0 0 1.47-3.83 2.903 2.903 0 0 0-3.83-1.47ZM1397.63 1011.97l-5.65 2.52a2.895 2.895 0 0 0-1.47 3.82c.65 1.47 2.37 2.13 3.83 1.47l5.65-2.51a2.906 2.906 0 0 0 1.47-3.83 2.906 2.906 0 0 0-3.83-1.47ZM1527.6 954.103l-5.65 2.516a2.903 2.903 0 0 0-1.47 3.828 2.902 2.902 0 0 0 3.83 1.47l5.65-2.516c1.47-.651 2.12-2.365 1.47-3.828a2.898 2.898 0 0 0-3.83-1.47ZM1510.65 961.651l-5.65 2.516a2.903 2.903 0 0 0-1.47 3.828 2.902 2.902 0 0 0 3.83 1.47l5.65-2.516a2.903 2.903 0 0 0 1.47-3.828 2.902 2.902 0 0 0-3.83-1.47ZM1522.57 942.801l-11.3 5.032a2.903 2.903 0 0 0-1.47 3.828 2.902 2.902 0 0 0 3.83 1.47l11.3-5.032a2.903 2.903 0 0 0 1.47-3.828 2.902 2.902 0 0 0-3.83-1.47ZM1503.8 954.335a2.905 2.905 0 0 0-3.83-1.47l-5.65 2.516c-1.47.651-2.12 2.365-1.47 3.828a2.898 2.898 0 0 0 3.83 1.47l5.65-2.516a2.903 2.903 0 0 0 1.47-3.828ZM1479.72 968.227l5.65-2.516a2.895 2.895 0 0 0 1.47-3.828 2.898 2.898 0 0 0-3.83-1.47l-5.65 2.516a2.903 2.903 0 0 0-1.47 3.828 2.906 2.906 0 0 0 3.83 1.47ZM1462.77 975.775l5.65-2.516a2.899 2.899 0 1 0-2.36-5.298l-5.65 2.516a2.903 2.903 0 0 0-1.47 3.828 2.903 2.903 0 0 0 3.83 1.47ZM1445.82 983.323l5.65-2.516a2.904 2.904 0 0 0 1.47-3.829 2.901 2.901 0 0 0-3.83-1.469l-5.65 2.516a2.9 2.9 0 1 0 2.36 5.298ZM1428.86 990.87l5.66-2.516c1.46-.651 2.12-2.365 1.46-3.828a2.89 2.89 0 0 0-3.82-1.469l-5.65 2.516c-1.47.651-2.13 2.365-1.47 3.828a2.89 2.89 0 0 0 3.82 1.469ZM1415.2 990.605l-5.65 2.516a2.903 2.903 0 0 0-1.47 3.828 2.901 2.901 0 0 0 3.83 1.469l5.65-2.516a2.903 2.903 0 0 0 1.47-3.828 2.898 2.898 0 0 0-3.83-1.469ZM1398.25 998.153l-11.3 5.027a2.91 2.91 0 0 0-1.47 3.83 2.894 2.894 0 0 0 3.83 1.47l11.3-5.03a2.901 2.901 0 0 0 1.47-3.828 2.901 2.901 0 0 0-3.83-1.469ZM1512.51 920.197l-11.3 5.032a2.887 2.887 0 0 0-1.47 3.829 2.89 2.89 0 0 0 3.82 1.469l11.31-5.032a2.903 2.903 0 0 0 1.47-3.828 2.906 2.906 0 0 0-3.83-1.47ZM1486.61 938.075l5.65-2.516a2.895 2.895 0 0 0 1.47-3.828 2.9 2.9 0 0 0-3.83-1.47l-5.65 2.516a2.903 2.903 0 0 0-1.47 3.828 2.905 2.905 0 0 0 3.83 1.47ZM1469.66 945.623l5.65-2.516a2.903 2.903 0 0 0 1.47-3.828 2.902 2.902 0 0 0-3.83-1.47l-5.65 2.516a2.903 2.903 0 0 0-1.47 3.828 2.902 2.902 0 0 0 3.83 1.47ZM1452.71 953.171l5.65-2.516a2.903 2.903 0 0 0 1.47-3.828 2.905 2.905 0 0 0-3.83-1.47l-5.65 2.516c-1.47.651-2.12 2.365-1.47 3.828a2.898 2.898 0 0 0 3.83 1.47ZM1435.75 960.719l5.65-2.516c1.47-.652 2.12-2.365 1.47-3.828a2.898 2.898 0 0 0-3.83-1.47l-5.65 2.516a2.903 2.903 0 0 0-1.47 3.828 2.906 2.906 0 0 0 3.83 1.47ZM1418.8 968.267l5.65-2.516a2.899 2.899 0 1 0-2.36-5.298l-5.65 2.516a2.903 2.903 0 0 0-1.47 3.828 2.903 2.903 0 0 0 3.83 1.47ZM1401.85 975.815l5.65-2.516a2.904 2.904 0 0 0 1.47-3.829 2.901 2.901 0 0 0-3.83-1.469l-5.65 2.516a2.9 2.9 0 1 0 2.36 5.298ZM1379.24 985.878l11.31-5.032a2.903 2.903 0 0 0 1.47-3.828 2.904 2.904 0 0 0-3.83-1.469l-11.3 5.032c-1.47.651-2.13 2.365-1.47 3.828a2.89 2.89 0 0 0 3.82 1.469ZM1517.54 931.499l-5.65 2.516a2.899 2.899 0 1 0 2.36 5.298l5.65-2.516a2.903 2.903 0 0 0 1.47-3.828 2.903 2.903 0 0 0-3.83-1.47ZM1500.59 939.047l-5.65 2.516a2.887 2.887 0 0 0-1.47 3.828 2.89 2.89 0 0 0 3.82 1.47l5.66-2.516a2.903 2.903 0 0 0 1.47-3.828 2.906 2.906 0 0 0-3.83-1.47ZM1483.63 946.595l-5.65 2.516a2.903 2.903 0 0 0-1.47 3.828 2.902 2.902 0 0 0 3.83 1.47l5.65-2.516c1.47-.651 2.12-2.365 1.47-3.828a2.898 2.898 0 0 0-3.83-1.47ZM1466.68 954.143l-5.65 2.516a2.903 2.903 0 0 0-1.47 3.828 2.903 2.903 0 0 0 3.83 1.47l5.65-2.516a2.903 2.903 0 0 0 1.47-3.828 2.902 2.902 0 0 0-3.83-1.47ZM1449.73 961.691l-5.65 2.516c-1.47.651-2.12 2.365-1.47 3.828a2.9 2.9 0 0 0 3.83 1.47l5.65-2.516a2.904 2.904 0 0 0 1.47-3.829 2.902 2.902 0 0 0-3.83-1.469ZM1432.78 969.239l-5.66 2.516a2.903 2.903 0 0 0-1.47 3.828 2.906 2.906 0 0 0 3.83 1.47l5.65-2.516a2.887 2.887 0 0 0 1.47-3.829 2.89 2.89 0 0 0-3.82-1.469ZM1415.82 976.787l-5.65 2.516a2.903 2.903 0 0 0-1.47 3.828 2.903 2.903 0 0 0 3.83 1.47l5.65-2.516a2.904 2.904 0 0 0 1.47-3.829 2.898 2.898 0 0 0-3.83-1.469ZM1384.28 997.18l16.95-7.548a2.903 2.903 0 0 0 1.47-3.828 2.901 2.901 0 0 0-3.83-1.469l-16.95 7.548a2.895 2.895 0 0 0-1.47 3.828 2.898 2.898 0 0 0 3.83 1.469ZM1507.48 908.895l-5.66 2.516c-1.46.652-2.12 2.365-1.46 3.829a2.89 2.89 0 0 0 3.82 1.469l5.65-2.516c1.47-.651 2.13-2.365 1.47-3.828a2.891 2.891 0 0 0-3.82-1.47ZM1490.52 916.443l-5.65 2.516a2.904 2.904 0 0 0-1.47 3.829 2.902 2.902 0 0 0 3.83 1.469l5.65-2.516c1.47-.651 2.12-2.365 1.47-3.828a2.9 2.9 0 0 0-3.83-1.47ZM1473.57 923.991l-5.65 2.516a2.904 2.904 0 0 0-1.47 3.829 2.902 2.902 0 0 0 3.83 1.469l5.65-2.516a2.903 2.903 0 0 0 1.47-3.828 2.903 2.903 0 0 0-3.83-1.47ZM1453.32 939.353l5.66-2.516a2.903 2.903 0 0 0 1.47-3.828 2.905 2.905 0 0 0-3.83-1.47l-5.65 2.516a2.895 2.895 0 0 0-1.47 3.828 2.89 2.89 0 0 0 3.82 1.47ZM1436.37 946.901l5.65-2.516a2.895 2.895 0 0 0 1.47-3.828 2.898 2.898 0 0 0-3.83-1.47l-5.65 2.516a2.903 2.903 0 0 0-1.47 3.828 2.905 2.905 0 0 0 3.83 1.47ZM1419.42 954.449l5.65-2.516a2.903 2.903 0 0 0 1.47-3.828 2.902 2.902 0 0 0-3.83-1.47l-5.65 2.516a2.903 2.903 0 0 0-1.47 3.828 2.903 2.903 0 0 0 3.83 1.47ZM1402.47 961.997l5.65-2.516a2.904 2.904 0 0 0 1.47-3.829 2.902 2.902 0 0 0-3.83-1.469l-5.65 2.516a2.895 2.895 0 0 0-1.47 3.828 2.9 2.9 0 0 0 3.83 1.47ZM1374.21 974.577l16.95-7.548a2.887 2.887 0 0 0 1.47-3.829 2.89 2.89 0 0 0-3.82-1.469l-16.96 7.548a2.903 2.903 0 0 0-1.47 3.828 2.903 2.903 0 0 0 3.83 1.47Z" />
    </g>
    <g fill="#000" clip-path="url(#c)">
        <path
            d="m383.335 5041.23-141.274-62.89c-6.135-2.74-13.348.03-16.079 6.17l-25.159 56.51c-2.732 6.13.037 13.34 6.172 16.08l141.274 62.9c6.134 2.73 13.347-.04 16.078-6.18l25.16-56.51c2.731-6.13-.038-13.34-6.172-16.08Zm-24.286 70.23a6.384 6.384 0 0 1-8.422 3.24l-141.274-62.9a6.386 6.386 0 0 1-3.233-8.42l25.16-56.51a6.384 6.384 0 0 1 8.422-3.24l141.274 62.9c3.213 1.43 4.664 5.21 3.233 8.42l-25.16 56.51Z" />
        <path
            d="m321.444 5081.39-67.812-30.19a2.903 2.903 0 0 0-3.828 1.47 2.903 2.903 0 0 0 1.47 3.83l67.811 30.19a2.901 2.901 0 0 0 2.359-5.3ZM242.33 5046.17l-5.651-2.52a2.903 2.903 0 0 0-3.828 1.47 2.902 2.902 0 0 0 1.469 3.83l5.651 2.51c1.463.66 3.177 0 3.829-1.46a2.9 2.9 0 0 0-1.47-3.83ZM225.378 5038.62l-5.651-2.52a2.903 2.903 0 0 0-3.828 1.47 2.898 2.898 0 0 0 1.469 3.83l5.651 2.52a2.903 2.903 0 0 0 3.828-1.47 2.898 2.898 0 0 0-1.469-3.83ZM355.35 5096.49l-5.651-2.52a2.904 2.904 0 0 0-3.829 1.47 2.903 2.903 0 0 0 1.47 3.83l5.651 2.51c1.463.66 3.177 0 3.828-1.47a2.89 2.89 0 0 0-1.469-3.82ZM338.397 5088.94l-5.651-2.52a2.904 2.904 0 0 0-3.829 1.47 2.9 2.9 0 0 0 1.47 3.83l5.651 2.52a2.903 2.903 0 0 0 3.828-1.47 2.899 2.899 0 0 0-1.469-3.83ZM360.381 5085.18l-11.301-5.03a2.904 2.904 0 0 0-3.829 1.47 2.9 2.9 0 0 0 1.47 3.83l11.302 5.03c1.463.65 3.177 0 3.828-1.47a2.906 2.906 0 0 0-1.47-3.83ZM339.247 5078.95a2.903 2.903 0 0 0-1.47-3.83l-5.651-2.52a2.9 2.9 0 1 0-2.358 5.3l5.651 2.52a2.903 2.903 0 0 0 3.828-1.47ZM312.816 5070.35l5.651 2.52a2.904 2.904 0 0 0 3.828-1.47 2.903 2.903 0 0 0-1.47-3.83l-5.651-2.51a2.895 2.895 0 0 0-3.828 1.47 2.891 2.891 0 0 0 1.47 3.82ZM295.862 5062.81l5.651 2.51c1.463.65 3.177 0 3.829-1.47a2.906 2.906 0 0 0-1.47-3.83l-5.651-2.51a2.903 2.903 0 0 0-3.828 1.47 2.902 2.902 0 0 0 1.469 3.83ZM278.909 5055.26l5.651 2.51c1.463.66 3.177 0 3.829-1.46a2.9 2.9 0 0 0-1.47-3.83l-5.651-2.52a2.901 2.901 0 0 0-2.359 5.3ZM261.956 5047.71l5.651 2.52a2.903 2.903 0 0 0 3.828-1.47 2.898 2.898 0 0 0-1.469-3.83l-5.651-2.52a2.903 2.903 0 0 0-3.828 1.47 2.898 2.898 0 0 0 1.469 3.83ZM253.014 5037.38l-5.651-2.51a2.89 2.89 0 0 0-3.828 1.46 2.898 2.898 0 0 0 1.469 3.83l5.651 2.52a2.901 2.901 0 0 0 2.359-5.3ZM236.06 5029.83l-11.302-5.03a2.903 2.903 0 0 0-3.828 1.47 2.903 2.903 0 0 0 1.47 3.83l11.301 5.03a2.904 2.904 0 0 0 3.829-1.47 2.903 2.903 0 0 0-1.47-3.83ZM370.446 5062.58l-11.302-5.03a2.901 2.901 0 0 0-2.359 5.3l11.302 5.03a2.901 2.901 0 0 0 2.359-5.3ZM339.832 5055.3l5.651 2.51c1.463.66 3.177 0 3.828-1.47a2.89 2.89 0 0 0-1.469-3.82l-5.651-2.52a2.901 2.901 0 0 0-2.359 5.3ZM322.879 5047.75l5.651 2.52a2.903 2.903 0 0 0 3.828-1.47 2.898 2.898 0 0 0-1.469-3.83l-5.651-2.52a2.903 2.903 0 0 0-3.828 1.47 2.898 2.898 0 0 0 1.469 3.83ZM305.926 5040.2l5.651 2.52a2.903 2.903 0 0 0 3.828-1.47 2.902 2.902 0 0 0-1.469-3.83l-5.651-2.52a2.904 2.904 0 0 0-3.829 1.47 2.9 2.9 0 0 0 1.47 3.83ZM288.974 5032.65l5.651 2.52a2.903 2.903 0 0 0 3.828-1.47 2.903 2.903 0 0 0-1.47-3.83l-5.651-2.51a2.895 2.895 0 0 0-3.828 1.47 2.891 2.891 0 0 0 1.47 3.82ZM272.021 5025.11l5.651 2.51c1.462.65 3.176 0 3.828-1.47a2.891 2.891 0 0 0-1.47-3.82l-5.651-2.52a2.903 2.903 0 0 0-3.828 1.47 2.903 2.903 0 0 0 1.47 3.83ZM255.068 5017.56l5.65 2.52a2.904 2.904 0 0 0 3.829-1.47 2.9 2.9 0 0 0-1.47-3.83l-5.651-2.52a2.903 2.903 0 0 0-3.828 1.47 2.903 2.903 0 0 0 1.47 3.83ZM232.464 5007.5l11.302 5.03a2.903 2.903 0 0 0 3.828-1.47 2.898 2.898 0 0 0-1.469-3.83l-11.302-5.03a2.896 2.896 0 0 0-3.829 1.47 2.906 2.906 0 0 0 1.47 3.83ZM365.413 5073.88l-5.651-2.51a2.895 2.895 0 0 0-3.828 1.47 2.89 2.89 0 0 0 1.469 3.82l5.651 2.52a2.904 2.904 0 0 0 3.829-1.47 2.903 2.903 0 0 0-1.47-3.83ZM348.461 5066.33l-5.651-2.51a2.895 2.895 0 0 0-3.828 1.47 2.904 2.904 0 0 0 1.469 3.83l5.651 2.51c1.463.65 3.177 0 3.829-1.47a2.906 2.906 0 0 0-1.47-3.83ZM331.508 5058.79l-5.651-2.52a2.901 2.901 0 0 0-2.359 5.3l5.651 2.51c1.463.66 3.177 0 3.828-1.47a2.89 2.89 0 0 0-1.469-3.82ZM314.555 5051.24l-5.651-2.52a2.903 2.903 0 0 0-3.828 1.47 2.898 2.898 0 0 0 1.469 3.83l5.651 2.52a2.903 2.903 0 0 0 3.828-1.47 2.898 2.898 0 0 0-1.469-3.83ZM297.602 5043.69l-5.651-2.52a2.904 2.904 0 0 0-3.829 1.47 2.9 2.9 0 0 0 1.47 3.83l5.651 2.52a2.903 2.903 0 0 0 3.828-1.47 2.902 2.902 0 0 0-1.469-3.83ZM280.649 5036.14l-5.651-2.51a2.895 2.895 0 0 0-3.828 1.47 2.891 2.891 0 0 0 1.47 3.82l5.651 2.52a2.903 2.903 0 0 0 3.828-1.47 2.903 2.903 0 0 0-1.47-3.83ZM263.696 5028.6l-5.651-2.52a2.903 2.903 0 0 0-3.828 1.47 2.903 2.903 0 0 0 1.47 3.83l5.651 2.51c1.463.65 3.176 0 3.828-1.47a2.891 2.891 0 0 0-1.47-3.82ZM227.432 5018.8l16.953 7.54a2.89 2.89 0 0 0 3.828-1.46 2.9 2.9 0 0 0-1.47-3.83l-16.953-7.55a2.904 2.904 0 0 0-3.828 1.47 2.903 2.903 0 0 0 1.47 3.83ZM375.478 5051.28l-5.651-2.52a2.904 2.904 0 0 0-3.829 1.47 2.9 2.9 0 0 0 1.47 3.83l5.651 2.52a2.903 2.903 0 0 0 3.828-1.47 2.899 2.899 0 0 0-1.469-3.83ZM358.524 5043.73l-5.651-2.51a2.89 2.89 0 0 0-3.828 1.46 2.9 2.9 0 0 0 1.47 3.83l5.651 2.52a2.903 2.903 0 0 0 3.828-1.47 2.903 2.903 0 0 0-1.47-3.83ZM341.571 5036.18l-5.651-2.51a2.895 2.895 0 0 0-3.828 1.47 2.891 2.891 0 0 0 1.47 3.82l5.651 2.52a2.903 2.903 0 0 0 3.828-1.47 2.903 2.903 0 0 0-1.47-3.83ZM316.61 5031.42l5.65 2.51c1.463.65 3.177 0 3.829-1.47a2.891 2.891 0 0 0-1.47-3.82l-5.651-2.52a2.902 2.902 0 0 0-2.358 5.3ZM299.656 5023.87l5.651 2.51c1.463.66 3.177 0 3.829-1.46a2.9 2.9 0 0 0-1.47-3.83l-5.651-2.52a2.901 2.901 0 0 0-2.359 5.3ZM282.703 5016.32l5.651 2.52a2.903 2.903 0 0 0 3.828-1.47 2.898 2.898 0 0 0-1.469-3.83l-5.651-2.52a2.903 2.903 0 0 0-3.828 1.47 2.898 2.898 0 0 0 1.469 3.83ZM265.75 5008.77l5.651 2.52a2.901 2.901 0 0 0 2.359-5.3l-5.651-2.51a2.89 2.89 0 0 0-3.828 1.46 2.898 2.898 0 0 0 1.469 3.83ZM237.495 4996.19l16.953 7.55c1.463.65 3.177 0 3.828-1.47a2.901 2.901 0 0 0-1.469-3.83l-16.953-7.54a2.886 2.886 0 0 0-3.828 1.47 2.89 2.89 0 0 0 1.469 3.82Z" />
    </g>
    <g fill="#000" clip-path="url(#d)">
        <use xlink:href="#reuse-0" />
        <use xlink:href="#reuse-1" />
    </g>
    <g fill="#000" clip-path="url(#e)">
        <use xlink:href="#reuse-0" />
        <use xlink:href="#reuse-1" />
    </g>
    <g fill="#000" clip-path="url(#f)">
        <path
            d="m376.715 1652.76-3.498.62-18.033-102.27c-1.261-7.15-8.102-11.94-15.25-10.68l-151.451 26.71c-7.148 1.26-11.938 8.1-10.678 15.25l18.033 102.27-3.498.61a3.14 3.14 0 0 0-2.542 3.64l1.161 6.58c.94 5.33 6.044 8.91 11.377 7.97l171.205-30.19c5.333-.94 8.906-6.05 7.966-11.38l-1.161-6.58a3.136 3.136 0 0 0-3.631-2.55Zm-192.736-71.46a6.9 6.9 0 0 1 5.593-7.99l151.45-26.7c3.745-.66 7.328 1.84 7.988 5.59l18.033 102.27-165.031 29.1-18.033-102.27Zm191.355 81.68a3.551 3.551 0 0 1-2.882 4.11l-171.205 30.19a3.554 3.554 0 0 1-4.115-2.88l-.617-3.5 69.563-12.26c.007.07.013.14.026.21.3 1.7 1.926 2.84 3.631 2.54l32.924-5.81a3.13 3.13 0 0 0 2.542-3.63c-.012-.07-.03-.14-.047-.2l69.563-12.27.617 3.5Z" />
        <path
            d="m338.963 1554.18-144.866 25.55a3.13 3.13 0 0 0-2.542 3.63l15.675 88.89a3.12 3.12 0 0 0 3.63 2.54l144.866-25.54a3.136 3.136 0 0 0 2.543-3.63l-15.675-88.9a3.136 3.136 0 0 0-3.631-2.54Zm12.588 89.44-138.692 24.46-14.586-82.72 138.692-24.46 14.586 82.72Z" />
    </g>
    <g clip-path="url(#g)">
        <path fill="#ECF0F1"
            d="m1538.93 1545.6-5.23 59.75c-.48 5.49-2.16 10.63-4.21 15.33v.01c-7.97 15.92-24.82 26.25-43.52 24.62-18.66-1.63-33.6-14.71-38.46-31.72-.01-.02-.04-.05-.04-.08-.89-3.13-1.44-6.39-1.6-9.73-.05-1-.01-2.01.01-3.02.02-1.02.13-2.04.22-3.07l5.23-59.75 87.6 7.66Z" />
        <path fill="#fff" d="m1496.01 1646.74-20.37-1.78-2.61 29.75 20.38 1.78 2.6-29.75Z" />
        <path fill="#ECF0F1"
            d="m1509.96 1698.46-57.04-4.99.7-8.01c.59-6.82 6.61-11.87 13.44-11.28l32.32 2.83c6.83.6 11.88 6.62 11.28 13.45l-.7 8Z" />
        <path fill="#fff"
            d="m1524.47 1720.26-89.63-7.84.7-8.01c.59-6.83 6.61-11.88 13.44-11.28l64.91 5.68c6.83.6 11.88 6.62 11.28 13.44l-.7 8.01ZM1540.19 1528.93l-87.6-7.66-1.43 16.3 87.6 7.66 1.43-16.3ZM1447.5 1613.52a54.974 54.974 0 0 1-29.94-18.27c-9.03-10.77-14-24.81-12.68-39.92.84-9.61 9.27-16.54 18.87-15.7l27.22 2.38-1.42 16.3-27.22-2.38c-.6-.05-.98.23-1.04.83-1.54 17.59 9.05 33.32 24.95 39.29l-.14 1.64c-.48 5.48-.03 10.82 1.4 15.83ZM1581.28 1570.76c-1.32 15.11-8.64 28.17-19.41 37.21-8.96 7.51-20.23 12.15-32.49 12.75 2.27-4.68 3.84-9.88 4.32-15.37l.14-1.61c16.29-3.13 29.7-16.78 31.24-34.4.05-.6-.51-.97-1.11-1.02l-26.82-2.35 1.42-16.29 26.82 2.34c9.61.84 16.73 9.14 15.89 18.74ZM1513.41 1594.2c-.33 3.72-6.08 5.49-8.07 8.33-2.06 2.94-1.82 8.92-5.06 10.44-3.15 1.47-7.55-2.51-11.26-2.83-3.71-.33-8.72 2.83-11.57.83-2.93-2.06-1.65-7.91-3.17-11.16-1.47-3.15-6.83-5.89-6.5-9.6.32-3.71 6.07-5.48 8.07-8.32 2.06-2.94 1.81-8.92 5.06-10.44 3.15-1.47 7.54 2.51 11.25 2.83 3.71.33 8.73-2.83 11.57-.84 2.94 2.06 1.66 7.92 3.18 11.16 1.47 3.15 6.82 5.89 6.5 9.6Z" />
        <path fill="#231F20"
            d="M1531.9 1624.61c12.04-1.07 23.27-5.73 32.6-13.56 12.08-10.14 19.48-24.25 20.85-39.94 1.03-11.79-7.76-22.13-19.6-23.16l-22.75-1.99c.04-.41.07-.73.09-.98l1.37-15.67c.2-2.25-1.7-3.9-3.95-4.1l-87.6-7.66c-2.25-.2-4 1.13-4.2 3.38l-1.42 16.3c-.01.05-.19-.07-.23.33l-22.95-2c-11.83-1.04-22.29 7.61-23.32 19.4-1.37 15.66 3.47 30.88 13.61 42.96 7.74 9.23 18.27 15.9 29.84 19.02 2.82 8.35 7.85 15.71 14.64 21.42 3.81 3.19 8.2 5.75 12.56 7.59l-2.15 24.53-1.89-.17c-9.06-.79-17.07 5.73-17.86 14.8l-.35 3.94c-8.97-.71-16.94 5.99-17.73 15l-.7 8.01c-.2 2.25 1.45 4.44 3.7 4.64l89.64 7.84c2.25.2 4.25-1.67 4.44-3.92l.7-8.01c.79-9.02-5.9-17-14.85-17.86l.34-3.94c.79-9.06-5.95-16.88-15.01-17.67l-1.9-.17 2.14-24.5c13.39-2.9 24.98-11.43 31.94-23.86Zm-106.73-64.33 19.95 1.75-2.44 27.84c-10.55-6.08-17.44-17.67-17.51-29.59Zm115.7 10.12 19.66 1.73c-2.13 11.71-10.65 21.95-22.1 26.12l2.44-27.85Zm24.17-14.3c7.34.64 12.8 7 12.16 14.3-1.18 13.51-7.55 25.7-17.96 34.43-6.87 5.77-14.94 9.51-23.61 11.06.9-2.87 1.54-5.83 1.88-8.82 17.22-4.57 30.02-19.47 31.58-37.37.25-2.81-1.89-5.2-4.77-5.45l-22.74-1.99.71-8.15 22.75 1.99Zm-108.57-30.03 79.45 6.95-.71 8.15-79.45-6.95.71-8.15Zm-35.8 66.55c-8.74-10.41-12.91-23.46-11.73-36.94.64-7.3 7.12-12.62 14.45-11.98l23.15 2.03-.71 8.15-23.14-2.03c-2.86-.25-5.28 1.69-5.53 4.55-.83 9.46 1.43 18.61 6.53 26.56 4.39 6.84 10.74 12.32 18.11 15.73 0 .07-.34 4.93.28 8.99a51.248 51.248 0 0 1-21.41-15.06Zm30.75 19.85c-.03-.08.01-.16-.02-.23-.78-2.8-1.61-9.72-1.22-14.2l4.87-55.67 79.45 6.95-4.87 55.67c-.38 4.32-1.7 8.88-3.92 13.98-7.54 14.96-23.01 23.7-39.41 22.26-16.34-1.43-30.38-12.99-34.88-28.76Zm69.68 99.43-.37 4.13-81.48-7.12.36-4.14c.4-4.57 4.43-7.76 9-7.36l64.91 5.68c4.57.4 7.98 4.24 7.58 8.81Zm-14.52-21.8-.36 4.14-48.89-4.28.36-4.14c.4-4.57 4.43-7.76 9-7.36l32.31 2.83c4.57.4 7.98 4.24 7.58 8.81Zm-16.91-17.84-12.23-1.07 1.99-22.75c2.02.44 4.05.76 6.12.94 2.05.18 4.05.21 6.11.14l-1.99 22.74Z" />
        <path fill="#231F20"
            d="M1492.07 1615.46c1.75.79 3.77 1.71 5.91 1.9 1.31.11 2.67-.05 4.03-.69 3.66-1.71 4.7-5.51 5.54-8.56.34-1.24.72-2.64 1.14-3.23.37-.53 1.56-1.36 2.52-2.03 2.49-1.74 5.91-4.13 6.27-8.29.37-4.16-2.58-7.1-4.74-9.25-.82-.83-1.86-1.86-2.13-2.44-.3-.65-.44-2.1-.56-3.38-.29-3.15-.66-7.07-3.97-9.39-3.23-2.27-6.98-1.31-10-.53-1.29.33-2.75.71-3.56.64-.81-.07-2.19-.7-3.4-1.25-2.84-1.29-6.36-2.89-9.94-1.22-3.66 1.71-4.71 5.51-5.54 8.57-.34 1.23-.73 2.64-1.14 3.23-.37.52-1.56 1.36-2.52 2.03-2.5 1.74-5.91 4.13-6.28 8.29-.36 4.15 2.59 7.1 4.74 9.25.83.83 1.86 1.85 2.13 2.44.31.65.44 2.1.56 3.38.3 3.15.66 7.07 3.97 9.39 3.23 2.27 6.99 1.3 10 .53 1.29-.33 2.76-.71 3.57-.64.81.07 2.18.7 3.4 1.25Zm-9-8.54c-.98.25-2.54.66-3.25.63-.29-.66-.44-2.34-.54-3.38-.18-1.95-.39-4.15-1.3-6.09-.88-1.89-2.34-3.35-3.76-4.76-.8-.8-2.12-2.12-2.35-2.75.34-.58 1.86-1.65 2.79-2.3 1.64-1.14 3.34-2.33 4.54-4.03 1.23-1.76 1.81-3.89 2.33-5.77.27-1.01.72-2.64 1.12-3.24.7.1 2.17.76 3.09 1.18 1.81.82 3.86 1.75 6.06 1.95 2.21.19 4.39-.37 6.32-.87.97-.25 2.54-.65 3.25-.63.28.67.44 2.35.54 3.39.18 1.94.38 4.14 1.29 6.09.88 1.88 2.35 3.35 3.76 4.76.81.8 2.13 2.12 2.35 2.75-.33.58-1.86 1.65-2.79 2.29-1.64 1.15-3.33 2.33-4.53 4.04-1.23 1.76-1.82 3.89-2.33 5.77-.28 1.01-.72 2.64-1.12 3.24-.7-.1-2.18-.77-3.09-1.18-1.81-.82-3.86-1.76-6.07-1.95-2.2-.19-4.39.37-6.31.86Z" />
    </g>
    <g clip-path="url(#h)">
        <path fill="#ECF0F1"
            d="m315.397 2673.24 5.227 59.75c.48 5.48-.282 10.84-1.488 15.83-5.076 17.07-19.878 30.17-38.576 31.81-18.669 1.63-35.647-8.66-43.382-24.56-.014-.02-.05-.05-.06-.07a43.112 43.112 0 0 1-3.268-9.31c-.221-.98-.354-1.97-.512-2.98-.158-1-.224-2.03-.314-3.06l-5.227-59.75 87.6-7.66Z" />
        <path fill="#fff" d="m290.692 2780.3-20.373 1.78 2.603 29.74 20.372-1.78-2.602-29.74Z" />
        <path fill="#ECF0F1"
            d="m313.411 2828.81-57.042 4.99-.7-8.01c-.598-6.83 4.453-12.85 11.281-13.44l32.315-2.83c6.828-.6 12.848 4.45 13.445 11.28l.701 8.01Z" />
        <path fill="#fff"
            d="m331.491 2847.76-89.637 7.84-.701-8.01c-.597-6.83 4.453-12.85 11.282-13.45l64.91-5.68c6.828-.59 12.848 4.46 13.445 11.29l.701 8.01ZM313.74 2656.61l-87.599 7.66 1.425 16.3 87.6-7.67-1.426-16.29ZM237.148 2756c-12.273-.59-23.683-5.27-32.65-12.79-10.772-9.04-18.102-22.01-19.425-37.12-.84-9.6 6.255-17.89 15.859-18.73l27.222-2.38 1.426 16.29-27.218 2.39c-.604.05-.928.39-.875 1 1.539 17.59 14.7 31.24 31.395 34.36l.142 1.63c.481 5.49 1.851 10.66 4.124 15.35ZM361.47 2690.66c1.322 15.11-3.612 29.24-12.651 40.01-7.518 8.96-17.818 15.48-29.786 18.2 1.426-5 2.071-10.4 1.591-15.88l-.141-1.62c15.495-5.9 26.333-21.68 24.792-39.29-.053-.61-.671-.87-1.275-.82l-26.82 2.35-1.426-16.3 26.821-2.34c9.603-.84 18.055 6.09 18.895 15.69ZM298.705 2725.53c.324 3.72-5.031 6.46-6.503 9.61-1.518 3.24-.238 9.1-3.173 11.15-2.845 2-7.861-1.16-11.572-.83-3.711.32-8.102 4.3-11.251 2.83-3.248-1.52-3.003-7.5-5.062-10.44-1.996-2.84-7.747-4.61-8.072-8.32-.324-3.71 5.031-6.46 6.503-9.6 1.518-3.25.238-9.1 3.173-11.16 2.845-2 7.861 1.16 11.572.83 3.711-.32 8.102-4.3 11.251-2.83 3.248 1.52 3.003 7.5 5.062 10.44 1.997 2.84 7.747 4.61 8.072 8.32Z" />
        <path fill="#231F20"
            d="M322.193 2752.27c11.673-3.15 21.923-9.69 29.754-19.02 10.135-12.08 14.97-27.26 13.598-42.95-1.032-11.79-11.491-20.44-23.327-19.41l-22.746 1.99-.086-.98-1.37-15.67c-.197-2.25-2.35-3.54-4.6-3.35l-87.6 7.67c-2.25.19-3.746 1.81-3.549 4.06l1.426 16.3c.004.05-.199-.04-.161.37l-22.956 2c-11.831 1.04-20.625 11.37-19.593 23.17 1.37 15.65 8.774 29.8 20.859 39.94 9.228 7.74 20.755 12.48 32.692 13.55 4.226 7.72 10.454 14.1 18.141 18.54 4.306 2.49 9.075 4.24 13.684 5.31l2.145 24.52-1.893.17c-9.064.79-15.815 8.6-15.022 17.67l.345 3.94c-8.957.86-15.649 8.84-14.86 17.86l.701 8.01c.197 2.25 2.202 4.11 4.453 3.92l89.637-7.85c2.25-.19 3.893-2.38 3.696-4.63l-.7-8.01c-.789-9.02-8.766-15.72-17.736-15.01l-.344-3.94c-.793-9.06-8.791-15.58-17.854-14.79l-1.901.16-2.144-24.5c12.685-5.18 22.614-15.59 27.311-29.04Zm-116.279-44.82 19.948-1.74 2.436 27.83c-11.449-4.15-20.245-14.37-22.384-26.09Zm115.697-10.12 19.667-1.72c-.069 11.91-6.679 23.47-17.231 29.57l-2.436-27.85Zm21.32-18.29c7.343-.64 13.827 4.67 14.466 11.98 1.181 13.5-2.98 26.62-11.71 37.02-5.768 6.87-13.059 11.96-21.336 14.99.394-2.98.502-6 .326-9.01 16.161-7.49 26.177-24.39 24.612-42.29-.246-2.81-2.774-4.79-5.645-4.54l-22.746 1.99-.713-8.15 22.746-1.99Zm-112.128-10.72 79.451-6.95.713 8.15-79.451 6.95-.713-8.15Zm-23.707 71.76c-10.41-8.73-16.785-20.87-17.964-34.34-.639-7.3 4.82-13.67 12.156-14.31l23.148-2.02.713 8.15-23.144 2.02c-2.855.25-4.904 2.58-4.654 5.44.827 9.45 4.645 18.07 11.05 25.02 5.503 5.97 12.714 10.27 20.564 12.35.008.07.515 4.91 1.838 8.8a51.233 51.233 0 0 1-23.707-11.11Zm33.73 14.21c-.036-.08-.014-.16-.054-.23-1.257-2.61-3.281-9.29-3.673-13.77l-4.87-55.67 79.451-6.95 4.87 55.67c.378 4.31-.132 9.04-1.432 14.45-4.826 16.04-18.548 27.33-34.945 28.76-16.341 1.43-32.172-7.51-39.347-22.26Zm85.886 85.81.362 4.14-81.488 7.13-.362-4.14c-.4-4.57 3.015-8.41 7.585-8.81l64.911-5.68c4.57-.4 8.592 2.79 8.992 7.36Zm-18.08-18.94.362 4.14-48.893 4.27-.362-4.13c-.4-4.58 3.015-8.42 7.585-8.82l32.316-2.82c4.57-.4 8.592 2.79 8.992 7.36Zm-19.755-14.63-12.223 1.07-1.991-22.75c2.06.08 4.116.04 6.188-.14 2.051-.18 4.021-.49 6.036-.92l1.99 22.74Z" />
        <path fill="#231F20"
            d="M281.376 2750.17c1.868.48 4.018 1.03 6.152.85 1.313-.12 2.619-.51 3.85-1.38 3.31-2.32 3.676-6.24 3.97-9.39.119-1.28.254-2.73.559-3.38.272-.58 1.303-1.61 2.131-2.44 2.155-2.15 5.106-5.09 4.742-9.25-.364-4.16-3.781-6.55-6.277-8.29-.958-.67-2.153-1.51-2.52-2.03-.415-.59-.8-1.99-1.139-3.23-.837-3.06-1.878-6.85-5.541-8.57-3.575-1.67-7.104-.06-9.941 1.22-1.212.55-2.587 1.18-3.398 1.25-.812.07-2.274-.31-3.564-.64-3.015-.77-6.769-1.74-10.001.53-3.311 2.32-3.676 6.24-3.97 9.39-.119 1.28-.254 2.73-.56 3.38-.272.59-1.302 1.61-2.131 2.44-2.154 2.15-5.105 5.09-4.741 9.25.363 4.16 3.781 6.55 6.276 8.29.959.67 2.153 1.51 2.521 2.03.415.59.799 2 1.139 3.23.836 3.06 1.877 6.85 5.54 8.57 3.575 1.67 7.105.07 9.941-1.22 1.213-.55 2.588-1.18 3.399-1.25.811-.07 2.273.31 3.563.64Zm-10.343-6.84c-.916.42-2.387 1.08-3.091 1.18-.397-.6-.843-2.23-1.12-3.24-.516-1.88-1.1-4.01-2.331-5.77-1.197-1.7-2.893-2.89-4.533-4.03-.93-.65-2.457-1.72-2.79-2.3.227-.63 1.546-1.95 2.349-2.75 1.415-1.41 2.88-2.87 3.763-4.76.907-1.94 1.113-4.14 1.294-6.09.097-1.04.253-2.72.54-3.38.71-.03 2.275.38 3.249.63 1.926.49 4.108 1.05 6.313.86 2.205-.19 4.257-1.13 6.067-1.95.916-.41 2.387-1.08 3.091-1.18.397.6.843 2.23 1.12 3.24.516 1.88 1.1 4.01 2.331 5.77 1.197 1.7 2.893 2.89 4.533 4.03.93.65 2.457 1.72 2.79 2.3-.227.63-1.546 1.95-2.348 2.75-1.416 1.41-2.881 2.87-3.764 4.76-.907 1.95-1.112 4.15-1.293 6.09-.098 1.04-.254 2.72-.541 3.39-.71.02-2.275-.38-3.249-.63-1.926-.5-4.107-1.06-6.313-.87-2.206.2-4.257 1.13-6.067 1.95Z" />
    </g>
    <path fill="#010101"
        d="M1212.6 2791.51c-1.82 14.87 8.79 28.46 23.67 30.28l109.74 13.48c1.35.16 2.57-.8 2.74-2.14l.92-7.47c.06-.51-.08-.97-.29-1.39-.03-.05-.01-.11-.03-.15-2.89-4.92-4.05-10.53-3.35-16.23.7-5.71 3.18-10.87 7.17-14.94.04-.04.03-.1.07-.14.31-.36.56-.78.62-1.28l.61-5.03 10.92 1.34c1.35.16 2.58-.79 2.74-2.14l.92-7.47c.06-.51-.08-.97-.29-1.4-.03-.04 0-.1-.03-.14-2.89-4.92-4.05-10.53-3.34-16.24.7-5.7 3.18-10.86 7.16-14.94.04-.03.04-.09.07-.13.31-.36.56-.78.62-1.29l.92-7.46c.16-1.35-.8-2.58-2.14-2.74l-25.51-3.14 2.79-22.73 20.38-6.72-2.06 16.72c-2.87.67-5.17 3.05-5.55 6.14-.49 3.95 2.34 7.56 6.29 8.05 3.96.48 7.57-2.34 8.05-6.29.38-3.09-1.28-5.95-3.91-7.3l2.53-20.57c.05-.43-.04-.83-.19-1.2-.04-.1-.09-.18-.14-.27-.17-.32-.4-.58-.69-.79-.04-.03-.05-.08-.09-.11l-57.92-37.22c-.63-.41-1.41-.5-2.12-.27l-65.2 22.12c-.9.3-1.54 1.1-1.65 2.03-.12.95.32 1.87 1.13 2.37l21.42 13.52-2.79 22.74-4.52-.56c-7.22-.89-14.35 1.08-20.05 5.54-5.71 4.46-9.34 10.9-10.23 18.13-1.13 9.24 2.54 17.98 9.05 23.72-6.58-.37-12.99 1.51-18.2 5.58-5.72 4.46-9.35 10.9-10.24 18.13Zm129.01 13.36-104.93-12.88a2.45 2.45 0 0 0-2.74 2.14c-.17 1.35.79 2.57 2.14 2.74l104.93 12.88c-.19 4.36.5 8.63 2.09 12.63l-104.51-12.83c-8.06-.99-13.82-8.36-12.83-16.43.48-3.91 2.45-7.4 5.53-9.81 3.15-2.43 7.02-3.5 10.9-3.02l104.51 12.83c-2.52 3.5-4.22 7.48-5.09 11.75Zm19.39-47.43-104.94-12.89a2.47 2.47 0 0 0-2.74 2.15c-.16 1.34.79 2.57 2.14 2.73l104.94 12.89c-.2 4.36.49 8.62 2.09 12.63l-104.51-12.83c-8.07-.99-13.83-8.36-12.84-16.43a14.68 14.68 0 0 1 5.54-9.82c3.14-2.42 7.01-3.49 10.89-3.01l104.5 12.83c-2.51 3.5-4.21 7.48-5.07 11.75Zm7.96-30.11a2.308 2.308 0 0 1-2.01-2.57 2.305 2.305 0 0 1 2.57-2c1.27.15 2.17 1.3 2.02 2.57a2.309 2.309 0 0 1-2.58 2Zm-113.82-44.02 59.21-20.08 52.58 33.8-16.96 5.6.86-7.07c.04-.32.01-.63-.07-.93-.02-.1-.08-.19-.12-.29-.07-.18-.15-.36-.26-.51-.07-.1-.17-.18-.25-.27-.12-.12-.25-.25-.4-.35-.11-.07-.23-.12-.35-.17-.11-.05-.19-.12-.3-.15l-8.71-2.51a183.251 183.251 0 0 0-57.84-7.1l-9.06.33c-.11 0-.21.05-.33.07-.13.02-.26.04-.38.08-.17.06-.32.15-.47.24-.11.07-.22.12-.31.2-.15.13-.26.28-.37.43-.07.09-.15.16-.2.26-.15.27-.25.56-.29.88l-.87 7.07-15.11-9.53Zm19.51 13.98 1.09-8.84 6.96-.25c19.05-.71 37.99 1.62 56.31 6.91l6.68 1.93-1.08 8.84-2.98 24.28-69.96-8.59 2.98-24.28Zm-37.78 47.39c.73-5.93 3.7-11.21 8.37-14.85a22.142 22.142 0 0 1 16.43-4.54l6.96.86 74.84 9.18 25.51 3.14-.32 2.58-106.49-13.07c-5.17-.64-10.32.79-14.5 4.01-4.14 3.23-6.76 7.88-7.4 13.1-1.32 10.75 6.35 20.58 17.11 21.9l106.49 13.08-.31 2.59-10.92-1.35-96.39-11.83c-12.19-1.49-20.88-12.62-19.38-24.8Zm5.42 28.04 13.36 1.64 93.94 11.54-.31 2.59-106.49-13.08c-5.17-.63-10.32.79-14.51 4.01-4.13 3.23-6.75 7.88-7.39 13.1-1.33 10.76 6.35 20.58 17.11 21.9l106.49 13.08-.32 2.58-107.3-13.17c-12.19-1.5-20.88-12.63-19.39-24.81.73-5.92 3.71-11.2 8.38-14.84 4.67-3.65 10.51-5.26 16.43-4.54ZM225.99 2125.83c0 1.23.241 2.43.592 3.59a86.415 86.415 0 0 0-3.052 2.07c-15.806-11.16-30.853-14.13-41.472-7.98-9.239 5.34-14.239 16.93-14.239 32.43 0 2.38.205 4.9.441 7.45-11.507 5.25-19.767 11.96-24.105 19.56-.341-.03-.662-.13-1.009-.13-6.893 0-12.502 5.61-12.502 12.5 0 6.87 5.609 12.45 12.502 12.45.332 0 .643-.1.969-.12 4.383 7.6 12.658 14.31 24.145 19.55-.236 2.54-.441 5.07-.441 7.44 0 15.51 5 27.09 14.239 32.44 10.649 6.17 25.691 3.21 41.447-7.97 10.252 7.31 20.163 11.1 28.895 11.07a12.365 12.365 0 0 0 11.05 6.77c6.894 0 12.502-5.6 12.502-12.5 0-2.44-.703-4.72-1.983-6.7 4.338-7.52 6.005-18.02 4.835-30.58 11.488-5.22 19.767-11.93 24.15-19.53.322.03.638.13.969.13 6.869 0 12.452-5.59 12.452-12.45 0-6.9-5.583-12.51-12.452-12.51-.356 0-.667.1-1.019.13-4.373-7.6-12.647-14.3-24.12-19.54 1.797-19.2-3.158-33.73-13.822-39.9-4.379-2.53-9.505-3.47-15.183-2.98-2.029-4.29-6.427-7.15-11.322-7.15-6.884.01-12.467 5.59-12.467 12.46Zm47.377 40.73c-.939 7.02-2.772 14.42-5.463 22.08-2.204-4.92-4.609-9.84-7.401-14.7-2.726-4.75-5.789-9.3-8.992-13.74 7.913 1.52 15.233 3.64 21.856 6.36Zm-.005 57.48c-6.623 2.72-13.943 4.84-21.856 6.35 3.203-4.43 6.266-8.99 8.987-13.73 2.747-4.75 5.162-9.68 7.401-14.67 2.676 7.6 4.534 15.09 5.468 22.05Zm-99.709 0c.984-7.1 2.852-14.59 5.498-22.07 2.244 4.99 4.659 9.94 7.405 14.68 2.727 4.75 5.789 9.3 8.988 13.73-7.913-1.52-15.344-3.67-21.891-6.34Zm82.492-9.89c-3.484 6.07-7.436 11.9-11.693 17.41-6.869.92-13.893 1.42-20.922 1.42-7.009 0-14.028-.51-20.937-1.43a153.57 153.57 0 0 1-11.684-17.41 154.797 154.797 0 0 1-9.218-18.82 155.78 155.78 0 0 1 9.223-18.88c3.485-6.06 7.436-11.9 11.694-17.4 6.833-.92 13.857-1.42 20.922-1.42 7.044 0 14.063.5 20.942 1.42 4.257 5.5 8.194 11.34 11.678 17.4 3.59 6.24 6.663 12.59 9.223 18.88-2.636 6.43-5.713 12.76-9.228 18.83Zm-16.222 22.93c-5.267 6.1-10.83 11.46-16.393 15.77-5.588-4.33-11.141-9.68-16.368-15.77 5.422.55 10.89.92 16.363.92 5.498 0 10.97-.37 16.398-.92Zm-66.27-70.52c6.547-2.68 13.983-4.83 21.896-6.35-3.199 4.43-6.261 8.99-8.993 13.73-2.796 4.86-5.201 9.78-7.4 14.7-2.681-7.64-4.524-15.03-5.503-22.08Zm33.489-13.05c5.262-6.1 10.82-11.45 16.393-15.77 5.588 4.33 11.141 9.69 16.363 15.78-5.408-.55-10.865-.92-16.363-.92-5.518-.01-10.986.36-16.393.91Zm-22.574-25.66c8.576-4.97 21.128-2.4 34.744 6.83-6.677 5.35-13.315 12.03-19.41 19.66-9.66 1.48-18.793 3.91-26.791 7.04-1.215-16.36 2.841-28.53 11.457-33.53Zm-48.903 67.47c0-4.12 3.354-7.48 7.481-7.48.593 0 1.165.07 1.768.23a7.435 7.435 0 0 1 5.663 7.25c0 3.41-2.39 6.43-5.684 7.19a.236.236 0 0 1-.085.02 5.87 5.87 0 0 1-1.662.23c-4.127-.01-7.481-3.34-7.481-7.44Zm13.411 10.88c3.896-2.13 6.522-6.28 6.522-10.88 0-4.67-2.576-8.79-6.482-10.93 3.771-5.89 10.649-11.37 19.787-15.76 1.306 8.52 3.746 17.47 7.371 26.69-3.56 8.92-6.05 18.02-7.366 26.64-9.133-4.39-16.021-9.86-19.832-15.76Zm35.492 56.54c-8.621-4.99-12.672-17.17-11.457-33.53 7.993 3.13 17.121 5.55 26.821 7.03 6.045 7.62 12.677 14.3 19.385 19.66-13.581 9.26-26.138 11.82-34.749 6.84Zm78.877 9.2a7.367 7.367 0 0 1-7.019-5.1c-1.672-4.77 2.134-9.81 7.019-9.81 2.194 0 4.243.92 5.649 2.56a7.245 7.245 0 0 1 1.832 4.87c0 4.12-3.354 7.48-7.481 7.48Zm6.844-17.85c-2.004-1.32-4.358-2.08-6.844-2.08-6.868 0-12.451 5.58-12.451 12.45 0 .23.045.46.06.7-6.949-.36-15.052-3.57-23.347-9.23 6.688-5.35 13.34-12.04 19.451-19.69 9.755-1.49 18.717-3.87 26.776-7.04.763 10.17-.472 18.67-3.645 24.89Zm41.055-58.77c0 4.1-3.334 7.43-7.431 7.43a6.61 6.61 0 0 1-1.752-.24c-3.319-.75-5.729-3.78-5.729-7.19 0-3.46 2.345-6.44 5.764-7.27a6.961 6.961 0 0 1 1.717-.21c4.097 0 7.431 3.36 7.431 7.48Zm-13.411-10.92c-3.941 2.14-6.522 6.25-6.522 10.92 0 4.62 2.656 8.79 6.558 10.9-3.816 5.9-10.71 11.36-19.848 15.74-1.265-8.5-3.695-17.43-7.335-26.64 3.64-9.27 6.07-18.21 7.335-26.69 9.123 4.4 16.007 9.87 19.812 15.77Zm-24.034-23.03c-8.049-3.15-16.996-5.53-26.776-7.02-6.04-7.62-12.673-14.29-19.381-19.66.397-.27.789-.54 1.185-.8.075.08.166.15.246.23.226.26.477.47.723.7.512.5 1.055.94 1.642 1.34.301.2.602.39.919.57.627.34 1.28.62 1.958.86.306.1.597.23.914.31 1.004.26 2.038.43 3.113.43.873 0 1.727-.09 2.555-.26.091-.02.171-.06.261-.08a12.533 12.533 0 0 0 8.802-7.6c.01-.03.015-.06.025-.08.276-.72.497-1.47.638-2.24.045-.26.045-.52.075-.77.06-.48.151-.96.151-1.46 0-.07-.026-.13-.026-.19s.015-.12.015-.19c.257-.01.528-.06.784-.06.467-.02.924-.01 1.38 0 .713.03 1.406.08 2.089.16.437.05.874.1 1.295.18.708.13 1.386.31 2.059.51.351.1.713.18 1.054.31.99.36 1.943.78 2.847 1.3 8.611 4.99 12.683 17.12 11.453 33.51Zm-28.227-37.49c.165.56.251 1.21.251 1.95 0 4.12-3.354 7.48-7.481 7.48-2.782 0-5.312-1.55-6.608-4.07a7.312 7.312 0 0 1-.823-3.41c0-4.1 3.334-7.43 7.431-7.43 3.364 0 6.331 2.24 7.23 5.48Z" />
    <path fill="#010101"
        d="M198.822 2195.3c0 13.62 11.081 24.7 24.693 24.7 13.611 0 24.692-11.08 24.692-24.7 0-13.61-11.076-24.69-24.692-24.69-13.617 0-24.693 11.08-24.693 24.69Zm44.369 0c0 10.85-8.826 19.68-19.671 19.68-10.85 0-19.672-8.83-19.672-19.68 0-10.84 8.827-19.67 19.672-19.67s19.671 8.83 19.671 19.67ZM1489.99 4979.83c0 1.23.24 2.43.59 3.59-1.02.66-2.04 1.35-3.05 2.07-15.81-11.16-30.85-14.13-41.47-7.98-9.24 5.34-14.24 16.93-14.24 32.43 0 2.38.2 4.9.44 7.45-11.51 5.25-19.77 11.96-24.1 19.56-.35-.03-.67-.13-1.01-.13-6.9 0-12.51 5.61-12.51 12.5 0 6.87 5.61 12.45 12.51 12.45.33 0 .64-.1.97-.12 4.38 7.6 12.65 14.31 24.14 19.55-.24 2.54-.44 5.07-.44 7.44 0 15.51 5 27.09 14.24 32.44 10.65 6.17 25.69 3.21 41.44-7.97 10.26 7.31 20.17 11.1 28.9 11.07 2.08 4.11 6.32 6.77 11.05 6.77 6.89 0 12.5-5.6 12.5-12.5 0-2.44-.7-4.72-1.98-6.7 4.34-7.52 6-18.02 4.83-30.58 11.49-5.22 19.77-11.93 24.15-19.53.33.03.64.13.97.13 6.87 0 12.46-5.59 12.46-12.45 0-6.9-5.59-12.51-12.46-12.51-.35 0-.66.1-1.02.13-4.37-7.6-12.64-14.3-24.12-19.54 1.8-19.2-3.15-33.73-13.82-39.9-4.38-2.53-9.5-3.47-15.18-2.98-2.03-4.29-6.43-7.15-11.32-7.15-6.89.01-12.47 5.59-12.47 12.46Zm47.38 40.73c-.94 7.02-2.77 14.42-5.47 22.08-2.2-4.92-4.61-9.84-7.4-14.7-2.72-4.75-5.79-9.3-8.99-13.74 7.91 1.52 15.23 3.64 21.86 6.36Zm-.01 57.48c-6.62 2.72-13.94 4.84-21.85 6.35 3.2-4.43 6.26-8.99 8.98-13.73 2.75-4.75 5.16-9.68 7.4-14.67 2.68 7.6 4.54 15.09 5.47 22.05Zm-99.71 0c.99-7.1 2.85-14.59 5.5-22.07 2.24 4.99 4.66 9.94 7.41 14.68 2.72 4.75 5.79 9.3 8.98 13.73-7.91-1.52-15.34-3.67-21.89-6.34Zm82.5-9.89c-3.49 6.07-7.44 11.9-11.7 17.41-6.87.92-13.89 1.42-20.92 1.42-7.01 0-14.03-.51-20.94-1.43-4.25-5.5-8.19-11.34-11.68-17.41-3.51-6.06-6.59-12.39-9.22-18.82 2.56-6.29 5.63-12.64 9.22-18.88 3.49-6.06 7.44-11.9 11.7-17.4 6.83-.92 13.86-1.42 20.92-1.42 7.04 0 14.06.5 20.94 1.42 4.26 5.5 8.2 11.34 11.68 17.4 3.59 6.24 6.66 12.59 9.22 18.88-2.63 6.43-5.71 12.76-9.22 18.83Zm-16.23 22.93c-5.26 6.1-10.83 11.46-16.39 15.77-5.59-4.33-11.14-9.68-16.37-15.77 5.42.55 10.89.92 16.36.92 5.5 0 10.98-.37 16.4-.92Zm-66.27-70.52c6.55-2.68 13.99-4.83 21.9-6.35-3.2 4.43-6.26 8.99-8.99 13.73-2.8 4.86-5.21 9.78-7.4 14.7-2.69-7.64-4.53-15.03-5.51-22.08Zm33.49-13.05c5.26-6.1 10.82-11.45 16.39-15.77 5.59 4.33 11.15 9.69 16.37 15.78-5.41-.55-10.87-.92-16.37-.92-5.51-.01-10.98.36-16.39.91Zm-22.57-25.66c8.57-4.97 21.13-2.4 34.74 6.83-6.68 5.35-13.31 12.03-19.41 19.66-9.66 1.48-18.79 3.91-26.79 7.04-1.21-16.36 2.84-28.53 11.46-33.53Zm-48.9 67.47c0-4.12 3.35-7.48 7.48-7.48.59 0 1.16.07 1.76.23a7.44 7.44 0 0 1 5.67 7.25c0 3.41-2.39 6.43-5.69 7.2a6.259 6.259 0 0 1-1.74.24c-4.13-.01-7.48-3.34-7.48-7.44Zm13.41 10.88c3.89-2.13 6.52-6.28 6.52-10.88 0-4.67-2.58-8.79-6.48-10.93 3.77-5.89 10.65-11.37 19.78-15.76 1.31 8.52 3.75 17.47 7.37 26.69-3.56 8.92-6.05 18.02-7.36 26.64-9.13-4.39-16.02-9.86-19.83-15.76Zm35.49 56.54c-8.62-4.99-12.67-17.17-11.46-33.53 7.99 3.13 17.12 5.55 26.82 7.03 6.05 7.62 12.68 14.3 19.39 19.66-13.58 9.26-26.14 11.82-34.75 6.84Zm78.88 9.2c-3.2 0-6.01-2.03-7.02-5.1-1.68-4.77 2.13-9.81 7.02-9.81 2.19 0 4.24.93 5.64 2.56a7.252 7.252 0 0 1 1.84 4.87c0 4.12-3.36 7.48-7.48 7.48Zm6.84-17.85c-2-1.32-4.36-2.08-6.84-2.08-6.87 0-12.46 5.58-12.46 12.45 0 .23.05.46.06.7-6.94-.36-15.05-3.57-23.34-9.23 6.68-5.35 13.34-12.04 19.45-19.69 9.75-1.49 18.72-3.87 26.77-7.04.77 10.17-.47 18.67-3.64 24.89Zm41.05-58.77c0 4.1-3.33 7.43-7.43 7.43-.57 0-1.1-.07-1.75-.24-3.32-.75-5.73-3.78-5.73-7.19 0-3.46 2.35-6.44 5.77-7.26.55-.15 1.12-.22 1.71-.22 4.1 0 7.43 3.36 7.43 7.48Zm-13.41-10.92c-3.94 2.14-6.52 6.25-6.52 10.92 0 4.62 2.66 8.79 6.56 10.9-3.82 5.9-10.71 11.36-19.85 15.74-1.26-8.5-3.69-17.43-7.33-26.64 3.64-9.27 6.07-18.21 7.33-26.69 9.12 4.4 16.01 9.87 19.81 15.77Zm-24.03-23.03c-8.05-3.15-17-5.53-26.78-7.02-6.04-7.62-12.67-14.29-19.38-19.66.4-.27.79-.54 1.19-.8.07.08.16.15.24.23.23.26.48.47.73.7.51.5 1.05.94 1.64 1.34.3.2.6.39.92.57.62.34 1.28.62 1.95.86.31.1.6.23.92.31 1 .26 2.04.43 3.11.43.88 0 1.73-.09 2.56-.26.09-.02.17-.06.26-.08 4.03-.94 7.3-3.81 8.8-7.6.01-.03.01-.06.02-.08.28-.72.5-1.47.64-2.24.05-.25.05-.52.08-.77.06-.48.15-.96.15-1.46 0-.07-.03-.13-.03-.19s.02-.12.02-.19c.25-.01.53-.05.78-.06.47-.02.93-.01 1.38.01.72.02 1.41.07 2.09.15.44.05.87.1 1.3.18.7.13 1.38.31 2.06.51.35.1.71.18 1.05.31.99.36 1.94.78 2.85 1.3 8.61 4.99 12.68 17.12 11.45 33.51Zm-28.23-37.49c.17.56.25 1.21.25 1.95 0 4.12-3.35 7.48-7.48 7.48-2.78 0-5.31-1.55-6.61-4.07-.54-1.05-.82-2.2-.82-3.41 0-4.1 3.33-7.43 7.43-7.43 3.37 0 6.33 2.24 7.23 5.48Z" />
    <path fill="#010101"
        d="M1462.82 5049.3c0 13.62 11.08 24.7 24.69 24.7 13.62 0 24.7-11.08 24.7-24.7 0-13.61-11.08-24.69-24.7-24.69-13.61 0-24.69 11.08-24.69 24.69Zm44.37 0c0 10.85-8.83 19.68-19.67 19.68-10.85 0-19.67-8.83-19.67-19.68 0-10.84 8.82-19.67 19.67-19.67 10.84 0 19.67 8.83 19.67 19.67ZM1433.57 2243.26l-3.68-42.11 1.81-.16c4.84-.42 8.44-4.71 8.02-9.55-.43-4.85-4.72-8.44-9.56-8.02l-37.14 3.25c-4.84.42-8.44 4.71-8.02 9.55.42 4.85 4.71 8.45 9.55 8.02l1.81-.16 3.69 42.12c-12.76 7.58-20.17 21.76-18.84 36.95 1.51 15.75 15.98 27.39 32.25 25.97l17.83-1.56c16.27-1.42 28.49-15.41 27.25-31.15l-.03-.36c-1.3-14.87-11.06-27.55-24.94-32.79Zm-44.27-47.41a4.5 4.5 0 0 1 4.09-4.88l37.15-3.25c2.47-.22 4.66 1.62 4.88 4.09a4.515 4.515 0 0 1-4.1 4.89l-3.95.34-29.23 2.56-3.96.35c-2.48.21-4.67-1.63-4.88-4.1Zm36.29 5.68 3.53 40.25c-.17-.04-.33-.06-.5-.1-.23-.05-.47-.1-.71-.14a33.006 33.006 0 0 0-3.75-.61 37.16 37.16 0 0 0-3.5-.23c-.09 0-.19-.01-.27-.01-1.3-.02-2.61.01-3.93.12-1.31.12-2.6.32-3.88.56-.1.02-.2.04-.3.07-1.14.22-2.25.49-3.35.81-.22.06-.43.13-.65.2-.98.3-1.95.65-2.91 1.04-.24.1-.49.19-.74.29-.15.07-.3.12-.45.18l-3.52-40.25 24.93-2.18Zm30.77 74.71-2.12.49c1.06 13.41-9.41 25.32-23.33 26.53l-17.82 1.56c-13.92 1.22-26.29-8.68-27.61-22.38a34.447 34.447 0 0 1 17.88-33.26c7.9-4.39 18.16-5.35 26.79-2.6.23.08.47.12.71.2 13 4.36 22.17 16 23.36 29.64l2.14-.18Z" />
    <path fill="#010101"
        d="M1436.46 2257.45c-.11.03-10.45 3.11-17.67 1-7.99-2.33-19.23 2.96-21.4 4.05a.7.7 0 0 0-.17.09 2.1 2.1 0 0 0-.77.74c-3.16 5.03-4.61 11.07-4.07 17.24 1.07 11.22 11.37 19.53 22.97 18.51l12.34-1.08c11.59-1.01 20.3-10.98 19.4-22.23l-.02-.24a27.538 27.538 0 0 0-8.51-17.58c-.55-.54-1.37-.73-2.1-.5Zm8.46 18.27-2.12.41c.7 8.88-6.24 16.77-15.48 17.58l-12.35 1.08c-9.24.81-17.45-5.75-18.31-14.85-.42-4.79.69-9.68 3.13-13.82 2.42-1.15 11.75-5.29 17.8-3.53 6.88 2.02 15.62.16 18.86-.67 3.63 3.82 5.87 8.74 6.33 13.99l2.14-.19ZM1507.24 2235.38l-2.44-27.92 1.24-.11c4.61-.4 8.03-4.48 7.63-9.09l-.15-1.69c-.4-4.61-4.48-8.03-9.09-7.62l-32.52 2.84c-4.61.4-8.03 4.48-7.63 9.09l.15 1.69c.4 4.61 4.48 8.03 9.09 7.62l.6-.05 2.45 27.93-15.57 53.57a9.75 9.75 0 0 0 1.82 8.91 9.767 9.767 0 0 0 8.39 3.52l53.31-4.67a9.765 9.765 0 0 0 7.67-4.96 9.748 9.748 0 0 0 .19-9.12l-25.14-49.94Zm-38.52-33.19-.15-1.68c-.19-2.24 1.47-4.23 3.71-4.42l32.52-2.85a4.093 4.093 0 0 1 4.42 3.71l.15 1.68c.19 2.25-1.47 4.23-3.71 4.42l-3.39.3-26.38 2.31-2.75.24c-2.24.2-4.22-1.47-4.42-3.71Zm59.69 90.15c-.89 1.61-2.45 2.61-4.27 2.77l-53.32 4.67c-1.81.16-3.51-.56-4.67-1.97a5.335 5.335 0 0 1-1.02-4.96l15.68-53.96c.07-.25.1-.52.08-.79l-2.48-28.33 22.09-1.93 2.48 28.33c.02.27.1.54.22.78l25.31 50.31c.83 1.64.79 3.48-.1 5.08Z" />
    <path fill="#010101"
        d="M1506.2 2258.56c-.02-.05-.06-.07-.09-.11-.1-.21-.23-.41-.41-.57-.03-.03-.07-.04-.09-.06-.09-.07-.2-.11-.3-.17-.18-.11-.37-.2-.58-.25-.05-.01-.1-.06-.15-.07-.07-.01-.12.02-.18.02-.22-.02-.42 0-.64.05-.11.02-.21.03-.31.08-.29.11-.57.27-.79.52-.38.39-3.72 3.8-7.04 1.45-4.96-3.55-10.54-1.08-13.05.94-.1.08-.23.22-.31.31-.23.26-.38.56-.47.88v.01l-6.46 25.63c-.17.68 0 1.4.45 1.93s1.13.81 1.83.75l38.24-3.35c.7-.06 1.32-.46 1.67-1.06.36-.61.39-1.35.1-1.99l-11.42-24.94Zm-25.95 26.78 5.53-21.95c.03-.02.07-.05.11-.07.09-.06.19-.12.29-.18.13-.08.28-.16.43-.23.11-.07.22-.12.35-.18.28-.13.58-.26.91-.38.07-.02.15-.03.21-.05.28-.09.57-.17.87-.22.13-.02.27-.03.4-.05.26-.03.52-.04.79-.03.15 0 .3.01.45.03.28.02.57.08.85.17.14.03.28.06.41.11.42.16.84.36 1.26.66.21.15.43.25.65.38.26.15.52.33.78.45.1.05.2.07.29.11.38.16.76.31 1.14.41.07.02.15.02.22.04.4.09.79.17 1.18.2.07 0 .14-.01.22 0 .39.01.77.02 1.15-.01.01 0 .02-.01.02-.01.72-.06 1.4-.22 2.05-.43.08-.03.16-.05.23-.07.62-.22 1.2-.49 1.75-.8.1-.05.19-.1.28-.16.12-.07.24-.13.35-.2l8.99 19.64-32.16 2.82ZM359.9 3238.14l-200.13 10.49a2.957 2.957 0 0 0-2.789 3.1l7.404 141.27a2.956 2.956 0 0 0 3.097 2.79l77.256-4.05c-.417 1.95-.116 3.98.974 5.75 1.904 3.1 5.399 4.69 9.1 3.45l1.297 24.76a2.94 2.94 0 0 0 1.913 2.6c1.09.41 2.333.13 3.15-.71l7.889-8.16 8.699 7.3c.586.48 1.318.72 2.048.68.395-.02.796-.13 1.159-.31a2.952 2.952 0 0 0 1.63-2.79l-1.298-24.76c1.915.39 3.895.1 5.605-.96 2.544-1.56 4.033-4.36 3.879-7.29-.034-.64-.192-1.3-.415-1.95l77.244-4.05a2.95 2.95 0 0 0 2.789-3.1l-7.404-141.27a2.956 2.956 0 0 0-3.097-2.79Zm-89.155 175.02c-1.18-1-2.939-.9-4.014.21l-5.09 5.26-.878-16.75c1.306 3.06 4.256 5.07 7.635 4.89 3.372-.18 6.097-2.47 7.081-5.67l.878 16.76-5.612-4.7Zm13.068-19.59c-.64.4-1.331.39-2.079-.04a7.909 7.909 0 0 0-3.504-.97 8.222 8.222 0 0 0-.787-.03c-3.773.2-6.829 2.92-7.428 6.58-.426 2.47-3.364 2.61-4.031.23-.992-3.61-4.316-5.99-8.083-5.79-.159.01-.446.05-.738.11-.012 0-.024 0-.035.01h-.006c-.129.02-.25.07-.379.09-.087.03-.21.05-.262.07-.006 0-.005.01-.011.01-.974.22-1.923.59-2.674 1.12-.547.37-.971.51-1.165.53-.712.03-1.479-.41-1.905-1.1-.406-.67-.419-1.36-.046-2.01a6.898 6.898 0 0 0 1.001-3.77c.028-.24.04-.47.031-.63-.192-3.68-2.884-6.73-6.58-7.43-1.46-.25-1.728-1.32-1.76-1.93-.02-.38.031-1.65 1.615-2.06 1.539-.48 2.818-1.42 3.839-2.67.079-.07.157-.15.229-.23.056-.08.136-.12.191-.2.115-.17.157-.38.26-.56.021-.05.054-.1.069-.15.749-1.36 1.19-2.85 1.113-4.32-.08-1.53-.596-3.04-1.404-4.16-.404-.6-.452-.96-.457-1.05-.04-.76.397-1.55 1.083-1.98.669-.41 1.348-.39 1.931-.09 1.27.81 2.759 1.17 4.425 1.09 3.761-.2 6.819-2.89 7.436-6.56.256-1.53 1.43-1.76 1.924-1.78.495-.03 1.687.07 2.109 1.61a7.892 7.892 0 0 0 4.998 5.25c2.441.86 5.136.49 7.186-.96 1.316-.9 2.471-.37 3.089.62.4.64.4 1.31.005 2-.73 1.28-1.085 2.83-1.005 4.36.076 1.45.669 2.86 1.552 4.16.04.09.096.15.142.23.121.17.178.36.316.52.057.07.141.1.198.17.043.04.092.07.142.11 1.128 1.15 2.535 1.98 4.169 2.29.047.01.089.02.125.02 1.493.23 1.677 1.49 1.697 1.86.032.62-.124 1.7-1.589 2.12-3.562 1.07-5.921 4.39-5.728 8.07l.001.02c.002.03.024.1.026.14.013.15.032.29.071.46.004.07.036.13.046.2.007.03.009.06.022.09.146 1.21.566 2.35 1.296 3.32.248.35.401.8.414 1.04.028.76-.402 1.55-1.095 1.97Zm4.163-26.88c-.009-.07-.084-.14-.087-.2-.021-.4.074-.84.241-1.14 1.454-2.56 1.409-5.55-.113-8.02-2.334-3.77-7.278-5.19-11.456-2.36-.769.54-1.569.35-1.876.24-.301-.1-1.027-.44-1.272-1.28-1.016-3.74-4.269-6.12-8.089-5.92-3.82.2-6.812 2.91-7.428 6.71-.18 1.06-1.127 1.59-1.933 1.63-.636.03-.874-.12-1.099-.26-2.59-1.44-5.604-1.38-8.067.15-2.526 1.58-4.009 4.36-3.856 7.28.07 1.35.561 2.71 1.508 4.12.198.27.338.7.359 1.1.003.07-.058.14-.066.21l-46.33 2.43c-1.582-6.77-7.269-11.89-14.161-12.75l-3.92-74.8c6.764-1.58 11.885-7.26 12.751-14.16l135.9-7.12c1.582 6.77 7.268 11.88 14.16 12.75l3.921 74.8c-6.764 1.58-11.885 7.26-12.751 14.16l-46.336 2.43Zm76.384 12.88-72.788 3.81c2.957-1.36 4.833-4.18 4.658-7.53-.072-1.37-.547-2.55-1.188-3.63l42.257-2.21a2.957 2.957 0 0 0 2.789-3.1c-.312-5.94 4.268-11.03 10.207-11.34a2.942 2.942 0 0 0 2.789-3.09l-4.202-80.17a2.942 2.942 0 0 0-3.097-2.79c-5.939.31-11.025-4.27-11.336-10.21a2.957 2.957 0 0 0-3.098-2.79l-141.268 7.4a2.957 2.957 0 0 0-2.789 3.1c.312 5.94-4.268 11.03-10.207 11.34a2.945 2.945 0 0 0-2.789 3.1l4.202 80.16a2.942 2.942 0 0 0 3.097 2.79c5.939-.31 11.025 4.27 11.336 10.21a2.95 2.95 0 0 0 3.098 2.79l42.251-2.21c-.525 1.13-.874 2.36-.802 3.73.176 3.35 2.343 5.97 5.407 7l-72.77 3.82-7.095-135.39 194.243-10.18 7.095 135.39Z" />
    <path fill="#010101"
        d="m207.029 3312.68 24.28-1.27a2.95 2.95 0 0 0 2.789-3.1l-1.272-24.28a2.956 2.956 0 0 0-3.098-2.79l-24.28 1.27a2.956 2.956 0 0 0-2.789 3.1l1.273 24.28a2.938 2.938 0 0 0 3.097 2.79Zm1.671-24.43 18.394-.97.964 18.4-18.394.96-.964-18.39ZM318.02 3276.61l-66.955 3.51a2.957 2.957 0 0 0-2.789 3.1 2.95 2.95 0 0 0 3.098 2.79l66.955-3.51a2.945 2.945 0 0 0 2.789-3.1 2.957 2.957 0 0 0-3.098-2.79ZM319.293 3300.9l-66.955 3.5a2.956 2.956 0 0 0-2.789 3.1 2.942 2.942 0 0 0 3.097 2.79l66.955-3.51a2.944 2.944 0 1 0-.308-5.88ZM320.58 3325.46l-112.572 5.9a2.944 2.944 0 1 0 .308 5.88l112.573-5.9a2.942 2.942 0 0 0 2.789-3.09 2.943 2.943 0 0 0-3.098-2.79ZM266.164 3364.14c-7.299.39-12.933 6.64-12.55 13.94.009.18.044.39.103.62.661 7.08 6.683 12.31 13.835 11.93 7.152-.37 12.595-6.2 12.512-13.31.035-.23.047-.45.038-.63-.383-7.3-6.639-12.93-13.938-12.55Zm1.079 20.6c-4.008.21-7.38-2.75-7.672-6.74-.014-.16-.04-.32-.078-.48a7.375 7.375 0 0 1 6.98-7.49c.994-.05 1.947.1 2.83.41.848.3 1.623.77 2.296 1.34.025.03.06.03.091.06a7.353 7.353 0 0 1 2.507 4.91c-.021.16-.03.33-.028.5.127 3.99-2.917 7.28-6.926 7.49ZM1423.03 3391.71l105.96-7.41c8.48-.59 14.89-7.97 14.3-16.45l-1.65-23.59c-1.84-26.36-23.32-46.54-49.32-47.07l-1.51-21.67c11.98-8.59 18.78-22.82 17.74-37.64l-1.18-16.84 3.66-.26c1.51-.1 2.65-1.41 2.55-2.92l-1.31-18.67 13.67-.95 1 14.34c.1 1.51 1.41 2.65 2.92 2.55a2.742 2.742 0 0 0 2.54-2.93l-1.19-17.08a2.727 2.727 0 0 0-2.92-2.54l-19.13 1.34-92.92 6.49-19.13 1.34a2.742 2.742 0 0 0 .38 5.47l16.4-1.15 1.3 18.67a2.75 2.75 0 0 0 2.93 2.54l3.66-.26 1.18 16.84c1.03 14.82 9.74 27.97 22.75 34.82l1.52 21.67a50.457 50.457 0 0 0-42.29 53.47l1.65 23.6c.59 8.47 7.97 14.88 16.44 14.29Zm56.22-93.9-18.94 1.33-7.64.53-1.29-18.46c5.52 1.99 11.43 2.87 17.37 2.45 5.9-.41 11.62-2.1 16.79-4.84l1.29 18.46-7.58.53Zm-3.09 5.71-4.25 25.41-7.75-24.57 12-.84Zm-56.81-97.83 87.46-6.12 1.11 15.94-3.66.25-80.13 5.61-3.66.25-1.12-15.93Zm9.07 37.79-1.18-16.84 74.67-5.22 1.17 16.83c.94 13.42-5.43 26.33-16.64 33.72-10.73 7.26-25.31 8.26-36.91 2.57-12.08-5.76-20.17-17.66-21.11-31.06Zm-18.02 109.95c-1.69-24.27 15.89-45.38 40.15-48.07.58-.09 1.2-.14 1.79-.17l6.2-.44 11.58 36.71a2.745 2.745 0 0 0 2.8 1.91c1.26-.09 2.3-1.04 2.51-2.28l6.35-37.96 6.15-.43c.6-.03 1.22-.09 1.91-.09 24.29-.7 44.64 17.75 46.33 42.03l1.65 23.59c.39 5.47-3.75 10.22-9.21 10.61l-105.96 7.41c-5.46.38-10.22-3.76-10.6-9.22l-1.65-23.6Z" />
    <path fill="#010101"
        d="m1429.83 3349 23.43-1.64c1.51-.11 2.65-1.42 2.54-2.92a2.742 2.742 0 0 0-2.92-2.55l-23.43 1.64a2.757 2.757 0 0 0-2.55 2.93 2.75 2.75 0 0 0 2.93 2.54ZM206.656 5765.3l105.955 7.41c8.477.59 15.858-5.83 16.45-14.3l1.65-23.6c1.843-26.36-16.62-49.33-42.288-53.47l1.515-21.67c13.062-6.84 21.775-19.99 22.812-34.81l1.177-16.84 3.662.26a2.741 2.741 0 0 0 2.924-2.54l1.305-18.67 13.665.96-1.003 14.34a2.747 2.747 0 0 0 2.541 2.93 2.75 2.75 0 0 0 2.925-2.54l1.194-17.08a2.748 2.748 0 0 0-2.542-2.93l-19.13-1.34-92.919-6.49-19.131-1.34a2.736 2.736 0 0 0-2.924 2.54 2.734 2.734 0 0 0 2.542 2.92l16.398 1.15-1.306 18.67a2.734 2.734 0 0 0 2.542 2.92l3.662.26-1.177 16.83c-1.036 14.82 5.757 29.06 17.69 37.65l-1.515 21.67a50.458 50.458 0 0 0-49.319 47.07l-1.65 23.59c-.593 8.48 5.817 15.85 14.295 16.45Zm68.735-85.16-18.934-1.33-7.641-.53 1.291-18.46c5.191 2.74 10.922 4.43 16.853 4.84 5.908.41 11.803-.46 17.308-2.45l-1.291 18.46-7.586-.53Zm-3.848 5.22-7.749 24.57-4.254-25.41 12.003.84ZM228.9 5580.57l87.453 6.12-1.115 15.93-3.662-.25-80.129-5.61-3.662-.25 1.115-15.94Zm3.721 38.68 1.177-16.83 74.663 5.22-1.177 16.83c-.938 13.42-9.042 25.32-21.177 31.08-11.631 5.69-26.206 4.65-36.91-2.59-11.16-7.39-17.513-20.3-16.576-33.71Zm-33.144 106.38c1.697-24.26 22.047-42.72 46.445-42.02.588-.01 1.211.04 1.801.08l6.199.44 6.353 37.96a2.72 2.72 0 0 0 2.51 2.27c1.263.09 2.422-.7 2.803-1.9l11.574-36.71 6.144.43c.606.06 1.219.09 1.909.19 24.145 2.68 41.728 23.78 40.031 48.06l-1.65 23.59c-.383 5.47-5.137 9.6-10.603 9.22l-105.955-7.41c-5.466-.38-9.599-5.13-9.216-10.6l1.655-23.6Z" />
    <path fill="#010101"
        d="m219.33 5723.95 23.432 1.63a2.735 2.735 0 0 0 2.924-2.54 2.732 2.732 0 0 0-2.542-2.92l-23.432-1.64a2.743 2.743 0 0 0-2.924 2.54 2.749 2.749 0 0 0 2.542 2.93ZM1560.57 4410.63l-200.13-10.49a2.949 2.949 0 0 0-3.09 2.79l-7.41 141.27a2.958 2.958 0 0 0 2.79 3.1l77.26 4.05c-.62 1.89-.53 3.95.36 5.82 1.57 3.28 4.88 5.23 8.69 4.38l-1.29 24.76c-.07 1.17.57 2.27 1.63 2.79 1.04.52 2.3.38 3.2-.38l8.7-7.29 7.89 8.16c.53.55 1.24.86 1.97.9.39.02.8-.04 1.18-.19 1.1-.41 1.85-1.43 1.91-2.6l1.3-24.76c1.87.58 3.86.5 5.67-.37 2.7-1.29 4.47-3.91 4.63-6.84.03-.65-.06-1.32-.21-1.99l77.24 4.05c1.63.08 3.01-1.17 3.1-2.79l7.4-141.27a2.95 2.95 0 0 0-2.79-3.1Zm-106.96 164.74a2.94 2.94 0 0 0-4.01-.21l-5.61 4.7.87-16.75c.98 3.18 3.71 5.48 7.09 5.66 3.37.18 6.32-1.82 7.63-4.89l-.88 16.75-5.09-5.26Zm15.05-18.11c-.68.33-1.37.24-2.07-.26a7.897 7.897 0 0 0-3.38-1.33c-.3-.06-.62-.11-.78-.11-3.77-.2-7.1 2.18-8.08 5.76-.68 2.41-3.61 2.24-4.03-.19-.61-3.69-3.66-6.41-7.43-6.6-.16-.01-.45 0-.75.03h-.04c-.13.01-.25.05-.39.06-.08.01-.21.02-.26.04h-.02c-.99.12-1.97.39-2.77.84-.58.31-1.02.41-1.21.4-.72-.04-1.43-.56-1.78-1.29-.34-.7-.28-1.39.16-2 .82-1.1 1.28-2.32 1.39-3.65.05-.24.09-.46.1-.62.19-3.68-2.17-7-5.77-8.08-1.43-.4-1.58-1.49-1.55-2.1.02-.38.2-1.64 1.82-1.89 1.58-.31 2.95-1.11 4.1-2.24.08-.07.17-.14.25-.21.06-.07.15-.11.21-.18.13-.16.2-.36.32-.53.02-.05.06-.09.08-.14.89-1.28 1.48-2.72 1.56-4.18.08-1.53-.27-3.08-.96-4.28-.34-.65-.35-1.01-.35-1.1.04-.75.56-1.49 1.29-1.85.71-.34 1.38-.25 1.93.11 1.18.94 2.62 1.45 4.29 1.54 3.76.2 7.08-2.15 8.08-5.74.41-1.5 1.6-1.6 2.1-1.57.49.02 1.67.25 1.93 1.82.44 2.5 2.09 4.65 4.42 5.75 2.33 1.11 5.05 1.01 7.24-.2 1.41-.77 2.5-.12 3.01.93.33.67.26 1.35-.2 1.99-.86 1.2-1.38 2.7-1.46 4.23-.07 1.45.37 2.92 1.11 4.3.03.09.08.16.12.25.1.18.14.37.26.55.05.07.13.11.18.18a.8.8 0 0 0 .13.13c1 1.26 2.31 2.23 3.9 2.71.05.02.09.03.12.04 1.47.38 1.52 1.65 1.5 2.03-.03.61-.3 1.67-1.8 1.93-3.66.7-6.35 3.75-6.54 7.43v.02c-.01.04.01.11.01.15-.01.14 0 .28.02.46-.01.07.02.13.02.2.01.04.01.06.02.1.02 1.21.31 2.39.94 3.43.21.38.31.84.3 1.08-.05.76-.56 1.5-1.29 1.85Zm6.95-26.31c-.01-.07-.07-.14-.07-.21.02-.4.16-.82.36-1.1 1.71-2.39 1.98-5.38.73-7.99-1.93-3.99-6.7-5.92-11.15-3.54-.82.45-1.6.18-1.89.04-.29-.13-.98-.55-1.13-1.41-.62-3.82-3.61-6.52-7.43-6.72-3.82-.21-7.08 2.17-8.09 5.89-.29 1.03-1.28 1.46-2.09 1.42-.64-.04-.86-.21-1.07-.37-2.42-1.71-5.42-1.97-8.03-.7-2.68 1.3-4.45 3.92-4.6 6.84-.07 1.35.27 2.75 1.07 4.25.17.29.26.73.24 1.13 0 .07-.07.13-.09.2l-46.33-2.43c-.86-6.89-5.98-12.57-12.75-14.16l3.92-74.79c6.89-.87 12.58-5.98 14.16-12.75l135.9 7.12c.87 6.9 5.99 12.58 12.75 14.16l-3.92 74.8c-6.89.87-12.58 5.98-14.16 12.75l-46.33-2.43Zm74.62 20.8-72.79-3.82c3.08-1.04 5.24-3.65 5.42-7 .07-1.37-.28-2.6-.8-3.73l42.25 2.21c1.63.08 3.01-1.16 3.1-2.79.31-5.94 5.4-10.52 11.34-10.21 1.62.09 3.01-1.16 3.09-2.79l4.2-80.16a2.937 2.937 0 0 0-2.78-3.1c-5.94-.31-10.52-5.4-10.21-11.34a2.964 2.964 0 0 0-2.79-3.1l-141.27-7.4a2.964 2.964 0 0 0-3.1 2.79c-.31 5.94-5.39 10.52-11.33 10.21a2.944 2.944 0 0 0-3.1 2.79l-4.2 80.17a2.935 2.935 0 0 0 2.79 3.09c5.94.31 10.52 5.4 10.21 11.34a2.949 2.949 0 0 0 2.78 3.1l42.26 2.21c-.65 1.08-1.12 2.26-1.19 3.63-.18 3.35 1.7 6.18 4.64 7.53l-72.77-3.81 7.1-135.39 194.24 10.18-7.09 135.39Z" />
    <path fill="#010101"
        d="m1400.75 4468.78 24.28 1.27c1.62.09 3.01-1.16 3.09-2.78l1.28-24.29a2.949 2.949 0 0 0-2.79-3.09l-24.28-1.28a2.958 2.958 0 0 0-3.1 2.79l-1.27 24.28a2.938 2.938 0 0 0 2.79 3.1Zm4.21-24.12 18.4.96-.97 18.39-18.39-.96.96-18.39ZM1514.9 4444.51l-66.95-3.5a2.937 2.937 0 0 0-3.1 2.78 2.938 2.938 0 0 0 2.79 3.1l66.95 3.51a2.95 2.95 0 0 0 .31-5.89ZM1513.63 4468.8l-66.96-3.51a2.934 2.934 0 0 0-3.09 2.78 2.938 2.938 0 0 0 2.79 3.1l66.95 3.51a2.95 2.95 0 0 0 3.1-2.79 2.949 2.949 0 0 0-2.79-3.09ZM1512.34 4493.36l-112.57-5.9a2.944 2.944 0 1 0-.31 5.88l112.57 5.9c1.63.09 3.01-1.16 3.1-2.78a2.938 2.938 0 0 0-2.79-3.1ZM1454.18 4526.14c-7.3-.38-13.56 5.25-13.94 12.55-.01.18 0 .4.04.63-.09 7.11 5.36 12.94 12.51 13.31 7.15.38 13.17-4.85 13.83-11.93.06-.23.1-.44.11-.62.38-7.3-5.25-13.55-12.55-13.94Zm-1.08 20.6c-4.01-.21-7.05-3.51-6.93-7.5.01-.17 0-.33-.02-.49.34-3.93 3.75-6.92 7.72-6.72.99.06 1.93.31 2.77.7.81.39 1.54.94 2.15 1.58.02.03.05.03.08.06a7.38 7.38 0 0 1 1.98 5.15c-.04.16-.06.33-.08.49-.29 3.99-3.66 6.94-7.67 6.73Z" />
    <g fill="#000" clip-path="url(#i)">
        <path
            d="M292.406 3867.89c.468 6.55 5.496 11.91 12.021 12.72 6.525.8 12.702-3.19 14.739-9.43l2.676-8.17c1.029-4.02.344-8.26-1.978-11.69a14.263 14.263 0 0 0-10.078-6.18l-1.912-.24c-4.086-.5-8.194.8-11.276 3.57-3.083 2.76-4.837 6.7-4.77 11.05l.578 8.37Zm8.601-14.47a7.783 7.783 0 0 1 6.124-1.92l1.911.23c2.241.28 4.171 1.45 5.477 3.35 1.247 1.83 1.631 4.15 1.125 6.1l-2.585 7.97c-1.072 3.29-4.264 5.3-7.691 4.88a7.183 7.183 0 0 1-6.283-6.59l-.602-8.17a7.58 7.58 0 0 1 2.524-5.85ZM331.168 3916.74l-1.572-18.26a6.454 6.454 0 0 0-3.512-5.18l-12.418-6.21-10.953 8.56-8.557-10.95-13.551 3.02c-2.132.47-3.932 2.06-4.661 4.17l-5.942 17.34c-.614 1.73.296 3.58 2.027 4.2 1.731.61 3.583-.3 4.197-2.03l5.86-17.21 9.492-2.12 10.06 12.88 12.877-10.06 8.584 4.2 1.571 18.26c.144 1.55 1.399 2.78 2.914 2.96.198.03.462.06.668.02 1.688-.13 3.027-1.77 2.916-3.59ZM191.233 3855.47c.467 6.54 5.495 11.91 12.02 12.71 6.525.8 12.702-3.19 14.74-9.43l2.675-8.17c1.029-4.02.345-8.25-1.977-11.68a14.277 14.277 0 0 0-10.079-6.19l-1.912-.23c-4.086-.5-8.193.8-11.276 3.56-3.083 2.77-4.837 6.7-4.77 11.06l.579 8.37Zm8.6-14.47a7.783 7.783 0 0 1 6.124-1.92l1.911.23c2.241.28 4.171 1.45 5.477 3.35 1.248 1.83 1.632 4.15 1.125 6.09l-2.585 7.98c-1.072 3.28-4.264 5.3-7.691 4.88-3.427-.42-6.028-3.22-6.282-6.59l-.603-8.17c-.128-2.23.872-4.38 2.524-5.85ZM213.209 3882.45l8.584 4.2 1.572 18.26c.143 1.55 1.398 2.78 2.914 2.97.198.02.461.05.667.01 1.828-.18 3.159-1.75 2.982-3.58l-1.572-18.26a6.452 6.452 0 0 0-3.512-5.18l-12.418-6.21-11.026 8.62-8.549-11.02-13.551 3.02c-2.133.47-3.933 2.06-4.661 4.18l-5.942 17.33c-.614 1.73.296 3.58 2.027 4.2 1.731.61 3.582-.3 4.196-2.03l5.794-17.22 9.492-2.11 10.061 12.87 12.942-10.05ZM243.821 3956.26c6.526.8 12.703-3.19 14.74-9.43l2.676-8.17c1.029-4.02.344-8.25-1.978-11.68a14.275 14.275 0 0 0-10.079-6.19l-1.911-.23c-4.087-.51-8.194.8-11.277 3.56-3.082 2.77-4.837 6.7-4.769 11.06l.578 8.36c.467 6.55 5.495 11.92 12.02 12.72Zm-3.485-27.19a7.781 7.781 0 0 1 6.123-1.92l1.912.23c2.241.28 4.171 1.45 5.476 3.35 1.248 1.83 1.632 4.15 1.126 6.09l-2.586 7.98c-1.072 3.28-4.263 5.3-7.69 4.88-3.428-.42-6.028-3.22-6.283-6.59l-.603-8.17a7.58 7.58 0 0 1 2.525-5.85ZM268.917 3974.19a6.454 6.454 0 0 0-3.512-5.18l-12.418-6.2-11.019 8.54-8.557-10.95-13.551 3.02a6.46 6.46 0 0 0-4.661 4.18l-5.942 17.33c-.614 1.74.296 3.59 2.027 4.2 1.731.61 3.583-.3 4.197-2.03l5.794-17.22 9.492-2.11 10.06 12.88 12.877-10.06 8.584 4.2 1.571 18.25c.144 1.56 1.399 2.78 2.914 2.97.198.02.462.06.668.02 1.828-.18 3.159-1.76 2.982-3.59l-1.506-18.25ZM304.641 3926.26c-1.821-.42-3.565.7-3.923 2.53-2.994 13.48-11.04 25.07-22.547 32.69-1.53 1.02-1.912 3.05-.962 4.57.562.87 1.445 1.31 2.367 1.43.725.08 1.549-.08 2.207-.54 12.962-8.57 21.986-21.58 25.387-36.76.351-1.76-.773-3.5-2.529-3.92ZM195.326 3915.85c.021-1.8-1.399-3.32-3.195-3.4-1.804-.02-3.316 1.4-3.403 3.19-.37 15.55 5.231 30.42 15.741 41.81.529.6 1.287.96 2.012 1.05.923.11 1.894-.17 2.65-.88 1.357-1.24 1.41-3.3.172-4.66-9.33-10.11-14.334-23.3-13.977-37.11ZM237.445 3864.89c11.484-2.54 24.139-.98 34.735 4.26.313.18.701.29 1.096.34 1.318.16 2.742-.53 3.365-1.8.804-1.64.173-3.59-1.467-4.39-11.915-5.95-26.086-7.69-39.086-4.8-1.786.38-2.878 2.19-2.487 3.91.251 1.77 2.057 2.86 3.844 2.48Z" />
    </g>
    <g clip-path="url(#j)">
        <path fill="#111918"
            d="M1490.27 502.66a2.969 2.969 0 0 0 3.07 2.863l41.54-1.45a2.97 2.97 0 0 0-.21-5.934l-41.54 1.451a2.963 2.963 0 0 0-2.86 3.07Zm3.48 14.731 41.54-1.45a2.964 2.964 0 0 0 2.86-3.071 2.963 2.963 0 0 0-3.07-2.863l-41.53 1.45a2.98 2.98 0 0 0-2.87 3.071 2.976 2.976 0 0 0 3.07 2.863Zm.42 11.868 41.53-1.451a2.969 2.969 0 1 0-.2-5.933l-41.54 1.45a2.964 2.964 0 0 0-2.86 3.071 2.964 2.964 0 0 0 3.07 2.863Zm.41 11.868 41.54-1.451a2.964 2.964 0 0 0 2.86-3.07 2.964 2.964 0 0 0-3.07-2.864l-41.54 1.451a2.97 2.97 0 0 0-2.86 3.07 2.97 2.97 0 0 0 3.07 2.864Zm-26.91-5.002-1.24-35.603c-.12-3.275-2.87-5.841-6.14-5.727l-5.94.208a5.933 5.933 0 0 0-5.72 6.141l1.24 35.603-5.93.207-.83-23.735c-.12-3.276-2.87-5.841-6.14-5.727l-5.94.207a5.935 5.935 0 0 0-5.72 6.141l.83 23.736-5.94.207-1.03-29.669a5.948 5.948 0 0 0-6.15-5.727l-5.93.207a5.943 5.943 0 0 0-5.73 6.141l1.04 29.67-2.97.103a2.97 2.97 0 0 0 .21 5.934l71.21-2.486a2.97 2.97 0 0 0-.21-5.934l-2.97.103Zm-53.4 1.865-5.94.207-1.03-29.669 5.93-.207 1.04 29.669Zm23.73-.829-5.93.208-.83-23.736 5.93-.207.83 23.735Zm23.74-.828-5.94.207-1.24-35.604 5.94-.207 1.24 35.604Zm80.17-85.976-154.28 5.388c-9.83.343-17.52 8.591-17.18 18.423l3.32 94.942c.34 9.833 8.59 17.524 18.42 17.18l53.4-1.865.63 17.802-8.9.311a2.972 2.972 0 0 0-2.87 3.07 2.97 2.97 0 0 0 3.07 2.864l65.28-2.28a2.97 2.97 0 0 0 2.86-3.07 2.97 2.97 0 0 0-3.07-2.864l-8.9.311-.62-17.801 53.4-1.865c9.83-.344 17.52-8.591 17.18-18.424l-3.31-94.942c-.35-9.832-8.6-17.523-18.43-17.18Zm-54.16 150.419-35.6 1.244-.62-17.802 35.6-1.243.62 17.801Zm69.97-38.089c.23 6.556-4.9 12.053-11.46 12.282l-154.28 5.387c-6.55.229-12.05-4.896-12.28-11.453l-3.32-94.942c-.22-6.557 4.9-12.053 11.46-12.282l154.28-5.388c6.56-.229 12.05 4.896 12.28 11.453l3.32 94.943Z" />
    </g>
    <g clip-path="url(#k)">
        <path fill="#111918"
            d="M1430.72 5647.32a2.964 2.964 0 0 0 2.86 3.07l41.54 1.45a2.97 2.97 0 0 0 3.07-2.86 2.98 2.98 0 0 0-2.86-3.08l-41.54-1.45a2.978 2.978 0 0 0-3.07 2.87Zm2.45 14.94 41.53 1.45c1.64.05 3.02-1.23 3.07-2.87a2.97 2.97 0 0 0-2.86-3.07l-41.54-1.45c-1.63-.06-3.01 1.23-3.07 2.87a2.985 2.985 0 0 0 2.87 3.07Zm-.42 11.86 41.54 1.45c1.64.06 3.01-1.22 3.07-2.86a2.97 2.97 0 0 0-2.86-3.07l-41.54-1.45a2.97 2.97 0 0 0-3.07 2.86 2.957 2.957 0 0 0 2.86 3.07Zm-.41 11.87 41.54 1.45a2.97 2.97 0 0 0 3.07-2.86 2.978 2.978 0 0 0-2.87-3.07l-41.53-1.45a2.972 2.972 0 0 0-3.08 2.86 2.978 2.978 0 0 0 2.87 3.07Zm-26.5-6.86 1.25-35.61c.11-3.27-2.46-6.02-5.73-6.14l-5.93-.21a5.95 5.95 0 0 0-6.15 5.73l-1.24 35.6-5.93-.2.83-23.74c.11-3.27-2.45-6.03-5.73-6.14l-5.93-.21a5.95 5.95 0 0 0-6.15 5.73l-.82 23.73-5.94-.2 1.04-29.67a5.936 5.936 0 0 0-5.73-6.14l-5.93-.21a5.936 5.936 0 0 0-6.14 5.73l-1.04 29.67-2.97-.11c-1.63-.06-3.01 1.23-3.07 2.87a2.985 2.985 0 0 0 2.87 3.07l71.2 2.48c1.64.06 3.02-1.22 3.07-2.86a2.964 2.964 0 0 0-2.86-3.07l-2.97-.1Zm-53.4-1.87-5.94-.21 1.04-29.67 5.93.21-1.03 29.67Zm23.73.83-5.93-.21.83-23.73 5.93.2-.83 23.74Zm23.74.83-5.93-.21 1.24-35.6 5.93.2-1.24 35.61Zm85.97-80.18-154.28-5.38c-9.83-.35-18.08 7.34-18.42 17.18l-3.32 94.94c-.34 9.83 7.35 18.08 17.18 18.42l53.41 1.87-.62 17.8-8.9-.31a2.957 2.957 0 0 0-3.07 2.86 2.964 2.964 0 0 0 2.86 3.07l65.27 2.28c1.64.06 3.02-1.22 3.07-2.86a2.957 2.957 0 0 0-2.86-3.07l-8.9-.31.62-17.8 53.41 1.86c9.83.34 18.08-7.35 18.42-17.18l3.31-94.94c.35-9.83-7.34-18.08-17.18-18.43Zm-64.51 146.28-35.61-1.24.62-17.81 35.61 1.25-.62 17.8Zm72.45-33.12c-.23 6.56-5.73 11.69-12.29 11.46l-154.28-5.39c-6.56-.23-11.68-5.73-11.45-12.28l3.31-94.95c.23-6.55 5.73-11.68 12.29-11.45l154.28 5.39c6.55.23 11.68 5.72 11.45 12.28l-3.31 94.94Z" />
    </g>
    <g fill="#000" clip-path="url(#l)">
        <path
            d="m401.211 4470.1-.161-.03 9.457-67.28 2.736.38a2.435 2.435 0 0 0 2.754-2.08 2.438 2.438 0 0 0-2.075-2.75l-15.189-2.13-42.83-16.04.452-3.22a2.438 2.438 0 1 0-4.829-.67l-.452 3.21-45.592 3.61-15.188-2.13a2.435 2.435 0 0 0-2.754 2.07 2.447 2.447 0 0 0 2.075 2.76l2.736.38-9.456 67.29-.161-.03c-2.752-.38-5.305 1.54-5.692 4.29l-.724 5.15a5.051 5.051 0 0 0 4.289 5.7l56.824 7.98-2.016 14.35-44.043 21.96a2.442 2.442 0 0 0 .751 4.6c.471.07.967 0 1.425-.23l23.744-11.84 16.2 9.81c.079.04.161.09.245.13.011 0 .021 0 .032.01.056.02.113.05.171.07l.094.03a.21.21 0 0 1 .074.02c.102.03.204.05.307.07h.002c.103.01.208.02.313.02h.079c.032 0 .064 0 .096-.01.062 0 .123-.01.185-.02h.034c.092-.01.182-.03.271-.06l18.277-4.96 19.559 17.93c.378.34.835.55 1.306.61.769.11 1.576-.15 2.139-.76.91-1 .843-2.54-.149-3.45l-36.283-33.25 2.016-14.35 56.824 7.99c2.752.38 5.305-1.54 5.692-4.29l.724-5.15c.387-2.75-1.537-5.31-4.289-5.69Zm-68.355 39.02-10.402-6.3 12.138-6.05-1.736 12.35Zm22.352-124.01 21.264 7.97-21.95-3.09.686-4.88Zm-4.829-.67-.686 4.87-21.949-3.08 22.635-1.79Zm-53.198 2.42 7.88 1.11H305.075l92.708 13.03H397.797l7.88 1.11-9.456 67.28-108.497-15.24 9.457-67.29Zm52.238 119.75-11.734 3.19 1.736-12.35 9.998 9.16Zm50.528-26.35a.165.165 0 0 1-.184.14l-118.477-16.65a.172.172 0 0 1-.138-.19l.724-5.15a.164.164 0 0 1 .183-.14l118.477 16.65c.089.02.151.1.139.19l-.724 5.15Z" />
        <path
            d="m396.296 4411.62-25.755-3.62a2.442 2.442 0 0 0-2.754 2.08 2.437 2.437 0 0 0 2.075 2.75l25.756 3.62a2.436 2.436 0 0 0 2.754-2.07 2.443 2.443 0 0 0-2.076-2.76ZM394.848 4421.92l-25.756-3.61a2.433 2.433 0 1 0-.678 4.82l25.756 3.62a2.434 2.434 0 0 0 2.753-2.07 2.447 2.447 0 0 0-2.075-2.76ZM393.401 4432.23l-18.029-2.54a2.45 2.45 0 0 0-2.754 2.08 2.431 2.431 0 0 0 2.075 2.75l18.029 2.54a2.45 2.45 0 0 0 2.754-2.08 2.433 2.433 0 0 0-2.075-2.75ZM391.953 4442.53l-18.03-2.53a2.436 2.436 0 0 0-2.754 2.07 2.448 2.448 0 0 0 2.076 2.76l18.029 2.53a2.436 2.436 0 0 0 2.754-2.08 2.438 2.438 0 0 0-2.075-2.75ZM390.505 4452.83l-18.029-2.53a2.436 2.436 0 0 0-2.754 2.07 2.443 2.443 0 0 0 2.075 2.76l18.03 2.53a2.436 2.436 0 0 0 2.754-2.07 2.443 2.443 0 0 0-2.076-2.76ZM358.874 4453.64l-2.737-.39 5.814-41.37c.587-4.17-2.33-8.04-6.502-8.62-4.172-.59-8.043 2.33-8.629 6.5l-5.814 41.37-5.474-.77 2.919-20.77c.586-4.17-2.331-8.04-6.503-8.63-4.171-.58-8.042 2.33-8.629 6.51l-2.918 20.76-5.473-.77 1.108-7.88c.587-4.18-2.33-8.05-6.502-8.63-4.172-.59-8.043 2.33-8.629 6.5l-1.109 7.89-2.736-.39a2.435 2.435 0 0 0-2.754 2.08 2.437 2.437 0 0 0 2.075 2.75l61.814 8.69a2.435 2.435 0 0 0 2.754-2.08 2.438 2.438 0 0 0-2.075-2.75Zm-48.776-6.86-5.473-.76 1.109-7.89a2.758 2.758 0 0 1 3.121-2.35 2.764 2.764 0 0 1 2.352 3.12l-1.109 7.88Zm20.605 2.9-5.473-.77 2.918-20.76a2.774 2.774 0 0 1 3.122-2.36c1.509.22 2.564 1.62 2.352 3.12l-2.919 20.77Zm20.605 2.9-5.473-.77 5.814-41.37a2.773 2.773 0 0 1 3.121-2.36 2.779 2.779 0 0 1 2.352 3.13l-5.814 41.37Z" />
    </g>
    <g clip-path="url(#m)">
        <path fill="#fff"
            d="M1374.55 3874.72c-1.35.59-2.68 1.13-4 1.62h-.07c-3.15.4-7.6 1.45-10.83 2.17-4.33.97-8.25 3.07-11.47 3.82-2.38.47-4.81.72-7.25.73-3.92 0-13.21-1.5-17.73-2.33l-.71-.13c-1.86 13.26-10.24 53.07-14.77 67.46 1.69.13 4.23.36 7.76.76 2.2.29 4.36.81 6.46 1.54.25.08.5.18.75.27 0 0 22.72 10.52 29.86 15.38 7.85 5.36 41.94 26.24 41.94 26.24 4.22 2.27 8.59 4.26 13.08 5.94 3.56 1.2 7.39 1.35 11.03.42 3.35-1.02 5-3.48 5.16-6l-.08-1.3c3.07 1.3 10 2.51 14.78-1.5 2.17-1.82 3.45-5.95 2.5-8.57l-.21-.84c4.42 2.46 12.27 2.57 16.86-2.96 2.6-3.12 1.92-9.23-2-12.8l.46.3c6.62 2.16 12.73-.89 14.75-4.28 1.93-3.23 2.77-8.57-1.19-12.78 3.75-2.43 8.42-4.82 12.36-7.24 3.15-2 6.42-3.8 9.79-5.4-4.65-16.34-11.9-50.55-13.77-63.3-2.82.66-5.97 1.3-9.62 1.88-4.91.89-48.26-8-60.75-9.34-11.95-.76-22.9 5.84-33.09 10.24Z" />
        <path fill="#fff"
            d="M1338.14 3965.51c1.72-3.96 4.07-7.61 6.97-10.81 1.49-1.85 3.31-3.41 5.37-4.61 1.79-.89 3.8-1.25 5.79-1.06 1.99.2 3.89.95 5.48 2.16 3.13 2.47 4.35 7.15 3.39 11-.95 3.86-8.26 14.79-12.68 17.53a9.972 9.972 0 0 1-4.16 1.29c-1.46.12-2.93-.09-4.31-.61-3.11-1.3-4.69-3.05-6.09-6.12-1.07-2.35-.92-6.05.24-8.77Z" />
        <path fill="#fff"
            d="M1358.76 3976.27c1.33-3.96 3.31-7.67 5.85-10.99 1.3-1.91 2.93-3.56 4.82-4.88 1.66-1 3.57-1.51 5.51-1.49 1.94.03 3.83.6 5.46 1.65 3.22 2.14 4.77 6.56 4.15 10.35-.61 3.79-6.79 14.93-10.84 17.93a9.618 9.618 0 0 1-3.91 1.58c-1.4.23-2.84.14-4.21-.24-3.11-1.02-4.77-2.58-6.37-5.43-1.22-2.18-1.37-5.76-.46-8.48Z" />
        <path fill="#fff"
            d="M1376.53 3990.4c.62-3.44 3.18-9.44 5.93-11.87a8.484 8.484 0 0 1 9.03-1.17c2.89 1.37 4.34 5.43 4.28 8.61-.05 3.19-2.5 10.04-5.47 12.98-.87.8-1.9 1.4-3.03 1.76-1.12.36-2.31.46-3.48.3a8.582 8.582 0 0 1-3.33-1.22 8.494 8.494 0 0 1-2.55-2.48 9.55 9.55 0 0 1-1.38-6.91ZM1318.45 3961.56c-.99-2.57-.18-7.05 1.46-9.06 2.63-3.26 8.45-2.47 11.59-.5 2.31 1.45 5.38 4.71 6.06 6.31 2.08 4.34.03 8.16-1.51 9.34-1.8 1.4-6.22 1.86-8.47 1.5-2.04-.39-3.95-1.3-5.54-2.63-1.6-1.32-2.83-3.03-3.59-4.96ZM1254.1 3854.51c18.48 5.04 49.23 13.07 57.1 15.46-7.59 29.51-13.61 71.04-20.02 87.81-6.46-1.49-26.23-6.57-37.87-9.47M1546.49 3845.36c-18.49 5.04-49.24 13.07-57.11 15.46 7.59 29.51 13.61 71.04 20.02 87.82 6.47-1.5 26.23-6.57 37.88-9.48" />
        <path fill="#fff"
            d="M1482.8 3866.51c2.48-.79 5.29-1.63 7.2-2.18l.25-.07c6.12 24.89 11.24 56.92 16.43 75.83-.23.06-.35.1-.35.1-3.24.98-8.25 1.73-12 2.72-4.21-9.13-16.12-65.12-16.75-74.55 1.7-.72 3.44-1.33 5.22-1.85ZM1294.07 3948.61c5.14-18.97 10.21-50.55 16.26-75.17.16.03.25.04.25.04 3.79 1.09 10.87 3.34 12.25 4.09-.63 9.43-12.37 65.35-16.57 74.49-3.76-.99-8.77-1.74-12.01-2.72l-.35-.1c.06-.21.11-.42.17-.63Z" />
        <path fill="#000"
            d="M1402.69 3897.26c-3.09-.62-6.55.08-9.58.67-1.87.35-3.72.82-5.54 1.4-1.75.57-3.93 1.2-5.29 2.52-.71.8-1.29 1.71-1.7 2.7-.52 1.01-1.02 2.03-1.53 3.04-.91 1.82-1.82 3.65-2.84 5.41a29.78 29.78 0 0 1-7.56 9.07 9.205 9.205 0 0 1-4.91 2.11c-1.68.32-3.42.21-5.05-.32-1.6-.66-3.3-2.17-3.52-3.99-.04-1.08 0-2.17.13-3.25.06-1.32.1-2.64.13-3.96.1-4.15.1-8.31.43-12.45.18-2.18.45-4.35.82-6.5.39-2.3.78-4.76 1.87-6.85 2-3.86 6.11-6.54 10.15-7.86 4.15-1.42 8.2-3.1 12.13-5.02 8.17-3.81 16.75-7.94 25.99-7.62.6.02 1.18.08 1.78.15.22.03.43.06.65.08l.34.05c.15.02.09.01-.16-.02l.29.03c1.11.16 2.23.32 3.34.5 2.81.43 5.61.9 8.41 1.38 6.57 1.12 13.13 2.31 19.7 3.45 6.02 1.05 12.04 2.11 18.08 2.97 2.12.3 4.24.6 6.38.77 1.98.1 3.97-.07 5.92-.49 2.34-.42 4.66-.89 6.98-1.43 2.41-.56 1.39-4.28-1.03-3.72-2.43.57-4.88 1.07-7.34 1.49-.7.13-1.39.23-2.09.35-.71.13.39.02.02 0-.24-.01-.5.03-.75.03-1.72-.05-3.44-.2-5.15-.46l-.77-.1c-.52-.07.27.04-.05-.01l-.41-.06c-.67-.09-1.34-.18-2-.28-1.38-.21-2.75-.42-4.12-.64-3.21-.51-6.41-1.06-9.61-1.61-12.19-2.1-24.35-4.64-36.63-6.14-8.99-1.09-17.92 2.58-25.92 6.24-4.1 1.87-8.14 3.91-12.37 5.49-2.15.69-4.27 1.5-6.34 2.43a22.49 22.49 0 0 0-5.71 4.11c-1.8 1.76-3.17 3.92-4.02 6.29-.75 2.38-1.27 4.83-1.57 7.3-.6 4.35-.93 8.72-.98 13.11-.05 2.18-.08 4.36-.15 6.53-.04 1.32-.09 2.64-.16 3.96-.24 1.79.1 3.62.97 5.2a8.436 8.436 0 0 0 3.86 3.61c1.89.95 3.99 1.38 6.1 1.23 2.13-.01 4.23-.47 6.17-1.34 1.95-1.08 3.71-2.45 5.24-4.06 2.86-2.97 5.24-6.36 7.06-10.06 1.02-1.95 1.99-3.94 2.99-5.91.38-.75.71-1.83 1.41-2.32a9.37 9.37 0 0 1 2.21-1 43.63 43.63 0 0 1 10.88-2.43c.72-.06 1.44-.11 2.16-.12.28 0 .56 0 .84.02.14.01.28.02.43.04-.55-.06-.15-.02-.03.01.49.12 1.01.05 1.46-.2.44-.25.77-.66.91-1.15.13-.49.07-1.02-.19-1.46-.25-.44-.66-.77-1.15-.91h-.01Z" />
        <path fill="#000"
            d="M1401.66 3900.97c.17.07.69.32.05.01.15.07.31.14.46.21.39.18.76.38 1.13.58.89.5 1.76 1.05 2.62 1.6 2.67 1.74 5.26 3.59 7.87 5.43 8.75 6.19 17.58 12.29 26.29 18.54 4.89 3.52 9.73 7.11 14.52 10.77 2.37 1.82 4.72 3.67 7.05 5.55 1.18.95 2.35 1.9 3.52 2.87 1.23.92 2.37 1.94 3.42 3.06a8.739 8.739 0 0 1 1.9 5.06c.08 1.85-.42 3.68-1.45 5.22a8.886 8.886 0 0 1-4.38 3.15c-1.11.4-2.27.64-3.45.7a9.59 9.59 0 0 1-4.28-.53c-.76-.44-1.49-.93-2.18-1.48-.98-.66-1.95-1.33-2.91-2-2.19-1.51-4.38-3.02-6.57-4.54-3.88-2.7-7.75-5.41-11.61-8.13-.44-.26-.97-.33-1.46-.2s-.92.45-1.18.89c-.24.44-.31.96-.18 1.46.13.49.44.91.87 1.17 7.36 5.21 14.76 10.36 22.2 15.44 1.02.73 2.18 1.22 3.41 1.46 1.49.3 3.02.39 4.54.27 2.69-.2 5.28-1.12 7.5-2.65 1.79-1.33 3.19-3.12 4.05-5.18.86-2.05 1.14-4.31.82-6.52-.36-2.61-1.58-5.04-3.45-6.9a81.308 81.308 0 0 0-7.29-6.06c-5.06-4.05-10.21-8-15.45-11.83-9.57-7.05-19.38-13.77-29.08-20.64-3.12-2.21-6.23-4.44-9.39-6.58a41.41 41.41 0 0 0-5.52-3.35c-.45-.21-.9-.4-1.35-.57-.5-.13-1.02-.06-1.47.19-.44.25-.77.67-.91 1.16a1.983 1.983 0 0 0 1.35 2.37h-.01ZM1393.52 3993.91c3.9 2.15 7.94 4.03 12.1 5.62 4.78 1.84 11.15 2.65 15.79-.05 1.22-.7 2.25-1.7 3-2.9.74-1.2 1.18-2.57 1.28-3.98-.01-.51-.21-1-.57-1.36-.36-.36-.85-.56-1.36-.56a1.961 1.961 0 0 0-1.93 1.92c-.18 2.24-2.12 3.76-4.34 4.32-3.03.65-6.17.49-9.11-.5-2.23-.75-4.41-1.64-6.53-2.67-2.16-.99-4.31-2.01-6.39-3.17-2.16-1.21-4.11 2.12-1.94 3.33ZM1322.69 3882.58c5.65 1.17 11.38 1.96 17.14 2.38 2.98.15 5.96-.11 8.87-.77 3.57-.83 6.85-2.61 10.39-3.56 3.74-1.03 7.55-1.82 11.39-2.36.51-.01.99-.22 1.35-.58.36-.36.57-.84.58-1.35 0-.51-.2-1-.57-1.36-.36-.36-.85-.56-1.36-.56-3.48.45-6.91 1.23-10.34 2-3.64.82-6.99 2.28-10.51 3.48-5.3 1.79-10.96 1.26-16.4.5-3.18-.44-6.36-.95-9.52-1.54a1.983 1.983 0 0 0-2.37 1.35c-.13.49-.06 1.02.19 1.46.25.44.67.77 1.16.91Z" />
        <path fill="#000"
            d="M1471.85 3948.76c3.4-2.09 6.93-3.95 10.35-6a111.9 111.9 0 0 1 10.55-5.86c.44-.26.75-.69.88-1.18s.06-1.02-.19-1.46c-.27-.43-.69-.75-1.18-.88-.49-.12-1.01-.06-1.46.19a111.9 111.9 0 0 0-10.55 5.86c-3.41 2.06-6.95 3.91-10.35 6-2.11 1.29-.17 4.63 1.95 3.33ZM1417.61 3967.91c6.69 4.47 13.49 8.77 20.32 13.02a18.84 18.84 0 0 0 5.14 2.45c2 .53 4.09.68 6.14.45 4.47-.53 9.37-2.99 11.16-7.36 1.94-4.74-.13-10.62-4.01-13.73-.37-.35-.86-.54-1.37-.54-.5 0-.99.19-1.36.54-.36.36-.56.85-.56 1.36 0 .51.2 1 .56 1.37 2.78 2.22 4.35 6.03 3.26 9.35-.49 1.45-1.92 2.77-3.45 3.67-1.52.9-3.23 1.43-4.99 1.55-1.77.15-3.55-.08-5.24-.65-1.38-.57-2.7-1.3-3.92-2.16-3.46-2.16-6.9-4.34-10.33-6.55-3.14-2.01-6.3-4.02-9.4-6.1-2.07-1.38-4 1.95-1.95 3.33Z" />
        <path fill="#000"
            d="M1405.12 3981.83c5.51 3.64 11 7.42 16.72 10.72 2.34 1.22 4.94 1.87 7.58 1.91 3.48.23 6.94-.76 9.77-2.8 3.12-2.37 4.89-7.13 3.62-10.93-.78-2.34-4.51-1.34-3.72 1.02a6.636 6.636 0 0 1-2.2 6.85 11.59 11.59 0 0 1-7.98 1.97c-1.16-.09-2.31-.31-3.42-.65a7.75 7.75 0 0 1-.63-.21c-.1-.03-.72-.28-.33-.11-.34-.15-.67-.33-.98-.52-2.61-1.59-5.19-3.22-7.75-4.87a874.95 874.95 0 0 1-8.74-5.71c-2.08-1.37-4.01 1.97-1.94 3.33ZM1307.72 3949.98c4.9.39 9.83.74 14.46 2.51.49.13 1.02.06 1.46-.19.45-.25.77-.67.91-1.16.13-.49.06-1.01-.19-1.45-.25-.45-.67-.77-1.15-.92-4.94-1.89-10.27-2.23-15.49-2.64-.51 0-1 .21-1.36.57-.36.36-.57.85-.57 1.35.01.51.22 1 .57 1.36.36.36.85.56 1.36.57ZM1283.78 3860.49c-9.54-2.55-19.08-5.09-28.61-7.69-.29-.07-.59-.08-.88-.02-.29.06-.56.18-.79.36-.24.18-.43.41-.56.67-.14.27-.21.56-.21.85.01 24.27-.3 48.54-.54 72.81-.07 6.9-.13 13.81-.19 20.71 0 .42.15.83.4 1.16.25.34.61.58 1.02.7 10.48 2.62 20.92 5.46 31.39 8.15 1.95.5 3.9 1 5.86 1.45a1.983 1.983 0 0 0 2.37-1.34c3.52-9.25 5.43-19.17 7.46-28.82 2.66-12.71 5.07-25.47 7.76-38.17 1.47-6.97 3.03-13.93 4.8-20.83a1.983 1.983 0 0 0-1.35-2.37c-9.23-2.79-18.61-5.13-27.93-7.62-2.4-.64-3.42 3.08-1.02 3.72 9.31 2.49 18.7 4.82 27.92 7.62l-1.34-2.37c-3.21 12.53-5.76 25.23-8.29 37.91-2.38 11.9-4.65 23.84-7.53 35.63-1.1 4.84-2.5 9.61-4.19 14.27l2.37-1.35c-9.62-2.23-19.14-4.93-28.7-7.42-2.85-.73-5.7-1.46-8.56-2.18l1.42 1.86c.2-24.86.52-49.72.66-74.58.04-6.31.06-12.62.06-18.94l-2.44 1.86c9.53 2.6 19.08 5.14 28.62 7.69 2.4.64 3.42-3.08 1.02-3.72Z" />
        <path fill="#000"
            d="M1310.07 3875.34c2.31.67 4.61 1.38 6.9 2.13 1.06.35 2.13.7 3.19 1.08.42.15.83.31 1.25.47.49.19-.34-.16.07.03.13.06.25.12.38.18l-.96-1.66c-.04.57-.1 1.15-.17 1.72l-.06.5c-.07.53.06-.42-.02.13-.06.44-.12.87-.19 1.31-.3 2.03-.65 4.06-1.01 6.08-.98 5.54-2.07 11.06-3.2 16.57-2.46 11.99-5.07 23.98-8.18 35.83-.62 2.38-1.27 4.76-2 7.12-.27.89-.55 1.77-.86 2.65-.13.37-.26.74-.41 1.11-.06.16-.13.31-.19.47.16-.42.11-.26-.02.03l2.18-.88c-3.97-1.03-8.07-1.56-12.01-2.73-2.38-.7-3.4 3.02-1.02 3.72 3.93 1.17 8.03 1.69 12 2.72.41.11.85.08 1.24-.08s.72-.44.94-.8a66.5 66.5 0 0 0 3.36-10.41c1.5-5.52 2.83-11.09 4.11-16.66 2.76-11.97 5.31-23.99 7.5-36.07.85-4.07 1.47-8.18 1.87-12.33 0-.33-.08-.66-.25-.96-.17-.29-.41-.53-.71-.7-1.79-.84-3.64-1.53-5.55-2.07-2.37-.78-4.76-1.52-7.15-2.21-2.39-.69-3.41 3.03-1.03 3.71ZM1517.82 3855.06c9.54-2.55 19.09-5.09 28.62-7.69l-2.44-1.86c-.01 24.23.3 48.46.54 72.68.06 6.95.13 13.89.19 20.84l1.41-1.86c-10.49 2.62-20.92 5.47-31.39 8.15-1.95.5-3.9 1-5.86 1.46l2.37 1.34c-3.52-9.24-5.43-19.16-7.46-28.81-2.66-12.71-5.07-25.47-7.76-38.18-1.48-6.96-3.03-13.92-4.8-20.82l-1.34 2.37c9.23-2.79 18.61-5.13 27.92-7.62 2.4-.64 1.38-4.36-1.02-3.72-9.32 2.5-18.7 4.83-27.93 7.62-.49.15-.9.48-1.15.92-.25.44-.32.96-.19 1.46 3.21 12.52 5.75 25.22 8.29 37.9 2.38 11.9 4.64 23.84 7.53 35.64 1.1 4.83 2.5 9.6 4.19 14.27a1.983 1.983 0 0 0 2.37 1.34c9.62-2.23 19.14-4.94 28.7-7.42 2.85-.74 5.7-1.47 8.56-2.18.4-.12.76-.36 1.01-.7.26-.33.4-.74.4-1.16-.2-24.92-.53-49.83-.67-74.75-.04-6.26-.05-12.51-.06-18.77 0-.29-.07-.58-.2-.85-.14-.26-.33-.49-.56-.67a1.998 1.998 0 0 0-1.68-.34c-9.53 2.6-19.07 5.14-28.61 7.69-2.39.64-1.38 4.36 1.02 3.72Z" />
        <path fill="#000"
            d="M1489.49 3862.47c-2.43.7-4.86 1.44-7.27 2.2-1.92.52-3.8 1.19-5.61 2.02-.3.17-.54.41-.71.7-.17.3-.25.63-.25.97.34 3.55.86 7.07 1.58 10.56.99 5.59 2.1 11.15 3.26 16.7 2.51 12.11 5.17 24.21 8.34 36.17 1.08 4.05 2.08 8.26 3.83 12.09.22.37.55.65.94.81.39.16.83.18 1.24.07 3.97-1.03 8.07-1.55 12.01-2.72 2.37-.7 1.36-4.42-1.03-3.71-3.93 1.16-8.03 1.69-12.01 2.72l2.18.88c-.04-.12-.09-.23-.15-.34.35.44.1.26.01 0-.13-.32-.25-.64-.37-.97-.28-.76-.53-1.54-.78-2.31-.63-1.99-1.19-4-1.74-6.01-1.48-5.46-2.81-10.95-4.09-16.46-2.77-11.92-5.35-23.91-7.57-35.96-.44-2.41-.87-4.83-1.25-7.25-.08-.49-.15-.99-.22-1.48l-.09-.62c-.05-.38.05.42-.02-.18-.08-.66-.16-1.33-.21-2l-.96 1.66c.12-.07.23-.12.36-.17-.5.11-.09.04.05-.01.4-.14.79-.29 1.19-.43 1.11-.39 2.23-.75 3.36-1.1 2.32-.74 4.66-1.45 7-2.12 2.38-.69 1.37-4.41-1.02-3.72v.01ZM1339.81 3966.49c1.36-3.17 3.14-6.13 5.29-8.82 1.95-2.39 4.26-5.31 7.3-6.31 1.36-.45 2.81-.57 4.23-.34 1.42.22 2.75.79 3.9 1.65a8.65 8.65 0 0 1 2.25 3.04c.52 1.16.78 2.43.75 3.7.02 1.04-.14 2.07-.49 3.04-.02.08-.21.55-.13.37.06-.15-.14.31-.19.41-.23.49-.47.97-.72 1.44a54.81 54.81 0 0 1-3.87 6.16 42.15 42.15 0 0 1-4.62 5.54c-.37.36-.75.71-1.14 1.04-.07.07-.15.12-.22.18-.25.2.2-.14-.04.04-.18.13-.36.26-.55.38a7.583 7.583 0 0 1-3.88 1.1 8.3 8.3 0 0 1-4.02-.98 8.365 8.365 0 0 1-3.03-2.82 9.852 9.852 0 0 1-1.49-4.56 9.87 9.87 0 0 1 .86-4.73c.14-.49.07-1.01-.18-1.46-.25-.44-.67-.77-1.16-.91-.5-.12-1.02-.05-1.46.2-.44.25-.77.66-.91 1.15-.73 1.74-1.08 3.61-1.04 5.49.05 1.88.49 3.74 1.31 5.43 1.46 3 4.04 5.31 7.19 6.44 1.68.58 3.47.77 5.23.54a11.5 11.5 0 0 0 4.93-1.84 28.22 28.22 0 0 0 5.6-5.69c1.85-2.34 3.55-4.81 5.06-7.38 1.31-2.02 2.23-4.27 2.68-6.64.25-1.74.15-3.52-.29-5.22-.45-1.71-1.23-3.31-2.3-4.71a12.157 12.157 0 0 0-4.3-3.29c-1.67-.75-3.48-1.12-5.31-1.08-4.63.07-8.1 2.74-11.08 6.04-3.1 3.38-5.63 7.25-7.49 11.45-.24.44-.3.96-.18 1.45.13.49.44.92.87 1.19.44.25.97.32 1.46.19.5-.13.92-.44 1.18-.88Z" />
        <path fill="#000"
            d="M1360.62 3976.78c1.07-3.12 2.56-6.09 4.43-8.82 1.66-2.43 3.65-5.31 6.46-6.49 1.21-.55 2.53-.79 3.85-.7 1.33.09 2.61.51 3.72 1.22 1.12.72 2.04 1.7 2.68 2.86.64 1.16.98 2.47.99 3.79.06.94-.04 1.87-.3 2.77-.23.79-.52 1.56-.85 2.31-.99 2.2-2.12 4.33-3.38 6.39a37.25 37.25 0 0 1-3.99 5.58c-.29.32-.58.64-.9.94-.15.15-.31.29-.46.43-.09.08-.18.15-.27.22.24-.19.04-.02-.09.06a7.81 7.81 0 0 1-5.65 1.17 7.799 7.799 0 0 1-4.9-3.04 9.264 9.264 0 0 1-1.76-4.17 9.26 9.26 0 0 1 .42-4.52c.75-2.37-2.97-3.38-3.72-1.02-.58 1.72-.79 3.54-.63 5.34.17 1.81.71 3.56 1.59 5.14 1.61 2.82 4.24 4.91 7.35 5.83 1.7.48 3.49.55 5.23.2 1.73-.34 3.36-1.08 4.76-2.16 1.93-1.7 3.6-3.67 4.94-5.86 1.58-2.34 2.99-4.8 4.22-7.34 1.16-2.12 1.91-4.44 2.23-6.84.12-1.71-.1-3.44-.66-5.06-.55-1.63-1.42-3.14-2.57-4.42a11.647 11.647 0 0 0-4.49-2.92c-1.71-.61-3.53-.82-5.33-.61-2.13.2-4.16.97-5.89 2.23a23.096 23.096 0 0 0-4.5 4.76 40.79 40.79 0 0 0-6.25 11.71c-.8 2.35 2.92 3.36 3.72 1.02Z" />
        <path fill="#000"
            d="M1378.38 3990.92c.38-1.89.98-3.72 1.79-5.46.75-1.82 1.79-3.52 3.08-5.01 2.49-2.64 7.36-2.77 9.32.54 1.95 3.31 1.29 6.64.1 9.99-1.21 3.37-3.1 7.63-7.09 8.15-.99.1-1.99-.03-2.92-.39-.94-.35-1.77-.93-2.44-1.66-.76-.82-1.32-1.8-1.64-2.87a7.184 7.184 0 0 1-.2-3.29c.12-.5.05-1.02-.2-1.46-.25-.44-.66-.77-1.15-.92-.49-.13-1.01-.06-1.46.19-.44.25-.77.67-.91 1.16-.45 2.81-.14 6.03 1.58 8.39 1.49 2.2 3.73 3.77 6.29 4.44 1.42.34 2.9.37 4.34.07 1.43-.29 2.78-.9 3.95-1.77a15.55 15.55 0 0 0 4.28-5.92c2.07-4.39 3.55-9.38 1.71-14.12a9.397 9.397 0 0 0-2-3.39c-.9-.97-1.99-1.74-3.21-2.26-1.34-.51-2.76-.74-4.19-.67-1.42.06-2.82.41-4.11 1.02-2.61 1.23-4.36 3.76-5.68 6.24a29.11 29.11 0 0 0-2.96 7.97c-.12.49-.05 1.01.2 1.46.25.44.66.77 1.15.91.49.13 1.02.07 1.46-.18.45-.26.78-.67.91-1.16ZM1320.3 3961.04c-.5-1.63-.48-3.38.04-5.01.43-1.55 1.01-2.71 2.43-3.35 2.6-1.18 6.28-.21 8.57 1.54 2.72 2.08 5.77 5.16 5.09 8.9-.14.75-.41 1.47-.81 2.12-.26.47-.65.86-1.12 1.12-1.49.66-3.09.99-4.72.98-1.87.11-3.73-.38-5.3-1.41a10.553 10.553 0 0 1-4.17-4.88 1.983 1.983 0 0 0-2.37-1.35c-.49.14-.91.47-1.16.91-.26.44-.32.97-.19 1.46 1.94 4.85 6.36 8.67 11.68 9.09 2.31.19 4.62-.11 6.81-.87 1.02-.36 1.96-.94 2.73-1.7.78-.76 1.39-1.68 1.78-2.7.54-1.34.79-2.77.74-4.22-.05-1.44-.39-2.86-1.02-4.16a16.54 16.54 0 0 0-4.2-5.13c-3.4-3.06-8.15-4.94-12.73-3.63a8.081 8.081 0 0 0-3.37 1.96c-.95.91-1.65 2.05-2.06 3.3a12.189 12.189 0 0 0-.36 8.06 1.983 1.983 0 0 0 2.37 1.35 1.933 1.933 0 0 0 1.34-2.38ZM1433.66 3947.03l-.06-.04.39.3c-.45-.35-.86-.77-1.21-1.22l.3.39c-.62-.83-1.13-1.73-1.52-2.69l.19.46c-.18-.44-.34-.88-.48-1.34-.14-.48-.45-.89-.88-1.15-.33-.19-.71-.28-1.1-.26-.38.02-.75.16-1.05.4-.3.23-.53.55-.65.91-.12.37-.14.76-.03 1.13.32 1.06.75 2.09 1.29 3.07.36.64.77 1.26 1.24 1.83.47.59 1.02 1.1 1.62 1.54.23.13.47.22.73.25.25.03.51.01.76-.05.24-.07.47-.19.67-.34.2-.16.37-.35.49-.57.13-.22.21-.46.24-.71.03-.26.01-.51-.05-.75l-.2-.46c-.17-.29-.4-.53-.69-.7Z" />
    </g>
    <defs>
        <clipPath id="a">
            <path fill="#fff" d="M158 543.303 298.954 492l51.303 140.954-140.954 51.303z" />
        </clipPath>
        <clipPath id="b">
            <path fill="#fff" d="M1334 921.806 1497.525 849l72.805 163.525-163.524 72.806z" />
        </clipPath>
        <clipPath id="c">
            <path fill="#fff" d="m249.806 4931 163.525 72.806-72.806 163.524L177 5094.525z" />
        </clipPath>
        <clipPath id="d">
            <use xlink:href="#reuse-2" />
        </clipPath>
        <clipPath id="e">
            <use xlink:href="#reuse-2" />
        </clipPath>
        <clipPath id="f">
            <path fill="#fff" d="m164 1542.6 190.548-33.599 33.6 190.549-190.55 33.598z" />
        </clipPath>
        <clipPath id="g">
            <path fill="#fff" d="m1397.1 1512.67 199.239 17.431-17.431 199.24-199.24-17.432z" />
        </clipPath>
        <clipPath id="h">
            <path fill="#fff" d="m170 2665.43 199.239-17.431 17.431 199.239-199.239 17.43z" />
        </clipPath>
        <clipPath id="i">
            <path fill="#fff" d="m174.791 3821 168.733 20.718-20.718 168.733-168.733-20.718z" />
        </clipPath>
        <clipPath id="j">
            <path fill="#fff" d="m1369 432.631 189.884-6.63 6.631 189.883-189.884 6.631z" />
        </clipPath>
        <clipPath id="k">
            <path fill="#fff" d="m1314.63 5569 189.884 6.63-6.63 189.885-189.885-6.63z" />
        </clipPath>
        <clipPath id="l">
            <path fill="#fff" d="m279.748 4363.73 149.062 20.95-20.95 149.061-149.061-20.949z" />
        </clipPath>
        <clipPath id="m">
            <path fill="#fff" d="M1252 3775h296.582v296.582H1252z" />
        </clipPath>
    </defs>
</svg>