<svg width="1718" height="1777" viewBox="0 0 1718 1777" fill="none" xmlns="http://www.w3.org/2000/svg">
    <rect width="1718" height="1777" fill="white" />
    <g clip-path="url(#clip0_55_1624)">
        <path
            d="M214.005 427.756C212.98 426.92 211.472 427.073 210.637 428.097L190.115 453.241C189.582 453.894 189.431 454.78 189.72 455.573C190.008 456.365 190.693 456.948 191.521 457.105L223.404 463.175C223.843 463.259 224.277 463.217 224.668 463.074C225.435 462.795 226.039 462.131 226.203 461.272C226.45 459.973 225.598 458.72 224.299 458.473L196.364 453.154L214.345 431.124C215.181 430.1 215.029 428.592 214.005 427.756Z"
            fill="black" fill-opacity="0.15" />
        <path
            d="M266.802 446.495C267.48 447.048 268.37 447.168 269.136 446.889C269.528 446.747 269.887 446.5 270.17 446.154L290.691 421.01C291.225 420.357 291.375 419.471 291.086 418.678C290.798 417.886 290.113 417.303 289.285 417.146L257.402 411.076C256.104 410.828 254.85 411.681 254.603 412.979C254.356 414.278 255.209 415.531 256.507 415.778L284.442 421.097L266.461 443.127C265.625 444.151 265.777 445.659 266.802 446.495Z"
            fill="black" fill-opacity="0.15" />
        <path
            d="M242.879 417.13L233.279 455.972C232.962 457.256 233.745 458.553 235.028 458.871C235.508 458.989 235.988 458.954 236.42 458.797C237.144 458.533 237.728 457.925 237.927 457.121L247.527 418.279C247.844 416.995 247.061 415.698 245.778 415.38C244.494 415.064 243.196 415.847 242.879 417.13Z"
            fill="black" fill-opacity="0.15" />
        <path
            d="M282.161 339.566L145.705 389.232C144.463 389.684 143.823 391.058 144.275 392.3L189.028 515.26C189.481 516.502 190.854 517.143 192.096 516.69L328.552 467.025C329.794 466.573 330.434 465.199 329.982 463.957L321.25 439.965C320.798 438.722 319.424 438.082 318.182 438.534C316.939 438.986 316.299 440.36 316.751 441.602L324.665 463.345L192.708 511.373L156.141 410.906L288.098 362.878L313.477 432.605C313.929 433.847 315.302 434.488 316.545 434.036C317.787 433.583 318.427 432.21 317.975 430.968L285.229 340.997C284.776 339.755 283.403 339.114 282.161 339.566ZM149.592 392.912L232.815 362.621L237.727 376.117L154.504 406.408L149.592 392.912ZM242.225 374.48L237.313 360.984L281.549 344.884L286.461 358.379L242.225 374.48Z"
            fill="black" fill-opacity="0.15" />
        <path
            d="M261.089 357.255C259.766 357.737 259.081 359.205 259.563 360.528C260.044 361.85 261.512 362.535 262.835 362.054C264.158 361.572 264.843 360.104 264.361 358.781C263.88 357.458 262.412 356.774 261.089 357.255Z"
            fill="black" fill-opacity="0.15" />
        <path
            d="M248.793 361.731C247.47 362.212 246.785 363.68 247.267 365.003C247.748 366.326 249.216 367.01 250.539 366.529C251.862 366.047 252.547 364.579 252.065 363.256C251.584 361.934 250.116 361.249 248.793 361.731Z"
            fill="black" fill-opacity="0.15" />
        <path
            d="M273.385 352.78C272.062 353.261 271.377 354.729 271.859 356.052C272.34 357.375 273.808 358.06 275.131 357.578C276.454 357.097 277.139 355.629 276.657 354.306C276.176 352.983 274.707 352.298 273.385 352.78Z"
            fill="black" fill-opacity="0.15" />
    </g>
    <g clip-path="url(#clip1_55_1624)">
        <path
            d="M1488.27 736.336L1346.99 799.235C1340.86 801.966 1338.09 809.179 1340.82 815.313L1365.98 871.823C1368.71 877.957 1375.93 880.726 1382.06 877.995L1523.34 815.096C1529.47 812.365 1532.24 805.152 1529.51 799.017L1504.35 742.508C1501.62 736.373 1494.4 733.604 1488.27 736.336ZM1524.21 801.376C1525.64 804.589 1524.19 808.367 1520.98 809.798L1379.7 872.697C1376.49 874.128 1372.71 872.678 1371.28 869.464L1346.12 812.955C1344.69 809.741 1346.14 805.963 1349.35 804.533L1490.63 741.633C1493.84 740.203 1497.62 741.653 1499.05 744.866L1524.21 801.376Z"
            fill="black" fill-opacity="0.15" />
        <path
            d="M1476.7 809.199L1408.89 839.391C1407.42 840.042 1406.76 841.756 1407.42 843.219C1408.07 844.682 1409.78 845.34 1411.24 844.688L1479.06 814.497C1480.52 813.845 1481.18 812.132 1480.53 810.668C1479.87 809.205 1478.16 808.548 1476.7 809.199Z"
            fill="black" fill-opacity="0.15" />
        <path
            d="M1397.58 844.422L1391.93 846.938C1390.47 847.59 1389.81 849.303 1390.46 850.767C1391.12 852.23 1392.83 852.888 1394.29 852.236L1399.94 849.72C1401.41 849.069 1402.06 847.355 1401.41 845.892C1400.76 844.429 1399.05 843.771 1397.58 844.422Z"
            fill="black" fill-opacity="0.15" />
        <path
            d="M1380.63 851.97L1374.98 854.486C1373.52 855.138 1372.86 856.851 1373.51 858.315C1374.16 859.778 1375.88 860.435 1377.34 859.784L1382.99 857.268C1384.45 856.617 1385.11 854.903 1384.46 853.44C1383.81 851.977 1382.09 851.319 1380.63 851.97Z"
            fill="black" fill-opacity="0.15" />
        <path
            d="M1510.6 794.103L1504.95 796.619C1503.49 797.27 1502.83 798.984 1503.48 800.447C1504.13 801.911 1505.85 802.568 1507.31 801.917L1512.96 799.401C1514.43 798.75 1515.08 797.036 1514.43 795.573C1513.78 794.109 1512.07 793.452 1510.6 794.103Z"
            fill="black" fill-opacity="0.15" />
        <path
            d="M1493.65 801.651L1488 804.167C1486.54 804.818 1485.88 806.532 1486.53 807.995C1487.18 809.458 1488.9 810.116 1490.36 809.465L1496.01 806.949C1497.47 806.297 1498.13 804.584 1497.48 803.121C1496.83 801.657 1495.11 801 1493.65 801.651Z"
            fill="black" fill-opacity="0.15" />
        <path
            d="M1505.57 782.801L1494.27 787.833C1492.81 788.484 1492.15 790.198 1492.8 791.661C1493.45 793.125 1495.16 793.782 1496.63 793.131L1507.93 788.099C1509.39 787.448 1510.05 785.734 1509.4 784.271C1508.75 782.807 1507.03 782.15 1505.57 782.801Z"
            fill="black" fill-opacity="0.15" />
        <path
            d="M1486.8 794.335C1486.14 792.871 1484.43 792.214 1482.97 792.865L1477.32 795.381C1475.85 796.032 1475.2 797.746 1475.85 799.209C1476.5 800.672 1478.21 801.33 1479.68 800.679L1485.33 798.163C1486.79 797.511 1487.45 795.798 1486.8 794.335Z"
            fill="black" fill-opacity="0.15" />
        <path
            d="M1462.72 808.227L1468.37 805.711C1469.84 805.059 1470.49 803.346 1469.84 801.882C1469.19 800.419 1467.48 799.762 1466.01 800.413L1460.36 802.929C1458.9 803.58 1458.24 805.294 1458.89 806.757C1459.55 808.22 1461.26 808.878 1462.72 808.227Z"
            fill="black" fill-opacity="0.15" />
        <path
            d="M1445.77 815.775L1451.42 813.259C1452.88 812.607 1453.54 810.894 1452.89 809.43C1452.24 807.967 1450.52 807.31 1449.06 807.961L1443.41 810.477C1441.95 811.128 1441.29 812.842 1441.94 814.305C1442.59 815.768 1444.31 816.426 1445.77 815.775Z"
            fill="black" fill-opacity="0.15" />
        <path
            d="M1428.82 823.322L1434.47 820.807C1435.93 820.155 1436.59 818.442 1435.94 816.978C1435.29 815.515 1433.57 814.857 1432.11 815.509L1426.46 818.025C1425 818.676 1424.34 820.39 1424.99 821.853C1425.64 823.316 1427.35 823.974 1428.82 823.322Z"
            fill="black" fill-opacity="0.15" />
        <path
            d="M1411.86 830.87L1417.51 828.354C1418.98 827.703 1419.64 825.989 1418.98 824.526C1418.33 823.063 1416.62 822.405 1415.16 823.057L1409.5 825.573C1408.04 826.224 1407.38 827.938 1408.04 829.401C1408.69 830.864 1410.4 831.522 1411.86 830.87Z"
            fill="black" fill-opacity="0.15" />
        <path
            d="M1398.2 830.605L1392.55 833.121C1391.09 833.772 1390.43 835.486 1391.08 836.949C1391.73 838.412 1393.45 839.07 1394.91 838.418L1400.56 835.902C1402.02 835.251 1402.68 833.537 1402.03 832.074C1401.38 830.611 1399.67 829.953 1398.2 830.605Z"
            fill="black" fill-opacity="0.15" />
        <path
            d="M1381.25 838.152L1369.95 843.184C1368.49 843.836 1367.83 845.549 1368.48 847.013C1369.13 848.476 1370.84 849.134 1372.31 848.482L1383.61 843.45C1385.07 842.799 1385.73 841.085 1385.08 839.622C1384.43 838.159 1382.71 837.501 1381.25 838.152Z"
            fill="black" fill-opacity="0.15" />
        <path
            d="M1495.51 760.197L1484.21 765.229C1482.74 765.881 1482.08 767.594 1482.74 769.058C1483.39 770.521 1485.1 771.178 1486.56 770.527L1497.87 765.495C1499.33 764.844 1499.99 763.13 1499.34 761.667C1498.68 760.204 1496.97 759.546 1495.51 760.197Z"
            fill="black" fill-opacity="0.15" />
        <path
            d="M1469.61 778.075L1475.26 775.559C1476.72 774.908 1477.38 773.194 1476.73 771.731C1476.08 770.267 1474.37 769.61 1472.9 770.261L1467.25 772.777C1465.79 773.429 1465.13 775.142 1465.78 776.605C1466.43 778.069 1468.15 778.726 1469.61 778.075Z"
            fill="black" fill-opacity="0.15" />
        <path
            d="M1452.66 785.623L1458.31 783.107C1459.77 782.456 1460.43 780.742 1459.78 779.279C1459.13 777.815 1457.41 777.158 1455.95 777.809L1450.3 780.325C1448.84 780.976 1448.18 782.69 1448.83 784.153C1449.48 785.617 1451.2 786.274 1452.66 785.623Z"
            fill="black" fill-opacity="0.15" />
        <path
            d="M1435.71 793.171L1441.36 790.655C1442.82 790.003 1443.48 788.29 1442.83 786.827C1442.17 785.363 1440.46 784.706 1439 785.357L1433.35 787.873C1431.88 788.524 1431.23 790.238 1431.88 791.701C1432.53 793.164 1434.24 793.822 1435.71 793.171Z"
            fill="black" fill-opacity="0.15" />
        <path
            d="M1418.75 800.719L1424.4 798.203C1425.87 797.551 1426.52 795.838 1425.87 794.374C1425.22 792.911 1423.51 792.254 1422.04 792.905L1416.39 795.421C1414.93 796.072 1414.27 797.786 1414.92 799.249C1415.58 800.712 1417.29 801.37 1418.75 800.719Z"
            fill="black" fill-opacity="0.15" />
        <path
            d="M1401.8 808.267L1407.45 805.751C1408.91 805.099 1409.57 803.386 1408.92 801.922C1408.27 800.459 1406.55 799.802 1405.09 800.453L1399.44 802.969C1397.98 803.62 1397.32 805.334 1397.97 806.797C1398.62 808.26 1400.34 808.918 1401.8 808.267Z"
            fill="black" fill-opacity="0.15" />
        <path
            d="M1384.85 815.814L1390.5 813.299C1391.96 812.647 1392.62 810.934 1391.97 809.47C1391.32 808.007 1389.6 807.349 1388.14 808.001L1382.49 810.517C1381.03 811.168 1380.37 812.882 1381.02 814.345C1381.67 815.808 1383.38 816.466 1384.85 815.814Z"
            fill="black" fill-opacity="0.15" />
        <path
            d="M1362.24 825.878L1373.54 820.846C1375.01 820.195 1375.67 818.481 1375.01 817.018C1374.36 815.555 1372.65 814.897 1371.19 815.549L1359.88 820.581C1358.42 821.232 1357.76 822.946 1358.41 824.409C1359.07 825.872 1360.78 826.53 1362.24 825.878Z"
            fill="black" fill-opacity="0.15" />
        <path
            d="M1500.54 771.499L1494.89 774.015C1493.43 774.667 1492.77 776.38 1493.42 777.843C1494.07 779.307 1495.78 779.964 1497.25 779.313L1502.9 776.797C1504.36 776.146 1505.02 774.432 1504.37 772.969C1503.72 771.506 1502 770.848 1500.54 771.499Z"
            fill="black" fill-opacity="0.15" />
        <path
            d="M1483.59 779.047L1477.94 781.563C1476.47 782.214 1475.81 783.928 1476.47 785.391C1477.12 786.855 1478.83 787.512 1480.29 786.861L1485.94 784.345C1487.41 783.694 1488.07 781.98 1487.41 780.517C1486.76 779.053 1485.05 778.396 1483.59 779.047Z"
            fill="black" fill-opacity="0.15" />
        <path
            d="M1466.63 786.595L1460.98 789.111C1459.52 789.762 1458.86 791.476 1459.51 792.939C1460.16 794.403 1461.88 795.06 1463.34 794.409L1468.99 791.893C1470.46 791.242 1471.11 789.528 1470.46 788.065C1469.81 786.601 1468.1 785.944 1466.63 786.595Z"
            fill="black" fill-opacity="0.15" />
        <path
            d="M1449.68 794.143L1444.03 796.659C1442.57 797.31 1441.91 799.024 1442.56 800.487C1443.21 801.95 1444.93 802.608 1446.39 801.957L1452.04 799.441C1453.5 798.789 1454.16 797.076 1453.51 795.612C1452.86 794.149 1451.14 793.492 1449.68 794.143Z"
            fill="black" fill-opacity="0.15" />
        <path
            d="M1432.73 801.691L1427.08 804.207C1425.61 804.858 1424.96 806.572 1425.61 808.035C1426.26 809.498 1427.97 810.156 1429.44 809.505L1435.09 806.989C1436.55 806.337 1437.21 804.624 1436.56 803.16C1435.9 801.697 1434.19 801.04 1432.73 801.691Z"
            fill="black" fill-opacity="0.15" />
        <path
            d="M1415.77 809.239L1410.12 811.755C1408.66 812.406 1408 814.12 1408.65 815.583C1409.31 817.046 1411.02 817.704 1412.48 817.053L1418.13 814.537C1419.6 813.885 1420.25 812.172 1419.6 810.708C1418.95 809.245 1417.24 808.587 1415.77 809.239Z"
            fill="black" fill-opacity="0.15" />
        <path
            d="M1398.82 816.787L1393.17 819.303C1391.71 819.954 1391.05 821.668 1391.7 823.131C1392.35 824.594 1394.07 825.252 1395.53 824.6L1401.18 822.084C1402.64 821.433 1403.3 819.719 1402.65 818.256C1402 816.793 1400.28 816.135 1398.82 816.787Z"
            fill="black" fill-opacity="0.15" />
        <path
            d="M1367.28 837.18L1384.23 829.632C1385.69 828.981 1386.35 827.267 1385.7 825.804C1385.05 824.341 1383.33 823.683 1381.87 824.335L1364.92 831.882C1363.45 832.534 1362.8 834.248 1363.45 835.711C1364.1 837.174 1365.81 837.832 1367.28 837.18Z"
            fill="black" fill-opacity="0.15" />
        <path
            d="M1490.48 748.895L1484.82 751.411C1483.36 752.063 1482.7 753.776 1483.36 755.24C1484.01 756.703 1485.72 757.36 1487.18 756.709L1492.83 754.193C1494.3 753.542 1494.96 751.828 1494.3 750.365C1493.65 748.902 1491.94 748.244 1490.48 748.895Z"
            fill="black" fill-opacity="0.15" />
        <path
            d="M1473.52 756.443L1467.87 758.959C1466.41 759.611 1465.75 761.324 1466.4 762.788C1467.05 764.251 1468.77 764.908 1470.23 764.257L1475.88 761.741C1477.34 761.09 1478 759.376 1477.35 757.913C1476.7 756.45 1474.99 755.792 1473.52 756.443Z"
            fill="black" fill-opacity="0.15" />
        <path
            d="M1456.57 763.991L1450.92 766.507C1449.46 767.159 1448.8 768.872 1449.45 770.335C1450.1 771.799 1451.81 772.456 1453.28 771.805L1458.93 769.289C1460.39 768.638 1461.05 766.924 1460.4 765.461C1459.75 763.998 1458.03 763.34 1456.57 763.991Z"
            fill="black" fill-opacity="0.15" />
        <path
            d="M1436.32 779.353L1441.98 776.837C1443.44 776.186 1444.1 774.472 1443.44 773.009C1442.79 771.545 1441.08 770.888 1439.62 771.539L1433.97 774.055C1432.5 774.706 1431.84 776.42 1432.5 777.883C1433.15 779.347 1434.86 780.004 1436.32 779.353Z"
            fill="black" fill-opacity="0.15" />
        <path
            d="M1419.37 786.901L1425.02 784.385C1426.49 783.734 1427.14 782.02 1426.49 780.557C1425.84 779.093 1424.13 778.436 1422.66 779.087L1417.01 781.603C1415.55 782.254 1414.89 783.968 1415.54 785.431C1416.2 786.895 1417.91 787.552 1419.37 786.901Z"
            fill="black" fill-opacity="0.15" />
        <path
            d="M1402.42 794.449L1408.07 791.933C1409.53 791.281 1410.19 789.568 1409.54 788.104C1408.89 786.641 1407.17 785.984 1405.71 786.635L1400.06 789.151C1398.6 789.802 1397.94 791.516 1398.59 792.979C1399.24 794.442 1400.96 795.1 1402.42 794.449Z"
            fill="black" fill-opacity="0.15" />
        <path
            d="M1385.47 801.997L1391.12 799.481C1392.58 798.829 1393.24 797.116 1392.59 795.652C1391.94 794.189 1390.22 793.532 1388.76 794.183L1383.11 796.699C1381.64 797.35 1380.99 799.064 1381.64 800.527C1382.29 801.99 1384 802.648 1385.47 801.997Z"
            fill="black" fill-opacity="0.15" />
        <path
            d="M1357.21 814.576L1374.16 807.029C1375.63 806.377 1376.29 804.664 1375.63 803.2C1374.98 801.737 1373.27 801.079 1371.81 801.731L1354.85 809.279C1353.39 809.93 1352.73 811.644 1353.38 813.107C1354.03 814.57 1355.75 815.228 1357.21 814.576Z"
            fill="black" fill-opacity="0.15" />
    </g>
    <g clip-path="url(#clip2_55_1624)">
        <path
            d="M406.176 990.299L406.023 990.244L429.263 926.393L431.86 927.338C433.125 927.799 434.525 927.146 434.985 925.881C435.446 924.615 434.793 923.216 433.528 922.755L419.115 917.51L380.555 892.917L381.666 889.867C382.126 888.601 381.474 887.202 380.208 886.742C378.943 886.281 377.544 886.934 377.083 888.199L375.973 891.249L330.627 885.302L316.214 880.056C314.948 879.596 313.549 880.248 313.088 881.514C312.628 882.779 313.28 884.178 314.546 884.639L317.143 885.584L293.903 949.435L293.75 949.379C291.139 948.429 288.242 949.78 287.291 952.391L285.512 957.279C284.562 959.89 285.913 962.788 288.524 963.738L342.446 983.364L337.491 996.976L289.843 1009.31C288.54 1009.64 287.756 1010.97 288.094 1012.28C288.303 1013.09 288.893 1013.69 289.622 1013.96C290.07 1014.12 290.569 1014.16 291.065 1014.03L316.752 1007.38L330.558 1020.34C330.625 1020.41 330.696 1020.47 330.771 1020.52C330.78 1020.53 330.79 1020.53 330.799 1020.54C330.849 1020.58 330.899 1020.61 330.952 1020.65C330.98 1020.66 331.009 1020.68 331.038 1020.69C331.06 1020.71 331.083 1020.72 331.106 1020.73C331.2 1020.78 331.295 1020.82 331.392 1020.86L331.393 1020.86L331.394 1020.86C331.492 1020.9 331.594 1020.92 331.696 1020.95C331.722 1020.95 331.748 1020.96 331.773 1020.96C331.805 1020.97 331.836 1020.97 331.868 1020.98C331.93 1020.99 331.991 1020.99 332.053 1021C332.064 1021 332.075 1021 332.087 1021C332.18 1021.01 332.272 1021.01 332.364 1021L351.274 1019.95L366.678 1041.55C366.976 1041.97 367.38 1042.26 367.828 1042.42C368.557 1042.69 369.4 1042.6 370.079 1042.12C371.176 1041.34 371.431 1039.81 370.649 1038.72L342.074 998.644L347.028 985.032L400.95 1004.66C403.561 1005.61 406.459 1004.26 407.409 1001.65L409.188 996.758C410.138 994.147 408.787 991.25 406.176 990.299ZM331.201 1014.26L322.337 1005.93L335.467 1002.54L331.201 1014.26ZM378.847 897.611L397.991 909.821L377.162 902.24L378.847 897.611ZM374.264 895.943L372.58 900.572L351.751 892.991L374.264 895.943ZM321.725 887.252L329.203 889.974C329.205 889.974 329.206 889.975 329.208 889.976C329.211 889.977 329.213 889.978 329.216 889.979L417.19 921.998C417.192 921.999 417.195 922.001 417.198 922.002C417.2 922.002 417.201 922.003 417.203 922.003L424.681 924.725L401.441 988.576L298.485 951.103L321.725 887.252ZM347.924 1015.25L335.784 1015.93L340.05 1004.2L347.924 1015.25ZM402.826 999.978C402.796 1000.06 402.702 1000.11 402.618 1000.08L290.192 959.156C290.107 959.125 290.064 959.032 290.095 958.947L291.874 954.059C291.904 953.975 291.998 953.931 292.082 953.962L404.508 994.882C404.593 994.912 404.636 995.006 404.605 995.09L402.826 999.978Z"
            fill="black" fill-opacity="0.15" />
        <path
            d="M413.526 932.082L389.086 923.187C387.82 922.726 386.421 923.379 385.96 924.644C385.5 925.909 386.152 927.309 387.418 927.769L411.858 936.665C413.124 937.125 414.523 936.473 414.984 935.208C415.444 933.942 414.792 932.543 413.526 932.082Z"
            fill="black" fill-opacity="0.15" />
        <path
            d="M409.968 941.859L385.528 932.963C384.262 932.502 382.863 933.155 382.402 934.42C381.942 935.686 382.594 937.085 383.86 937.545L408.3 946.441C409.566 946.902 410.965 946.249 411.425 944.984C411.886 943.718 411.233 942.319 409.968 941.859Z"
            fill="black" fill-opacity="0.15" />
        <path
            d="M406.41 951.635L389.302 945.408C388.036 944.947 386.637 945.6 386.176 946.865C385.716 948.13 386.368 949.53 387.634 949.99L404.742 956.217C406.007 956.678 407.407 956.025 407.867 954.76C408.328 953.495 407.675 952.095 406.41 951.635Z"
            fill="black" fill-opacity="0.15" />
        <path
            d="M402.852 961.411L385.743 955.184C384.478 954.723 383.079 955.376 382.618 956.641C382.158 957.907 382.81 959.306 384.076 959.767L401.184 965.993C402.449 966.454 403.849 965.802 404.309 964.536C404.77 963.271 404.117 961.871 402.852 961.411Z"
            fill="black" fill-opacity="0.15" />
        <path
            d="M399.293 971.187L382.185 964.96C380.919 964.5 379.52 965.152 379.06 966.417C378.599 967.683 379.252 969.082 380.517 969.543L397.625 975.77C398.891 976.23 400.29 975.578 400.751 974.312C401.211 973.047 400.559 971.648 399.293 971.187Z"
            fill="black" fill-opacity="0.15" />
        <path
            d="M368.185 965.4L365.589 964.455L379.877 925.198C381.318 921.239 379.27 916.846 375.311 915.405C371.352 913.964 366.959 916.013 365.518 919.972L351.23 959.229L346.036 957.339L353.208 937.634C354.649 933.675 352.601 929.282 348.642 927.841C344.683 926.4 340.29 928.449 338.85 932.407L331.677 952.113L326.484 950.222L329.208 942.737C330.649 938.779 328.601 934.386 324.642 932.945C320.683 931.504 316.29 933.553 314.849 937.511L312.125 944.996L309.528 944.051C308.263 943.59 306.864 944.243 306.403 945.508C305.942 946.774 306.595 948.173 307.86 948.634L366.518 969.983C367.783 970.444 369.182 969.791 369.643 968.526C370.103 967.26 369.451 965.861 368.185 965.4ZM321.901 948.554L316.708 946.664L319.432 939.179C319.953 937.747 321.542 937.006 322.974 937.528C324.406 938.049 325.147 939.638 324.626 941.069L321.901 948.554ZM341.454 955.671L336.26 953.781L343.432 934.075C343.953 932.644 345.542 931.903 346.974 932.424C348.406 932.945 349.147 934.534 348.626 935.966L341.454 955.671ZM361.006 962.787L355.812 960.897L370.101 921.64C370.622 920.208 372.211 919.467 373.643 919.988C375.075 920.509 375.816 922.098 375.295 923.53L361.006 962.787Z"
            fill="black" fill-opacity="0.15" />
    </g>
    <g clip-path="url(#clip3_55_1624)">
        <path
            d="M359.715 1492.76L356.217 1493.38L338.184 1391.11C336.923 1383.96 330.082 1379.17 322.934 1380.43L171.483 1407.14C164.335 1408.4 159.545 1415.24 160.805 1422.39L178.838 1524.66L175.34 1525.27C173.635 1525.57 172.497 1527.2 172.798 1528.91L173.959 1535.49C174.899 1540.82 180.003 1544.4 185.336 1543.46L356.541 1513.27C361.874 1512.33 365.447 1507.22 364.507 1501.89L363.346 1495.31C363.045 1493.6 361.42 1492.46 359.715 1492.76ZM166.979 1421.3C166.318 1417.55 168.827 1413.97 172.572 1413.31L324.022 1386.61C327.767 1385.95 331.35 1388.45 332.01 1392.2L350.043 1494.47L185.012 1523.57L166.979 1421.3ZM358.334 1502.98C358.674 1504.91 357.381 1506.75 355.452 1507.09L184.247 1537.28C182.318 1537.62 180.472 1536.33 180.132 1534.4L179.515 1530.9L249.078 1518.64C249.085 1518.71 249.091 1518.78 249.104 1518.85C249.404 1520.55 251.03 1521.69 252.735 1521.39L285.659 1515.58C287.363 1515.28 288.502 1513.66 288.201 1511.95C288.189 1511.88 288.171 1511.81 288.154 1511.75L357.717 1499.48L358.334 1502.98Z"
            fill="black" fill-opacity="0.15" />
        <path
            d="M321.964 1394.18L177.098 1419.73C175.393 1420.03 174.255 1421.65 174.555 1423.36L190.23 1512.25C190.531 1513.96 192.156 1515.1 193.861 1514.79L338.727 1489.25C340.432 1488.95 341.57 1487.32 341.269 1485.62L325.595 1396.72C325.294 1395.02 323.668 1393.88 321.964 1394.18ZM334.552 1483.62L195.859 1508.08L181.273 1425.36L319.966 1400.9L334.552 1483.62Z"
            fill="black" fill-opacity="0.15" />
    </g>
    <path
        d="M1435.2 302.892L1431.52 260.777L1433.33 260.619C1438.17 260.195 1441.77 255.911 1441.34 251.065C1440.92 246.219 1436.63 242.624 1431.79 243.048L1394.64 246.298C1389.8 246.721 1386.2 251.006 1386.63 255.852C1387.05 260.698 1391.34 264.293 1396.18 263.869L1397.99 263.71L1401.68 305.825C1388.91 313.404 1381.51 327.589 1382.84 342.78C1384.35 358.522 1398.82 370.169 1415.09 368.746L1432.91 367.187C1449.18 365.763 1461.41 351.78 1460.17 336.036C1460.17 336.023 1460.14 335.688 1460.13 335.675C1458.84 320.806 1449.08 308.128 1435.2 302.892ZM1390.92 255.476C1390.71 253.001 1392.55 250.81 1395.02 250.594L1432.16 247.344C1434.64 247.127 1436.83 248.966 1437.05 251.441C1437.26 253.915 1435.42 256.106 1432.95 256.323L1428.99 256.669L1399.76 259.226L1395.81 259.572C1393.33 259.789 1391.14 257.95 1390.92 255.476ZM1427.22 261.153L1430.74 301.407C1430.58 301.365 1430.41 301.345 1430.25 301.308C1430.02 301.255 1429.78 301.21 1429.54 301.162C1428.5 300.937 1427.46 300.759 1426.41 300.627C1426.2 300.601 1425.99 300.576 1425.79 300.555C1424.63 300.427 1423.46 300.348 1422.28 300.325C1422.19 300.324 1422.1 300.315 1422.02 300.314C1420.72 300.298 1419.41 300.325 1418.09 300.441C1416.78 300.556 1415.49 300.755 1414.21 300.997C1414.11 301.014 1414.01 301.041 1413.91 301.062C1412.77 301.287 1411.66 301.558 1410.56 301.879C1410.34 301.941 1410.12 302.008 1409.91 302.074C1408.92 302.381 1407.96 302.73 1407 303.117C1406.75 303.216 1406.5 303.307 1406.26 303.411C1406.11 303.476 1405.95 303.524 1405.81 303.589L1402.29 263.334L1427.22 261.153ZM1457.99 335.867L1455.87 336.356C1456.93 349.77 1446.46 361.672 1432.54 362.89L1414.72 364.45C1400.8 365.667 1388.43 355.763 1387.11 342.064C1385.92 328.416 1392.93 315.365 1404.99 308.808C1412.89 304.415 1423.15 303.453 1431.78 306.209C1432.01 306.284 1432.25 306.332 1432.48 306.411C1445.48 310.767 1454.65 322.402 1455.85 336.051L1457.99 335.867Z"
        fill="#010101" fill-opacity="0.15" />
    <path
        d="M1438.09 317.072C1437.98 317.103 1427.63 320.186 1420.42 318.076C1412.43 315.75 1401.19 321.041 1399.01 322.122C1398.96 322.149 1398.9 322.18 1398.85 322.215C1398.54 322.389 1398.27 322.642 1398.07 322.954C1394.92 327.992 1393.47 334.028 1394.01 340.197C1395.08 351.419 1405.38 359.726 1416.97 358.711L1429.32 357.631C1440.91 356.617 1449.61 346.648 1448.72 335.393L1448.7 335.152C1448.11 328.463 1445.09 322.217 1440.19 317.572C1439.63 317.036 1438.82 316.848 1438.09 317.072ZM1446.55 335.344L1444.42 335.756C1445.13 344.642 1438.19 352.531 1428.94 353.339L1416.6 354.419C1407.36 355.228 1399.15 348.665 1398.29 339.567C1397.87 334.777 1398.98 329.892 1401.42 325.747C1403.84 324.592 1413.17 320.46 1419.21 322.217C1426.1 324.233 1434.84 322.373 1438.08 321.549C1441.71 325.37 1443.95 330.291 1444.4 335.532L1446.55 335.344Z"
        fill="#010101" fill-opacity="0.15" />
    <path
        d="M1508.87 295.009L1506.43 267.085L1507.66 266.976C1512.27 266.573 1515.7 262.495 1515.29 257.885L1515.15 256.201C1514.74 251.591 1510.66 248.169 1506.05 248.572L1473.54 251.417C1468.93 251.82 1465.51 255.899 1465.91 260.508L1466.06 262.193C1466.46 266.802 1470.54 270.225 1475.15 269.821L1475.75 269.769L1478.19 297.698L1462.62 351.271C1461.73 354.359 1462.41 357.688 1464.45 360.172C1466.49 362.66 1469.63 363.975 1472.83 363.694L1526.15 359.03C1529.37 358.748 1532.24 356.891 1533.81 354.065C1535.39 351.243 1535.46 347.834 1534.01 344.944L1508.87 295.009ZM1470.35 261.817L1470.2 260.133C1470 257.895 1471.67 255.91 1473.91 255.713L1506.43 252.868C1508.67 252.672 1510.65 254.334 1510.85 256.577L1510.99 258.261C1511.19 260.504 1509.53 262.485 1507.28 262.681L1503.9 262.977L1477.51 265.285L1474.76 265.526C1472.53 265.722 1470.54 264.06 1470.35 261.817ZM1530.04 351.971C1529.15 353.573 1527.58 354.579 1525.76 354.739L1472.45 359.403C1470.64 359.562 1468.93 358.845 1467.77 357.44C1466.62 356.03 1466.25 354.227 1466.76 352.477L1482.44 298.521C1482.51 298.264 1482.54 297.997 1482.52 297.731L1480.04 269.398L1502.13 267.465L1504.61 295.798C1504.63 296.069 1504.71 296.335 1504.83 296.579L1530.14 346.888C1530.96 348.522 1530.93 350.369 1530.04 351.971Z"
        fill="#010101" fill-opacity="0.15" />
    <path
        d="M1507.82 318.183C1507.8 318.141 1507.76 318.119 1507.74 318.078C1507.63 317.871 1507.51 317.67 1507.32 317.504C1507.3 317.48 1507.26 317.47 1507.23 317.451C1507.14 317.377 1507.04 317.334 1506.94 317.273C1506.75 317.164 1506.56 317.077 1506.36 317.025C1506.3 317.013 1506.26 316.969 1506.2 316.961C1506.14 316.949 1506.09 316.98 1506.03 316.977C1505.81 316.961 1505.6 316.979 1505.39 317.028C1505.28 317.051 1505.18 317.06 1505.07 317.103C1504.78 317.215 1504.51 317.378 1504.28 317.623C1503.91 318.019 1500.57 321.423 1497.25 319.078C1492.29 315.525 1486.71 317.996 1484.2 320.021C1484.1 320.098 1483.97 320.236 1483.88 320.325C1483.66 320.583 1483.51 320.89 1483.42 321.21C1483.42 321.214 1483.41 321.215 1483.42 321.219L1476.96 346.849C1476.79 347.526 1476.95 348.243 1477.41 348.775C1477.86 349.306 1478.54 349.584 1479.23 349.524L1517.47 346.178C1518.17 346.117 1518.8 345.721 1519.15 345.114C1519.5 344.507 1519.54 343.768 1519.25 343.131L1507.82 318.183ZM1481.87 344.964L1487.4 323.017C1487.44 322.992 1487.48 322.967 1487.52 322.942C1487.61 322.887 1487.71 322.826 1487.81 322.765C1487.94 322.689 1488.09 322.611 1488.24 322.533C1488.35 322.471 1488.46 322.414 1488.58 322.355C1488.87 322.222 1489.17 322.092 1489.5 321.981C1489.57 321.958 1489.64 321.947 1489.71 321.923C1489.99 321.839 1490.28 321.761 1490.57 321.709C1490.71 321.685 1490.84 321.677 1490.98 321.661C1491.23 321.63 1491.5 321.616 1491.77 321.622C1491.92 321.626 1492.07 321.635 1492.22 321.652C1492.5 321.68 1492.79 321.741 1493.07 321.824C1493.21 321.86 1493.34 321.891 1493.48 321.94C1493.9 322.098 1494.32 322.299 1494.73 322.596C1494.95 322.746 1495.17 322.844 1495.38 322.973C1495.64 323.127 1495.91 323.308 1496.17 323.428C1496.27 323.475 1496.36 323.493 1496.46 323.537C1496.84 323.698 1497.22 323.851 1497.59 323.948C1497.67 323.967 1497.75 323.969 1497.82 323.989C1498.22 324.08 1498.61 324.153 1498.99 324.185C1499.07 324.191 1499.14 324.181 1499.22 324.183C1499.6 324.201 1499.98 324.206 1500.36 324.178C1500.37 324.177 1500.37 324.177 1500.37 324.177C1500.38 324.176 1500.39 324.171 1500.39 324.171C1501.11 324.108 1501.79 323.945 1502.44 323.732C1502.52 323.708 1502.59 323.688 1502.67 323.664C1503.29 323.445 1503.87 323.174 1504.42 322.871C1504.52 322.819 1504.61 322.763 1504.7 322.707C1504.82 322.641 1504.94 322.578 1505.05 322.508L1514.04 342.15L1481.87 344.964Z"
        fill="#010101" fill-opacity="0.15" />
    <path
        d="M1585.57 1366.63L1385.44 1356.14C1383.82 1356.06 1382.43 1357.31 1382.35 1358.93L1374.94 1500.2C1374.86 1501.83 1376.11 1503.21 1377.73 1503.3L1454.99 1507.35C1454.37 1509.24 1454.46 1511.3 1455.35 1513.17C1456.92 1516.45 1460.23 1518.4 1464.04 1517.55L1462.75 1542.31C1462.68 1543.48 1463.32 1544.58 1464.38 1545.1C1465.42 1545.62 1466.68 1545.48 1467.58 1544.72L1476.28 1537.43L1484.17 1545.59C1484.7 1546.14 1485.41 1546.45 1486.14 1546.49C1486.53 1546.51 1486.94 1546.45 1487.32 1546.3C1488.42 1545.89 1489.17 1544.87 1489.23 1543.7L1490.53 1518.94C1492.4 1519.52 1494.39 1519.44 1496.2 1518.57C1498.9 1517.28 1500.67 1514.66 1500.83 1511.73C1500.86 1511.08 1500.77 1510.41 1500.62 1509.74L1577.86 1513.79C1579.49 1513.87 1580.87 1512.62 1580.96 1511L1588.36 1369.73C1588.45 1368.11 1587.2 1366.72 1585.57 1366.63ZM1478.61 1531.37C1477.54 1530.26 1475.78 1530.16 1474.6 1531.16L1468.99 1535.86L1469.86 1519.11C1470.84 1522.29 1473.57 1524.59 1476.95 1524.77C1480.32 1524.95 1483.27 1522.95 1484.58 1519.88L1483.7 1536.63L1478.61 1531.37ZM1493.66 1513.26C1492.98 1513.59 1492.29 1513.5 1491.59 1513C1490.61 1512.31 1489.41 1511.84 1488.21 1511.67C1487.91 1511.61 1487.59 1511.56 1487.43 1511.56C1483.66 1511.36 1480.33 1513.74 1479.35 1517.32C1478.67 1519.73 1475.74 1519.56 1475.32 1517.13C1474.71 1513.44 1471.66 1510.72 1467.89 1510.53C1467.73 1510.52 1467.44 1510.53 1467.14 1510.56C1467.13 1510.56 1467.12 1510.56 1467.11 1510.56L1467.1 1510.56C1466.97 1510.57 1466.85 1510.61 1466.71 1510.62C1466.63 1510.63 1466.5 1510.64 1466.45 1510.66C1466.44 1510.66 1466.44 1510.66 1466.43 1510.66C1465.44 1510.78 1464.46 1511.05 1463.66 1511.5C1463.08 1511.81 1462.64 1511.91 1462.45 1511.9C1461.73 1511.86 1461.02 1511.34 1460.67 1510.61C1460.33 1509.91 1460.39 1509.22 1460.83 1508.61C1461.65 1507.51 1462.11 1506.29 1462.22 1504.96C1462.27 1504.72 1462.31 1504.5 1462.32 1504.34C1462.51 1500.66 1460.15 1497.34 1456.55 1496.26C1455.12 1495.86 1454.97 1494.77 1455 1494.16C1455.02 1493.78 1455.2 1492.52 1456.82 1492.27C1458.4 1491.96 1459.77 1491.16 1460.92 1490.03C1461 1489.96 1461.09 1489.89 1461.17 1489.82C1461.23 1489.75 1461.32 1489.71 1461.38 1489.64C1461.51 1489.48 1461.58 1489.28 1461.7 1489.11C1461.72 1489.06 1461.76 1489.02 1461.78 1488.97C1462.67 1487.69 1463.26 1486.25 1463.34 1484.79C1463.42 1483.26 1463.07 1481.71 1462.38 1480.51C1462.04 1479.86 1462.03 1479.5 1462.03 1479.41C1462.07 1478.66 1462.59 1477.92 1463.32 1477.56C1464.03 1477.22 1464.7 1477.31 1465.25 1477.67C1466.43 1478.61 1467.87 1479.12 1469.54 1479.21C1473.3 1479.41 1476.62 1477.06 1477.62 1473.47C1478.03 1471.97 1479.22 1471.87 1479.72 1471.9C1480.21 1471.92 1481.39 1472.15 1481.65 1473.72C1482.09 1476.22 1483.74 1478.37 1486.07 1479.47C1488.4 1480.58 1491.12 1480.48 1493.31 1479.27C1494.72 1478.5 1495.81 1479.15 1496.32 1480.2C1496.65 1480.87 1496.58 1481.55 1496.12 1482.19C1495.26 1483.39 1494.74 1484.89 1494.66 1486.42C1494.59 1487.87 1495.03 1489.34 1495.77 1490.72C1495.8 1490.81 1495.85 1490.88 1495.89 1490.97C1495.99 1491.15 1496.03 1491.34 1496.15 1491.52C1496.2 1491.59 1496.28 1491.63 1496.33 1491.7C1496.37 1491.75 1496.41 1491.79 1496.46 1491.83C1497.46 1493.09 1498.77 1494.06 1500.36 1494.54C1500.41 1494.56 1500.45 1494.57 1500.48 1494.58C1501.95 1494.96 1502 1496.23 1501.98 1496.61C1501.95 1497.22 1501.68 1498.28 1500.18 1498.54C1496.52 1499.24 1493.83 1502.29 1493.64 1505.97C1493.64 1505.97 1493.64 1505.98 1493.64 1505.99C1493.63 1506.03 1493.65 1506.1 1493.65 1506.14C1493.64 1506.28 1493.65 1506.42 1493.67 1506.6C1493.66 1506.67 1493.69 1506.73 1493.69 1506.8C1493.7 1506.84 1493.7 1506.86 1493.71 1506.9C1493.73 1508.11 1494.02 1509.29 1494.65 1510.33C1494.86 1510.71 1494.96 1511.17 1494.95 1511.41C1494.9 1512.17 1494.39 1512.91 1493.66 1513.26ZM1500.61 1486.95C1500.6 1486.88 1500.54 1486.81 1500.54 1486.74C1500.56 1486.34 1500.7 1485.92 1500.9 1485.64C1502.61 1483.25 1502.88 1480.26 1501.63 1477.65C1499.7 1473.66 1494.93 1471.73 1490.48 1474.11C1489.66 1474.56 1488.88 1474.29 1488.59 1474.15C1488.3 1474.02 1487.61 1473.6 1487.46 1472.74C1486.84 1468.92 1483.85 1466.22 1480.03 1466.02C1476.21 1465.81 1472.95 1468.19 1471.94 1471.91C1471.65 1472.94 1470.66 1473.37 1469.85 1473.33C1469.21 1473.29 1468.99 1473.12 1468.78 1472.96C1466.36 1471.25 1463.36 1470.99 1460.75 1472.26C1458.07 1473.56 1456.3 1476.18 1456.15 1479.1C1456.08 1480.45 1456.42 1481.85 1457.22 1483.35C1457.39 1483.64 1457.48 1484.08 1457.46 1484.48C1457.46 1484.55 1457.39 1484.61 1457.37 1484.68L1411.04 1482.26C1410.18 1475.36 1405.06 1469.68 1398.29 1468.09L1402.21 1393.3C1409.1 1392.43 1414.79 1387.32 1416.37 1380.55L1552.27 1387.67C1553.14 1394.57 1558.26 1400.25 1565.02 1401.83L1561.1 1476.63C1554.21 1477.5 1548.52 1482.61 1546.94 1489.38L1500.61 1486.95ZM1575.23 1507.75L1502.44 1503.93C1505.52 1502.89 1507.68 1500.28 1507.86 1496.93C1507.93 1495.56 1507.58 1494.33 1507.06 1493.2L1549.31 1495.41C1550.94 1495.49 1552.32 1494.25 1552.41 1492.62C1552.72 1486.68 1557.81 1482.1 1563.75 1482.41C1565.37 1482.5 1566.76 1481.25 1566.84 1479.62L1571.04 1399.46C1571.13 1397.83 1569.88 1396.44 1568.26 1396.36C1562.32 1396.05 1557.74 1390.96 1558.05 1385.02C1558.13 1383.4 1556.88 1382.01 1555.26 1381.92L1413.99 1374.52C1412.37 1374.44 1410.98 1375.69 1410.89 1377.31C1410.58 1383.25 1405.5 1387.83 1399.56 1387.52C1397.93 1387.43 1396.55 1388.68 1396.46 1390.31L1392.26 1470.48C1392.17 1472.1 1393.42 1473.49 1395.05 1473.57C1400.99 1473.88 1405.57 1478.97 1405.26 1484.91C1405.17 1486.53 1406.42 1487.92 1408.04 1488.01L1450.3 1490.22C1449.65 1491.3 1449.18 1492.48 1449.11 1493.85C1448.93 1497.2 1450.81 1500.03 1453.75 1501.38L1380.98 1497.57L1388.08 1362.18L1582.32 1372.36L1575.23 1507.75Z"
        fill="#010101" fill-opacity="0.15" />
    <path
        d="M1425.75 1424.78L1450.03 1426.05C1451.65 1426.14 1453.04 1424.89 1453.13 1423.27L1454.4 1398.98C1454.48 1397.36 1453.23 1395.97 1451.61 1395.89L1427.33 1394.61C1425.7 1394.53 1424.32 1395.78 1424.23 1397.4L1422.96 1421.68C1422.87 1423.31 1424.12 1424.7 1425.75 1424.78ZM1429.96 1400.66L1448.36 1401.62L1447.39 1420.01L1429 1419.05L1429.96 1400.66Z"
        fill="#010101" fill-opacity="0.15" />
    <path
        d="M1539.9 1400.51L1472.95 1397.01C1471.32 1396.92 1469.93 1398.17 1469.85 1399.79C1469.76 1401.42 1471.01 1402.81 1472.64 1402.89L1539.59 1406.4C1541.22 1406.49 1542.6 1405.24 1542.69 1403.61C1542.78 1401.99 1541.53 1400.6 1539.9 1400.51Z"
        fill="#010101" fill-opacity="0.15" />
    <path
        d="M1538.63 1424.79L1471.67 1421.29C1470.05 1421.2 1468.66 1422.45 1468.58 1424.07C1468.49 1425.7 1469.74 1427.09 1471.37 1427.17L1538.32 1430.68C1539.94 1430.77 1541.33 1429.52 1541.42 1427.89C1541.5 1426.27 1540.25 1424.88 1538.63 1424.79Z"
        fill="#010101" fill-opacity="0.15" />
    <path
        d="M1537.34 1449.36L1424.77 1443.46C1423.14 1443.37 1421.76 1444.62 1421.67 1446.25C1421.59 1447.87 1422.84 1449.26 1424.46 1449.34L1537.03 1455.24C1538.66 1455.33 1540.05 1454.08 1540.13 1452.46C1540.22 1450.83 1538.97 1449.44 1537.34 1449.36Z"
        fill="#010101" fill-opacity="0.15" />
    <path
        d="M1479.18 1482.14C1471.88 1481.76 1465.62 1487.39 1465.24 1494.69C1465.23 1494.87 1465.24 1495.09 1465.28 1495.32C1465.2 1502.43 1470.64 1508.26 1477.79 1508.63C1484.94 1509.01 1490.97 1503.78 1491.63 1496.7C1491.68 1496.47 1491.72 1496.26 1491.73 1496.08C1492.11 1488.78 1486.48 1482.53 1479.18 1482.14ZM1478.1 1502.74C1474.09 1502.53 1471.05 1499.23 1471.17 1495.24C1471.18 1495.07 1471.17 1494.91 1471.15 1494.75C1471.49 1490.82 1474.9 1487.83 1478.87 1488.03C1479.87 1488.09 1480.8 1488.34 1481.64 1488.74C1482.46 1489.12 1483.18 1489.67 1483.79 1490.31C1483.81 1490.34 1483.84 1490.34 1483.87 1490.37C1485.13 1491.73 1485.88 1493.54 1485.85 1495.52C1485.81 1495.68 1485.79 1495.85 1485.77 1496.01C1485.48 1500 1482.11 1502.95 1478.1 1502.74Z"
        fill="#010101" fill-opacity="0.15" />
    <defs>
        <clipPath id="clip0_55_1624">
            <rect width="150" height="150" fill="white" transform="translate(141 383.303) rotate(-20)" />
        </clipPath>
        <clipPath id="clip1_55_1624">
            <rect width="179" height="179" fill="white" transform="translate(1317 761.806) rotate(-24)" />
        </clipPath>
        <clipPath id="clip2_55_1624">
            <rect width="150.527" height="150.527" fill="white" transform="translate(309.483 861) rotate(20)" />
        </clipPath>
        <clipPath id="clip3_55_1624">
            <rect width="193.488" height="193.488" fill="white" transform="translate(147 1382.6) rotate(-10)" />
        </clipPath>
    </defs>
</svg>