<svg width="1718" height="934" viewBox="0 0 1718 934" fill="none" xmlns="http://www.w3.org/2000/svg">
<g clip-path="url(#clip0_33_2)">
<rect width="1718" height="934" fill="white"/>
<rect width="256" height="256" transform="translate(53 83) rotate(-180)" fill="white"/>
<path d="M-13.0691 -137V-137C1.88076 -137 14 -124.881 14 -109.931L14 -28.4654C14 13.213 -19.787 47 -61.4654 47V47C-103.144 47 -136.931 13.213 -136.931 -28.4654L-136.931 -109.931C-136.931 -124.881 -149.05 -137 -164 -137V-137" stroke="black" stroke-width="2"/>
<rect width="256" height="256" transform="translate(-203 83)" fill="white"/>
<rect width="256" height="256" transform="translate(-203 339)" fill="white"/>
<rect width="256" height="256" transform="translate(-203 595)" fill="white"/>
<rect width="256" height="256" transform="translate(-203 851)" fill="white"/>
<rect width="256" height="256" transform="translate(53 83)" fill="white"/>
<rect width="256" height="256" transform="translate(53 -173)" fill="white"/>
<g clip-path="url(#clip1_33_2)">
<rect width="256" height="256" transform="translate(309 83)" fill="white"/>
<rect x="309" y="211" width="181.019" height="181.019" transform="rotate(-45 309 211)" stroke="black" stroke-width="2"/>
<rect x="437" y="211" width="181.019" height="181.019" transform="rotate(-45 437 211)" stroke="black" stroke-width="2"/>
<rect x="181" y="211" width="181.019" height="181.019" transform="rotate(-45 181 211)" stroke="black" stroke-width="2"/>
</g>
<rect width="256" height="256" transform="translate(53 595)" fill="white"/>
<rect width="256" height="256" transform="translate(309 595) rotate(-180)" fill="white"/>
<circle cx="187" cy="473" r="63" transform="rotate(-180 187 473)" stroke="black" stroke-width="2"/>
<path d="M181 467L111.704 397.704" stroke="black" stroke-width="2"/>
<rect width="256" height="256" transform="translate(53 1107) rotate(-90)" fill="white"/>
<path d="M262 1060L100 1060L262 898L262 1060Z" stroke="black" stroke-width="2"/>
<path d="M228.333 1026L100.333 1026L228.333 898L228.333 1026Z" stroke="black" stroke-width="2"/>
<rect width="256" height="256" transform="translate(565 83)" fill="white"/>
<rect width="256" height="256" transform="translate(309 -173)" fill="white"/>
<rect width="256" height="256" transform="translate(309 595)" fill="white"/>
<rect width="256" height="256" transform="translate(821 83)" fill="white"/>
<rect width="256" height="256" transform="translate(309 339)" fill="white"/>
<rect width="256" height="256" transform="translate(309 851)" fill="white"/>
<rect width="256" height="256" transform="translate(1077 83)" fill="white"/>
<rect width="256" height="256" transform="matrix(1 8.74228e-08 8.74228e-08 -1 565 851)" fill="white"/>
<rect x="1" y="-1" width="100.138" height="100.138" transform="matrix(1 8.74228e-08 8.74228e-08 -1 603.629 733.861)" stroke="black" stroke-width="2"/>
<rect x="1" y="-1" width="100.138" height="99.9494" transform="matrix(1 8.74228e-08 8.74228e-08 -1 629.164 759.207)" stroke="black" stroke-width="2"/>
<path d="M604.189 735.263L629.747 760.65" stroke="black" stroke-width="2"/>
<path d="M704.969 735.063L730.504 760.598" stroke="black" stroke-width="2"/>
<path d="M705.207 634.295L730.745 659.832" stroke="black" stroke-width="2"/>
<path d="M604.427 634.522L629.962 660.056" stroke="black" stroke-width="2"/>
<rect x="1" y="-1" width="100.138" height="100.138" transform="matrix(1 8.74228e-08 8.74228e-08 -1 654.698 784.93)" stroke="black" stroke-width="2"/>
<rect x="1" y="-1" width="100.138" height="99.9494" transform="matrix(1 8.74228e-08 8.74228e-08 -1 680.233 810.276)" stroke="black" stroke-width="2"/>
<path d="M655.257 786.332L680.816 811.719" stroke="black" stroke-width="2"/>
<path d="M756.038 786.132L781.573 811.667" stroke="black" stroke-width="2"/>
<path d="M756.276 685.364L781.814 710.901" stroke="black" stroke-width="2"/>
<path d="M655.496 685.59L681.031 711.125" stroke="black" stroke-width="2"/>
<rect width="256" height="256" transform="translate(565 -173)" fill="white"/>
<circle cx="693" cy="-45" r="80" stroke="black" stroke-width="2"/>
<rect width="256" height="256" transform="translate(1333 83)" fill="white"/>
<rect width="256" height="256" transform="translate(821 595)" fill="white"/>
<rect width="256" height="256" transform="translate(565 339)" fill="white"/>
<rect width="256" height="256" transform="translate(565 851)" fill="white"/>
<rect width="256" height="256" transform="translate(1077 595)" fill="white"/>
<rect width="256" height="256" transform="translate(821 -173)" fill="white"/>
<rect width="256" height="256" transform="translate(821 595) rotate(-90)" fill="white"/>
<path d="M1030 548L868 548L1030 386L1030 548Z" stroke="black" stroke-width="2"/>
<path d="M996.333 514L868.333 514L996.333 386L996.333 514Z" stroke="black" stroke-width="2"/>
<rect width="256" height="256" transform="translate(1333 595)" fill="white"/>
<rect width="256" height="256" transform="translate(821 851)" fill="white"/>
<rect width="256" height="256" transform="translate(1077 83) rotate(-90)" fill="white"/>
<rect x="1126" y="50" width="46" height="46" transform="rotate(-90 1126 50)" stroke="black" stroke-width="2"/>
<path d="M1125.77 3.64893L1146.29 -22.0076" stroke="black" stroke-width="2"/>
<path d="M1171.29 4.24522L1192.23 -21.6253" stroke="black" stroke-width="2"/>
<rect x="1218" y="50" width="46" height="46" transform="rotate(-90 1218 50)" stroke="black" stroke-width="2"/>
<path d="M1217.77 3.64893L1238.29 -22.0076" stroke="black" stroke-width="2"/>
<path d="M1263.29 4.24522L1284.23 -21.6253" stroke="black" stroke-width="2"/>
<rect width="256" height="256" transform="translate(1077 339)" fill="white"/>
<rect width="256" height="256" transform="translate(1077 1107) rotate(-90)" fill="white"/>
<rect x="1142.07" y="1016.3" width="100.138" height="100.138" transform="rotate(-90 1142.07 1016.3)" stroke="black" stroke-width="2"/>
<rect x="1116.72" y="990.767" width="100.138" height="99.9494" transform="rotate(-90 1116.72 990.767)" stroke="black" stroke-width="2"/>
<path d="M1141.87 915.962L1116.33 890.427" stroke="black" stroke-width="2"/>
<path d="M1242.64 915.724L1217.1 890.186" stroke="black" stroke-width="2"/>
<g clip-path="url(#clip2_33_2)">
<rect width="256" height="256" transform="translate(1333 -173)" fill="white"/>
<rect x="1287.51" y="1.48523" width="254" height="254" transform="rotate(-60 1287.51 1.48523)" stroke="black" stroke-width="2"/>
</g>
<g clip-path="url(#clip3_33_2)">
<rect width="256" height="256" transform="translate(1333 339)" fill="white"/>
<rect x="1287.51" y="513.485" width="254" height="254" transform="rotate(-60 1287.51 513.485)" stroke="black" stroke-width="2"/>
</g>
<rect width="256" height="256" transform="translate(1333 851)" fill="white"/>
</g>
<defs>
<clipPath id="clip0_33_2">
<rect width="1718" height="934" fill="white"/>
</clipPath>
<clipPath id="clip1_33_2">
<rect width="256" height="256" fill="white" transform="translate(309 83)"/>
</clipPath>
<clipPath id="clip2_33_2">
<rect width="256" height="256" fill="white" transform="translate(1333 -173)"/>
</clipPath>
<clipPath id="clip3_33_2">
<rect width="256" height="256" fill="white" transform="translate(1333 339)"/>
</clipPath>
</defs>
</svg>
