<svg width="1718" height="1777" viewBox="0 0 1718 1777" fill="none" xmlns="http://www.w3.org/2000/svg">
<rect width="1718" height="1777" fill="white"/>
<path d="M1422.57 766.632L1222.44 756.144C1220.82 756.059 1219.43 757.308 1219.35 758.933L1211.94 900.201C1211.86 901.825 1213.11 903.213 1214.73 903.298L1291.99 907.347C1291.37 909.245 1291.46 911.297 1292.35 913.168C1293.92 916.45 1297.23 918.4 1301.04 917.555L1299.75 942.312C1299.68 943.483 1300.32 944.579 1301.38 945.1C1302.42 945.621 1303.68 945.475 1304.58 944.72L1313.28 937.432L1321.17 945.595C1321.7 946.142 1322.41 946.45 1323.14 946.489C1323.53 946.509 1323.94 946.448 1324.32 946.303C1325.42 945.888 1326.17 944.871 1326.23 943.7L1327.53 918.937C1329.4 919.524 1331.39 919.44 1333.2 918.573C1335.9 917.28 1337.67 914.658 1337.83 911.726C1337.86 911.085 1337.77 910.407 1337.62 909.738L1414.86 913.786C1416.49 913.872 1417.87 912.622 1417.96 910.998L1425.36 769.73C1425.45 768.105 1424.2 766.718 1422.57 766.632ZM1315.61 931.368C1314.54 930.256 1312.78 930.163 1311.6 931.158L1305.99 935.863L1306.86 919.111C1307.84 922.29 1310.57 924.593 1313.95 924.77C1317.32 924.947 1320.27 922.947 1321.58 919.876L1320.7 936.634L1315.61 931.368ZM1330.66 913.257C1329.98 913.588 1329.29 913.504 1328.59 913.002C1327.61 912.307 1326.41 911.837 1325.21 911.667C1324.91 911.61 1324.59 911.564 1324.43 911.556C1320.66 911.358 1317.33 913.739 1316.35 917.324C1315.67 919.732 1312.74 919.56 1312.32 917.13C1311.71 913.439 1308.66 910.723 1304.89 910.526C1304.73 910.517 1304.44 910.532 1304.14 910.557C1304.13 910.557 1304.12 910.556 1304.11 910.561L1304.1 910.561C1303.97 910.566 1303.85 910.607 1303.71 910.618C1303.63 910.631 1303.5 910.642 1303.45 910.657C1303.44 910.656 1303.44 910.662 1303.43 910.662C1302.44 910.781 1301.46 911.048 1300.66 911.496C1300.08 911.808 1299.64 911.909 1299.45 911.899C1298.73 911.862 1298.02 911.34 1297.67 910.607C1297.33 909.905 1297.39 909.218 1297.83 908.609C1298.65 907.513 1299.11 906.286 1299.22 904.964C1299.27 904.724 1299.31 904.502 1299.32 904.337C1299.51 900.658 1297.15 897.342 1293.55 896.262C1292.12 895.856 1291.97 894.768 1292 894.156C1292.02 893.779 1292.2 892.52 1293.82 892.274C1295.4 891.961 1296.77 891.16 1297.92 890.027C1298 889.961 1298.09 889.895 1298.17 889.816C1298.23 889.749 1298.32 889.712 1298.38 889.639C1298.51 889.48 1298.58 889.283 1298.7 889.112C1298.72 889.06 1298.76 889.021 1298.78 888.969C1299.67 887.693 1300.26 886.255 1300.34 884.789C1300.42 883.259 1300.07 881.706 1299.38 880.507C1299.04 879.863 1299.03 879.503 1299.03 879.409C1299.07 878.655 1299.59 877.915 1300.32 877.558C1301.03 877.223 1301.7 877.306 1302.25 877.671C1303.43 878.606 1304.87 879.124 1306.54 879.212C1310.3 879.409 1313.62 877.057 1314.62 873.473C1315.03 871.972 1316.22 871.869 1316.72 871.895C1317.21 871.921 1318.39 872.148 1318.65 873.72C1319.09 876.222 1320.74 878.374 1323.07 879.47C1325.4 880.578 1328.12 880.485 1330.31 879.265C1331.72 878.501 1332.81 879.148 1333.32 880.196C1333.65 880.875 1333.58 881.55 1333.12 882.192C1332.26 883.387 1331.74 884.894 1331.66 886.425C1331.59 887.867 1332.03 889.336 1332.77 890.721C1332.8 890.811 1332.85 890.884 1332.89 890.969C1332.99 891.145 1333.03 891.342 1333.15 891.52C1333.2 891.593 1333.28 891.633 1333.33 891.7C1333.37 891.749 1333.41 891.787 1333.46 891.831C1334.46 893.093 1335.77 894.059 1337.36 894.544C1337.41 894.558 1337.45 894.566 1337.48 894.58C1338.95 894.958 1339 896.229 1338.98 896.606C1338.95 897.218 1338.68 898.284 1337.18 898.542C1333.52 899.236 1330.83 902.288 1330.64 905.967C1330.64 905.973 1330.64 905.985 1330.64 905.99C1330.63 906.026 1330.65 906.097 1330.65 906.138C1330.64 906.28 1330.65 906.422 1330.67 906.6C1330.66 906.671 1330.69 906.731 1330.69 906.802C1330.7 906.838 1330.7 906.861 1330.71 906.897C1330.73 908.114 1331.02 909.287 1331.65 910.334C1331.86 910.706 1331.96 911.166 1331.95 911.413C1331.9 912.171 1331.39 912.912 1330.66 913.257ZM1337.61 886.955C1337.6 886.884 1337.54 886.809 1337.54 886.745C1337.56 886.344 1337.7 885.921 1337.9 885.636C1339.61 883.247 1339.88 880.263 1338.63 877.653C1336.7 873.656 1331.93 871.73 1327.48 874.106C1326.66 874.564 1325.88 874.294 1325.59 874.154C1325.3 874.015 1324.61 873.601 1324.46 872.743C1323.84 868.922 1320.85 866.215 1317.03 866.015C1313.21 865.815 1309.95 868.194 1308.94 871.907C1308.65 872.942 1307.66 873.368 1306.85 873.326C1306.21 873.292 1305.99 873.116 1305.78 872.957C1303.36 871.254 1300.36 870.99 1297.75 872.258C1295.07 873.564 1293.3 876.181 1293.15 879.1C1293.08 880.448 1293.42 881.853 1294.22 883.347C1294.39 883.645 1294.48 884.081 1294.46 884.481C1294.46 884.552 1294.39 884.613 1294.37 884.683L1248.04 882.255C1247.18 875.357 1242.06 869.676 1235.29 868.094L1239.21 793.299C1246.1 792.432 1251.79 787.318 1253.37 780.548L1389.27 787.67C1390.14 794.568 1395.26 800.249 1402.02 801.831L1398.1 876.633C1391.21 877.499 1385.52 882.613 1383.94 889.383L1337.61 886.955ZM1412.23 907.746L1339.44 903.931C1342.52 902.889 1344.68 900.275 1344.86 896.926C1344.93 895.56 1344.58 894.332 1344.06 893.195L1386.31 895.41C1387.94 895.495 1389.32 894.245 1389.41 892.621C1389.72 886.682 1394.81 882.102 1400.75 882.414C1402.37 882.499 1403.76 881.249 1403.84 879.625L1408.04 799.455C1408.13 797.831 1406.88 796.443 1405.26 796.358C1399.32 796.047 1394.74 790.961 1395.05 785.022C1395.13 783.397 1393.88 782.01 1392.26 781.924L1250.99 774.521C1249.37 774.436 1247.98 775.685 1247.89 777.31C1247.58 783.249 1242.5 787.828 1236.56 787.517C1234.93 787.432 1233.55 788.681 1233.46 790.306L1229.26 870.475C1229.17 872.1 1230.42 873.487 1232.05 873.573C1237.99 873.884 1242.57 878.97 1242.26 884.909C1242.17 886.533 1243.42 887.921 1245.04 888.006L1287.3 890.22C1286.65 891.296 1286.18 892.481 1286.11 893.847C1285.93 897.202 1287.81 900.034 1290.75 901.38L1217.98 897.566L1225.08 762.184L1419.32 772.364L1412.23 907.746Z" fill="#010101"/>
<path d="M1262.75 824.781L1287.03 826.054C1288.65 826.139 1290.04 824.89 1290.12 823.265L1291.4 798.985C1291.48 797.36 1290.23 795.972 1288.61 795.887L1264.33 794.615C1262.7 794.53 1261.32 795.779 1261.23 797.404L1259.96 821.684C1259.87 823.315 1261.12 824.696 1262.75 824.781ZM1266.96 800.655L1285.36 801.619L1284.39 820.014L1266 819.05L1266.96 800.655Z" fill="#010101"/>
<path d="M1376.9 800.515L1309.95 797.006C1308.32 796.92 1306.93 798.17 1306.85 799.794C1306.76 801.419 1308.01 802.807 1309.64 802.892L1376.59 806.401C1378.22 806.486 1379.6 805.236 1379.69 803.612C1379.78 801.987 1378.53 800.6 1376.9 800.515Z" fill="#010101"/>
<path d="M1375.63 824.795L1308.67 821.286C1307.05 821.201 1305.66 822.45 1305.58 824.075C1305.49 825.699 1306.74 827.087 1308.37 827.172L1375.32 830.681C1376.94 830.766 1378.33 829.517 1378.42 827.892C1378.5 826.268 1377.25 824.88 1375.63 824.795Z" fill="#010101"/>
<path d="M1374.34 849.358L1261.77 843.458C1260.14 843.373 1258.76 844.623 1258.67 846.247C1258.59 847.872 1259.84 849.259 1261.46 849.344L1374.03 855.244C1375.66 855.329 1377.04 854.08 1377.13 852.455C1377.22 850.831 1375.97 849.443 1374.34 849.358Z" fill="#010101"/>
<path d="M1316.18 882.143C1308.88 881.76 1302.62 887.388 1302.24 894.693C1302.23 894.869 1302.24 895.088 1302.28 895.32C1302.19 902.434 1307.64 908.256 1314.79 908.631C1321.94 909.005 1327.96 903.785 1328.62 896.701C1328.68 896.474 1328.72 896.257 1328.73 896.081C1329.11 888.782 1323.48 882.525 1316.18 882.143ZM1315.1 902.744C1311.09 902.534 1308.05 899.235 1308.17 895.24C1308.18 895.075 1308.17 894.909 1308.15 894.748C1308.49 890.818 1311.9 887.827 1315.87 888.035C1316.86 888.087 1317.8 888.337 1318.64 888.735C1319.45 889.12 1320.18 889.671 1320.79 890.311C1320.81 890.336 1320.84 890.344 1320.87 890.375C1322.13 891.727 1322.88 893.543 1322.85 895.525C1322.81 895.682 1322.79 895.846 1322.77 896.011C1322.48 899.997 1319.11 902.955 1315.1 902.744Z" fill="#010101"/>
<g clip-path="url(#clip0_58_1854)">
<path d="M314.608 280.165C315.075 286.712 320.103 292.08 326.628 292.881C333.153 293.682 339.33 289.69 341.368 283.451L344.043 275.282C345.072 271.26 344.388 267.028 342.066 263.599C339.744 260.169 336.073 257.912 331.987 257.41L330.075 257.176C325.989 256.674 321.882 257.976 318.799 260.742C315.716 263.508 313.962 267.441 314.029 271.798L314.608 280.165ZM323.208 265.699C324.86 264.229 327.091 263.5 329.332 263.775L331.243 264.009C333.484 264.285 335.414 265.458 336.72 267.358C337.968 269.184 338.352 271.506 337.845 273.451L335.26 281.43C334.188 284.71 330.996 286.727 327.569 286.306C324.142 285.885 321.541 283.09 321.287 279.714L320.684 271.544C320.621 269.329 321.556 267.169 323.208 265.699Z" fill="black"/>
<path d="M353.369 329.015L351.797 310.757C351.603 308.526 350.24 306.552 348.285 305.576L335.867 299.368L324.915 307.925L316.358 296.972L302.807 299.992C300.674 300.466 298.874 302.051 298.145 304.17L292.203 321.504C291.589 323.235 292.5 325.087 294.231 325.701C295.962 326.315 297.813 325.405 298.427 323.674L304.287 306.463L313.779 304.35L323.839 317.226L336.716 307.166L345.3 311.364L346.872 329.622C347.015 331.178 348.27 332.403 349.786 332.589C349.983 332.613 350.247 332.646 350.453 332.604C352.141 332.477 353.48 330.835 353.369 329.015Z" fill="black"/>
<path d="M213.434 267.742C213.901 274.29 218.929 279.657 225.454 280.458C231.979 281.26 238.156 277.268 240.194 271.028L242.869 262.86C243.898 258.838 243.214 254.606 240.892 251.176C238.57 247.746 234.899 245.489 230.813 244.988L228.902 244.753C224.815 244.251 220.708 245.553 217.625 248.319C214.542 251.085 212.788 255.018 212.855 259.375L213.434 267.742ZM222.034 253.276C223.687 251.807 225.917 251.077 228.158 251.352L230.07 251.587C232.311 251.862 234.241 253.036 235.546 254.935C236.794 256.761 237.178 259.083 236.671 261.028L234.086 269.007C233.014 272.287 229.823 274.304 226.395 273.883C222.968 273.463 220.367 270.668 220.113 267.291L219.51 259.122C219.382 256.898 220.382 254.746 222.034 253.276Z" fill="black"/>
<path d="M235.411 294.727L243.994 298.926L245.566 317.183C245.709 318.739 246.964 319.964 248.48 320.15C248.678 320.174 248.941 320.207 249.147 320.165C250.975 319.988 252.306 318.412 252.129 316.584L250.557 298.327C250.363 296.095 249 294.121 247.046 293.145L234.628 286.937L223.601 295.552L215.052 284.533L201.501 287.553C199.369 288.027 197.568 289.612 196.84 291.731L190.898 309.066C190.284 310.797 191.194 312.648 192.925 313.262C194.656 313.876 196.507 312.966 197.121 311.235L202.915 294.016L212.408 291.903L222.468 304.78L235.411 294.727Z" fill="black"/>
<path d="M266.023 368.535C272.548 369.337 278.725 365.345 280.762 359.105L283.438 350.937C284.467 346.915 283.782 342.683 281.46 339.253C279.138 335.824 275.468 333.567 271.381 333.065L269.47 332.83C265.383 332.328 261.276 333.63 258.193 336.396C255.111 339.162 253.357 343.095 253.424 347.452L254.002 355.819C254.469 362.367 259.497 367.734 266.023 368.535ZM262.537 341.345C264.189 339.876 266.42 339.146 268.661 339.421L270.572 339.656C272.813 339.931 274.743 341.105 276.049 343.004C277.296 344.83 277.68 347.152 277.174 349.097L274.588 357.076C273.517 360.357 270.325 362.373 266.898 361.952C263.47 361.532 260.87 358.737 260.615 355.36L260.013 347.191C259.95 344.975 260.884 342.815 262.537 341.345Z" fill="black"/>
<path d="M291.118 386.47C290.924 384.238 289.56 382.264 287.606 381.288L275.188 375.08L264.17 383.629L255.612 372.677L242.061 375.696C239.929 376.17 238.129 377.756 237.4 379.874L231.458 397.209C230.844 398.94 231.754 400.791 233.485 401.405C235.216 402.019 237.068 401.109 237.682 399.378L243.476 382.159L252.968 380.046L263.028 392.923L275.905 382.862L284.489 387.061L286.061 405.318C286.204 406.874 287.459 408.099 288.975 408.285C289.172 408.309 289.436 408.342 289.642 408.3C291.47 408.123 292.801 406.547 292.624 404.719L291.118 386.47Z" fill="black"/>
<path d="M326.842 338.536C325.021 338.112 323.277 339.236 322.919 341.065C319.926 354.547 311.879 366.137 300.372 373.757C298.843 374.773 298.46 376.8 299.41 378.322C299.972 379.194 300.855 379.637 301.777 379.75C302.503 379.839 303.326 379.672 303.984 379.218C316.946 370.64 325.97 357.631 329.371 342.46C329.722 340.696 328.598 338.953 326.842 338.536Z" fill="black"/>
<path d="M217.527 328.125C217.548 326.321 216.128 324.809 214.332 324.722C212.528 324.701 211.016 326.121 210.929 327.917C210.56 343.46 216.16 358.332 226.67 369.725C227.199 370.325 227.957 370.686 228.682 370.775C229.605 370.888 230.576 370.606 231.333 369.896C232.689 368.658 232.742 366.59 231.504 365.234C222.174 355.123 217.17 341.93 217.527 328.125Z" fill="black"/>
<path d="M259.646 277.163C271.131 274.626 283.785 276.18 294.381 281.428C294.694 281.6 295.082 281.715 295.477 281.763C296.796 281.925 298.219 281.23 298.842 279.969C299.646 278.328 299.016 276.377 297.375 275.574C285.46 269.628 271.289 267.888 258.289 270.774C256.503 271.157 255.411 272.963 255.802 274.684C256.053 276.454 257.859 277.546 259.646 277.163Z" fill="black"/>
</g>
<g clip-path="url(#clip1_58_1854)">
<path d="M1442.01 348.403C1442.07 350.04 1443.44 351.323 1445.08 351.266L1486.62 349.815C1488.26 349.758 1489.54 348.383 1489.48 346.745C1489.42 345.107 1488.05 343.824 1486.41 343.881L1444.87 345.332C1443.24 345.389 1441.95 346.765 1442.01 348.403ZM1445.5 363.134L1487.03 361.683C1488.67 361.626 1489.95 360.25 1489.9 358.613C1489.84 356.975 1488.46 355.692 1486.83 355.749L1445.29 357.2C1443.65 357.257 1442.37 358.633 1442.42 360.27C1442.48 361.908 1443.86 363.191 1445.5 363.134ZM1445.91 375.001L1487.45 373.551C1489.08 373.494 1490.37 372.118 1490.31 370.48C1490.25 368.843 1488.88 367.56 1487.24 367.617L1445.7 369.068C1444.06 369.125 1442.78 370.5 1442.84 372.138C1442.9 373.776 1444.27 375.059 1445.91 375.001ZM1446.32 386.869L1487.86 385.419C1489.5 385.361 1490.78 383.986 1490.72 382.348C1490.67 380.71 1489.29 379.428 1487.65 379.485L1446.12 380.935C1444.48 380.992 1443.2 382.368 1443.25 384.006C1443.31 385.644 1444.69 386.926 1446.32 386.869ZM1419.41 381.868L1418.17 346.264C1418.06 342.989 1415.31 340.423 1412.03 340.538L1406.1 340.745C1402.82 340.859 1400.26 343.611 1400.37 346.886L1401.61 382.489L1395.68 382.697L1394.85 358.961C1394.74 355.686 1391.98 353.12 1388.71 353.234L1382.78 353.442C1379.5 353.556 1376.93 356.307 1377.05 359.583L1377.88 383.318L1371.94 383.525L1370.91 353.856C1370.79 350.581 1368.04 348.015 1364.77 348.129L1358.83 348.337C1355.56 348.451 1352.99 351.202 1353.11 354.478L1354.14 384.147L1351.17 384.251C1349.54 384.308 1348.25 385.684 1348.31 387.321C1348.37 388.959 1349.74 390.242 1351.38 390.185L1422.59 387.698C1424.23 387.641 1425.51 386.265 1425.45 384.627C1425.39 382.99 1424.02 381.707 1422.38 381.764L1419.41 381.868ZM1366.01 383.733L1360.08 383.94L1359.04 354.271L1364.97 354.063L1366.01 383.733ZM1389.75 382.904L1383.81 383.111L1382.98 359.376L1388.92 359.168L1389.75 382.904ZM1413.48 382.075L1407.55 382.282L1406.3 346.679L1412.24 346.472L1413.48 382.075ZM1493.65 296.1L1339.37 301.487C1329.54 301.831 1321.85 310.078 1322.19 319.911L1325.51 414.853C1325.85 424.685 1334.1 432.376 1343.93 432.033L1397.34 430.168L1397.96 447.969L1389.06 448.28C1387.42 448.337 1386.14 449.713 1386.19 451.351C1386.25 452.988 1387.63 454.271 1389.26 454.214L1454.54 451.935C1456.18 451.877 1457.46 450.502 1457.4 448.864C1457.34 447.226 1455.97 445.944 1454.33 446.001L1445.43 446.312L1444.81 428.51L1498.21 426.645C1508.05 426.302 1515.74 418.054 1515.39 408.222L1512.08 313.28C1511.73 303.447 1503.49 295.756 1493.65 296.1ZM1439.5 446.519L1403.89 447.762L1403.27 429.96L1438.87 428.717L1439.5 446.519ZM1509.46 408.429C1509.69 414.986 1504.56 420.482 1498.01 420.711L1343.72 426.099C1337.17 426.328 1331.67 421.202 1331.44 414.645L1328.13 319.703C1327.9 313.146 1333.02 307.65 1339.58 307.421L1493.86 302.033C1500.42 301.805 1505.91 306.93 1506.14 313.487L1509.46 408.429Z" fill="#111918"/>
</g>
<g clip-path="url(#clip2_58_1854)">
<path d="M423.412 882.37L423.251 882.348L432.708 815.06L435.444 815.445C436.778 815.632 438.011 814.703 438.198 813.37C438.386 812.036 437.457 810.803 436.123 810.616L420.934 808.481L378.104 792.443L378.556 789.229C378.743 787.895 377.814 786.662 376.481 786.475C375.147 786.287 373.914 787.216 373.727 788.55L373.275 791.764L327.683 795.375L312.495 793.241C311.161 793.053 309.928 793.983 309.741 795.316C309.553 796.65 310.482 797.883 311.816 798.07L314.553 798.455L305.096 865.742L304.935 865.719C302.183 865.333 299.63 867.256 299.243 870.008L298.52 875.159C298.133 877.911 300.057 880.464 302.808 880.851L359.632 888.837L357.616 903.181L313.573 925.149C312.368 925.75 311.878 927.214 312.479 928.419C312.852 929.166 313.556 929.638 314.324 929.746C314.796 929.812 315.291 929.741 315.75 929.513L339.493 917.67L355.693 927.481C355.772 927.528 355.854 927.571 355.938 927.61C355.949 927.615 355.96 927.619 355.97 927.623C356.026 927.648 356.083 927.673 356.141 927.694C356.172 927.705 356.204 927.712 356.235 927.722C356.26 927.73 356.284 927.737 356.309 927.744C356.411 927.772 356.513 927.796 356.616 927.811L356.617 927.811L356.618 927.811C356.721 927.825 356.826 927.831 356.931 927.832C356.958 927.832 356.984 927.831 357.01 927.831C357.042 927.83 357.074 927.831 357.106 927.829C357.169 927.826 357.23 927.817 357.291 927.809C357.302 927.807 357.314 927.807 357.325 927.805C357.417 927.791 357.507 927.773 357.596 927.748L375.873 922.783L395.433 940.711C395.81 941.057 396.267 941.262 396.739 941.328C397.507 941.436 398.314 941.177 398.878 940.561C399.788 939.569 399.72 938.026 398.728 937.116L362.446 903.86L364.462 889.516L421.285 897.502C424.037 897.888 426.59 895.965 426.977 893.213L427.701 888.062C428.088 885.31 426.164 882.757 423.412 882.37ZM355.057 921.394L344.655 915.096L356.793 909.042L355.057 921.394ZM377.409 797.39L398.673 805.352L376.723 802.268L377.409 797.39ZM372.58 796.711L371.894 801.589L349.945 798.504L372.58 796.711ZM319.382 799.133L327.262 800.241C327.264 800.241 327.265 800.242 327.267 800.242C327.27 800.242 327.273 800.242 327.276 800.243L419.984 813.272C419.987 813.272 419.99 813.273 419.993 813.274C419.995 813.274 419.997 813.274 419.998 813.274L427.879 814.382L418.422 881.669L309.925 866.421L319.382 799.133ZM371.62 918.885L359.886 922.073L361.622 909.72L371.62 918.885ZM422.148 892.534C422.135 892.623 422.053 892.685 421.964 892.672L303.487 876.022C303.398 876.009 303.336 875.927 303.349 875.838L304.073 870.687C304.085 870.598 304.167 870.536 304.256 870.548L422.733 887.199C422.822 887.212 422.884 887.294 422.872 887.383L422.148 892.534Z" fill="black"/>
<path d="M418.498 823.897L392.742 820.278C391.408 820.09 390.175 821.019 389.988 822.353C389.8 823.686 390.73 824.919 392.063 825.107L417.819 828.727C419.152 828.914 420.386 827.985 420.573 826.651C420.76 825.318 419.831 824.085 418.498 823.897Z" fill="black"/>
<path d="M417.049 834.2L391.294 830.58C389.96 830.392 388.727 831.322 388.54 832.655C388.352 833.989 389.281 835.222 390.615 835.409L416.371 839.029C417.704 839.216 418.937 838.287 419.125 836.954C419.312 835.62 418.383 834.387 417.049 834.2Z" fill="black"/>
<path d="M415.602 844.502L397.573 841.968C396.239 841.781 395.006 842.71 394.819 844.043C394.631 845.377 395.561 846.61 396.894 846.797L414.923 849.331C416.257 849.519 417.49 848.589 417.677 847.256C417.865 845.922 416.935 844.689 415.602 844.502Z" fill="black"/>
<path d="M414.154 854.804L396.125 852.271C394.791 852.083 393.558 853.012 393.371 854.346C393.183 855.679 394.112 856.912 395.446 857.1L413.475 859.634C414.809 859.821 416.042 858.892 416.229 857.558C416.416 856.225 415.487 854.992 414.154 854.804Z" fill="black"/>
<path d="M412.706 865.107L394.677 862.573C393.344 862.385 392.111 863.315 391.923 864.648C391.736 865.982 392.665 867.215 393.999 867.402L412.028 869.936C413.361 870.123 414.594 869.194 414.782 867.861C414.969 866.527 414.04 865.294 412.706 865.107Z" fill="black"/>
<path d="M381.075 865.914L378.338 865.53L384.153 824.159C384.739 819.987 381.822 816.116 377.65 815.53C373.478 814.944 369.607 817.861 369.021 822.033L363.207 863.403L357.734 862.634L360.652 841.868C361.238 837.696 358.321 833.825 354.15 833.239C349.978 832.653 346.107 835.57 345.52 839.741L342.602 860.507L337.129 859.738L338.237 851.85C338.824 847.678 335.907 843.807 331.735 843.221C327.563 842.635 323.692 845.552 323.106 849.724L321.997 857.611L319.261 857.227C317.927 857.039 316.694 857.969 316.507 859.302C316.319 860.636 317.248 861.869 318.582 862.056L380.396 870.743C381.73 870.931 382.963 870.002 383.15 868.668C383.338 867.335 382.408 866.102 381.075 865.914ZM332.3 859.059L326.827 858.29L327.935 850.402C328.147 848.893 329.547 847.838 331.056 848.05C332.565 848.262 333.62 849.663 333.408 851.172L332.3 859.059ZM352.904 861.955L347.431 861.186L350.35 840.42C350.562 838.911 351.962 837.856 353.471 838.068C354.98 838.28 356.035 839.68 355.823 841.189L352.904 861.955ZM373.509 864.851L368.036 864.082L373.85 822.711C374.062 821.202 375.462 820.147 376.971 820.359C378.48 820.571 379.535 821.972 379.323 823.48L373.509 864.851Z" fill="black"/>
</g>
<path d="M247.096 1373.48C247.541 1376.29 245.626 1378.93 242.819 1379.37C240.012 1379.81 237.376 1377.9 236.931 1375.09C235.597 1366.67 241.343 1358.76 249.764 1357.43L280.259 1352.6C288.679 1351.27 296.587 1357.01 297.921 1365.43C298.365 1368.24 296.45 1370.88 293.643 1371.32C290.836 1371.76 288.201 1369.85 287.756 1367.04C287.311 1364.24 284.675 1362.32 281.868 1362.77L251.374 1367.6C248.567 1368.04 246.652 1370.68 247.096 1373.48ZM210.714 1374.04C213.521 1373.59 216.157 1375.51 216.601 1378.31C217.046 1381.12 215.131 1383.76 212.324 1384.2C203.903 1385.53 198.158 1393.44 199.491 1401.86L218.811 1523.84C220.145 1532.26 228.052 1538.01 236.473 1536.67L348.288 1518.96C356.709 1517.63 362.454 1509.72 361.12 1501.3L341.801 1379.32C340.467 1370.9 332.559 1365.16 324.138 1366.49C321.331 1366.93 318.695 1365.02 318.251 1362.21C317.806 1359.41 319.721 1356.77 322.528 1356.33C336.563 1354.1 349.743 1363.68 351.966 1377.71L371.285 1499.69C373.508 1513.73 363.933 1526.91 349.898 1529.13L238.083 1546.84C224.048 1549.06 210.869 1539.49 208.646 1525.45L189.326 1403.47C187.103 1389.44 196.679 1376.26 210.714 1374.04Z" fill="black"/>
<path d="M306.89 1412.43C308.56 1410.13 311.778 1409.62 314.078 1411.29C316.377 1412.96 316.886 1416.18 315.216 1418.48L272.441 1477.35C270.771 1479.65 267.553 1480.16 265.253 1478.49L241.703 1461.38C239.404 1459.71 238.895 1456.49 240.565 1454.19C242.236 1451.89 245.454 1451.38 247.753 1453.05L267.14 1467.14L306.89 1412.43Z" fill="black"/>
<g clip-path="url(#clip3_58_1854)">
<path d="M1437.55 1390.72C1436.2 1391.31 1434.87 1391.85 1433.55 1392.34L1433.48 1392.34C1430.33 1392.74 1425.88 1393.79 1422.65 1394.51C1418.32 1395.48 1414.4 1397.58 1411.18 1398.33C1408.8 1398.8 1406.37 1399.05 1403.93 1399.06C1400.01 1399.06 1390.72 1397.56 1386.2 1396.73L1385.49 1396.6C1383.63 1409.86 1375.25 1449.67 1370.72 1464.06C1372.41 1464.19 1374.95 1464.42 1378.48 1464.82C1380.68 1465.11 1382.84 1465.63 1384.94 1466.36C1385.19 1466.44 1385.44 1466.54 1385.69 1466.63C1385.69 1466.63 1408.41 1477.15 1415.55 1482.01C1423.4 1487.37 1457.49 1508.25 1457.49 1508.25C1461.71 1510.52 1466.08 1512.51 1470.57 1514.19C1474.13 1515.39 1477.96 1515.54 1481.6 1514.61C1484.95 1513.59 1486.6 1511.13 1486.76 1508.61L1486.68 1507.31C1489.75 1508.61 1496.68 1509.82 1501.46 1505.81C1503.63 1503.99 1504.91 1499.86 1503.96 1497.24L1503.75 1496.4C1508.17 1498.86 1516.02 1498.97 1520.61 1493.44C1523.21 1490.32 1522.53 1484.21 1518.61 1480.64L1519.07 1480.94C1525.69 1483.1 1531.8 1480.05 1533.82 1476.66C1535.75 1473.43 1536.59 1468.09 1532.63 1463.88C1536.38 1461.45 1541.05 1459.06 1544.99 1456.64C1548.14 1454.64 1551.41 1452.84 1554.78 1451.24C1550.13 1434.9 1542.88 1400.69 1541.01 1387.94C1538.19 1388.6 1535.04 1389.24 1531.39 1389.82C1526.48 1390.71 1483.13 1381.82 1470.64 1380.48C1458.69 1379.72 1447.74 1386.32 1437.55 1390.72Z" fill="white"/>
<path d="M1401.14 1481.51C1402.86 1477.55 1405.21 1473.9 1408.11 1470.7C1409.6 1468.85 1411.42 1467.29 1413.48 1466.09C1415.27 1465.2 1417.28 1464.84 1419.27 1465.03C1421.26 1465.23 1423.16 1465.98 1424.75 1467.19C1427.88 1469.66 1429.1 1474.34 1428.14 1478.19C1427.19 1482.05 1419.88 1492.98 1415.46 1495.72C1414.19 1496.45 1412.77 1496.89 1411.3 1497.01C1409.84 1497.13 1408.37 1496.92 1406.99 1496.4C1403.88 1495.1 1402.3 1493.35 1400.9 1490.28C1399.83 1487.93 1399.98 1484.23 1401.14 1481.51Z" fill="white"/>
<path d="M1421.76 1492.27C1423.09 1488.31 1425.07 1484.6 1427.61 1481.28C1428.91 1479.37 1430.54 1477.72 1432.43 1476.4C1434.09 1475.4 1436 1474.89 1437.94 1474.91C1439.88 1474.94 1441.77 1475.51 1443.4 1476.56C1446.62 1478.7 1448.17 1483.12 1447.55 1486.91C1446.94 1490.7 1440.76 1501.84 1436.71 1504.84C1435.54 1505.65 1434.2 1506.19 1432.8 1506.42C1431.4 1506.65 1429.96 1506.56 1428.59 1506.18C1425.48 1505.16 1423.82 1503.6 1422.22 1500.75C1421 1498.57 1420.85 1494.99 1421.76 1492.27Z" fill="white"/>
<path d="M1439.53 1506.4C1440.15 1502.96 1442.71 1496.96 1445.46 1494.52C1446.7 1493.49 1448.21 1492.84 1449.81 1492.63C1451.4 1492.42 1453.03 1492.68 1454.49 1493.36C1457.38 1494.73 1458.83 1498.79 1458.77 1501.97C1458.72 1505.16 1456.27 1512.01 1453.3 1514.95C1452.43 1515.75 1451.4 1516.35 1450.27 1516.71C1449.15 1517.06 1447.96 1517.17 1446.79 1517.01C1445.6 1516.84 1444.47 1516.42 1443.46 1515.79C1442.44 1515.15 1441.58 1514.31 1440.91 1513.31C1439.59 1511.27 1439.09 1508.8 1439.53 1506.4Z" fill="white"/>
<path d="M1381.45 1477.56C1380.46 1474.99 1381.27 1470.51 1382.91 1468.5C1385.54 1465.24 1391.36 1466.03 1394.5 1468C1396.81 1469.45 1399.88 1472.71 1400.56 1474.31C1402.64 1478.65 1400.59 1482.47 1399.05 1483.65C1397.25 1485.05 1392.83 1485.51 1390.58 1485.15C1388.54 1484.76 1386.63 1483.85 1385.04 1482.52C1383.44 1481.2 1382.21 1479.49 1381.45 1477.56Z" fill="white"/>
<path d="M1317.1 1370.51C1335.58 1375.55 1366.33 1383.58 1374.2 1385.97C1366.61 1415.48 1360.59 1457.01 1354.18 1473.78C1347.72 1472.29 1327.95 1467.21 1316.31 1464.31" fill="white"/>
<path d="M1609.49 1361.36C1591 1366.4 1560.25 1374.43 1552.38 1376.82C1559.97 1406.33 1565.99 1447.86 1572.4 1464.64C1578.87 1463.14 1598.63 1458.07 1610.28 1455.16" fill="white"/>
<path d="M1545.8 1382.51C1548.28 1381.72 1551.09 1380.88 1553 1380.33L1553.25 1380.26C1559.37 1405.15 1564.49 1437.18 1569.68 1456.09C1569.45 1456.15 1569.33 1456.19 1569.33 1456.19C1566.09 1457.17 1561.08 1457.92 1557.33 1458.91C1553.12 1449.78 1541.21 1393.79 1540.58 1384.36C1542.28 1383.64 1544.02 1383.03 1545.8 1382.51Z" fill="white"/>
<path d="M1357.07 1464.61C1362.21 1445.64 1367.28 1414.06 1373.33 1389.44C1373.49 1389.47 1373.58 1389.48 1373.58 1389.48C1377.37 1390.57 1384.45 1392.82 1385.83 1393.57C1385.2 1403 1373.46 1458.92 1369.26 1468.06C1365.5 1467.07 1360.49 1466.32 1357.25 1465.34L1356.9 1465.24C1356.96 1465.03 1357.01 1464.82 1357.07 1464.61Z" fill="white"/>
<path d="M1465.69 1413.26C1462.6 1412.64 1459.14 1413.34 1456.11 1413.93C1454.24 1414.28 1452.39 1414.75 1450.57 1415.33C1448.82 1415.9 1446.64 1416.53 1445.28 1417.85C1444.57 1418.65 1443.99 1419.56 1443.58 1420.55C1443.06 1421.56 1442.56 1422.58 1442.05 1423.59C1441.14 1425.41 1440.23 1427.24 1439.21 1429C1437.32 1432.5 1434.75 1435.58 1431.65 1438.07C1430.26 1439.24 1428.55 1439.98 1426.74 1440.18C1425.06 1440.5 1423.32 1440.39 1421.69 1439.86C1420.09 1439.2 1418.39 1437.69 1418.17 1435.87C1418.13 1434.79 1418.17 1433.7 1418.3 1432.62C1418.36 1431.3 1418.4 1429.98 1418.43 1428.66C1418.53 1424.51 1418.53 1420.35 1418.86 1416.21C1419.04 1414.03 1419.31 1411.86 1419.68 1409.71C1420.07 1407.41 1420.46 1404.95 1421.55 1402.86C1423.55 1399 1427.66 1396.32 1431.7 1395C1435.85 1393.58 1439.9 1391.9 1443.83 1389.98C1452 1386.17 1460.58 1382.04 1469.82 1382.36C1470.42 1382.38 1471 1382.44 1471.6 1382.51C1471.82 1382.54 1472.03 1382.57 1472.25 1382.59L1472.59 1382.64C1472.74 1382.66 1472.68 1382.65 1472.43 1382.62L1472.72 1382.65C1473.83 1382.81 1474.95 1382.97 1476.06 1383.15C1478.87 1383.58 1481.67 1384.05 1484.47 1384.53C1491.04 1385.65 1497.6 1386.84 1504.17 1387.98C1510.19 1389.03 1516.21 1390.09 1522.25 1390.95C1524.37 1391.25 1526.49 1391.55 1528.63 1391.72C1530.61 1391.82 1532.6 1391.65 1534.55 1391.23C1536.89 1390.81 1539.21 1390.34 1541.53 1389.8C1543.94 1389.24 1542.92 1385.52 1540.5 1386.08C1538.07 1386.65 1535.62 1387.15 1533.16 1387.57C1532.46 1387.7 1531.77 1387.8 1531.07 1387.92C1530.36 1388.05 1531.46 1387.94 1531.09 1387.92C1530.85 1387.91 1530.59 1387.95 1530.34 1387.95C1528.62 1387.9 1526.9 1387.75 1525.19 1387.49L1524.42 1387.39C1523.9 1387.32 1524.69 1387.43 1524.37 1387.38L1523.96 1387.32C1523.29 1387.23 1522.62 1387.14 1521.96 1387.04C1520.58 1386.83 1519.21 1386.62 1517.84 1386.4C1514.63 1385.89 1511.43 1385.34 1508.23 1384.79C1496.04 1382.69 1483.88 1380.15 1471.6 1378.65C1462.61 1377.56 1453.68 1381.23 1445.68 1384.89C1441.58 1386.76 1437.54 1388.8 1433.31 1390.38C1431.16 1391.07 1429.04 1391.88 1426.97 1392.81C1424.86 1393.87 1422.94 1395.26 1421.26 1396.92C1419.46 1398.68 1418.09 1400.84 1417.24 1403.21C1416.49 1405.59 1415.97 1408.04 1415.67 1410.51C1415.07 1414.86 1414.74 1419.23 1414.69 1423.62C1414.64 1425.8 1414.61 1427.98 1414.54 1430.15C1414.5 1431.47 1414.45 1432.79 1414.38 1434.11C1414.14 1435.9 1414.48 1437.73 1415.35 1439.31C1416.22 1440.9 1417.57 1442.16 1419.21 1442.92C1421.1 1443.87 1423.2 1444.3 1425.31 1444.15C1427.44 1444.14 1429.54 1443.68 1431.48 1442.81C1433.43 1441.73 1435.19 1440.36 1436.72 1438.75C1439.58 1435.78 1441.96 1432.39 1443.78 1428.69C1444.8 1426.74 1445.77 1424.75 1446.77 1422.78C1447.15 1422.03 1447.48 1420.95 1448.18 1420.46C1448.87 1420.03 1449.61 1419.7 1450.39 1419.46C1453.9 1418.19 1457.55 1417.37 1461.27 1417.03C1461.99 1416.97 1462.71 1416.92 1463.43 1416.91C1463.71 1416.91 1463.99 1416.91 1464.27 1416.93C1464.41 1416.94 1464.55 1416.95 1464.7 1416.97C1464.15 1416.91 1464.55 1416.95 1464.67 1416.98C1465.16 1417.1 1465.68 1417.03 1466.13 1416.78C1466.57 1416.53 1466.9 1416.12 1467.04 1415.63C1467.17 1415.14 1467.11 1414.61 1466.85 1414.17C1466.6 1413.73 1466.19 1413.4 1465.7 1413.26H1465.69Z" fill="black"/>
<path d="M1464.66 1416.97C1464.83 1417.04 1465.35 1417.29 1464.71 1416.98C1464.86 1417.05 1465.02 1417.12 1465.17 1417.19C1465.56 1417.37 1465.93 1417.57 1466.3 1417.77C1467.19 1418.27 1468.06 1418.82 1468.92 1419.37C1471.59 1421.11 1474.18 1422.96 1476.79 1424.8C1485.54 1430.99 1494.37 1437.09 1503.08 1443.34C1507.97 1446.86 1512.81 1450.45 1517.6 1454.11C1519.97 1455.93 1522.32 1457.78 1524.65 1459.66C1525.83 1460.61 1527 1461.56 1528.17 1462.53C1529.4 1463.45 1530.54 1464.47 1531.59 1465.59C1532.74 1467.03 1533.41 1468.81 1533.49 1470.65C1533.57 1472.5 1533.07 1474.33 1532.04 1475.87C1530.94 1477.35 1529.41 1478.45 1527.66 1479.02C1526.55 1479.42 1525.39 1479.66 1524.21 1479.72C1522.76 1479.87 1521.3 1479.69 1519.93 1479.19C1519.17 1478.75 1518.44 1478.26 1517.75 1477.71C1516.77 1477.05 1515.8 1476.38 1514.84 1475.71C1512.65 1474.2 1510.46 1472.69 1508.27 1471.17C1504.39 1468.47 1500.52 1465.76 1496.66 1463.04C1496.22 1462.78 1495.69 1462.71 1495.2 1462.84C1494.71 1462.97 1494.28 1463.29 1494.02 1463.73C1493.78 1464.17 1493.71 1464.69 1493.84 1465.19C1493.97 1465.68 1494.28 1466.1 1494.71 1466.36C1502.07 1471.57 1509.47 1476.72 1516.91 1481.8C1517.93 1482.53 1519.09 1483.02 1520.32 1483.26C1521.81 1483.56 1523.34 1483.65 1524.86 1483.53C1527.55 1483.33 1530.14 1482.41 1532.36 1480.88C1534.15 1479.55 1535.55 1477.76 1536.41 1475.7C1537.27 1473.65 1537.55 1471.39 1537.23 1469.18C1536.87 1466.57 1535.65 1464.14 1533.78 1462.28C1531.47 1460.12 1529.04 1458.1 1526.49 1456.22C1521.43 1452.17 1516.28 1448.22 1511.04 1444.39C1501.47 1437.34 1491.66 1430.62 1481.96 1423.75C1478.84 1421.54 1475.73 1419.31 1472.57 1417.17C1470.82 1415.91 1468.97 1414.79 1467.05 1413.82C1466.6 1413.61 1466.15 1413.42 1465.7 1413.25C1465.2 1413.12 1464.68 1413.19 1464.23 1413.44C1463.79 1413.69 1463.46 1414.11 1463.32 1414.6C1463.2 1415.09 1463.27 1415.61 1463.52 1416.05C1463.77 1416.5 1464.18 1416.82 1464.67 1416.97L1464.66 1416.97Z" fill="black"/>
<path d="M1456.52 1509.91C1460.42 1512.06 1464.46 1513.94 1468.62 1515.53C1473.4 1517.37 1479.77 1518.18 1484.41 1515.48C1485.63 1514.78 1486.66 1513.78 1487.41 1512.58C1488.15 1511.38 1488.59 1510.01 1488.69 1508.6C1488.68 1508.09 1488.48 1507.61 1488.12 1507.24C1487.76 1506.88 1487.27 1506.68 1486.76 1506.68C1486.25 1506.69 1485.77 1506.89 1485.41 1507.25C1485.05 1507.61 1484.84 1508.09 1484.83 1508.6C1484.65 1510.84 1482.71 1512.36 1480.49 1512.92C1477.46 1513.58 1474.32 1513.41 1471.38 1512.43C1469.15 1511.67 1466.97 1510.78 1464.85 1509.75C1462.69 1508.76 1460.54 1507.74 1458.46 1506.58C1456.3 1505.37 1454.35 1508.7 1456.52 1509.91Z" fill="black"/>
<path d="M1385.69 1398.58C1391.34 1399.75 1397.07 1400.54 1402.83 1400.96C1405.81 1401.11 1408.79 1400.85 1411.7 1400.19C1415.27 1399.36 1418.55 1397.58 1422.09 1396.63C1425.83 1395.6 1429.64 1394.81 1433.48 1394.27C1433.99 1394.26 1434.47 1394.05 1434.83 1393.69C1435.19 1393.33 1435.4 1392.85 1435.41 1392.34C1435.41 1391.83 1435.21 1391.34 1434.84 1390.98C1434.48 1390.62 1433.99 1390.42 1433.48 1390.42C1430 1390.87 1426.57 1391.65 1423.14 1392.42C1419.5 1393.24 1416.15 1394.7 1412.63 1395.9C1407.33 1397.69 1401.67 1397.16 1396.23 1396.4C1393.05 1395.96 1389.87 1395.45 1386.71 1394.86C1386.22 1394.74 1385.7 1394.81 1385.26 1395.06C1384.82 1395.31 1384.49 1395.72 1384.34 1396.21C1384.21 1396.7 1384.28 1397.23 1384.53 1397.67C1384.78 1398.11 1385.2 1398.44 1385.69 1398.58V1398.58Z" fill="black"/>
<path d="M1534.85 1464.76C1538.25 1462.67 1541.78 1460.81 1545.2 1458.76C1548.61 1456.62 1552.13 1454.66 1555.75 1452.9C1556.19 1452.64 1556.5 1452.21 1556.63 1451.72C1556.76 1451.23 1556.69 1450.7 1556.44 1450.26C1556.17 1449.83 1555.75 1449.51 1555.26 1449.38C1554.77 1449.26 1554.25 1449.32 1553.8 1449.57C1550.18 1451.33 1546.66 1453.29 1543.25 1455.43C1539.84 1457.49 1536.3 1459.34 1532.9 1461.43C1530.79 1462.72 1532.73 1466.06 1534.85 1464.76Z" fill="black"/>
<path d="M1480.61 1483.91C1487.3 1488.38 1494.1 1492.68 1500.93 1496.93C1502.51 1498 1504.24 1498.83 1506.07 1499.38C1508.07 1499.91 1510.16 1500.06 1512.21 1499.83C1516.68 1499.3 1521.58 1496.84 1523.37 1492.47C1525.31 1487.73 1523.24 1481.85 1519.36 1478.74C1518.99 1478.39 1518.5 1478.2 1517.99 1478.2C1517.49 1478.2 1517 1478.39 1516.63 1478.74C1516.27 1479.1 1516.07 1479.59 1516.07 1480.1C1516.07 1480.61 1516.27 1481.1 1516.63 1481.47C1519.41 1483.69 1520.98 1487.5 1519.89 1490.82C1519.4 1492.27 1517.97 1493.59 1516.44 1494.49C1514.92 1495.39 1513.21 1495.92 1511.45 1496.04C1509.68 1496.19 1507.9 1495.96 1506.21 1495.39C1504.83 1494.82 1503.51 1494.09 1502.29 1493.23C1498.83 1491.07 1495.39 1488.89 1491.96 1486.68C1488.82 1484.67 1485.66 1482.66 1482.56 1480.58C1480.49 1479.2 1478.56 1482.53 1480.61 1483.91V1483.91Z" fill="black"/>
<path d="M1468.12 1497.83C1473.63 1501.47 1479.12 1505.25 1484.84 1508.55C1487.18 1509.77 1489.78 1510.42 1492.42 1510.46C1495.9 1510.69 1499.36 1509.7 1502.19 1507.66C1505.31 1505.29 1507.08 1500.53 1505.81 1496.73C1505.03 1494.39 1501.3 1495.39 1502.09 1497.75C1502.42 1498.98 1502.39 1500.29 1502 1501.5C1501.61 1502.71 1500.88 1503.79 1499.89 1504.6C1497.56 1506.21 1494.72 1506.91 1491.91 1506.57C1490.75 1506.48 1489.6 1506.26 1488.49 1505.92C1488.28 1505.86 1488.07 1505.79 1487.86 1505.71C1487.76 1505.68 1487.14 1505.43 1487.53 1505.6C1487.19 1505.45 1486.86 1505.27 1486.55 1505.08C1483.94 1503.49 1481.36 1501.86 1478.8 1500.21C1475.87 1498.32 1472.96 1496.42 1470.06 1494.5C1467.98 1493.13 1466.05 1496.47 1468.12 1497.83L1468.12 1497.83Z" fill="black"/>
<path d="M1370.72 1465.98C1375.62 1466.37 1380.55 1466.72 1385.18 1468.49C1385.67 1468.62 1386.2 1468.55 1386.64 1468.3C1387.09 1468.05 1387.41 1467.63 1387.55 1467.14C1387.68 1466.65 1387.61 1466.13 1387.36 1465.69C1387.11 1465.24 1386.69 1464.92 1386.21 1464.77C1381.27 1462.88 1375.94 1462.54 1370.72 1462.13C1370.21 1462.13 1369.72 1462.34 1369.36 1462.7C1369 1463.06 1368.79 1463.55 1368.79 1464.06C1368.8 1464.56 1369.01 1465.05 1369.36 1465.41C1369.72 1465.77 1370.21 1465.97 1370.72 1465.98Z" fill="black"/>
<path d="M1346.78 1376.49C1337.24 1373.94 1327.7 1371.4 1318.17 1368.8C1317.88 1368.73 1317.58 1368.72 1317.29 1368.78C1317 1368.84 1316.73 1368.96 1316.5 1369.14C1316.26 1369.32 1316.07 1369.55 1315.94 1369.81C1315.8 1370.08 1315.73 1370.37 1315.73 1370.66C1315.74 1394.93 1315.43 1419.2 1315.19 1443.47C1315.12 1450.37 1315.06 1457.28 1315 1464.18C1315 1464.6 1315.15 1465.01 1315.4 1465.34C1315.65 1465.68 1316.01 1465.92 1316.42 1466.04C1326.9 1468.66 1337.34 1471.5 1347.81 1474.19C1349.76 1474.69 1351.71 1475.19 1353.67 1475.64C1354.16 1475.76 1354.68 1475.69 1355.12 1475.44C1355.56 1475.19 1355.89 1474.78 1356.04 1474.3C1359.56 1465.05 1361.47 1455.13 1363.5 1445.48C1366.16 1432.77 1368.57 1420.01 1371.26 1407.31C1372.73 1400.34 1374.29 1393.38 1376.06 1386.48C1376.18 1385.99 1376.11 1385.47 1375.86 1385.03C1375.61 1384.58 1375.2 1384.26 1374.71 1384.11C1365.48 1381.32 1356.1 1378.98 1346.78 1376.49C1344.38 1375.85 1343.36 1379.57 1345.76 1380.21C1355.07 1382.7 1364.46 1385.03 1373.68 1387.83L1372.34 1385.46C1369.13 1397.99 1366.58 1410.69 1364.05 1423.37C1361.67 1435.27 1359.4 1447.21 1356.52 1459C1355.42 1463.84 1354.02 1468.61 1352.33 1473.27L1354.7 1471.92C1345.08 1469.69 1335.56 1466.99 1326 1464.5C1323.15 1463.77 1320.3 1463.04 1317.44 1462.32L1318.86 1464.18C1319.06 1439.32 1319.38 1414.46 1319.52 1389.6C1319.56 1383.29 1319.58 1376.98 1319.58 1370.66L1317.14 1372.52C1326.67 1375.12 1336.22 1377.66 1345.76 1380.21C1348.16 1380.85 1349.18 1377.13 1346.78 1376.49Z" fill="black"/>
<path d="M1373.07 1391.34C1375.38 1392.01 1377.68 1392.72 1379.97 1393.47C1381.03 1393.82 1382.1 1394.17 1383.16 1394.55C1383.58 1394.7 1383.99 1394.86 1384.41 1395.02C1384.9 1395.21 1384.07 1394.86 1384.48 1395.05C1384.61 1395.11 1384.73 1395.17 1384.86 1395.23L1383.9 1393.57C1383.86 1394.14 1383.8 1394.72 1383.73 1395.29C1383.71 1395.45 1383.69 1395.62 1383.67 1395.79C1383.6 1396.32 1383.73 1395.37 1383.65 1395.92C1383.59 1396.36 1383.53 1396.79 1383.46 1397.23C1383.16 1399.26 1382.81 1401.29 1382.45 1403.31C1381.47 1408.85 1380.38 1414.37 1379.25 1419.88C1376.79 1431.87 1374.18 1443.86 1371.07 1455.71C1370.45 1458.09 1369.8 1460.47 1369.07 1462.83C1368.8 1463.72 1368.52 1464.6 1368.21 1465.48C1368.08 1465.85 1367.95 1466.22 1367.8 1466.59C1367.74 1466.75 1367.67 1466.9 1367.61 1467.06C1367.77 1466.64 1367.72 1466.8 1367.59 1467.09L1369.77 1466.21C1365.8 1465.18 1361.7 1464.65 1357.76 1463.48C1355.38 1462.78 1354.36 1466.5 1356.74 1467.2C1360.67 1468.37 1364.77 1468.89 1368.74 1469.92C1369.15 1470.03 1369.59 1470 1369.98 1469.84C1370.37 1469.68 1370.7 1469.4 1370.92 1469.04C1372.32 1465.67 1373.45 1462.19 1374.28 1458.63C1375.78 1453.11 1377.11 1447.54 1378.39 1441.97C1381.15 1430 1383.7 1417.98 1385.89 1405.9C1386.74 1401.83 1387.36 1397.72 1387.76 1393.57C1387.76 1393.24 1387.68 1392.9 1387.51 1392.61C1387.34 1392.32 1387.1 1392.08 1386.8 1391.91C1385.01 1391.07 1383.16 1390.38 1381.25 1389.84C1378.88 1389.06 1376.49 1388.32 1374.1 1387.63C1371.71 1386.94 1370.69 1390.66 1373.07 1391.34V1391.34Z" fill="black"/>
<path d="M1580.82 1371.06C1590.36 1368.51 1599.91 1365.97 1609.44 1363.37L1607 1361.51C1606.99 1385.74 1607.3 1409.97 1607.54 1434.19C1607.6 1441.14 1607.67 1448.08 1607.73 1455.03L1609.14 1453.17C1598.65 1455.79 1588.22 1458.64 1577.75 1461.32C1575.8 1461.82 1573.85 1462.32 1571.89 1462.78L1574.26 1464.12C1570.74 1454.88 1568.83 1444.96 1566.8 1435.31C1564.14 1422.6 1561.73 1409.84 1559.04 1397.13C1557.56 1390.17 1556.01 1383.21 1554.24 1376.31L1552.9 1378.68C1562.13 1375.89 1571.51 1373.55 1580.82 1371.06C1583.22 1370.42 1582.2 1366.7 1579.8 1367.34C1570.48 1369.84 1561.1 1372.17 1551.87 1374.96C1551.38 1375.11 1550.97 1375.44 1550.72 1375.88C1550.47 1376.32 1550.4 1376.84 1550.53 1377.34C1553.74 1389.86 1556.28 1402.56 1558.82 1415.24C1561.2 1427.14 1563.46 1439.08 1566.35 1450.88C1567.45 1455.71 1568.85 1460.48 1570.54 1465.15C1570.69 1465.63 1571.02 1466.04 1571.46 1466.29C1571.9 1466.54 1572.42 1466.61 1572.91 1466.49C1582.53 1464.26 1592.05 1461.55 1601.61 1459.07C1604.46 1458.33 1607.31 1457.6 1610.17 1456.89C1610.57 1456.77 1610.93 1456.53 1611.18 1456.19C1611.44 1455.86 1611.58 1455.45 1611.58 1455.03C1611.38 1430.11 1611.05 1405.2 1610.91 1380.28C1610.87 1374.02 1610.86 1367.77 1610.85 1361.51C1610.85 1361.22 1610.78 1360.93 1610.65 1360.66C1610.51 1360.4 1610.32 1360.17 1610.09 1359.99C1609.85 1359.81 1609.58 1359.69 1609.29 1359.63C1609 1359.57 1608.7 1359.58 1608.41 1359.65C1598.88 1362.25 1589.34 1364.79 1579.8 1367.34C1577.41 1367.98 1578.42 1371.7 1580.82 1371.06Z" fill="black"/>
<path d="M1552.49 1378.47C1550.06 1379.17 1547.63 1379.91 1545.22 1380.67C1543.3 1381.19 1541.42 1381.86 1539.61 1382.69C1539.31 1382.86 1539.07 1383.1 1538.9 1383.39C1538.73 1383.69 1538.65 1384.02 1538.65 1384.36C1538.99 1387.91 1539.51 1391.43 1540.23 1394.92C1541.22 1400.51 1542.33 1406.07 1543.49 1411.62C1546 1423.73 1548.66 1435.83 1551.83 1447.79C1552.91 1451.84 1553.91 1456.05 1555.66 1459.88C1555.88 1460.25 1556.21 1460.53 1556.6 1460.69C1556.99 1460.85 1557.43 1460.87 1557.84 1460.76C1561.81 1459.73 1565.91 1459.21 1569.85 1458.04C1572.22 1457.34 1571.21 1453.62 1568.82 1454.33C1564.89 1455.49 1560.79 1456.02 1556.81 1457.05L1558.99 1457.93C1558.95 1457.81 1558.9 1457.7 1558.84 1457.59C1559.19 1458.03 1558.94 1457.85 1558.85 1457.59C1558.72 1457.27 1558.6 1456.95 1558.48 1456.62C1558.2 1455.86 1557.95 1455.08 1557.7 1454.31C1557.07 1452.32 1556.51 1450.31 1555.96 1448.3C1554.48 1442.84 1553.15 1437.35 1551.87 1431.84C1549.1 1419.92 1546.52 1407.93 1544.3 1395.88C1543.86 1393.47 1543.43 1391.05 1543.05 1388.63C1542.97 1388.14 1542.9 1387.64 1542.83 1387.14C1542.8 1386.94 1542.77 1386.73 1542.74 1386.52C1542.69 1386.15 1542.79 1386.94 1542.72 1386.35C1542.64 1385.69 1542.56 1385.02 1542.51 1384.35L1541.55 1386.01C1541.67 1385.94 1541.78 1385.89 1541.91 1385.84C1541.41 1385.95 1541.82 1385.88 1541.96 1385.83C1542.36 1385.69 1542.75 1385.54 1543.15 1385.4C1544.26 1385.01 1545.38 1384.65 1546.51 1384.3C1548.83 1383.56 1551.17 1382.85 1553.51 1382.18C1555.89 1381.49 1554.88 1377.77 1552.49 1378.46L1552.49 1378.47Z" fill="black"/>
<path d="M1402.81 1482.49C1404.17 1479.32 1405.95 1476.36 1408.1 1473.67C1410.05 1471.28 1412.36 1468.36 1415.4 1467.36C1416.76 1466.91 1418.21 1466.79 1419.63 1467.02C1421.05 1467.24 1422.38 1467.81 1423.53 1468.67C1424.5 1469.51 1425.26 1470.54 1425.78 1471.71C1426.3 1472.87 1426.56 1474.14 1426.53 1475.41C1426.55 1476.45 1426.39 1477.48 1426.04 1478.45C1426.02 1478.53 1425.83 1479 1425.91 1478.82C1425.97 1478.67 1425.77 1479.13 1425.72 1479.23C1425.49 1479.72 1425.25 1480.2 1425 1480.67C1423.85 1482.8 1422.56 1484.86 1421.13 1486.83C1419.75 1488.8 1418.21 1490.66 1416.51 1492.37C1416.14 1492.73 1415.76 1493.08 1415.37 1493.41C1415.3 1493.48 1415.22 1493.53 1415.15 1493.59C1414.9 1493.79 1415.35 1493.45 1415.11 1493.63C1414.93 1493.76 1414.75 1493.89 1414.56 1494.01C1413.39 1494.72 1412.05 1495.1 1410.68 1495.11C1409.28 1495.13 1407.9 1494.79 1406.66 1494.13C1405.43 1493.46 1404.39 1492.49 1403.63 1491.31C1402.77 1489.94 1402.25 1488.37 1402.14 1486.75C1402.03 1485.13 1402.33 1483.5 1403 1482.03C1403.14 1481.53 1403.07 1481.01 1402.82 1480.56C1402.57 1480.12 1402.15 1479.79 1401.66 1479.66C1401.16 1479.53 1400.64 1479.6 1400.2 1479.85C1399.76 1480.1 1399.43 1480.51 1399.29 1481C1398.56 1482.74 1398.21 1484.61 1398.25 1486.49C1398.3 1488.37 1398.74 1490.23 1399.56 1491.92C1401.02 1494.92 1403.6 1497.23 1406.75 1498.36C1408.43 1498.94 1410.22 1499.13 1411.98 1498.9C1413.75 1498.68 1415.43 1498.05 1416.91 1497.06C1419.04 1495.44 1420.92 1493.52 1422.51 1491.37C1424.36 1489.03 1426.06 1486.56 1427.57 1483.99C1428.88 1481.97 1429.8 1479.72 1430.25 1477.35C1430.5 1475.61 1430.4 1473.83 1429.96 1472.13C1429.51 1470.42 1428.73 1468.82 1427.66 1467.42C1426.49 1466.01 1425.02 1464.89 1423.36 1464.13C1421.69 1463.38 1419.88 1463.01 1418.05 1463.05C1413.42 1463.12 1409.95 1465.79 1406.97 1469.09C1403.87 1472.47 1401.34 1476.34 1399.48 1480.54C1399.24 1480.98 1399.18 1481.5 1399.3 1481.99C1399.43 1482.48 1399.74 1482.91 1400.17 1483.18C1400.61 1483.43 1401.14 1483.5 1401.63 1483.37C1402.13 1483.24 1402.55 1482.93 1402.81 1482.49Z" fill="black"/>
<path d="M1423.62 1492.78C1424.69 1489.66 1426.18 1486.69 1428.05 1483.96C1429.71 1481.53 1431.7 1478.65 1434.51 1477.47C1435.72 1476.92 1437.04 1476.68 1438.36 1476.77C1439.69 1476.86 1440.97 1477.28 1442.08 1477.99C1443.2 1478.71 1444.12 1479.69 1444.76 1480.85C1445.4 1482.01 1445.74 1483.32 1445.75 1484.64C1445.81 1485.58 1445.71 1486.51 1445.45 1487.41C1445.22 1488.2 1444.93 1488.97 1444.6 1489.72C1443.61 1491.92 1442.48 1494.05 1441.22 1496.11C1440.06 1498.09 1438.73 1499.96 1437.23 1501.69C1436.94 1502.01 1436.65 1502.33 1436.33 1502.63C1436.18 1502.78 1436.02 1502.92 1435.87 1503.06C1435.78 1503.14 1435.69 1503.21 1435.6 1503.28C1435.84 1503.09 1435.64 1503.26 1435.51 1503.34C1433.85 1504.44 1431.83 1504.85 1429.86 1504.51C1427.9 1504.16 1426.14 1503.07 1424.96 1501.47C1424.04 1500.25 1423.43 1498.81 1423.2 1497.3C1422.96 1495.78 1423.11 1494.23 1423.62 1492.78C1424.37 1490.41 1420.65 1489.4 1419.9 1491.76C1419.32 1493.48 1419.11 1495.3 1419.27 1497.1C1419.44 1498.91 1419.98 1500.66 1420.86 1502.24C1422.47 1505.06 1425.1 1507.15 1428.21 1508.07C1429.91 1508.55 1431.7 1508.62 1433.44 1508.27C1435.17 1507.93 1436.8 1507.19 1438.2 1506.11C1440.13 1504.41 1441.8 1502.44 1443.14 1500.25C1444.72 1497.91 1446.13 1495.45 1447.36 1492.91C1448.52 1490.79 1449.27 1488.47 1449.59 1486.07C1449.71 1484.36 1449.49 1482.63 1448.93 1481.01C1448.38 1479.38 1447.51 1477.87 1446.36 1476.59C1445.11 1475.28 1443.57 1474.28 1441.87 1473.67C1440.16 1473.06 1438.34 1472.85 1436.54 1473.06C1434.41 1473.26 1432.38 1474.03 1430.65 1475.29C1428.93 1476.65 1427.42 1478.26 1426.15 1480.05C1423.44 1483.59 1421.33 1487.54 1419.9 1491.76C1419.1 1494.11 1422.82 1495.12 1423.62 1492.78Z" fill="black"/>
<path d="M1441.38 1506.92C1441.76 1505.03 1442.36 1503.2 1443.17 1501.46C1443.92 1499.64 1444.96 1497.94 1446.25 1496.45C1448.74 1493.81 1453.61 1493.68 1455.57 1496.99C1457.52 1500.3 1456.86 1503.63 1455.67 1506.98C1454.46 1510.35 1452.57 1514.61 1448.58 1515.13C1447.59 1515.23 1446.59 1515.1 1445.66 1514.74C1444.72 1514.39 1443.89 1513.81 1443.22 1513.08C1442.46 1512.26 1441.9 1511.28 1441.58 1510.21C1441.26 1509.14 1441.19 1508.02 1441.38 1506.92C1441.5 1506.42 1441.43 1505.9 1441.18 1505.46C1440.93 1505.02 1440.52 1504.69 1440.03 1504.54C1439.54 1504.41 1439.02 1504.48 1438.57 1504.73C1438.13 1504.98 1437.8 1505.4 1437.66 1505.89C1437.21 1508.7 1437.52 1511.92 1439.24 1514.29C1440.73 1516.48 1442.97 1518.05 1445.53 1518.72C1446.95 1519.06 1448.43 1519.09 1449.87 1518.79C1451.3 1518.5 1452.65 1517.89 1453.82 1517.02C1455.7 1515.41 1457.16 1513.39 1458.1 1511.1C1460.17 1506.71 1461.65 1501.72 1459.81 1496.98C1459.39 1495.72 1458.71 1494.57 1457.81 1493.59C1456.91 1492.62 1455.82 1491.85 1454.6 1491.33C1453.26 1490.82 1451.84 1490.59 1450.41 1490.66C1448.99 1490.72 1447.59 1491.07 1446.3 1491.68C1443.69 1492.91 1441.94 1495.44 1440.62 1497.92C1439.25 1500.42 1438.25 1503.1 1437.66 1505.89C1437.54 1506.38 1437.61 1506.9 1437.86 1507.35C1438.11 1507.79 1438.52 1508.12 1439.01 1508.26C1439.5 1508.4 1440.03 1508.33 1440.47 1508.08C1440.92 1507.82 1441.25 1507.41 1441.38 1506.92Z" fill="black"/>
<path d="M1383.3 1477.04C1382.8 1475.41 1382.82 1473.66 1383.34 1472.03C1383.77 1470.48 1384.35 1469.32 1385.77 1468.68C1388.37 1467.5 1392.05 1468.47 1394.34 1470.22C1397.06 1472.3 1400.11 1475.38 1399.43 1479.12C1399.29 1479.87 1399.02 1480.59 1398.62 1481.24C1398.36 1481.71 1397.97 1482.1 1397.5 1482.36C1396.01 1483.02 1394.41 1483.35 1392.78 1483.34C1390.91 1483.45 1389.05 1482.96 1387.48 1481.93C1385.62 1480.78 1384.16 1479.07 1383.31 1477.05C1383.16 1476.56 1382.83 1476.15 1382.39 1475.9C1381.95 1475.65 1381.43 1475.58 1380.94 1475.7C1380.45 1475.84 1380.03 1476.17 1379.78 1476.61C1379.52 1477.05 1379.46 1477.58 1379.59 1478.07C1381.53 1482.92 1385.95 1486.74 1391.27 1487.16C1393.58 1487.35 1395.89 1487.05 1398.08 1486.29C1399.1 1485.93 1400.04 1485.35 1400.81 1484.59C1401.59 1483.83 1402.2 1482.91 1402.59 1481.89C1403.13 1480.55 1403.38 1479.12 1403.33 1477.67C1403.28 1476.23 1402.94 1474.81 1402.31 1473.51C1401.27 1471.53 1399.84 1469.79 1398.11 1468.38C1394.71 1465.32 1389.96 1463.44 1385.38 1464.75C1384.11 1465.12 1382.96 1465.79 1382.01 1466.71C1381.06 1467.62 1380.36 1468.76 1379.95 1470.01C1378.92 1472.58 1378.79 1475.42 1379.59 1478.07C1379.74 1478.56 1380.07 1478.97 1380.51 1479.22C1380.95 1479.47 1381.47 1479.54 1381.96 1479.42C1382.45 1479.28 1382.87 1478.95 1383.12 1478.51C1383.37 1478.06 1383.44 1477.54 1383.3 1477.04Z" fill="black"/>
<path d="M1496.66 1463.03L1496.6 1462.99L1496.99 1463.29C1496.54 1462.94 1496.13 1462.52 1495.78 1462.07L1496.08 1462.46C1495.46 1461.63 1494.95 1460.73 1494.56 1459.77L1494.75 1460.23C1494.57 1459.79 1494.41 1459.35 1494.27 1458.89C1494.13 1458.41 1493.82 1458 1493.39 1457.74C1493.06 1457.55 1492.68 1457.46 1492.29 1457.48C1491.91 1457.5 1491.54 1457.64 1491.24 1457.88C1490.94 1458.11 1490.71 1458.43 1490.59 1458.79C1490.47 1459.16 1490.45 1459.55 1490.56 1459.92C1490.88 1460.98 1491.31 1462.01 1491.85 1462.99C1492.21 1463.63 1492.62 1464.25 1493.09 1464.82C1493.56 1465.41 1494.11 1465.92 1494.71 1466.36C1494.94 1466.49 1495.18 1466.58 1495.44 1466.61C1495.69 1466.64 1495.95 1466.62 1496.2 1466.56C1496.44 1466.49 1496.67 1466.37 1496.87 1466.22C1497.07 1466.06 1497.24 1465.87 1497.36 1465.65C1497.49 1465.43 1497.57 1465.19 1497.6 1464.94C1497.63 1464.68 1497.61 1464.43 1497.55 1464.19L1497.35 1463.73C1497.18 1463.44 1496.95 1463.2 1496.66 1463.03H1496.66Z" fill="black"/>
</g>
<defs>
<clipPath id="clip0_58_1854">
<rect width="170" height="170" fill="white" transform="translate(196.992 233.275) rotate(7)"/>
</clipPath>
<clipPath id="clip1_58_1854">
<rect width="190" height="190" fill="white" transform="translate(1320.74 278.373) rotate(-2)"/>
</clipPath>
<clipPath id="clip2_58_1854">
<rect width="150.527" height="150.527" fill="white" transform="translate(301.949 776) rotate(8)"/>
</clipPath>
<clipPath id="clip3_58_1854">
<rect width="296.582" height="296.582" fill="white" transform="translate(1315 1291)"/>
</clipPath>
</defs>
</svg>
