<svg width="800" height="800" viewBox="0 0 800 800" fill="none" xmlns="http://www.w3.org/2000/svg">
    <rect width="800" height="800" fill="white" />
    <g clip-path="url(#clip0_24_7)">
        <path
            d="M325.112 371.37C322.767 367.433 317.674 366.141 313.737 368.488L217.074 426.063C214.561 427.559 213.021 430.267 213.021 433.191C213.021 436.116 214.561 438.824 217.073 440.32L313.736 497.895C315.067 498.688 316.53 499.066 317.975 499.066C320.803 499.066 323.56 497.618 325.111 495.013C327.457 491.075 326.165 485.983 322.229 483.638L237.534 433.191L322.229 382.745C326.167 380.4 327.458 375.308 325.112 371.37Z"
            fill="black" />
        <path
            d="M474.889 495.013C476.441 497.619 479.197 499.066 482.025 499.066C483.47 499.066 484.933 498.688 486.264 497.895L582.927 440.32C585.44 438.823 586.979 436.116 586.979 433.191C586.979 430.267 585.439 427.559 582.927 426.063L486.264 368.488C482.327 366.142 477.232 367.433 474.889 371.37C472.543 375.308 473.835 380.4 477.771 382.745L562.466 433.191L477.771 483.638C473.833 485.983 472.542 491.075 474.889 495.013Z"
            fill="black" />
        <path
            d="M431.775 370.991L354.447 486.141C351.892 489.945 352.905 495.1 356.709 497.656C358.13 498.61 359.738 499.066 361.329 499.066C364.001 499.066 366.624 497.777 368.225 495.392L445.553 380.242C448.108 376.439 447.095 371.283 443.291 368.727C439.483 366.172 434.329 367.187 431.775 370.991Z"
            fill="black" />
        <path
            d="M651.702 164.894H148.298C143.714 164.894 140 168.609 140 173.191V626.809C140 631.391 143.714 635.106 148.298 635.106H651.702C656.286 635.106 660 631.391 660 626.809V538.298C660 533.715 656.286 530 651.702 530C647.118 530 643.404 533.715 643.404 538.298V618.511H156.596V247.872H643.404V505.106C643.404 509.689 647.118 513.404 651.702 513.404C656.286 513.404 660 509.689 660 505.106V173.191C660 168.609 656.286 164.894 651.702 164.894ZM156.596 181.489H463.617V231.277H156.596V181.489ZM480.213 231.277V181.489H643.404V231.277H480.213Z"
            fill="black" />
        <path
            d="M562.085 197.532C557.205 197.532 553.234 201.503 553.234 206.383C553.234 211.263 557.205 215.234 562.085 215.234C566.965 215.234 570.936 211.263 570.936 206.383C570.936 201.503 566.965 197.532 562.085 197.532Z"
            fill="black" />
        <path
            d="M516.723 197.532C511.843 197.532 507.872 201.503 507.872 206.383C507.872 211.263 511.843 215.234 516.723 215.234C521.604 215.234 525.574 211.263 525.574 206.383C525.574 201.503 521.604 197.532 516.723 197.532Z"
            fill="black" />
        <path
            d="M607.447 197.532C602.567 197.532 598.596 201.503 598.596 206.383C598.596 211.263 602.567 215.234 607.447 215.234C612.327 215.234 616.298 211.263 616.298 206.383C616.298 201.503 612.327 197.532 607.447 197.532Z"
            fill="black" />
    </g>
    <defs>
        <clipPath id="clip0_24_7">
            <rect width="520" height="520" fill="white" transform="translate(140 140)" />
        </clipPath>
    </defs>
</svg>