<svg xmlns="http://www.w3.org/2000/svg" xmlns:xlink="http://www.w3.org/1999/xlink" version="1.1" x="0px" y="0px"
    viewBox="0 0 100 125" enable-background="new 0 0 100 100" xml:space="preserve">
    <g>
        <g>
            <path fill="#373D49"
                d="M91.988,17.007c-0.002-0.02,0.004-0.038,0.002-0.058c-0.002-0.014-0.01-0.025-0.012-0.039    c-0.018-0.098-0.047-0.193-0.09-0.283c-0.004-0.009-0.006-0.02-0.012-0.029c-0.047-0.096-0.113-0.181-0.188-0.259    c-0.021-0.022-0.047-0.039-0.068-0.059c-0.035-0.032-0.066-0.067-0.107-0.094c-0.027-0.018-0.057-0.027-0.084-0.042    c-0.031-0.017-0.061-0.032-0.092-0.046c-0.082-0.036-0.168-0.061-0.254-0.075c-0.018-0.003-0.031-0.013-0.049-0.015l-28.416-3.545    l-0.021-0.06l-0.123,0.042l-14.339-1.789c-0.142-0.019-0.287-0.008-0.425,0.03l-2.704,0.738l-3.238-2.523    c-0.354-0.29-0.833-0.323-1.214-0.122l0,0l-13.217,5.874l0.003,0.005c-0.19,0.1-0.352,0.25-0.456,0.443l-0.807,1.488l-3.357,0.917    c-0.003,0.001-0.005,0.003-0.009,0.004c-0.105,0.03-0.204,0.079-0.297,0.139c-0.023,0.015-0.044,0.03-0.066,0.046    c-0.022,0.017-0.047,0.029-0.067,0.047c-0.062,0.055-0.116,0.116-0.164,0.181c-0.001,0.002-0.002,0.004-0.003,0.005    c-0.062,0.088-0.106,0.186-0.141,0.287c-0.009,0.025-0.017,0.05-0.024,0.076c-0.026,0.101-0.043,0.204-0.04,0.31l0.001,0.027    c0,0,0,0,0,0.001s0,0,0,0l0.161,5.349l-3.008,5.55c-0.002,0.004-0.004,0.008-0.006,0.012l-7.548,13.925    c-0.001,0.002-0.003,0.005-0.004,0.007l-7.806,14.4c-0.236,0.436-0.152,0.977,0.207,1.32l33.957,32.499    C38.069,91.892,38.342,92,38.625,92c0.051,0,0.103-0.004,0.154-0.011c0.128-0.018,0.247-0.063,0.359-0.124l0.002,0.008    l13.218-8.812l-0.002-0.005c0.178-0.093,0.334-0.233,0.441-0.422l4.238-6.455l12.879,3.105c0.086,0.021,0.172,0.031,0.258,0.031    c0.111,0,0.221-0.021,0.328-0.056c0.033-0.01,0.062-0.026,0.094-0.039c0.047-0.02,0.094-0.031,0.137-0.058l19.992-11.748    c0.332-0.195,0.537-0.55,0.543-0.934L92,17.118C92.002,17.08,91.99,17.044,91.988,17.007z M62.695,14.693l10.508,1.311    l-5.15,2.041l-10.85-1.528L62.695,14.693z M67.133,54.181l-8.543,4.593l7.172-12.33l8.412-4.521L67.133,54.181z M58.861,68.58    l-8.801,4.852l6.412-11.02l8.582-4.614L58.861,68.58z M17.292,68.959l7.294-12.817l10.561,9.285L27.59,78.814L17.292,68.959z     M25.7,54.187l7.046-12.383l10.785,8.771l-7.277,12.891L25.7,54.187z M20.372,31.739l10.642,8.655L24.01,52.701L13.851,43.77    L20.372,31.739z M28.189,17.319l10.917,8.854l-6.989,12.281l-10.677-8.685L28.189,17.319z M53.25,18.184l10.662,1.501l-5.953,2.36    L53.25,18.184z M62.92,28.961l-9.811,5.73l-10.603-8.599l10.216-5.492L62.92,28.961z M56.381,58.188L46.363,50.04l6.963-12.336    l10.174,8.25L56.381,58.188z M44.629,48.629l-10.778-8.767l6.99-12.284l10.749,8.717L44.629,48.629z M45.265,51.985l9.995,8.13    l-7.722,13.272l-9.593-8.435L45.265,51.985z M65.014,44.345l-10.074-8.17l9.797-5.723l10.344,8.482L65.014,44.345z M62.596,25.848    l6.475,1.008v4.301L62.596,25.848z M60.709,23.325l7.615-3.018l9.178,1.293l-7.471,3.176L60.709,23.325z M48.079,12.87    l9.535,1.189l-5.316,1.766l-2.324-0.327l-2.877-2.359L48.079,12.87z M50.881,19.091l-10.229,5.499l-10.811-8.768l11.098-4.752    L50.881,19.091z M24.151,19.862l0.113,0.076l-0.105,0.192L24.151,19.862z M12.774,45.756l10.124,8.9l-7.246,12.732l-9.616-9.203    L12.774,45.756z M29.232,80.387l7.605-13.474l9.571,8.415l-8.034,13.809L29.232,80.387z M51.045,81.263l-9.531,6.859l6.391-10.985    l8.841-4.875L51.045,81.263z M69.07,76.816L58.18,74.19l2.285-3.979l0.156-0.086l-0.053-0.095l5.895-10.262l2.607,0.523V76.816z     M67.621,57.755l1.109-1.933l0.051-0.027l-0.018-0.031l0.307-0.535v2.817L67.621,57.755z M80.521,70.854l-9.248,5.436V60.444    l9.248-4.887V70.854z M80.521,53.065l-9.248,4.888v-6.56l6.732-11.72c0.002-0.005,0.004-0.011,0.008-0.017    c0.021-0.039,0.037-0.08,0.053-0.12c0.012-0.027,0.025-0.055,0.033-0.083c0.014-0.039,0.02-0.079,0.027-0.119    c0.006-0.031,0.014-0.061,0.018-0.092c0.004-0.038,0.002-0.075,0.002-0.113c0-0.033,0.004-0.066,0-0.099    c-0.004-0.038-0.012-0.074-0.02-0.111c0-0.001,0-0.001,0-0.001l2.395-1.178V53.065z M80.521,35.287l-4.01,1.972l-5.238-4.295    v-6.323l0.33-0.14l8.918-3.792V35.287z M72.465,18.666l5.285-2.095l8.955,1.117l-0.939,0.399l-4.332,1.842L72.465,18.666z     M89.072,65.83l-6.348,3.731V54.394l6.57-3.472L89.072,65.83z M89.332,48.41l-6.607,3.493V36.659l6.832-3.361L89.332,48.41z     M89.594,30.824l-6.869,3.379v-12.43l7.049-2.996L89.594,30.824z" />
        </g>
    </g>
</svg>