<?xml version="1.0" standalone="no"?>
<!DOCTYPE svg PUBLIC "-//W3C//DTD SVG 20010904//EN"
 "http://www.w3.org/TR/2001/REC-SVG-20010904/DTD/svg10.dtd">
<svg version="1.0" xmlns="http://www.w3.org/2000/svg" style="background-color:#0D192B"
 width="749.000000pt" height="701.000000pt" viewBox="0 0 749.000000 701.000000"
 preserveAspectRatio="xMidYMid meet">

<g transform="translate(0.000000,701.000000) scale(0.100000,-0.100000)"
fill="#FFF9D2" stroke="none">
<path d="M2120 6357 c0 -42 39 -176 69 -240 16 -34 60 -97 96 -140 77 -90 79
-89 -83 -30 -51 18 -95 33 -97 33 -21 0 34 -119 81 -177 24 -30 61 -55 121
-85 l86 -43 -59 -17 c-33 -10 -64 -18 -71 -18 -32 0 -18 -22 29 -46 69 -35
182 -43 282 -20 38 9 71 15 73 13 2 -2 -15 -42 -37 -89 -22 -47 -40 -91 -40
-98 0 -15 30 -5 94 32 99 58 176 148 176 207 l0 36 -44 -66 c-43 -64 -121
-138 -133 -125 -3 3 4 40 17 82 12 41 20 78 17 81 -3 3 -34 -4 -69 -16 -73
-25 -202 -37 -238 -23 -22 9 -15 13 70 39 127 40 129 55 10 70 -99 13 -187 47
-233 91 -31 29 -72 91 -65 97 2 2 49 -9 103 -26 55 -16 124 -32 155 -35 l55
-6 -111 109 c-65 62 -121 127 -134 153 -23 45 -60 146 -60 162 0 6 28 -16 62
-47 173 -156 398 -290 523 -310 l40 -6 -29 25 c-16 13 -50 32 -75 42 -153 56
-303 158 -466 315 -57 54 -106 99 -109 99 -3 0 -6 -11 -6 -23z"/>
<path d="M3723 6353 c-37 -55 -47 -90 -52 -191 l-6 -103 -53 -18 c-29 -10 -64
-29 -77 -41 -23 -22 -52 -96 -42 -106 2 -3 28 7 58 21 38 17 71 25 112 25 l57
0 -15 -36 c-18 -44 -59 -93 -102 -124 -27 -19 -42 -22 -85 -18 -70 7 -109 49
-139 150 -12 40 -25 77 -29 81 -3 4 -21 -43 -39 -105 -36 -128 -76 -199 -125
-222 -44 -21 -64 -20 -103 4 -61 37 -92 97 -139 268 -2 6 -10 12 -19 12 -13 0
-15 -29 -15 -219 0 -121 4 -222 8 -225 5 -3 55 18 113 46 129 62 334 131 460
154 128 24 380 24 509 1 126 -23 338 -95 462 -157 55 -27 104 -48 108 -45 10
6 20 361 11 415 l-7 45 -16 -30 c-9 -16 -21 -50 -28 -75 -25 -93 -92 -190
-143 -206 -86 -27 -174 79 -213 258 -23 105 -41 106 -59 3 -9 -54 -28 -86 -70
-124 -61 -53 -139 -40 -203 34 -47 53 -67 96 -50 106 26 17 101 9 155 -17 30
-14 57 -23 60 -21 9 9 -34 92 -60 115 -14 13 -47 29 -73 36 l-49 12 0 95 c0
87 -3 100 -33 162 -18 37 -37 67 -42 67 -5 0 -17 -12 -27 -27z m57 -103 c5
-19 10 -57 10 -84 0 -50 -25 -165 -40 -179 -4 -5 -16 15 -26 45 -24 71 -24
198 0 253 16 38 18 39 32 20 8 -10 19 -35 24 -55z m-86 -256 c4 -9 5 -18 4
-19 -2 0 -27 3 -57 8 -37 6 -50 12 -40 18 25 15 86 11 93 -7z m209 -3 c8 -8
-7 -11 -52 -11 -57 0 -62 2 -50 16 15 18 83 14 102 -5z m-94 -186 l32 -45 -90
0 c-50 0 -91 3 -91 7 0 3 18 31 41 60 46 62 48 62 108 -22z m369 -24 c25 -61
28 -85 9 -78 -7 2 -38 10 -70 17 -31 6 -57 14 -57 17 0 15 84 113 90 106 4 -4
16 -32 28 -62z m-783 9 c21 -28 36 -53 33 -55 -7 -7 -132 -35 -136 -30 -4 3
33 109 44 127 10 16 23 7 59 -42z m1155 -128 c0 -54 -3 -101 -6 -105 -4 -3
-33 7 -66 24 l-60 30 26 32 c15 18 41 51 59 74 17 23 35 42 40 43 4 0 7 -44 7
-98z m-1480 -42 c0 -3 -27 -20 -60 -38 l-60 -33 0 103 0 103 60 -65 c32 -36
59 -67 60 -70z"/>
<path d="M5250 6274 c-165 -158 -294 -245 -467 -314 -62 -24 -83 -37 -83 -51
0 -17 5 -17 73 7 158 57 303 146 444 271 45 40 85 73 88 73 13 0 -7 -66 -41
-137 -29 -60 -51 -87 -139 -170 -58 -54 -105 -102 -105 -107 0 -14 98 3 198
35 51 16 97 29 102 29 22 0 7 -25 -52 -84 -71 -70 -137 -98 -261 -111 -98 -11
-88 -31 33 -68 89 -28 93 -30 65 -39 -43 -13 -160 -2 -239 22 -37 12 -69 20
-71 18 -2 -2 8 -41 21 -87 14 -46 23 -85 21 -87 -12 -12 -94 67 -134 129 -40
60 -48 68 -51 49 -5 -36 35 -108 88 -155 46 -41 190 -126 190 -111 0 3 -18 47
-41 96 -22 50 -38 92 -35 95 2 3 36 0 75 -6 135 -21 223 -10 300 37 l34 21
-59 16 c-32 9 -70 20 -84 25 l-25 8 30 11 c113 45 178 94 221 166 21 36 57
125 51 125 -2 0 -56 -18 -122 -40 -65 -22 -120 -39 -121 -37 -2 2 26 39 62 82
35 44 76 104 90 133 31 66 66 202 62 239 -3 27 -8 23 -118 -83z"/>
<path d="M3625 5660 c-214 -18 -357 -59 -577 -163 -96 -45 -128 -65 -128 -79
0 -10 2 -18 4 -18 2 0 55 25 117 55 138 66 320 127 451 150 125 22 452 17 567
-10 121 -27 248 -73 380 -136 68 -32 125 -59 127 -59 2 0 4 9 4 21 0 39 -302
167 -494 208 -82 18 -314 44 -351 39 -5 0 -50 -4 -100 -8z"/>
<path d="M2110 5533 c-43 -115 -45 -223 -10 -436 7 -37 10 -73 8 -79 -3 -7
-32 29 -66 78 -34 50 -78 108 -97 130 l-36 39 4 -67 c6 -84 50 -182 128 -283
53 -69 53 -71 57 -150 2 -44 -1 -91 -6 -104 -8 -23 -15 -16 -109 106 -56 71
-114 138 -129 147 l-27 18 6 -42 c11 -81 64 -168 164 -268 l93 -94 0 -84 c0
-46 -3 -84 -7 -84 -5 0 -26 25 -47 55 -49 68 -160 176 -203 199 -33 16 -33 16
-33 -6 1 -66 93 -196 204 -288 41 -34 77 -68 80 -76 3 -9 6 -41 6 -72 l0 -57
-67 73 c-59 66 -192 172 -215 172 -13 0 -9 -48 7 -88 27 -64 118 -172 188
-224 37 -28 72 -58 77 -68 11 -20 14 -129 4 -154 -4 -11 -28 4 -96 64 -86 74
-203 149 -215 136 -3 -3 9 -31 28 -63 42 -71 157 -187 230 -232 l56 -35 10
-105 c6 -58 9 -107 8 -109 -1 -1 -51 34 -110 78 -104 78 -202 137 -212 127 -8
-8 28 -70 70 -121 48 -57 145 -132 222 -172 54 -28 59 -34 106 -126 27 -54 49
-102 49 -107 0 -12 -80 15 -182 62 -82 38 -169 67 -202 67 -17 0 -13 -8 24
-46 58 -59 179 -117 312 -150 80 -20 110 -33 135 -56 39 -37 97 -118 85 -118
-5 0 -44 9 -87 20 -121 31 -290 22 -302 -16 -9 -27 229 -96 412 -120 115 -14
123 -17 185 -60 91 -62 115 -83 104 -93 -5 -5 -43 -16 -85 -25 -69 -15 -158
-60 -145 -73 10 -10 120 -3 203 12 46 9 98 16 116 17 34 1 109 -34 161 -75
l28 -23 -73 -36 c-41 -20 -90 -53 -109 -74 l-35 -37 75 6 c53 3 106 16 173 41
l97 37 100 -56 c55 -30 105 -55 110 -55 6 0 10 8 10 18 0 11 -32 34 -99 70
-54 29 -102 59 -105 68 -3 9 -6 31 -6 49 0 79 -38 194 -73 224 -23 18 -31 -17
-29 -126 0 -51 -1 -93 -3 -93 -11 0 -114 65 -137 88 -20 19 -28 36 -28 61 0
99 -38 229 -85 294 -16 21 -17 13 -13 -125 2 -82 1 -148 -2 -148 -9 0 -119 77
-146 101 -20 18 -20 21 -6 126 17 127 8 236 -20 241 -20 4 -32 -29 -57 -162
-11 -54 -21 -100 -24 -102 -6 -6 -78 70 -136 142 l-41 51 29 54 c34 63 57 140
67 222 11 98 -19 71 -100 -91 -26 -51 -51 -90 -56 -87 -13 8 -51 84 -75 147
l-18 48 51 50 c55 54 97 111 130 175 21 43 39 115 28 115 -36 0 -104 -68 -191
-189 -46 -64 -50 -60 -60 76 l-7 90 31 13 c54 22 107 66 155 129 44 56 76 116
76 141 0 33 -99 -22 -184 -101 l-73 -69 -7 47 c-3 25 -6 65 -6 88 0 41 2 44
63 84 102 66 213 185 232 250 7 22 5 23 -21 17 -41 -11 -152 -86 -211 -144
l-53 -51 0 68 c0 64 2 70 28 87 48 32 133 117 177 179 49 69 89 144 81 153
-19 18 -150 -96 -243 -213 l-32 -40 0 100 0 100 56 44 c83 66 232 276 210 297
-13 13 -92 -49 -179 -140 l-88 -91 0 88 0 89 63 73 c94 110 195 295 185 341
-5 24 -65 -28 -155 -135 -42 -50 -80 -91 -85 -91 -14 0 -9 54 14 136 28 104
30 279 3 372 -10 34 -21 65 -26 67 -4 3 -17 -21 -29 -52z"/>
<path d="M5347 5583 c-36 -58 -49 -300 -23 -403 21 -83 29 -157 18 -164 -6 -3
-40 32 -76 78 -60 77 -151 165 -160 155 -2 -2 3 -29 11 -59 18 -70 108 -223
178 -301 50 -55 54 -65 60 -124 4 -36 4 -76 1 -90 -6 -25 -10 -22 -89 61 -72
77 -156 144 -179 144 -38 0 88 -186 192 -283 l80 -74 0 -91 c0 -51 -3 -92 -7
-92 -5 0 -36 36 -71 79 -61 78 -170 171 -199 171 -10 0 -5 -18 21 -67 47 -88
121 -178 196 -237 l60 -47 0 -65 0 -66 -65 59 c-71 64 -154 118 -198 129 -24
5 -26 4 -20 -12 26 -71 109 -166 211 -241 40 -30 75 -60 78 -67 3 -7 4 -47 2
-89 l-3 -76 -85 74 c-77 68 -161 117 -176 102 -3 -3 8 -35 26 -71 38 -76 123
-166 187 -197 l46 -22 -6 -86 c-3 -47 -10 -97 -15 -110 -8 -22 -12 -19 -64 56
-52 73 -139 163 -159 163 -5 0 -9 -13 -9 -29 0 -47 66 -164 135 -239 36 -38
65 -78 65 -88 0 -20 -80 -184 -89 -184 -3 0 -30 46 -59 103 -29 56 -61 113
-72 127 l-20 25 0 -50 c0 -65 23 -153 61 -234 28 -60 28 -65 13 -88 -23 -36
-156 -174 -162 -169 -2 3 -11 44 -19 92 -14 90 -44 174 -62 174 -5 0 -13 -21
-17 -46 -7 -48 1 -239 11 -284 6 -23 -3 -32 -80 -88 -48 -35 -88 -62 -90 -60
-1 2 2 51 8 109 6 68 6 119 0 145 l-9 39 -22 -35 c-31 -49 -51 -120 -63 -225
-6 -61 -15 -95 -27 -107 -18 -18 -131 -88 -142 -88 -3 0 -6 47 -6 104 1 130
-10 148 -50 80 -30 -51 -53 -142 -54 -209 0 -40 0 -40 -90 -89 -90 -49 -129
-80 -117 -93 4 -3 58 20 120 51 l114 58 42 -22 c56 -28 183 -60 240 -60 l45 0
-38 39 c-21 21 -69 53 -107 71 -38 17 -67 35 -64 40 2 4 36 26 74 49 79 46
103 49 227 27 75 -14 145 -20 188 -17 18 1 18 2 1 21 -21 24 -103 56 -168 65
-26 4 -49 11 -52 15 -6 10 105 100 152 124 18 9 82 23 143 31 111 14 303 60
373 90 39 16 48 38 20 50 -10 4 -59 10 -108 12 -72 4 -108 1 -175 -16 -46 -11
-88 -21 -92 -21 -13 0 100 137 120 145 9 4 55 16 102 26 46 11 125 39 175 63
88 43 175 107 175 128 0 25 -105 -8 -304 -96 -44 -19 -83 -33 -87 -30 -4 2 13
49 38 103 l46 100 83 46 c46 26 112 74 148 106 63 58 131 150 124 168 -5 17
-105 -41 -215 -123 -57 -43 -105 -77 -107 -75 -1 2 2 50 8 107 l10 103 68 46
c37 25 96 76 131 112 64 68 128 171 107 171 -30 0 -134 -68 -211 -136 l-84
-75 -6 42 c-3 23 -4 64 -1 90 4 45 8 50 77 104 108 85 184 182 205 264 6 23 9
45 7 48 -19 18 -181 -105 -242 -185 -21 -28 -42 -49 -47 -46 -4 3 -8 28 -8 56
l0 50 118 117 c116 114 159 175 178 254 l7 29 -42 -22 c-56 -28 -110 -78 -183
-169 -33 -42 -65 -77 -69 -79 -5 -2 -9 33 -9 78 l0 83 99 102 c103 108 144
173 160 257 7 42 6 46 -8 38 -25 -14 -95 -89 -145 -158 -66 -92 -96 -125 -104
-117 -4 3 -9 46 -10 94 l-4 87 51 67 c29 37 67 98 86 136 47 93 80 221 57 221
-15 0 -79 -75 -131 -153 -29 -43 -56 -75 -62 -72 -10 7 -4 56 17 150 18 77 17
192 0 277 -16 72 -49 147 -59 131z"/>
<path d="M3594 5426 c-202 -144 -355 -213 -564 -255 -137 -27 -263 -41 -378
-41 -51 0 -102 -4 -112 -10 -10 -5 -23 -25 -29 -42 -13 -41 -31 -704 -31
-1144 0 -298 2 -339 20 -409 63 -245 297 -489 922 -961 141 -106 273 -201 293
-211 34 -16 37 -16 68 0 45 25 429 314 610 459 203 163 425 386 504 504 98
148 122 249 123 514 0 164 -17 895 -26 1118 -8 182 1 174 -196 183 -384 18
-619 95 -893 292 -160 114 -154 114 -311 3z m275 -166 c114 -79 240 -144 346
-183 134 -48 407 -96 547 -97 37 0 69 -4 73 -9 12 -20 34 -1214 25 -1310 -11
-106 -39 -183 -96 -269 -61 -91 -324 -345 -509 -493 -173 -139 -497 -379 -509
-379 -4 0 -75 50 -159 112 -412 304 -670 526 -807 696 -128 159 -149 233 -150
517 0 215 18 977 26 1073 l6 62 63 0 c164 0 453 56 609 119 85 34 221 111 326
185 36 25 74 46 85 46 11 0 67 -32 124 -70z m-309 27 c0 -42 -3 -45 -40 -39
-25 4 -30 9 -30 32 0 30 10 38 48 39 18 1 22 -4 22 -32z m438 -5 c3 -33 3 -33
-35 -30 -34 3 -38 6 -35 28 3 28 19 41 47 38 15 -2 21 -12 23 -36z m-932 -200
l7 -33 -39 3 c-35 3 -39 5 -36 28 2 14 11 33 20 43 20 22 39 7 48 -41z m1418
32 c9 -8 16 -26 16 -40 0 -20 -5 -24 -28 -24 -31 0 -52 16 -52 40 0 19 19 40
36 40 7 0 20 -7 28 -16z m-1876 -347 c3 -36 3 -37 -32 -37 -34 0 -36 2 -36 34
0 28 4 35 23 39 36 7 42 2 45 -36z m2326 33 c31 -11 32 -26 6 -60 l-19 -25
-25 24 c-23 22 -24 25 -9 47 18 28 14 27 47 14z m-2350 -763 c13 -36 -8 -61
-43 -52 -34 9 -33 8 -21 41 20 51 49 56 64 11z m2389 -15 c-2 -43 -6 -46 -40
-35 -18 6 -29 18 -31 33 -4 27 14 41 48 38 21 -3 25 -8 23 -36z m-2233 -727
c0 -32 -2 -35 -29 -35 -35 0 -45 12 -37 46 5 19 13 24 36 24 28 0 30 -3 30
-35z m2086 8 c5 -19 2 -30 -11 -40 -28 -20 -52 -16 -59 10 -13 48 -8 57 29 57
29 0 36 -4 41 -27z m-1548 -494 c2 -16 -5 -32 -18 -44 -20 -18 -21 -18 -45 6
-24 23 -24 26 -9 47 22 33 68 27 72 -9z m1002 6 c18 -19 20 -27 11 -39 -18
-21 -50 -26 -66 -9 -13 13 -13 18 0 44 19 35 25 36 55 4z m-502 -401 c-3 -29
-31 -43 -63 -30 -23 8 -3 59 26 67 31 8 41 -2 37 -37z"/>
<path d="M3457 4458 c-9 -69 -9 -461 0 -756 l6 -234 181 4 c179 3 182 3 234
32 60 33 101 76 134 139 22 40 23 53 26 325 4 325 -2 359 -67 433 -21 25 -63
58 -92 74 -53 30 -56 30 -235 33 l-181 4 -6 -54z m343 -143 c56 -29 60 -49 60
-324 0 -170 -4 -258 -12 -276 -20 -44 -72 -68 -147 -69 l-66 -1 -3 330 c-1
181 0 336 3 342 7 19 129 17 165 -2z"/>
<path d="M1069 1553 l-36 -4 -5 -247 c-2 -136 -4 -346 -3 -467 l0 -220 156 1
c149 0 158 1 212 28 60 29 95 64 130 130 21 39 22 52 22 311 0 261 -1 271 -22
312 -29 54 -84 106 -136 131 -32 14 -72 21 -162 24 -66 3 -136 3 -156 1z m269
-179 c47 -33 52 -58 52 -284 0 -280 -11 -306 -138 -317 -58 -5 -59 -5 -64 22
-3 15 -3 155 0 311 l5 284 61 0 c40 0 70 -6 84 -16z"/>
<path d="M2843 1553 l-53 -4 0 -470 0 -470 78 3 77 3 5 200 5 200 60 -3 c69
-4 102 -22 127 -73 15 -28 18 -61 18 -182 l0 -148 78 3 77 3 3 134 c3 148 -6
216 -39 285 l-21 47 32 61 c28 53 33 71 33 137 1 91 -24 152 -81 202 -61 54
-107 68 -233 73 -63 2 -138 2 -166 -1z m293 -197 c27 -27 34 -42 34 -74 0 -75
-55 -112 -167 -112 l-53 0 0 110 0 110 76 0 c73 0 77 -1 110 -34z"/>
<path d="M4488 1553 l-238 -3 0 -80 0 -80 155 0 c85 0 155 -3 155 -6 0 -8 -48
-102 -150 -294 -186 -348 -170 -312 -170 -401 l0 -79 255 0 255 0 0 80 0 80
-160 0 c-88 0 -160 2 -160 4 0 14 54 121 174 346 l136 255 0 93 c0 50 -3 91
-7 90 -5 -2 -115 -4 -245 -5z"/>
<path d="M5148 1553 c-10 -2 -20 -14 -23 -26 -3 -12 -4 -222 -3 -467 l3 -445
75 0 75 0 3 203 2 202 100 0 100 0 2 -202 3 -203 80 0 80 0 -4 465 c-2 256 -7
469 -11 474 -5 4 -40 5 -79 1 l-71 -7 0 -184 0 -185 -97 3 -98 3 -3 181 c-2
178 -3 182 -25 188 -25 6 -83 6 -109 -1z"/>
<path d="M1940 1080 l0 -470 220 0 220 0 0 80 0 80 -140 0 -140 0 0 120 0 120
140 0 140 0 0 80 0 80 -102 0 c-57 0 -120 3 -140 6 l-38 7 0 103 0 104 140 0
140 0 0 80 0 80 -220 0 -220 0 0 -470z"/>
<path d="M3715 1348 c-3 -112 -5 -322 -3 -468 l3 -265 80 0 80 0 3 468 2 467
-79 0 -79 0 -7 -202z"/>
<path d="M5995 1519 c4 -17 41 -133 83 -257 l76 -227 5 -210 6 -210 80 0 80 0
1 200 2 201 86 261 c47 144 86 264 86 267 0 3 -35 6 -79 6 l-78 0 -43 -157
c-23 -87 -46 -165 -50 -173 -11 -19 -18 -1 -54 135 -15 55 -34 121 -42 148
l-16 47 -75 0 -75 0 7 -31z"/>
</g>
</svg>
