<svg width="800" height="800" viewBox="0 0 800 800" fill="none" xmlns="http://www.w3.org/2000/svg">
<g clip-path="url(#clip0_22_4)">
<rect width="800" height="800" fill="white"/>
<g clip-path="url(#clip1_22_4)">
<path fill-rule="evenodd" clip-rule="evenodd" d="M400.073 201.288C357.056 201.288 322.064 236.281 322.064 279.297V390.738C322.064 433.754 357.056 468.747 400.073 468.747C443.089 468.747 478.081 433.754 478.081 390.738V279.297C478.081 236.281 443.089 201.288 400.073 201.288ZM277.487 342.444V396.181C277.487 463.759 332.495 518.766 400.073 518.766C467.65 518.766 522.658 463.759 522.658 396.181V342.444H544.946V396.181C544.946 472.312 485.912 534.92 411.218 540.63L411.216 598.712H466.937V621H333.208V598.712H388.928L388.927 540.63C314.233 534.92 255.199 472.312 255.199 396.181V342.444H277.487ZM400.073 179C455.369 179 500.369 224 500.369 279.297V390.738C500.369 446.035 455.37 491.035 400.072 491.035C344.775 491.035 299.775 446.035 299.775 390.738V279.297C299.775 224 344.775 179 400.073 179Z" fill="black"/>
</g>
</g>
<defs>
<clipPath id="clip0_22_4">
<rect width="800" height="800" fill="white"/>
</clipPath>
<clipPath id="clip1_22_4">
<rect width="442" height="442" fill="white" transform="translate(179 179)"/>
</clipPath>
</defs>
</svg>
