<svg width="1433" height="1577" viewBox="0 0 1433 1577" fill="none" xmlns="http://www.w3.org/2000/svg">
<g clip-path="url(#clip0_62_1624)">
<rect width="1433" height="1577" fill="white"/>
<g opacity="0.05" clip-path="url(#clip1_62_1624)">
<path d="M176.005 133.756C174.98 132.92 173.472 133.073 172.637 134.097L152.115 159.241C151.582 159.894 151.431 160.78 151.72 161.573C152.008 162.365 152.693 162.948 153.521 163.105L185.404 169.175C185.843 169.259 186.277 169.217 186.668 169.074C187.435 168.795 188.039 168.131 188.203 167.272C188.45 165.973 187.598 164.72 186.299 164.473L158.364 159.154L176.345 137.124C177.181 136.1 177.029 134.592 176.005 133.756Z" fill="black"/>
<path d="M228.803 152.495C229.48 153.048 230.37 153.168 231.137 152.889C231.528 152.747 231.888 152.5 232.17 152.154L252.692 127.01C253.225 126.357 253.375 125.471 253.087 124.678C252.798 123.886 252.114 123.303 251.285 123.146L219.403 117.076C218.104 116.829 216.851 117.681 216.604 118.979C216.357 120.278 217.209 121.531 218.507 121.778L246.442 127.097L228.462 149.127C227.625 150.151 227.778 151.659 228.803 152.495Z" fill="black"/>
<path d="M204.879 123.13L195.279 161.973C194.962 163.256 195.745 164.553 197.028 164.871C197.508 164.989 197.988 164.954 198.42 164.797C199.144 164.533 199.728 163.925 199.927 163.121L209.527 124.279C209.844 122.995 209.061 121.698 207.778 121.38C206.494 121.064 205.196 121.847 204.879 123.13Z" fill="black"/>
<path d="M244.161 45.5665L107.705 95.2322C106.463 95.6844 105.823 97.0579 106.275 98.3001L151.028 221.26C151.481 222.502 152.854 223.143 154.096 222.69L290.552 173.025C291.794 172.573 292.434 171.199 291.982 169.957L283.25 145.965C282.798 144.723 281.424 144.082 280.182 144.534C278.939 144.986 278.299 146.36 278.751 147.602L286.665 169.345L154.708 217.373L118.141 116.906L250.098 68.8778L275.477 138.605C275.929 139.847 277.302 140.488 278.545 140.036C279.787 139.583 280.427 138.21 279.975 136.968L247.229 46.9971C246.776 45.7549 245.403 45.1143 244.161 45.5665ZM111.592 98.912L194.815 68.6214L199.727 82.117L116.504 112.408L111.592 98.912ZM204.225 80.4797L199.313 66.9841L243.549 50.8837L248.461 64.3793L204.225 80.4797Z" fill="black"/>
<path d="M223.089 63.2552C221.766 63.7367 221.081 65.2048 221.563 66.5276C222.044 67.8505 223.512 68.5351 224.835 68.0536C226.158 67.5721 226.843 66.104 226.361 64.7811C225.88 63.4583 224.412 62.7737 223.089 63.2552Z" fill="black"/>
<path d="M210.793 67.7305C209.47 68.212 208.785 69.6801 209.267 71.003C209.748 72.3259 211.216 73.0105 212.539 72.529C213.862 72.0475 214.547 70.5794 214.065 69.2565C213.584 67.9337 212.116 67.2491 210.793 67.7305Z" fill="black"/>
<path d="M235.385 58.7798C234.062 59.2613 233.377 60.7294 233.859 62.0523C234.34 63.3751 235.808 64.0597 237.131 63.5782C238.454 63.0967 239.139 61.6286 238.657 60.3058C238.176 58.9829 236.707 58.2983 235.385 58.7798Z" fill="black"/>
</g>
<g opacity="0.05" clip-path="url(#clip2_62_1624)">
<path d="M1353.27 452.335L1212 515.235C1205.86 517.966 1203.09 525.179 1205.82 531.313L1230.98 587.823C1233.71 593.957 1240.93 596.726 1247.06 593.995L1388.34 531.096C1394.47 528.364 1397.24 521.152 1394.51 515.017L1369.35 458.507C1366.62 452.373 1359.4 449.604 1353.27 452.335ZM1389.21 517.376C1390.64 520.589 1389.19 524.367 1385.98 525.798L1244.7 588.697C1241.49 590.128 1237.71 588.678 1236.28 585.464L1211.12 528.955C1209.69 525.741 1211.14 521.963 1214.35 520.532L1355.63 457.633C1358.84 456.203 1362.62 457.653 1364.05 460.866L1389.21 517.376Z" fill="black"/>
<path d="M1341.7 525.199L1273.89 555.39C1272.42 556.042 1271.77 557.755 1272.42 559.219C1273.07 560.682 1274.78 561.34 1276.24 560.688L1344.06 530.497C1345.52 529.845 1346.18 528.132 1345.53 526.668C1344.87 525.205 1343.16 524.548 1341.7 525.199Z" fill="black"/>
<path d="M1262.58 560.422L1256.93 562.938C1255.47 563.59 1254.81 565.303 1255.46 566.767C1256.12 568.23 1257.83 568.887 1259.29 568.236L1264.94 565.72C1266.41 565.069 1267.06 563.355 1266.41 561.892C1265.76 560.429 1264.05 559.771 1262.58 560.422Z" fill="black"/>
<path d="M1245.63 567.97L1239.98 570.486C1238.52 571.138 1237.86 572.851 1238.51 574.315C1239.16 575.778 1240.88 576.435 1242.34 575.784L1247.99 573.268C1249.45 572.617 1250.11 570.903 1249.46 569.44C1248.81 567.977 1247.09 567.319 1245.63 567.97Z" fill="black"/>
<path d="M1375.6 510.103L1369.95 512.619C1368.49 513.27 1367.83 514.984 1368.48 516.447C1369.13 517.91 1370.85 518.568 1372.31 517.917L1377.96 515.401C1379.43 514.749 1380.08 513.036 1379.43 511.573C1378.78 510.109 1377.07 509.452 1375.6 510.103Z" fill="black"/>
<path d="M1358.65 517.651L1353 520.167C1351.54 520.818 1350.88 522.532 1351.53 523.995C1352.18 525.458 1353.9 526.116 1355.36 525.465L1361.01 522.949C1362.47 522.297 1363.13 520.584 1362.48 519.12C1361.83 517.657 1360.11 517 1358.65 517.651Z" fill="black"/>
<path d="M1370.57 498.801L1359.27 503.833C1357.81 504.484 1357.15 506.198 1357.8 507.661C1358.45 509.125 1360.17 509.782 1361.63 509.131L1372.93 504.099C1374.39 503.448 1375.05 501.734 1374.4 500.271C1373.75 498.807 1372.03 498.15 1370.57 498.801Z" fill="black"/>
<path d="M1351.8 510.334C1351.14 508.871 1349.43 508.214 1347.97 508.865L1342.32 511.381C1340.85 512.032 1340.2 513.746 1340.85 515.209C1341.5 516.672 1343.21 517.33 1344.68 516.679L1350.33 514.163C1351.79 513.511 1352.45 511.798 1351.8 510.334Z" fill="black"/>
<path d="M1327.72 524.227L1333.37 521.711C1334.84 521.059 1335.49 519.346 1334.84 517.882C1334.19 516.419 1332.48 515.762 1331.01 516.413L1325.36 518.929C1323.9 519.58 1323.24 521.294 1323.89 522.757C1324.55 524.22 1326.26 524.878 1327.72 524.227Z" fill="black"/>
<path d="M1310.77 531.775L1316.42 529.259C1317.88 528.607 1318.54 526.894 1317.89 525.43C1317.24 523.967 1315.53 523.309 1314.06 523.961L1308.41 526.477C1306.95 527.128 1306.29 528.842 1306.94 530.305C1307.59 531.768 1309.31 532.426 1310.77 531.775Z" fill="black"/>
<path d="M1293.82 539.322L1299.47 536.806C1300.93 536.155 1301.59 534.441 1300.94 532.978C1300.29 531.515 1298.57 530.857 1297.11 531.509L1291.46 534.025C1290 534.676 1289.34 536.39 1289.99 537.853C1290.64 539.316 1292.35 539.974 1293.82 539.322Z" fill="black"/>
<path d="M1276.86 546.87L1282.52 544.354C1283.98 543.703 1284.64 541.989 1283.98 540.526C1283.33 539.063 1281.62 538.405 1280.16 539.057L1274.51 541.573C1273.04 542.224 1272.38 543.938 1273.04 545.401C1273.69 546.864 1275.4 547.522 1276.86 546.87Z" fill="black"/>
<path d="M1263.2 546.605L1257.55 549.12C1256.09 549.772 1255.43 551.485 1256.08 552.949C1256.73 554.412 1258.45 555.07 1259.91 554.418L1265.56 551.902C1267.02 551.251 1267.68 549.537 1267.03 548.074C1266.38 546.611 1264.67 545.953 1263.2 546.605Z" fill="black"/>
<path d="M1246.25 554.152L1234.95 559.184C1233.49 559.836 1232.83 561.549 1233.48 563.013C1234.13 564.476 1235.84 565.133 1237.31 564.482L1248.61 559.45C1250.07 558.799 1250.73 557.085 1250.08 555.622C1249.43 554.159 1247.71 553.501 1246.25 554.152Z" fill="black"/>
<path d="M1360.51 476.197L1349.21 481.229C1347.74 481.881 1347.08 483.594 1347.74 485.057C1348.39 486.521 1350.1 487.178 1351.56 486.527L1362.87 481.495C1364.33 480.844 1364.99 479.13 1364.34 477.667C1363.68 476.204 1361.97 475.546 1360.51 476.197Z" fill="black"/>
<path d="M1334.61 494.075L1340.26 491.559C1341.73 490.908 1342.38 489.194 1341.73 487.731C1341.08 486.267 1339.37 485.61 1337.9 486.261L1332.25 488.777C1330.79 489.428 1330.13 491.142 1330.78 492.605C1331.44 494.069 1333.15 494.726 1334.61 494.075Z" fill="black"/>
<path d="M1317.66 501.623L1323.31 499.107C1324.77 498.455 1325.43 496.742 1324.78 495.279C1324.13 493.815 1322.41 493.158 1320.95 493.809L1315.3 496.325C1313.84 496.976 1313.18 498.69 1313.83 500.153C1314.48 501.617 1316.2 502.274 1317.66 501.623Z" fill="black"/>
<path d="M1300.71 509.171L1306.36 506.655C1307.82 506.003 1308.48 504.29 1307.83 502.826C1307.17 501.363 1305.46 500.706 1304 501.357L1298.35 503.873C1296.88 504.524 1296.23 506.238 1296.88 507.701C1297.53 509.164 1299.24 509.822 1300.71 509.171Z" fill="black"/>
<path d="M1283.75 516.719L1289.4 514.203C1290.87 513.551 1291.52 511.838 1290.87 510.374C1290.22 508.911 1288.51 508.254 1287.04 508.905L1281.39 511.421C1279.93 512.072 1279.27 513.786 1279.92 515.249C1280.58 516.712 1282.29 517.37 1283.75 516.719Z" fill="black"/>
<path d="M1266.8 524.267L1272.45 521.751C1273.91 521.099 1274.57 519.386 1273.92 517.922C1273.27 516.459 1271.56 515.801 1270.09 516.453L1264.44 518.969C1262.98 519.62 1262.32 521.334 1262.97 522.797C1263.62 524.26 1265.34 524.918 1266.8 524.267Z" fill="black"/>
<path d="M1249.85 531.814L1255.5 529.298C1256.96 528.647 1257.62 526.933 1256.97 525.47C1256.32 524.007 1254.6 523.349 1253.14 524.001L1247.49 526.517C1246.03 527.168 1245.37 528.882 1246.02 530.345C1246.67 531.808 1248.38 532.466 1249.85 531.814Z" fill="black"/>
<path d="M1227.24 541.878L1238.55 536.846C1240.01 536.195 1240.67 534.481 1240.02 533.018C1239.36 531.555 1237.65 530.897 1236.19 531.549L1224.89 536.581C1223.42 537.232 1222.76 538.946 1223.42 540.409C1224.07 541.872 1225.78 542.53 1227.24 541.878Z" fill="black"/>
<path d="M1365.54 487.499L1359.89 490.015C1358.43 490.666 1357.77 492.38 1358.42 493.843C1359.07 495.307 1360.78 495.964 1362.25 495.313L1367.9 492.797C1369.36 492.146 1370.02 490.432 1369.37 488.969C1368.72 487.505 1367 486.848 1365.54 487.499Z" fill="black"/>
<path d="M1348.59 495.047L1342.94 497.563C1341.47 498.214 1340.81 499.928 1341.47 501.391C1342.12 502.855 1343.83 503.512 1345.29 502.861L1350.95 500.345C1352.41 499.694 1353.07 497.98 1352.42 496.517C1351.76 495.053 1350.05 494.396 1348.59 495.047Z" fill="black"/>
<path d="M1331.63 502.595L1325.98 505.111C1324.52 505.762 1323.86 507.476 1324.51 508.939C1325.16 510.402 1326.88 511.06 1328.34 510.409L1333.99 507.893C1335.46 507.241 1336.11 505.528 1335.46 504.065C1334.81 502.601 1333.1 501.944 1331.63 502.595Z" fill="black"/>
<path d="M1314.68 510.143L1309.03 512.659C1307.57 513.31 1306.91 515.024 1307.56 516.487C1308.21 517.95 1309.93 518.608 1311.39 517.957L1317.04 515.441C1318.5 514.789 1319.16 513.076 1318.51 511.612C1317.86 510.149 1316.14 509.492 1314.68 510.143Z" fill="black"/>
<path d="M1297.73 517.691L1292.08 520.207C1290.61 520.858 1289.96 522.572 1290.61 524.035C1291.26 525.498 1292.97 526.156 1294.44 525.505L1300.09 522.989C1301.55 522.337 1302.21 520.624 1301.56 519.16C1300.91 517.697 1299.19 517.039 1297.73 517.691Z" fill="black"/>
<path d="M1280.78 525.239L1275.12 527.755C1273.66 528.406 1273 530.12 1273.65 531.583C1274.31 533.046 1276.02 533.704 1277.48 533.052L1283.13 530.536C1284.6 529.885 1285.26 528.171 1284.6 526.708C1283.95 525.245 1282.24 524.587 1280.78 525.239Z" fill="black"/>
<path d="M1263.82 532.787L1258.17 535.303C1256.71 535.954 1256.05 537.668 1256.7 539.131C1257.35 540.594 1259.07 541.252 1260.53 540.6L1266.18 538.084C1267.64 537.433 1268.3 535.719 1267.65 534.256C1267 532.793 1265.29 532.135 1263.82 532.787Z" fill="black"/>
<path d="M1232.28 553.18L1249.23 545.632C1250.69 544.981 1251.35 543.267 1250.7 541.804C1250.05 540.341 1248.33 539.683 1246.87 540.335L1229.92 547.882C1228.45 548.534 1227.8 550.247 1228.45 551.711C1229.1 553.174 1230.81 553.832 1232.28 553.18Z" fill="black"/>
<path d="M1355.48 464.895L1349.82 467.411C1348.36 468.063 1347.7 469.776 1348.36 471.24C1349.01 472.703 1350.72 473.36 1352.18 472.709L1357.83 470.193C1359.3 469.542 1359.96 467.828 1359.3 466.365C1358.65 464.902 1356.94 464.244 1355.48 464.895Z" fill="black"/>
<path d="M1338.52 472.443L1332.87 474.959C1331.41 475.611 1330.75 477.324 1331.4 478.787C1332.05 480.251 1333.77 480.908 1335.23 480.257L1340.88 477.741C1342.35 477.09 1343 475.376 1342.35 473.913C1341.7 472.45 1339.99 471.792 1338.52 472.443Z" fill="black"/>
<path d="M1321.57 479.991L1315.92 482.507C1314.46 483.158 1313.8 484.872 1314.45 486.335C1315.1 487.799 1316.82 488.456 1318.28 487.805L1323.93 485.289C1325.39 484.638 1326.05 482.924 1325.4 481.461C1324.75 479.997 1323.03 479.34 1321.57 479.991Z" fill="black"/>
<path d="M1301.32 495.353L1306.98 492.837C1308.44 492.186 1309.1 490.472 1308.45 489.009C1307.79 487.545 1306.08 486.888 1304.62 487.539L1298.97 490.055C1297.5 490.706 1296.85 492.42 1297.5 493.883C1298.15 495.347 1299.86 496.004 1301.32 495.353Z" fill="black"/>
<path d="M1284.37 502.901L1290.02 500.385C1291.49 499.733 1292.14 498.02 1291.49 496.556C1290.84 495.093 1289.13 494.436 1287.66 495.087L1282.01 497.603C1280.55 498.254 1279.89 499.968 1280.54 501.431C1281.2 502.894 1282.91 503.552 1284.37 502.901Z" fill="black"/>
<path d="M1267.42 510.449L1273.07 507.933C1274.53 507.281 1275.19 505.568 1274.54 504.104C1273.89 502.641 1272.17 501.984 1270.71 502.635L1265.06 505.151C1263.6 505.802 1262.94 507.516 1263.59 508.979C1264.24 510.442 1265.96 511.1 1267.42 510.449Z" fill="black"/>
<path d="M1250.47 517.997L1256.12 515.481C1257.58 514.829 1258.24 513.116 1257.59 511.652C1256.94 510.189 1255.22 509.531 1253.76 510.183L1248.11 512.699C1246.64 513.35 1245.99 515.064 1246.64 516.527C1247.29 517.99 1249 518.648 1250.47 517.997Z" fill="black"/>
<path d="M1222.21 530.576L1239.16 523.028C1240.63 522.377 1241.29 520.663 1240.63 519.2C1239.98 517.737 1238.27 517.079 1236.81 517.731L1219.85 525.279C1218.39 525.93 1217.73 527.644 1218.38 529.107C1219.03 530.57 1220.75 531.228 1222.21 530.576Z" fill="black"/>
</g>
<g opacity="0.05" clip-path="url(#clip3_62_1624)">
<path d="M148.176 694.299L148.023 694.244L171.263 630.393L173.86 631.338C175.125 631.799 176.525 631.146 176.985 629.881C177.446 628.615 176.793 627.216 175.528 626.755L161.115 621.51L122.555 596.917L123.666 593.867C124.126 592.602 123.474 591.202 122.208 590.742C120.943 590.281 119.544 590.934 119.083 592.199L117.973 595.249L72.6266 589.302L58.2137 584.056C56.9483 583.596 55.549 584.248 55.0884 585.514C54.6279 586.779 55.2804 588.179 56.5458 588.639L59.1426 589.584L35.9028 653.435L35.75 653.379C33.1389 652.429 30.2416 653.78 29.2912 656.391L27.5121 661.279C26.5617 663.89 27.9127 666.788 30.5239 667.738L84.4457 687.364L79.4914 700.976L31.8432 713.306C30.5395 713.644 29.7561 714.974 30.0936 716.278C30.3026 717.085 30.893 717.693 31.6223 717.959C32.0695 718.122 32.5693 718.155 33.065 718.027L58.7517 711.38L72.5583 724.345C72.6254 724.408 72.6963 724.467 72.7709 724.522C72.7801 724.529 72.7901 724.535 72.7994 724.541C72.8493 724.578 72.8992 724.613 72.9521 724.646C72.9801 724.663 73.0093 724.677 73.0377 724.693C73.0604 724.706 73.0829 724.718 73.1058 724.73C73.1995 724.779 73.2947 724.823 73.3924 724.859L73.3933 724.859L73.3943 724.86C73.492 724.895 73.5936 724.922 73.6964 724.945C73.722 724.951 73.7478 724.956 73.7734 724.961C73.8051 724.967 73.8361 724.975 73.868 724.979C73.9297 724.988 73.9909 724.993 74.0526 724.998C74.0641 724.998 74.0755 725 74.087 725.001C74.1798 725.007 74.272 725.007 74.3638 725.002L93.2739 723.945L108.678 745.548C108.976 745.965 109.38 746.26 109.828 746.423C110.557 746.689 111.4 746.602 112.079 746.118C113.176 745.336 113.431 743.813 112.649 742.717L84.074 702.644L89.0283 689.032L142.95 708.658C145.561 709.608 148.459 708.257 149.409 705.646L151.188 700.758C152.138 698.147 150.787 695.25 148.176 694.299ZM73.201 718.259L64.3365 709.935L77.4673 706.537L73.201 718.259ZM120.847 601.611L139.991 613.821L119.162 606.24L120.847 601.611ZM116.264 599.943L114.58 604.572L93.7511 596.991L116.264 599.943ZM63.7252 591.252L71.2027 593.974C71.2046 593.974 71.206 593.975 71.2078 593.976C71.2106 593.977 71.2134 593.978 71.2162 593.979L159.19 625.998C159.192 625.999 159.195 626.001 159.198 626.002C159.2 626.002 159.201 626.003 159.203 626.003L166.681 628.725L143.441 692.576L40.4854 655.103L63.7252 591.252ZM89.9245 719.248L77.7836 719.927L82.0499 708.205L89.9245 719.248ZM144.826 703.978C144.796 704.063 144.702 704.106 144.618 704.075L32.1918 663.156C32.1075 663.125 32.064 663.032 32.0947 662.947L33.8738 658.059C33.9045 657.975 33.9978 657.931 34.0821 657.962L146.508 698.882C146.593 698.912 146.636 699.006 146.605 699.09L144.826 703.978Z" fill="black"/>
<path d="M155.527 636.082L131.086 627.187C129.821 626.726 128.422 627.379 127.961 628.644C127.5 629.909 128.153 631.309 129.418 631.769L153.859 640.665C155.124 641.125 156.523 640.473 156.984 639.208C157.445 637.942 156.792 636.543 155.527 636.082Z" fill="black"/>
<path d="M151.968 645.859L127.528 636.963C126.262 636.502 124.863 637.155 124.402 638.42C123.942 639.686 124.594 641.085 125.86 641.545L150.3 650.441C151.566 650.902 152.965 650.249 153.425 648.984C153.886 647.718 153.233 646.319 151.968 645.859Z" fill="black"/>
<path d="M148.409 655.635L131.301 649.408C130.036 648.947 128.636 649.6 128.176 650.865C127.715 652.131 128.368 653.53 129.633 653.99L146.741 660.217C148.007 660.678 149.406 660.025 149.867 658.76C150.327 657.495 149.675 656.095 148.409 655.635Z" fill="black"/>
<path d="M144.852 665.411L127.743 659.184C126.478 658.723 125.079 659.376 124.618 660.641C124.158 661.907 124.81 663.306 126.076 663.767L143.184 669.993C144.449 670.454 145.849 669.802 146.309 668.536C146.77 667.271 146.117 665.871 144.852 665.411Z" fill="black"/>
<path d="M141.293 675.187L124.185 668.96C122.919 668.5 121.52 669.152 121.06 670.417C120.599 671.683 121.252 673.082 122.517 673.543L139.625 679.77C140.891 680.23 142.29 679.578 142.751 678.312C143.211 677.047 142.559 675.648 141.293 675.187Z" fill="black"/>
<path d="M110.185 669.4L107.589 668.455L121.877 629.198C123.318 625.239 121.27 620.846 117.311 619.405C113.352 617.964 108.959 620.013 107.518 623.972L93.2299 663.229L88.0363 661.339L95.2084 641.634C96.6492 637.675 94.6008 633.282 90.642 631.841C86.6833 630.4 82.2904 632.449 80.8496 636.408L73.6775 656.113L68.4839 654.222L71.2082 646.737C72.649 642.779 70.6006 638.386 66.6419 636.945C62.6831 635.504 58.2903 637.553 56.8494 641.511L54.1251 648.996L51.5283 648.051C50.2629 647.59 48.8636 648.243 48.4031 649.508C47.9425 650.774 48.595 652.173 49.8604 652.634L108.518 673.983C109.783 674.444 111.182 673.791 111.643 672.526C112.103 671.26 111.451 669.861 110.185 669.4ZM63.9013 652.554L58.7077 650.664L61.432 643.179C61.9532 641.747 63.542 641.006 64.9739 641.528C66.4058 642.049 67.1468 643.638 66.6256 645.069L63.9013 652.554ZM83.4537 659.671L78.2601 657.781L85.4322 638.075C85.9533 636.644 87.5422 635.903 88.9741 636.424C90.406 636.945 91.1469 638.534 90.6258 639.966L83.4537 659.671ZM103.006 666.787L97.8125 664.897L112.101 625.64C112.622 624.208 114.211 623.467 115.643 623.988C117.075 624.509 117.816 626.098 117.295 627.53L103.006 666.787Z" fill="black"/>
</g>
<g opacity="0.05" clip-path="url(#clip4_62_1624)">
<path d="M809.715 344.764L806.217 345.381L788.184 243.11C786.923 235.962 780.082 231.172 772.934 232.432L621.483 259.137C614.335 260.398 609.545 267.239 610.805 274.387L628.838 376.657L625.34 377.274C623.635 377.575 622.497 379.2 622.798 380.905L623.959 387.49C624.899 392.823 630.003 396.396 635.336 395.456L806.541 365.268C811.874 364.328 815.447 359.224 814.507 353.891L813.346 347.306C813.045 345.602 811.42 344.463 809.715 344.764ZM616.979 273.298C616.318 269.554 618.827 265.971 622.572 265.311L774.022 238.606C777.767 237.945 781.35 240.455 782.01 244.199L800.043 346.469L635.012 375.569L616.979 273.298ZM808.334 354.98C808.674 356.909 807.381 358.755 805.452 359.095L634.247 389.283C632.318 389.623 630.472 388.33 630.132 386.401L629.515 382.903L699.078 370.637C699.085 370.707 699.091 370.776 699.104 370.845C699.404 372.55 701.03 373.688 702.735 373.387L735.659 367.582C737.363 367.281 738.502 365.656 738.201 363.951C738.189 363.882 738.171 363.815 738.154 363.747L807.717 351.481L808.334 354.98Z" fill="black"/>
<path d="M771.963 246.183L627.097 271.726C625.393 272.027 624.254 273.653 624.555 275.357L640.23 364.252C640.53 365.957 642.156 367.095 643.86 366.795L788.726 341.251C790.431 340.95 791.569 339.325 791.269 337.62L775.594 248.725C775.294 247.02 773.668 245.882 771.963 246.183ZM784.551 335.622L645.859 360.077L631.273 277.355L769.965 252.9L784.551 335.622Z" fill="black"/>
</g>
<g opacity="0.05" clip-path="url(#clip5_62_1624)">
<path d="M1005.26 830.937L1000.04 890.684C999.557 896.172 997.875 901.317 995.822 906.019L995.821 906.023C987.859 921.946 971.006 932.279 952.309 930.644C933.64 929.01 918.705 915.933 913.85 898.929C913.84 898.904 913.809 898.873 913.803 898.847C912.91 895.719 912.364 892.456 912.201 889.113C912.153 888.111 912.195 887.108 912.214 886.092C912.233 885.071 912.347 884.051 912.437 883.02L917.664 823.273L1005.26 830.937Z" fill="#ECF0F1"/>
<path d="M962.343 932.08L941.971 930.297L939.368 960.041L959.741 961.823L962.343 932.08Z" fill="white"/>
<path d="M976.294 983.799L919.252 978.809L919.953 970.8C920.55 963.972 926.569 958.921 933.397 959.518L965.713 962.345C972.541 962.943 977.592 968.962 976.994 975.79L976.294 983.799Z" fill="#ECF0F1"/>
<path d="M990.809 1005.6L901.172 997.755L901.872 989.746C902.47 982.918 908.489 977.867 915.317 978.464L980.228 984.143C987.056 984.741 992.107 990.76 991.51 997.588L990.809 1005.6Z" fill="white"/>
<path d="M1006.52 814.27L918.921 806.606L917.495 822.903L1005.09 830.567L1006.52 814.27Z" fill="white"/>
<path d="M913.833 898.85C901.848 896.139 891.424 889.553 883.898 880.589C874.86 869.817 869.893 855.772 871.215 840.661C872.055 831.057 880.482 824.125 890.085 824.966L917.308 827.347L915.882 843.645L888.663 841.263C888.06 841.211 887.681 841.494 887.628 842.097C886.089 859.686 896.679 875.417 912.579 881.386L912.436 883.02C911.957 888.508 912.407 893.844 913.833 898.85Z" fill="white"/>
<path d="M1047.61 856.093C1046.29 871.206 1038.98 884.264 1028.21 893.302C1019.25 900.816 1007.97 905.451 995.711 906.053C997.985 901.37 999.557 896.171 1000.04 890.684L1000.18 889.07C1016.46 885.946 1029.88 872.294 1031.42 854.677C1031.47 854.073 1030.91 853.708 1030.3 853.655L1003.48 851.309L1004.91 835.011L1031.73 837.358C1041.33 838.198 1048.45 846.49 1047.61 856.093Z" fill="white"/>
<path d="M979.744 879.54C979.419 883.251 973.669 885.02 971.673 887.866C969.614 890.801 969.858 896.786 966.61 898.304C963.462 899.776 959.07 895.796 955.359 895.472C951.648 895.147 946.632 898.304 943.787 896.308C940.852 894.249 942.132 888.397 940.614 885.148C939.143 882 933.787 879.259 934.111 875.547C934.436 871.836 940.186 870.067 942.182 867.222C944.241 864.286 943.996 858.302 947.245 856.783C950.393 855.311 954.785 859.291 958.496 859.616C962.207 859.94 967.223 856.783 970.068 858.78C973.003 860.839 971.723 866.691 973.241 869.939C974.713 873.087 980.068 875.828 979.744 879.54Z" fill="white"/>
<path d="M998.234 909.943C1010.28 908.873 1021.51 904.212 1030.84 896.384C1042.92 886.25 1050.31 872.134 1051.69 856.45C1052.72 844.655 1043.92 834.318 1032.09 833.283L1009.34 831.293C1009.37 830.886 1009.4 830.563 1009.43 830.31L1010.8 814.644C1010.99 812.393 1009.1 810.744 1006.85 810.547L919.248 802.883C916.998 802.686 915.244 804.016 915.048 806.267L913.622 822.564C913.617 822.614 913.433 822.492 913.399 822.9L890.443 820.891C878.612 819.856 868.158 828.505 867.126 840.299C865.756 855.953 870.591 871.174 880.732 883.26C888.475 892.483 899.004 899.155 910.575 902.276C913.394 910.621 918.421 917.981 925.22 923.69C929.028 926.888 933.42 929.443 937.774 931.289L935.629 955.813L933.736 955.648C924.672 954.855 916.666 961.379 915.873 970.443L915.529 974.381C906.558 973.673 898.582 980.373 897.794 989.39L897.093 997.398C896.896 999.649 898.547 1001.84 900.797 1002.03L990.434 1009.88C992.684 1010.07 994.682 1008.2 994.879 1005.95L995.58 997.945C996.369 988.928 989.677 980.945 980.72 980.085L981.065 976.147C981.858 967.083 975.115 959.268 966.051 958.475L964.15 958.309L966.294 933.803C979.685 930.909 991.272 922.374 998.234 909.943ZM891.503 845.618L911.452 847.363L909.016 875.201C898.463 869.125 891.575 857.53 891.503 845.618ZM1007.2 855.74L1026.87 857.46C1024.73 869.18 1016.21 879.419 1004.76 883.587L1007.2 855.74ZM1031.37 841.432C1038.72 842.074 1044.18 848.436 1043.54 855.737C1042.36 869.244 1035.98 881.439 1025.58 890.169C1018.7 895.933 1010.64 899.679 1001.96 901.227C1002.87 898.354 1003.5 895.397 1003.85 892.404C1021.06 887.834 1033.86 872.931 1035.43 855.034C1035.68 852.225 1033.53 849.832 1030.66 849.581L1007.91 847.59L1008.63 839.442L1031.37 841.432ZM922.808 811.406L1002.26 818.357L1001.55 826.506L922.095 819.555L922.808 811.406ZM887.001 877.957C878.266 867.547 874.095 854.493 875.274 841.016C875.913 833.714 882.393 828.398 889.73 829.04L912.878 831.065L912.165 839.214L889.021 837.189C886.165 836.939 883.743 838.879 883.493 841.735C882.666 851.191 884.929 860.343 890.029 868.299C894.412 875.133 900.768 880.616 908.138 884.025C908.133 884.1 907.791 888.958 908.419 893.014C900.153 889.967 892.703 884.749 887.001 877.957ZM917.752 897.804C917.729 897.724 917.766 897.649 917.738 897.571C916.954 894.78 916.12 887.852 916.512 883.377L921.383 827.704L1000.83 834.655L995.963 890.328C995.586 894.64 994.262 899.208 992.045 904.303C984.505 919.266 969.032 928.001 952.635 926.567C936.293 925.137 922.256 913.576 917.752 897.804ZM987.431 997.232L987.069 1001.37L905.581 994.241L905.943 990.102C906.343 985.532 910.373 982.343 914.943 982.743L979.854 988.422C984.424 988.821 987.831 992.661 987.431 997.232ZM972.916 975.434L972.554 979.572L923.661 975.294L924.023 971.156C924.423 966.585 928.453 963.397 933.023 963.797L965.338 966.624C969.909 967.024 973.316 970.863 972.916 975.434ZM956.001 957.596L943.778 956.526L945.769 933.775C947.783 934.213 949.815 934.531 951.887 934.712C953.938 934.891 955.932 934.928 957.991 934.853L956.001 957.596Z" fill="#231F20"/>
<path d="M958.402 900.791C960.158 901.588 962.179 902.506 964.313 902.692C965.626 902.807 966.981 902.645 968.343 902.009C972.006 900.297 973.047 896.499 973.884 893.446C974.223 892.208 974.607 890.804 975.022 890.214C975.391 889.688 976.584 888.855 977.543 888.185C980.038 886.441 983.456 884.054 983.82 879.896C984.184 875.737 981.233 872.793 979.078 870.642C978.25 869.816 977.219 868.787 976.948 868.206C976.642 867.552 976.507 866.104 976.388 864.825C976.094 861.674 975.728 857.753 972.418 855.431C969.188 853.165 965.434 854.129 962.417 854.905C961.127 855.236 959.665 855.612 958.853 855.541C958.042 855.47 956.667 854.846 955.454 854.295C952.619 853.009 949.09 851.406 945.514 853.078C941.85 854.79 940.809 858.588 939.973 861.64C939.634 862.879 939.249 864.282 938.835 864.872C938.466 865.398 937.272 866.232 936.313 866.902C933.818 868.645 930.4 871.032 930.037 875.191C929.673 879.349 932.623 882.294 934.778 884.444C935.606 885.271 936.637 886.299 936.908 886.88C937.214 887.534 937.349 888.983 937.469 890.261C937.763 893.412 938.128 897.333 941.438 899.655C944.669 901.922 948.423 900.957 951.44 900.182C952.729 899.85 954.192 899.474 955.003 899.545C955.814 899.616 957.189 900.24 958.402 900.791ZM949.403 892.259C948.429 892.509 946.864 892.912 946.154 892.889C945.868 892.226 945.711 890.545 945.613 889.501C945.432 887.559 945.227 885.358 944.319 883.416C943.437 881.528 941.973 880.067 940.556 878.654C939.754 877.853 938.435 876.537 938.208 875.906C938.541 875.324 940.068 874.257 940.998 873.607C942.638 872.462 944.334 871.278 945.531 869.571C946.762 867.816 947.346 865.684 947.862 863.803C948.139 862.793 948.585 861.164 948.982 860.56C949.685 860.661 951.157 861.329 952.073 861.745C953.883 862.567 955.935 863.498 958.14 863.691C960.345 863.884 962.527 863.323 964.453 862.828C965.427 862.578 966.992 862.175 967.702 862.198C967.988 862.862 968.145 864.543 968.242 865.587C968.424 867.528 968.629 869.729 969.537 871.671C970.419 873.559 971.883 875.021 973.3 876.433C974.102 877.235 975.421 878.551 975.648 879.181C975.315 879.763 973.788 880.831 972.858 881.48C971.218 882.626 969.522 883.81 968.325 885.516C967.094 887.271 966.51 889.403 965.994 891.284C965.717 892.295 965.271 893.924 964.874 894.527C964.17 894.426 962.699 893.759 961.783 893.342C959.973 892.521 957.922 891.589 955.716 891.397C953.51 891.204 951.329 891.764 949.403 892.259Z" fill="#231F20"/>
</g>
<g opacity="0.05">
<path d="M1246.6 1151.51C1244.78 1166.38 1255.39 1179.97 1270.27 1181.79L1380.01 1195.27C1381.36 1195.43 1382.58 1194.47 1382.75 1193.13L1383.67 1185.66C1383.73 1185.15 1383.59 1184.69 1383.38 1184.27C1383.35 1184.22 1383.37 1184.16 1383.35 1184.12C1380.46 1179.2 1379.3 1173.59 1380 1167.89C1380.7 1162.18 1383.18 1157.02 1387.17 1152.95C1387.21 1152.91 1387.2 1152.85 1387.24 1152.81C1387.55 1152.45 1387.8 1152.03 1387.86 1151.53L1388.47 1146.5L1399.39 1147.84C1400.74 1148 1401.97 1147.05 1402.13 1145.7L1403.05 1138.23C1403.11 1137.72 1402.97 1137.26 1402.76 1136.83C1402.73 1136.79 1402.76 1136.73 1402.73 1136.69C1399.84 1131.77 1398.68 1126.16 1399.39 1120.46C1400.09 1114.75 1402.57 1109.59 1406.55 1105.51C1406.59 1105.48 1406.59 1105.42 1406.62 1105.38C1406.93 1105.02 1407.18 1104.6 1407.24 1104.09L1408.16 1096.63C1408.32 1095.28 1407.36 1094.05 1406.02 1093.89L1380.51 1090.75L1383.3 1068.02L1403.68 1061.3L1401.62 1078.02C1398.75 1078.69 1396.45 1081.07 1396.07 1084.16C1395.58 1088.11 1398.41 1091.72 1402.36 1092.21C1406.32 1092.69 1409.93 1089.87 1410.41 1085.92C1410.79 1082.83 1409.13 1079.97 1406.5 1078.62L1409.03 1058.05C1409.08 1057.62 1408.99 1057.22 1408.84 1056.85C1408.8 1056.75 1408.75 1056.67 1408.7 1056.58C1408.53 1056.26 1408.3 1056 1408.01 1055.79C1407.97 1055.76 1407.96 1055.71 1407.92 1055.68L1350 1018.46C1349.37 1018.05 1348.59 1017.96 1347.88 1018.19L1282.68 1040.31C1281.78 1040.61 1281.14 1041.41 1281.03 1042.34C1280.91 1043.29 1281.35 1044.21 1282.16 1044.71L1303.58 1058.23L1300.79 1080.97L1296.27 1080.41C1289.05 1079.52 1281.92 1081.49 1276.22 1085.95C1270.51 1090.41 1266.88 1096.85 1265.99 1104.08C1264.86 1113.32 1268.53 1122.06 1275.04 1127.8C1268.46 1127.43 1262.05 1129.31 1256.84 1133.38C1251.12 1137.84 1247.49 1144.28 1246.6 1151.51ZM1375.61 1164.87L1270.68 1151.99C1269.33 1151.82 1268.1 1152.78 1267.94 1154.13C1267.77 1155.48 1268.73 1156.7 1270.08 1156.87L1375.01 1169.75C1374.82 1174.11 1375.51 1178.38 1377.1 1182.38L1272.59 1169.55C1264.53 1168.56 1258.77 1161.19 1259.76 1153.12C1260.24 1149.21 1262.21 1145.72 1265.29 1143.31C1268.44 1140.88 1272.31 1139.81 1276.19 1140.29L1380.7 1153.12C1378.18 1156.62 1376.48 1160.6 1375.61 1164.87ZM1395 1117.44L1290.06 1104.55C1288.71 1104.39 1287.49 1105.35 1287.32 1106.7C1287.16 1108.04 1288.11 1109.27 1289.46 1109.43L1394.4 1122.32C1394.2 1126.68 1394.89 1130.94 1396.49 1134.95L1291.98 1122.12C1283.91 1121.13 1278.15 1113.76 1279.14 1105.69C1279.62 1101.78 1281.6 1098.28 1284.68 1095.87C1287.82 1093.45 1291.69 1092.38 1295.57 1092.86L1400.07 1105.69C1397.56 1109.19 1395.86 1113.17 1395 1117.44ZM1402.96 1087.33C1401.7 1087.18 1400.8 1086.03 1400.95 1084.76C1401.11 1083.5 1402.26 1082.6 1403.52 1082.76C1404.79 1082.91 1405.69 1084.06 1405.54 1085.33C1405.38 1086.59 1404.23 1087.49 1402.96 1087.33ZM1289.14 1043.31L1348.35 1023.23L1400.93 1057.03L1383.97 1062.63L1384.83 1055.56C1384.87 1055.24 1384.84 1054.93 1384.76 1054.63C1384.74 1054.53 1384.68 1054.44 1384.64 1054.34C1384.57 1054.16 1384.49 1053.98 1384.38 1053.83C1384.31 1053.73 1384.21 1053.65 1384.13 1053.56C1384.01 1053.44 1383.88 1053.31 1383.73 1053.21C1383.62 1053.14 1383.5 1053.09 1383.38 1053.04C1383.27 1052.99 1383.19 1052.92 1383.08 1052.89L1374.37 1050.38C1355.56 1044.94 1336.1 1042.55 1316.53 1043.28L1307.47 1043.61C1307.36 1043.61 1307.26 1043.66 1307.14 1043.68C1307.01 1043.7 1306.88 1043.72 1306.76 1043.76C1306.59 1043.82 1306.44 1043.91 1306.29 1044C1306.18 1044.07 1306.07 1044.12 1305.98 1044.2C1305.83 1044.33 1305.72 1044.48 1305.61 1044.63C1305.54 1044.72 1305.46 1044.79 1305.41 1044.89C1305.26 1045.16 1305.16 1045.45 1305.12 1045.77L1304.25 1052.84L1289.14 1043.31ZM1308.65 1057.29L1309.74 1048.45L1316.7 1048.2C1335.75 1047.49 1354.69 1049.82 1373.01 1055.11L1379.69 1057.04L1378.61 1065.88L1375.63 1090.16L1305.67 1081.57L1308.65 1057.29ZM1270.87 1104.68C1271.6 1098.75 1274.57 1093.47 1279.24 1089.83C1283.92 1086.18 1289.76 1084.56 1295.67 1085.29L1302.63 1086.15L1377.47 1095.33L1402.98 1098.47L1402.66 1101.05L1296.17 1087.98C1291 1087.34 1285.85 1088.77 1281.67 1091.99C1277.53 1095.22 1274.91 1099.87 1274.27 1105.09C1272.95 1115.84 1280.62 1125.67 1291.38 1126.99L1397.87 1140.07L1397.56 1142.66L1386.64 1141.31L1290.25 1129.48C1278.06 1127.99 1269.37 1116.86 1270.87 1104.68ZM1276.29 1132.72L1289.65 1134.36L1383.59 1145.9L1383.28 1148.49L1276.79 1135.41C1271.62 1134.78 1266.47 1136.2 1262.28 1139.42C1258.15 1142.65 1255.53 1147.3 1254.89 1152.52C1253.56 1163.28 1261.24 1173.1 1272 1174.42L1378.49 1187.5L1378.17 1190.08L1270.87 1176.91C1258.68 1175.41 1249.99 1164.28 1251.48 1152.1C1252.21 1146.18 1255.19 1140.9 1259.86 1137.26C1264.53 1133.61 1270.37 1132 1276.29 1132.72Z" fill="#010101"/>
</g>
<g opacity="0.05">
<path d="M220.99 955.832C220.99 957.057 221.231 958.257 221.582 959.422C220.563 960.079 219.544 960.767 218.53 961.49C202.724 950.329 187.677 947.357 177.058 953.507C167.819 958.854 162.819 970.437 162.819 985.942C162.819 988.316 163.024 990.842 163.26 993.393C151.753 998.639 143.493 1005.35 139.155 1012.95C138.814 1012.92 138.493 1012.82 138.146 1012.82C131.253 1012.82 125.644 1018.43 125.644 1025.32C125.644 1032.19 131.253 1037.77 138.146 1037.77C138.478 1037.77 138.789 1037.67 139.115 1037.65C143.498 1045.25 151.773 1051.96 163.26 1057.2C163.024 1059.74 162.819 1062.27 162.819 1064.64C162.819 1080.15 167.819 1091.73 177.058 1097.08C187.707 1103.25 202.749 1100.29 218.505 1089.11C228.757 1096.42 238.668 1100.21 247.4 1100.18C249.483 1104.29 253.716 1106.95 258.45 1106.95C265.344 1106.95 270.952 1101.35 270.952 1094.45C270.952 1092.01 270.249 1089.73 268.969 1087.75C273.307 1080.23 274.974 1069.73 273.804 1057.17C285.292 1051.95 293.571 1045.24 297.954 1037.64C298.276 1037.67 298.592 1037.77 298.923 1037.77C305.792 1037.77 311.375 1032.18 311.375 1025.31C311.375 1018.42 305.792 1012.81 298.923 1012.81C298.567 1012.81 298.256 1012.91 297.904 1012.94C293.531 1005.34 285.257 998.639 273.784 993.398C275.581 974.203 270.626 959.673 259.962 953.502C255.583 950.972 250.457 950.033 244.779 950.525C242.75 946.232 238.352 943.37 233.457 943.37C226.573 943.38 220.99 948.963 220.99 955.832ZM268.367 996.556C267.428 1003.58 265.595 1010.98 262.904 1018.64C260.7 1013.72 258.295 1008.8 255.503 1003.94C252.777 999.192 249.714 994.638 246.511 990.204C254.424 991.716 261.744 993.839 268.367 996.556ZM268.362 1054.04C261.739 1056.76 254.419 1058.88 246.506 1060.39C249.709 1055.96 252.772 1051.4 255.493 1046.66C258.24 1041.91 260.655 1036.98 262.894 1031.99C265.57 1039.59 267.428 1047.08 268.362 1054.04ZM168.653 1054.04C169.637 1046.94 171.505 1039.45 174.151 1031.97C176.395 1036.96 178.81 1041.91 181.556 1046.65C184.283 1051.4 187.345 1055.95 190.544 1060.38C182.631 1058.86 175.2 1056.71 168.653 1054.04ZM251.145 1044.15C247.661 1050.22 243.709 1056.05 239.452 1061.56C232.583 1062.48 225.559 1062.98 218.53 1062.98C211.521 1062.98 204.502 1062.47 197.593 1061.55C193.335 1056.05 189.399 1050.21 185.909 1044.14C182.405 1038.08 179.322 1031.75 176.691 1025.32C179.252 1019.03 182.325 1012.68 185.914 1006.44C189.399 1000.38 193.35 994.542 197.608 989.039C204.441 988.116 211.465 987.619 218.53 987.619C225.574 987.619 232.593 988.121 239.472 989.044C243.729 994.542 247.666 1000.38 251.15 1006.44C254.74 1012.68 257.813 1019.03 260.373 1025.32C257.737 1031.75 254.66 1038.08 251.145 1044.15ZM234.923 1067.08C229.656 1073.18 224.093 1078.54 218.53 1082.85C212.942 1078.52 207.389 1073.17 202.162 1067.08C207.584 1067.63 213.052 1068 218.525 1068C224.023 1068 229.495 1067.63 234.923 1067.08ZM168.653 996.556C175.2 993.88 182.636 991.726 190.549 990.209C187.35 994.643 184.288 999.197 181.556 1003.94C178.76 1008.8 176.355 1013.72 174.156 1018.64C171.475 1011 169.632 1003.61 168.653 996.556ZM202.142 983.512C207.404 977.411 212.962 972.059 218.535 967.736C224.123 972.069 229.676 977.426 234.898 983.517C229.49 982.969 224.033 982.598 218.535 982.598C213.017 982.593 207.549 982.964 202.142 983.512ZM179.568 957.85C188.144 952.884 200.696 955.45 214.312 964.683C207.635 970.026 200.997 976.713 194.902 984.34C185.242 985.821 176.109 988.246 168.111 991.379C166.896 975.016 170.952 962.846 179.568 957.85ZM130.665 1025.32C130.665 1021.2 134.019 1017.84 138.146 1017.84C138.739 1017.84 139.311 1017.91 139.914 1018.07C143.252 1018.89 145.577 1021.87 145.577 1025.32C145.577 1028.73 143.187 1031.75 139.893 1032.51C139.868 1032.52 139.838 1032.53 139.808 1032.53C139.251 1032.69 138.719 1032.76 138.146 1032.76C134.019 1032.75 130.665 1029.42 130.665 1025.32ZM144.076 1036.2C147.972 1034.07 150.598 1029.92 150.598 1025.32C150.598 1020.65 148.022 1016.53 144.116 1014.39C147.887 1008.5 154.765 1003.02 163.903 998.629C165.209 1007.15 167.649 1016.1 171.274 1025.31C167.714 1034.24 165.224 1043.34 163.908 1051.96C154.775 1047.57 147.887 1042.1 144.076 1036.2ZM179.568 1092.74C170.947 1087.75 166.896 1075.57 168.111 1059.21C176.104 1062.34 185.232 1064.76 194.932 1066.24C200.977 1073.86 207.609 1080.54 214.317 1085.9C200.736 1095.16 188.179 1097.72 179.568 1092.74ZM258.445 1101.94C255.252 1101.94 252.435 1099.91 251.426 1096.84C249.754 1092.07 253.56 1087.03 258.445 1087.03C260.639 1087.03 262.688 1087.95 264.094 1089.59C265.294 1090.95 265.926 1092.63 265.926 1094.46C265.926 1098.58 262.572 1101.94 258.445 1101.94ZM265.289 1084.09C263.285 1082.77 260.931 1082.01 258.445 1082.01C251.577 1082.01 245.994 1087.59 245.994 1094.46C245.994 1094.69 246.039 1094.92 246.054 1095.16C239.105 1094.8 231.002 1091.59 222.707 1085.93C229.395 1080.58 236.047 1073.89 242.158 1066.24C251.913 1064.75 260.875 1062.37 268.934 1059.2C269.697 1069.37 268.462 1077.87 265.289 1084.09ZM306.344 1025.32C306.344 1029.42 303.01 1032.75 298.913 1032.75C298.341 1032.75 297.809 1032.68 297.161 1032.51C293.842 1031.76 291.432 1028.73 291.432 1025.31C291.432 1021.86 293.777 1018.88 297.196 1018.05C297.748 1017.91 298.321 1017.84 298.913 1017.84C303.01 1017.84 306.344 1021.2 306.344 1025.32ZM292.933 1014.4C288.992 1016.54 286.411 1020.65 286.411 1025.32C286.411 1029.94 289.067 1034.11 292.969 1036.22C289.153 1042.12 282.259 1047.58 273.121 1051.96C271.856 1043.46 269.426 1034.53 265.786 1025.31C269.426 1016.05 271.856 1007.11 273.121 998.634C282.244 1003.03 289.128 1008.5 292.933 1014.4ZM268.899 991.374C260.85 988.216 251.903 985.836 242.123 984.345C236.083 976.733 229.45 970.056 222.742 964.688C223.139 964.417 223.531 964.146 223.927 963.885C224.002 963.97 224.093 964.036 224.173 964.121C224.399 964.377 224.65 964.588 224.896 964.819C225.408 965.316 225.951 965.763 226.538 966.16C226.839 966.36 227.14 966.551 227.457 966.727C228.084 967.073 228.737 967.349 229.415 967.585C229.721 967.691 230.012 967.821 230.329 967.902C231.333 968.163 232.367 968.334 233.442 968.334C234.315 968.334 235.169 968.238 235.997 968.067C236.088 968.047 236.168 968.007 236.258 967.987C240.29 967.053 243.564 964.176 245.06 960.391C245.07 960.36 245.075 960.33 245.085 960.305C245.361 959.587 245.582 958.844 245.723 958.066C245.768 957.815 245.768 957.554 245.798 957.303C245.858 956.816 245.949 956.339 245.949 955.837C245.949 955.766 245.923 955.711 245.923 955.646C245.923 955.586 245.938 955.525 245.938 955.46C246.195 955.445 246.466 955.405 246.722 955.4C247.189 955.385 247.646 955.39 248.102 955.405C248.815 955.425 249.508 955.475 250.191 955.556C250.628 955.606 251.065 955.656 251.486 955.736C252.194 955.867 252.872 956.048 253.545 956.248C253.896 956.354 254.258 956.434 254.599 956.56C255.589 956.921 256.542 957.338 257.446 957.86C266.057 962.846 270.129 974.981 268.899 991.374ZM240.672 953.879C240.837 954.441 240.923 955.094 240.923 955.832C240.923 959.954 237.569 963.313 233.442 963.313C230.66 963.313 228.13 961.756 226.834 959.241C226.287 958.186 226.011 957.042 226.011 955.827C226.011 951.73 229.345 948.396 233.442 948.396C236.806 948.401 239.773 950.635 240.672 953.879Z" fill="#010101"/>
<path d="M193.822 1025.3C193.822 1038.92 204.903 1050 218.515 1050C232.126 1050 243.207 1038.92 243.207 1025.3C243.207 1011.69 232.131 1000.61 218.515 1000.61C204.898 1000.61 193.822 1011.69 193.822 1025.3ZM238.191 1025.3C238.191 1036.15 229.365 1044.98 218.52 1044.98C207.67 1044.98 198.848 1036.15 198.848 1025.3C198.848 1014.46 207.675 1005.63 218.52 1005.63C229.365 1005.63 238.191 1014.46 238.191 1025.3Z" fill="#010101"/>
</g>
<g opacity="0.05">
<path d="M511.202 713.892L507.517 671.777L509.326 671.619C514.168 671.195 517.767 666.911 517.343 662.065C516.919 657.219 512.63 653.624 507.789 654.048L470.645 657.298C465.803 657.721 462.204 662.006 462.628 666.852C463.052 671.698 467.336 675.293 472.182 674.869L473.99 674.71L477.675 716.825C464.914 724.404 457.51 738.589 458.839 753.78C460.351 769.522 474.82 781.169 491.089 779.746L508.913 778.187C525.183 776.763 537.409 762.78 536.166 747.036C536.165 747.023 536.136 746.688 536.135 746.675C534.838 731.806 525.08 719.128 511.202 713.892ZM466.924 666.476C466.707 664.001 468.546 661.81 471.02 661.594L508.164 658.344C510.639 658.127 512.83 659.966 513.047 662.441C513.263 664.915 511.425 667.106 508.95 667.323L504.993 667.669L475.763 670.226L471.806 670.572C469.331 670.789 467.14 668.95 466.924 666.476ZM503.221 672.153L506.743 712.407C506.579 712.365 506.413 712.345 506.249 712.308C506.015 712.255 505.778 712.21 505.54 712.162C504.503 711.937 503.461 711.759 502.406 711.627C502.201 711.601 501.995 711.576 501.785 711.555C500.627 711.427 499.46 711.348 498.285 711.325C498.194 711.324 498.102 711.315 498.015 711.314C496.715 711.298 495.41 711.325 494.091 711.441C492.777 711.556 491.487 711.755 490.209 711.997C490.107 712.014 490.005 712.041 489.908 712.062C488.771 712.287 487.657 712.558 486.559 712.879C486.34 712.941 486.125 713.008 485.91 713.074C484.923 713.381 483.958 713.73 483.001 714.117C482.754 714.216 482.502 714.307 482.256 714.411C482.106 714.476 481.954 714.524 481.808 714.589L478.287 674.334L503.221 672.153ZM533.991 746.867L531.87 747.356C532.931 760.77 522.461 772.672 508.542 773.89L490.717 775.45C476.798 776.667 464.425 766.763 463.11 753.064C461.916 739.416 468.925 726.365 480.988 719.808C488.889 715.415 499.147 714.453 507.778 717.209C508.009 717.284 508.252 717.332 508.484 717.411C521.484 721.767 530.653 733.402 531.847 747.051L533.991 746.867Z" fill="#010101"/>
<path d="M514.087 728.072C513.981 728.103 503.632 731.186 496.422 729.076C488.426 726.75 477.188 732.041 475.014 733.122C474.956 733.149 474.902 733.18 474.849 733.215C474.535 733.389 474.267 733.642 474.074 733.954C470.917 738.992 469.467 745.028 470.007 751.197C471.079 762.419 481.377 770.726 492.972 769.711L505.315 768.631C516.91 767.617 525.614 757.648 524.716 746.393L524.695 746.152C524.109 739.463 521.091 733.217 516.191 728.572C515.634 728.036 514.821 727.848 514.087 728.072ZM522.551 746.344L520.423 746.756C521.131 755.642 514.185 763.531 504.944 764.339L492.601 765.419C483.36 766.228 475.15 759.665 474.285 750.567C473.866 745.777 474.979 740.892 477.422 736.747C479.84 735.592 489.171 731.46 495.213 733.217C502.099 735.233 510.841 733.373 514.076 732.549C517.709 736.37 519.945 741.291 520.403 746.532L522.551 746.344Z" fill="#010101"/>
<path d="M584.871 706.009L582.428 678.085L583.665 677.976C588.275 677.573 591.697 673.495 591.294 668.885L591.146 667.201C590.743 662.591 586.664 659.169 582.055 659.572L549.538 662.417C544.928 662.82 541.506 666.899 541.909 671.508L542.056 673.193C542.459 677.802 546.538 681.225 551.148 680.821L551.749 680.769L554.193 708.698L538.625 762.271C537.726 765.359 538.411 768.688 540.451 771.172C542.491 773.66 545.628 774.975 548.833 774.694L602.147 770.03C605.369 769.748 608.237 767.891 609.812 765.065C611.388 762.243 611.458 758.834 610.006 755.944L584.871 706.009ZM546.348 672.817L546.201 671.133C546.005 668.895 547.667 666.91 549.909 666.713L582.426 663.868C584.669 663.672 586.65 665.334 586.846 667.577L586.993 669.261C587.189 671.504 585.527 673.485 583.285 673.681L579.899 673.977L553.513 676.285L550.763 676.526C548.525 676.722 546.544 675.06 546.348 672.817ZM606.036 762.971C605.146 764.573 603.584 765.579 601.763 765.739L548.448 770.403C546.636 770.562 544.932 769.845 543.775 768.44C542.621 767.03 542.251 765.227 542.76 763.477L558.438 709.521C558.511 709.264 558.539 708.997 558.516 708.731L556.037 680.398L578.128 678.465L580.606 706.798C580.63 707.069 580.705 707.335 580.831 707.579L606.141 757.888C606.964 759.522 606.926 761.369 606.036 762.971Z" fill="#010101"/>
<path d="M583.825 729.183C583.804 729.141 583.763 729.119 583.742 729.078C583.633 728.871 583.507 728.67 583.324 728.504C583.296 728.48 583.26 728.47 583.233 728.451C583.144 728.377 583.04 728.334 582.94 728.273C582.753 728.164 582.563 728.077 582.36 728.025C582.302 728.013 582.26 727.969 582.203 727.961C582.141 727.949 582.087 727.98 582.027 727.977C581.809 727.961 581.602 727.979 581.39 728.028C581.28 728.051 581.177 728.06 581.072 728.103C580.783 728.215 580.508 728.378 580.282 728.623C579.91 729.019 576.571 732.423 573.249 730.078C568.289 726.525 562.709 728.996 560.198 731.021C560.101 731.098 559.965 731.236 559.882 731.325C559.658 731.583 559.512 731.89 559.419 732.21C559.419 732.214 559.415 732.215 559.415 732.219L552.956 757.849C552.786 758.526 552.953 759.243 553.406 759.775C553.86 760.306 554.542 760.584 555.234 760.524L593.473 757.178C594.173 757.117 594.797 756.721 595.15 756.114C595.504 755.507 595.539 754.768 595.25 754.131L583.825 729.183ZM557.874 755.964L563.404 734.017C563.44 733.992 563.477 733.967 563.518 733.942C563.609 733.887 563.707 733.826 563.81 733.765C563.938 733.689 564.087 733.611 564.236 733.533C564.351 733.471 564.459 733.414 564.584 733.355C564.867 733.222 565.171 733.092 565.499 732.981C565.566 732.958 565.643 732.947 565.711 732.923C565.989 732.839 566.276 732.761 566.575 732.709C566.707 732.685 566.845 732.677 566.978 732.661C567.235 732.63 567.497 732.616 567.766 732.622C567.918 732.626 568.066 732.635 568.219 732.652C568.499 732.68 568.785 732.741 569.07 732.824C569.207 732.86 569.344 732.891 569.478 732.94C569.899 733.098 570.319 733.299 570.735 733.596C570.951 733.746 571.168 733.844 571.382 733.973C571.643 734.127 571.905 734.308 572.167 734.428C572.266 734.475 572.363 734.493 572.458 734.537C572.835 734.698 573.217 734.851 573.593 734.948C573.668 734.967 573.747 734.969 573.822 734.989C574.215 735.08 574.611 735.153 574.995 735.185C575.069 735.191 575.142 735.181 575.215 735.183C575.602 735.201 575.984 735.206 576.362 735.178C576.366 735.177 576.366 735.177 576.371 735.177C576.379 735.176 576.388 735.171 576.392 735.171C577.105 735.108 577.788 734.945 578.44 734.732C578.516 734.708 578.592 734.688 578.668 734.664C579.289 734.445 579.872 734.174 580.417 733.871C580.516 733.819 580.606 733.763 580.701 733.707C580.816 733.641 580.941 733.578 581.047 733.508L590.038 753.15L557.874 755.964Z" fill="#010101"/>
</g>
<g opacity="0.05">
<path d="M531.9 1331.14L331.77 1341.63C330.146 1341.72 328.896 1343.11 328.981 1344.73L336.385 1486C336.47 1487.62 337.858 1488.87 339.482 1488.79L416.738 1484.74C416.321 1486.69 416.622 1488.72 417.712 1490.49C419.616 1493.59 423.111 1495.18 426.812 1493.94L428.109 1518.7C428.171 1519.87 428.921 1520.89 430.022 1521.3C431.112 1521.71 432.355 1521.43 433.172 1520.59L441.061 1512.43L449.76 1519.73C450.346 1520.21 451.078 1520.45 451.808 1520.41C452.203 1520.39 452.604 1520.28 452.967 1520.1C454.019 1519.57 454.658 1518.48 454.597 1517.31L453.299 1492.55C455.214 1492.94 457.194 1492.65 458.904 1491.59C461.448 1490.03 462.937 1487.23 462.783 1484.3C462.749 1483.66 462.591 1483 462.368 1482.35L539.612 1478.3C541.236 1478.21 542.486 1476.83 542.401 1475.2L534.997 1333.93C534.912 1332.31 533.524 1331.06 531.9 1331.14ZM442.745 1506.16C441.565 1505.16 439.806 1505.26 438.731 1506.37L433.641 1511.63L432.763 1494.88C434.069 1497.94 437.019 1499.95 440.398 1499.77C443.77 1499.59 446.495 1497.3 447.479 1494.11L448.357 1510.86L442.745 1506.16ZM455.813 1486.57C455.173 1486.97 454.482 1486.96 453.734 1486.54C452.688 1485.95 451.442 1485.6 450.23 1485.56C449.927 1485.54 449.608 1485.52 449.443 1485.53C445.67 1485.73 442.614 1488.45 442.015 1492.11C441.589 1494.58 438.651 1494.72 437.984 1492.34C436.992 1488.73 433.668 1486.35 429.901 1486.55C429.742 1486.56 429.455 1486.6 429.163 1486.66C429.151 1486.66 429.139 1486.66 429.128 1486.67L429.122 1486.67C428.993 1486.69 428.872 1486.74 428.743 1486.76C428.656 1486.79 428.533 1486.81 428.481 1486.83C428.475 1486.83 428.476 1486.84 428.47 1486.84C427.496 1487.06 426.547 1487.43 425.796 1487.96C425.249 1488.33 424.825 1488.48 424.631 1488.49C423.919 1488.52 423.152 1488.08 422.726 1487.39C422.32 1486.72 422.307 1486.03 422.68 1485.38C423.38 1484.21 423.715 1482.94 423.681 1481.61C423.709 1481.37 423.721 1481.14 423.712 1480.98C423.52 1477.3 420.828 1474.25 417.132 1473.55C415.672 1473.3 415.404 1472.23 415.372 1471.62C415.352 1471.24 415.403 1469.97 416.987 1469.56C418.526 1469.08 419.805 1468.14 420.826 1466.89C420.905 1466.82 420.983 1466.74 421.055 1466.66C421.111 1466.58 421.191 1466.54 421.246 1466.46C421.361 1466.29 421.403 1466.08 421.506 1465.9C421.527 1465.85 421.56 1465.8 421.575 1465.75C422.324 1464.39 422.765 1462.9 422.688 1461.43C422.608 1459.9 422.092 1458.39 421.284 1457.27C420.88 1456.67 420.832 1456.31 420.827 1456.22C420.787 1455.46 421.224 1454.67 421.91 1454.24C422.579 1453.83 423.258 1453.85 423.841 1454.15C425.111 1454.96 426.6 1455.32 428.266 1455.24C432.027 1455.04 435.085 1452.35 435.702 1448.68C435.958 1447.15 437.132 1446.92 437.626 1446.9C438.121 1446.87 439.313 1446.97 439.735 1448.51C440.442 1450.95 442.304 1452.92 444.733 1453.76C447.174 1454.62 449.869 1454.25 451.919 1452.8C453.235 1451.9 454.39 1452.43 455.008 1453.42C455.408 1454.06 455.408 1454.73 455.013 1455.42C454.283 1456.7 453.928 1458.25 454.008 1459.78C454.084 1461.23 454.677 1462.64 455.56 1463.94C455.6 1464.03 455.656 1464.09 455.702 1464.17C455.823 1464.34 455.88 1464.53 456.018 1464.69C456.075 1464.76 456.159 1464.79 456.216 1464.86C456.259 1464.9 456.308 1464.93 456.358 1464.97C457.486 1466.12 458.893 1466.95 460.527 1467.26C460.574 1467.27 460.616 1467.28 460.652 1467.29C462.145 1467.51 462.329 1468.77 462.349 1469.14C462.381 1469.76 462.225 1470.84 460.76 1471.26C457.198 1472.33 454.839 1475.65 455.032 1479.33C455.032 1479.33 455.033 1479.34 455.033 1479.35C455.035 1479.38 455.057 1479.45 455.059 1479.49C455.072 1479.64 455.091 1479.78 455.13 1479.95C455.134 1480.02 455.166 1480.08 455.176 1480.15C455.183 1480.18 455.185 1480.21 455.198 1480.24C455.344 1481.45 455.764 1482.59 456.494 1483.56C456.742 1483.91 456.895 1484.36 456.908 1484.6C456.936 1485.36 456.506 1486.15 455.813 1486.57ZM459.976 1459.69C459.967 1459.62 459.892 1459.55 459.889 1459.49C459.868 1459.09 459.963 1458.65 460.13 1458.35C461.584 1455.79 461.539 1452.8 460.017 1450.33C457.683 1446.56 452.739 1445.14 448.561 1447.97C447.792 1448.51 446.992 1448.32 446.685 1448.21C446.384 1448.11 445.658 1447.77 445.413 1446.93C444.397 1443.19 441.144 1440.81 437.324 1441.01C433.504 1441.21 430.512 1443.92 429.896 1447.72C429.716 1448.78 428.769 1449.31 427.963 1449.35C427.327 1449.38 427.089 1449.23 426.864 1449.09C424.274 1447.65 421.26 1447.71 418.797 1449.24C416.271 1450.82 414.788 1453.6 414.941 1456.52C415.011 1457.87 415.502 1459.23 416.449 1460.64C416.647 1460.91 416.787 1461.34 416.808 1461.74C416.811 1461.81 416.75 1461.88 416.742 1461.95L370.412 1464.38C368.83 1457.61 363.143 1452.49 356.251 1451.63L352.331 1376.83C359.095 1375.25 364.216 1369.57 365.082 1362.67L500.982 1355.55C502.564 1362.32 508.25 1367.43 515.142 1368.3L519.063 1443.1C512.299 1444.68 507.178 1450.36 506.312 1457.26L459.976 1459.69ZM536.36 1472.57L463.572 1476.38C466.529 1475.02 468.405 1472.2 468.23 1468.85C468.158 1467.48 467.683 1466.3 467.042 1465.22L509.299 1463.01C510.923 1462.92 512.173 1461.53 512.088 1459.91C511.776 1453.97 516.356 1448.88 522.295 1448.57C523.919 1448.49 525.169 1447.1 525.084 1445.48L520.882 1365.31C520.797 1363.68 519.409 1362.43 517.785 1362.52C511.846 1362.83 506.76 1358.25 506.449 1352.31C506.363 1350.69 504.976 1349.44 503.351 1349.52L362.083 1356.92C360.459 1357.01 359.209 1358.4 359.294 1360.02C359.606 1365.96 355.026 1371.05 349.087 1371.36C347.463 1371.44 346.213 1372.83 346.298 1374.46L350.5 1454.62C350.585 1456.25 351.973 1457.5 353.597 1457.41C359.536 1457.1 364.622 1461.68 364.933 1467.62C365.019 1469.25 366.406 1470.49 368.031 1470.41L410.282 1468.2C409.757 1469.33 409.408 1470.56 409.48 1471.93C409.656 1475.28 411.823 1477.9 414.887 1478.93L342.117 1482.75L335.022 1347.36L529.265 1337.18L536.36 1472.57Z" fill="#010101"/>
<path d="M379.029 1405.68L403.309 1404.41C404.934 1404.32 406.183 1402.94 406.098 1401.31L404.826 1377.03C404.741 1375.41 403.353 1374.16 401.728 1374.24L377.448 1375.51C375.823 1375.6 374.574 1376.99 374.659 1378.61L375.932 1402.89C376.017 1404.52 377.398 1405.77 379.029 1405.68ZM380.7 1381.25L399.094 1380.28L400.058 1398.68L381.664 1399.64L380.7 1381.25Z" fill="#010101"/>
<path d="M490.02 1369.61L423.065 1373.12C421.441 1373.21 420.191 1374.6 420.276 1376.22C420.361 1377.85 421.749 1379.09 423.374 1379.01L490.329 1375.5C491.953 1375.42 493.203 1374.03 493.118 1372.4C493.032 1370.78 491.645 1369.53 490.02 1369.61Z" fill="#010101"/>
<path d="M491.293 1393.9L424.338 1397.4C422.713 1397.49 421.464 1398.88 421.549 1400.5C421.634 1402.13 423.022 1403.38 424.646 1403.29L491.601 1399.78C493.226 1399.7 494.475 1398.31 494.39 1396.68C494.305 1395.06 492.917 1393.81 491.293 1393.9Z" fill="#010101"/>
<path d="M492.58 1418.46L380.008 1424.36C378.383 1424.44 377.134 1425.83 377.219 1427.46C377.304 1429.08 378.691 1430.33 380.316 1430.24L492.889 1424.34C494.513 1424.26 495.763 1422.87 495.678 1421.25C495.593 1419.62 494.205 1418.37 492.58 1418.46Z" fill="#010101"/>
<path d="M438.164 1457.14C430.865 1457.53 425.231 1463.78 425.614 1471.08C425.623 1471.26 425.658 1471.47 425.717 1471.7C426.378 1478.78 432.4 1484.01 439.552 1483.63C446.704 1483.26 452.147 1477.43 452.064 1470.32C452.099 1470.09 452.111 1469.87 452.102 1469.69C451.719 1462.39 445.463 1456.76 438.164 1457.14ZM439.243 1477.74C435.235 1477.95 431.863 1474.99 431.571 1471C431.557 1470.84 431.531 1470.68 431.493 1470.52C431.422 1466.57 434.499 1463.24 438.473 1463.03C439.467 1462.98 440.42 1463.13 441.303 1463.44C442.151 1463.74 442.926 1464.21 443.599 1464.78C443.624 1464.81 443.659 1464.81 443.69 1464.84C445.082 1466.05 446.022 1467.78 446.197 1469.75C446.176 1469.91 446.167 1470.08 446.169 1470.25C446.296 1474.24 443.252 1477.53 439.243 1477.74Z" fill="#010101"/>
</g>
<g opacity="0.05" clip-path="url(#clip6_62_1624)">
<path d="M1031.33 1394.89C1031.8 1401.44 1036.83 1406.8 1043.35 1407.61C1049.88 1408.41 1056.06 1404.42 1058.09 1398.18L1060.77 1390.01C1061.8 1385.99 1061.11 1381.75 1058.79 1378.32C1056.47 1374.89 1052.8 1372.64 1048.71 1372.14L1046.8 1371.9C1042.71 1371.4 1038.61 1372.7 1035.52 1375.47C1032.44 1378.23 1030.69 1382.17 1030.75 1386.52L1031.33 1394.89ZM1039.93 1380.42C1041.59 1378.95 1043.82 1378.22 1046.06 1378.5L1047.97 1378.73C1050.21 1379.01 1052.14 1380.18 1053.45 1382.08C1054.69 1383.91 1055.08 1386.23 1054.57 1388.18L1051.99 1396.15C1050.91 1399.44 1047.72 1401.45 1044.29 1401.03C1040.87 1400.61 1038.27 1397.82 1038.01 1394.44L1037.41 1386.27C1037.35 1384.05 1038.28 1381.89 1039.93 1380.42Z" fill="black"/>
<path d="M1070.09 1443.74L1068.52 1425.48C1068.33 1423.25 1066.97 1421.28 1065.01 1420.3L1052.59 1414.09L1041.64 1422.65L1033.08 1411.7L1019.53 1414.72C1017.4 1415.19 1015.6 1416.78 1014.87 1418.89L1008.93 1436.23C1008.32 1437.96 1009.23 1439.81 1010.96 1440.43C1012.69 1441.04 1014.54 1440.13 1015.15 1438.4L1021.01 1421.19L1030.5 1419.08L1040.57 1431.95L1053.44 1421.89L1062.03 1426.09L1063.6 1444.35C1063.74 1445.9 1065 1447.13 1066.51 1447.31C1066.71 1447.34 1066.97 1447.37 1067.18 1447.33C1068.87 1447.2 1070.21 1445.56 1070.09 1443.74Z" fill="black"/>
<path d="M930.159 1382.47C930.627 1389.01 935.655 1394.38 942.18 1395.18C948.705 1395.98 954.882 1391.99 956.919 1385.75L959.595 1377.58C960.624 1373.56 959.939 1369.33 957.617 1365.9C955.295 1362.47 951.625 1360.21 947.539 1359.71L945.627 1359.48C941.541 1358.98 937.433 1360.28 934.351 1363.04C931.268 1365.81 929.514 1369.74 929.581 1374.1L930.159 1382.47ZM938.76 1368C940.412 1366.53 942.643 1365.8 944.884 1366.08L946.795 1366.31C949.036 1366.59 950.966 1367.76 952.272 1369.66C953.519 1371.49 953.903 1373.81 953.397 1375.75L950.812 1383.73C949.74 1387.01 946.548 1389.03 943.121 1388.61C939.693 1388.19 937.093 1385.39 936.838 1382.02L936.236 1373.85C936.107 1371.62 937.107 1369.47 938.76 1368Z" fill="black"/>
<path d="M952.136 1409.45L960.72 1413.65L962.292 1431.91C962.435 1433.46 963.69 1434.69 965.206 1434.88C965.403 1434.9 965.667 1434.93 965.873 1434.89C967.701 1434.71 969.032 1433.14 968.855 1431.31L967.283 1413.05C967.089 1410.82 965.725 1408.85 963.771 1407.87L951.353 1401.66L940.326 1410.28L931.777 1399.26L918.226 1402.28C916.094 1402.75 914.294 1404.34 913.565 1406.46L907.623 1423.79C907.009 1425.52 907.919 1427.37 909.65 1427.99C911.382 1428.6 913.233 1427.69 913.847 1425.96L919.641 1408.74L929.133 1406.63L939.193 1419.5L952.136 1409.45Z" fill="black"/>
<path d="M982.748 1483.26C989.273 1484.06 995.45 1480.07 997.488 1473.83L1000.16 1465.66C1001.19 1461.64 1000.51 1457.41 998.186 1453.98C995.864 1450.55 992.193 1448.29 988.107 1447.79L986.196 1447.56C982.109 1447.05 978.002 1448.36 974.919 1451.12C971.836 1453.89 970.082 1457.82 970.149 1462.18L970.728 1470.54C971.195 1477.09 976.223 1482.46 982.748 1483.26ZM979.262 1456.07C980.915 1454.6 983.145 1453.87 985.386 1454.15L987.298 1454.38C989.539 1454.66 991.469 1455.83 992.774 1457.73C994.022 1459.56 994.406 1461.88 993.899 1463.82L991.314 1471.8C990.242 1475.08 987.051 1477.1 983.623 1476.68C980.196 1476.26 977.595 1473.46 977.341 1470.09L976.738 1461.92C976.676 1459.7 977.61 1457.54 979.262 1456.07Z" fill="black"/>
<path d="M1007.84 1501.19C1007.65 1498.96 1006.29 1496.99 1004.33 1496.01L991.914 1489.81L980.895 1498.35L972.338 1487.4L958.787 1490.42C956.655 1490.9 954.854 1492.48 954.126 1494.6L948.184 1511.93C947.57 1513.67 948.48 1515.52 950.211 1516.13C951.942 1516.74 953.793 1515.83 954.407 1514.1L960.201 1496.88L969.694 1494.77L979.754 1507.65L992.631 1497.59L1001.21 1501.79L1002.79 1520.04C1002.93 1521.6 1004.18 1522.82 1005.7 1523.01C1005.9 1523.03 1006.16 1523.07 1006.37 1523.03C1008.2 1522.85 1009.53 1521.27 1009.35 1519.44L1007.84 1501.19Z" fill="black"/>
<path d="M1043.57 1453.26C1041.75 1452.84 1040 1453.96 1039.64 1455.79C1036.65 1469.27 1028.6 1480.86 1017.1 1488.48C1015.57 1489.5 1015.19 1491.53 1016.14 1493.05C1016.7 1493.92 1017.58 1494.36 1018.5 1494.48C1019.23 1494.56 1020.05 1494.4 1020.71 1493.94C1033.67 1485.37 1042.7 1472.36 1046.1 1457.19C1046.45 1455.42 1045.32 1453.68 1043.57 1453.26Z" fill="black"/>
<path d="M934.253 1442.85C934.274 1441.05 932.854 1439.53 931.058 1439.45C929.254 1439.43 927.742 1440.85 927.655 1442.64C927.285 1458.19 932.886 1473.06 943.396 1484.45C943.924 1485.05 944.683 1485.41 945.408 1485.5C946.331 1485.61 947.302 1485.33 948.058 1484.62C949.415 1483.38 949.468 1481.32 948.229 1479.96C938.9 1469.85 933.896 1456.66 934.253 1442.85Z" fill="black"/>
<path d="M976.371 1391.89C987.856 1389.35 1000.51 1390.91 1011.11 1396.15C1011.42 1396.33 1011.81 1396.44 1012.2 1396.49C1013.52 1396.65 1014.94 1395.96 1015.57 1394.69C1016.37 1393.05 1015.74 1391.1 1014.1 1390.3C1002.19 1384.35 988.014 1382.61 975.015 1385.5C973.228 1385.88 972.137 1387.69 972.528 1389.41C972.779 1391.18 974.585 1392.27 976.371 1391.89Z" fill="black"/>
</g>
<g opacity="0.05" clip-path="url(#clip7_62_1624)">
<path d="M1224.27 114.66C1224.33 116.298 1225.7 117.581 1227.34 117.523L1268.88 116.073C1270.51 116.016 1271.8 114.64 1271.74 113.002C1271.68 111.365 1270.31 110.082 1268.67 110.139L1227.13 111.59C1225.49 111.647 1224.21 113.022 1224.27 114.66ZM1227.75 129.391L1269.29 127.941C1270.93 127.884 1272.21 126.508 1272.15 124.87C1272.1 123.232 1270.72 121.95 1269.08 122.007L1227.55 123.457C1225.91 123.515 1224.63 124.89 1224.68 126.528C1224.74 128.166 1226.12 129.448 1227.75 129.391ZM1228.17 141.259L1269.7 139.809C1271.34 139.751 1272.63 138.376 1272.57 136.738C1272.51 135.1 1271.14 133.817 1269.5 133.875L1227.96 135.325C1226.32 135.382 1225.04 136.758 1225.1 138.396C1225.15 140.033 1226.53 141.316 1228.17 141.259ZM1228.58 153.127L1270.12 151.676C1271.76 151.619 1273.04 150.243 1272.98 148.606C1272.93 146.968 1271.55 145.685 1269.91 145.742L1228.37 147.193C1226.74 147.25 1225.45 148.626 1225.51 150.263C1225.57 151.901 1226.94 153.184 1228.58 153.127ZM1201.67 148.125L1200.43 112.522C1200.31 109.247 1197.56 106.681 1194.29 106.795L1188.35 107.003C1185.08 107.117 1182.51 109.868 1182.63 113.144L1183.87 148.747L1177.94 148.954L1177.11 125.219C1176.99 121.943 1174.24 119.378 1170.97 119.492L1165.03 119.699C1161.76 119.814 1159.19 122.565 1159.31 125.84L1160.14 149.576L1154.2 149.783L1153.17 120.114C1153.05 116.838 1150.3 114.273 1147.02 114.387L1141.09 114.594C1137.81 114.709 1135.25 117.46 1135.36 120.735L1136.4 150.405L1133.43 150.508C1131.79 150.566 1130.51 151.941 1130.57 153.579C1130.63 155.217 1132 156.499 1133.64 156.442L1204.85 153.956C1206.48 153.898 1207.77 152.523 1207.71 150.885C1207.65 149.247 1206.28 147.965 1204.64 148.022L1201.67 148.125ZM1148.27 149.99L1142.33 150.198L1141.3 120.528L1147.23 120.321L1148.27 149.99ZM1172 149.161L1166.07 149.369L1165.24 125.633L1171.17 125.426L1172 149.161ZM1195.74 148.333L1189.8 148.54L1188.56 112.936L1194.5 112.729L1195.74 148.333ZM1275.91 62.3572L1121.63 67.7448C1111.8 68.0882 1104.11 76.3357 1104.45 86.1681L1107.77 181.11C1108.11 190.943 1116.36 198.634 1126.19 198.29L1179.59 196.425L1180.22 214.227L1171.32 214.538C1169.68 214.595 1168.39 215.971 1168.45 217.608C1168.51 219.246 1169.88 220.529 1171.52 220.472L1236.8 218.192C1238.43 218.135 1239.72 216.759 1239.66 215.122C1239.6 213.484 1238.23 212.201 1236.59 212.258L1227.69 212.569L1227.07 194.768L1280.47 192.903C1290.3 192.559 1297.99 184.312 1297.65 174.479L1294.34 79.5372C1293.99 69.7048 1285.74 62.0138 1275.91 62.3572ZM1221.75 212.776L1186.15 214.02L1185.53 196.218L1221.13 194.975L1221.75 212.776ZM1291.72 174.687C1291.95 181.243 1286.82 186.74 1280.26 186.969L1125.98 192.356C1119.43 192.585 1113.93 187.46 1113.7 180.903L1110.38 85.9609C1110.16 79.4039 1115.28 73.9077 1121.84 73.6787L1276.12 68.2911C1282.68 68.0621 1288.17 73.1875 1288.4 79.7444L1291.72 174.687Z" fill="#111918"/>
</g>
</g>
<defs>
<clipPath id="clip0_62_1624">
<rect width="1433" height="1577" fill="white"/>
</clipPath>
<clipPath id="clip1_62_1624">
<rect width="150" height="150" fill="white" transform="translate(103 89.303) rotate(-20)"/>
</clipPath>
<clipPath id="clip2_62_1624">
<rect width="179" height="179" fill="white" transform="translate(1182 477.806) rotate(-24)"/>
</clipPath>
<clipPath id="clip3_62_1624">
<rect width="150.527" height="150.527" fill="white" transform="translate(51.4834 565) rotate(20)"/>
</clipPath>
<clipPath id="clip4_62_1624">
<rect width="193.488" height="193.488" fill="white" transform="translate(597 234.599) rotate(-10)"/>
</clipPath>
<clipPath id="clip5_62_1624">
<rect width="200" height="200" fill="white" transform="translate(863.432 798) rotate(5)"/>
</clipPath>
<clipPath id="clip6_62_1624">
<rect width="170" height="170" fill="white" transform="translate(913.718 1348) rotate(7)"/>
</clipPath>
<clipPath id="clip7_62_1624">
<rect width="190" height="190" fill="white" transform="translate(1103 44.6309) rotate(-2)"/>
</clipPath>
</defs>
</svg>
