<svg version="1.1" id="svg2" sodipodi:docname="chelsea-fc-seeklogo.ai"
  xmlns:inkscape="http://www.inkscape.org/namespaces/inkscape"
  xmlns:sodipodi="http://sodipodi.sourceforge.net/DTD/sodipodi-0.dtd"
  xmlns="http://www.w3.org/2000/svg"
  xmlns:svg="http://www.w3.org/2000/svg" viewBox="50.65 215.05 692.42 692.42">
  <defs id="defs6">
    <clipPath clipPathUnits="userSpaceOnUse" id="clipPath16">
      <path d="M 0,841.89 H 595.28 V 0 H 0 Z" id="path14" />
    </clipPath>
  </defs>
  <sodipodi:namedview id="namedview4" pagecolor="#373d49" bordercolor="#000000" borderopacity="0.25"
    inkscape:showpageshadow="2" inkscape:pageopacity="0.0" inkscape:pagecheckerboard="0"
    inkscape:deskcolor="#d1d1d1" />
  <g id="g8" inkscape:groupmode="layer" inkscape:label="chelsea-fc-seeklogo"
    transform="matrix(1.3333333,0,0,-1.3333333,0,1122.52)">
    <g id="g10">
      <g id="g12" clip-path="url(#clipPath16)">
        <g id="g18" transform="translate(297.6396,169.585)">
          <path
            d="m 0,0 c -138.822,0 -251.36,112.537 -251.36,251.359 0,138.823 112.538,251.36 251.36,251.36 138.821,0 251.36,-112.537 251.36,-251.36 C 251.36,112.537 138.821,0 0,0 M 0,511 C -143.396,511 -259.64,394.755 -259.64,251.359 -259.64,107.964 -143.396,-8.28 0,-8.28 143.396,-8.28 259.64,107.964 259.64,251.359 259.64,394.755 143.396,511 0,511"
            style="fill:#fff;fill-opacity:1;fill-rule:nonzero;stroke:none" id="path20" />
        </g>
        <g id="g22" transform="translate(111.9707,360.3633)">
          <path
            d="m 0,0 c -2.383,-0.717 -9.017,1.976 -12.086,3.318 0.085,0.37 0.143,0.749 0.184,1.133 3.505,2.18 6.069,3.812 6.025,3.857 -0.044,0.043 -2.841,0.307 -6.69,0.644 -0.399,0.947 -0.944,1.819 -1.618,2.576 2.178,2.387 7.02,7.528 8.807,8.066 1.825,0.551 3.804,0.264 4.786,-2.996 C -0.204,15.311 0.169,10.82 0.682,9.113 1.195,7.41 4.039,1.217 0,0 m -4.01,-10.603 c -1.097,-0.774 -5.238,-2.548 -6.695,-3.576 -1.454,-1.027 -6.429,-5.684 -8.861,-2.236 -1.452,2.057 -0.97,9.34 -0.667,12.625 0.403,0.036 0.797,0.102 1.183,0.189 3.328,-2.816 5.865,-4.899 5.954,-4.81 0.086,0.087 -0.559,3.169 -1.477,7.282 0.548,0.547 1.033,1.157 1.432,1.827 2.948,-1.308 9.382,-4.286 10.46,-5.812 1.098,-1.558 1.454,-3.526 -1.329,-5.489 M -26.625,5.401 c 0,3.066 2.485,5.55 5.551,5.55 3.065,0 5.55,-2.484 5.55,-5.55 0,-3.065 -2.485,-5.549 -5.55,-5.549 -3.066,0 -5.551,2.484 -5.551,5.549 m 1.105,-20.469 c -1.164,-1.509 -2.938,-2.431 -5.636,-0.351 -1.064,0.82 -3.983,4.251 -5.393,5.34 -1.411,1.086 -7.33,4.465 -4.755,7.805 1.501,1.947 8.311,3.607 11.636,4.318 0.305,-0.78 0.722,-1.502 1.217,-2.163 -1.546,-3.793 -2.676,-6.645 -2.676,-6.823 0,-0.19 2.889,1.468 6.711,3.754 0.431,-0.168 0.871,-0.315 1.331,-0.417 -0.398,-3.306 -1.324,-10.02 -2.435,-11.463 m -18.267,23.83 c 0.429,1.272 2.723,5.15 3.293,6.839 0.567,1.687 1.834,8.383 5.832,7.035 2.407,-0.81 6.368,-7.077 8.037,-9.871 -0.9,-0.68 -1.665,-1.528 -2.267,-2.487 -3.739,0.275 -6.423,0.437 -6.423,0.342 0,-0.097 2.121,-1.998 5.05,-4.562 -0.013,-0.185 -0.037,-0.366 -0.039,-0.553 -0.002,-0.198 0.013,-0.394 0.023,-0.589 -3.343,-0.713 -9.662,-1.934 -11.339,-1.369 -1.806,0.609 -3.255,1.987 -2.167,5.215 m 18.597,19.452 c 1.344,0 5.75,-0.938 7.531,-0.938 1.782,0 8.532,0.938 8.532,-3.281 0,-2.583 -4.83,-8.481 -6.89,-10.881 -0.646,0.424 -1.355,0.759 -2.1,1.013 -0.882,3.654 -1.55,6.274 -1.635,6.274 -0.085,0 -1.159,-2.448 -2.612,-5.873 -0.711,-0.101 -1.399,-0.274 -2.05,-0.527 -1.715,2.885 -5.026,8.687 -5.026,10.494 0,1.906 0.844,3.719 4.25,3.719 m 21.688,-5.656 c -2.532,0 -3.313,-0.5 -3.313,-0.5 0,0 0.219,1.5 0.219,2.093 0,7 -9.156,5.875 -10.719,5.875 -1.562,0 -4.25,1.125 -7.75,1.125 -6.719,0 -7.156,-5.906 -7.156,-7.093 0,0 -1.531,1.406 -3.406,1.406 -5.844,0 -7.407,-8.063 -7.938,-9.688 -0.531,-1.625 -3.25,-5 -3.531,-9.031 -0.368,-5.268 4.812,-6.187 4.812,-6.187 0,0 -2.375,-2 -2.375,-5.032 0,-3.687 6.125,-7.843 7.407,-8.687 1.281,-0.844 4.875,-6.469 9.187,-6.406 3.656,0.052 5.188,3.218 5.188,3.218 0,-1.125 1.625,-4 6.156,-4 2.125,0 7.319,4.293 8.875,4.844 6.531,2.313 8.812,6.125 8.812,8.5 0,2.375 -1.625,4.094 -1.625,4.094 2.094,0 5.625,0.969 5.625,6 0,4.406 -1.937,6.719 -1.937,8.437 0,8.5 -4,11.032 -6.531,11.032"
            style="fill:#fff;fill-opacity:1;fill-rule:nonzero;stroke:none" id="path24" />
        </g>
        <g id="g26" transform="translate(527.8789,363.9102)">
          <path
            d="m 0,0 c -1.676,-0.564 -7.994,0.656 -11.338,1.369 0.01,0.195 0.025,0.391 0.024,0.589 -0.002,0.188 -0.028,0.368 -0.04,0.553 2.93,2.564 5.049,4.466 5.049,4.562 0,0.095 -2.683,-0.067 -6.422,-0.342 -0.603,0.959 -1.367,1.807 -2.267,2.487 1.67,2.794 5.631,9.061 8.037,9.871 3.998,1.348 5.266,-5.348 5.832,-7.035 C -0.555,10.365 1.74,6.487 2.168,5.215 3.256,1.987 1.807,0.609 0,0 m -5.07,-13.626 c -1.41,-1.089 -4.328,-4.52 -5.393,-5.34 -2.697,-2.08 -4.473,-1.158 -5.637,0.351 -1.111,1.443 -2.037,8.157 -2.433,11.463 0.459,0.102 0.9,0.249 1.33,0.417 3.822,-2.286 6.711,-3.944 6.711,-3.754 0,0.178 -1.129,3.03 -2.676,6.823 0.494,0.661 0.912,1.383 1.217,2.163 3.324,-0.711 10.135,-2.371 11.637,-4.318 2.574,-3.34 -3.344,-6.719 -4.756,-7.805 m -15.475,9.931 c -3.064,0 -5.551,2.484 -5.551,5.549 0,3.066 2.487,5.55 5.551,5.55 3.066,0 5.551,-2.484 5.551,-5.55 0,-3.065 -2.485,-5.549 -5.551,-5.549 m -1.508,-16.267 c -2.431,-3.448 -7.406,1.209 -8.861,2.236 -1.457,1.028 -5.598,2.802 -6.695,3.577 -2.784,1.962 -2.426,3.93 -1.329,5.488 1.079,1.526 7.512,4.504 10.459,5.812 0.399,-0.67 0.885,-1.28 1.434,-1.827 -0.918,-4.113 -1.564,-7.195 -1.478,-7.282 0.089,-0.089 2.627,1.994 5.955,4.811 0.384,-0.087 0.779,-0.154 1.181,-0.19 0.305,-3.285 0.785,-10.568 -0.666,-12.625 m -19.566,16.415 c -4.039,1.217 -1.195,7.41 -0.682,9.113 0.514,1.707 0.887,6.198 1.274,7.485 0.982,3.261 2.961,3.547 4.787,2.996 1.785,-0.538 6.629,-5.679 8.806,-8.066 -0.673,-0.757 -1.218,-1.628 -1.617,-2.576 -3.849,-0.337 -6.646,-0.601 -6.691,-0.644 -0.045,-0.045 2.519,-1.677 6.025,-3.857 0.041,-0.383 0.1,-0.763 0.184,-1.133 -3.069,-1.342 -9.703,-4.035 -12.086,-3.318 m 17.658,27.276 c 1.781,0 6.188,0.938 7.531,0.938 3.407,0 4.25,-1.813 4.25,-3.719 0,-1.806 -3.31,-7.609 -5.025,-10.494 -0.65,0.253 -1.338,0.426 -2.049,0.527 -1.455,3.425 -2.527,5.873 -2.613,5.873 -0.084,0 -0.754,-2.62 -1.635,-6.274 -0.746,-0.254 -1.453,-0.589 -2.1,-1.013 -2.06,2.4 -6.89,8.298 -6.89,10.881 0,4.219 6.75,3.281 8.531,3.281 M 5.477,3.198 c -0.282,4.031 -3,7.406 -3.532,9.031 -0.531,1.625 -2.093,9.688 -7.937,9.688 -1.875,0 -3.406,-1.406 -3.406,-1.406 0,1.187 -0.438,7.093 -7.157,7.093 -3.5,0 -6.187,-1.125 -7.75,-1.125 -1.562,0 -10.718,1.125 -10.718,-5.875 0,-0.593 0.218,-2.093 0.218,-2.093 0,0 -0.781,0.5 -3.312,0.5 -2.531,0 -6.531,-2.532 -6.531,-11.032 0,-1.718 -1.938,-4.031 -1.938,-8.437 0,-5.031 3.531,-6 5.625,-6 0,0 -1.625,-1.719 -1.625,-4.094 0,-2.375 2.281,-6.187 8.813,-8.5 1.556,-0.551 6.75,-4.844 8.875,-4.844 4.531,0 6.156,2.875 6.156,4 0,0 1.533,-3.166 5.187,-3.218 4.313,-0.063 7.907,5.562 9.188,6.406 1.281,0.844 7.406,5 7.406,8.687 0,3.032 -2.375,5.032 -2.375,5.032 0,0 5.182,0.919 4.813,6.187"
            style="fill:#fff;fill-opacity:1;fill-rule:nonzero;stroke:none" id="path28" />
        </g>
        <g id="g30" transform="translate(75.2632,463.2588)">
          <path
            d="M 0,0 C 0.036,-0.935 0.211,-2.275 0.607,-3.692 -1.323,-1.894 -2.915,0.254 -4.078,2.656 -2.882,1.74 -1.5,0.847 0,0 m -5.559,6.734 c -0.421,1.677 -0.67,3.422 -0.67,5.23 0,0.943 0.082,1.865 0.2,2.776 C -0.906,9.583 12.519,3.734 18.548,2.918 l -2.91,-6.811 C 6.907,-2.013 -2.581,2.901 -5.559,6.734 m 2.044,15.651 C 0.435,21.382 13.149,14.114 21.219,9.169 L 19.368,4.837 c -6.61,0.347 -21.97,8.144 -24.937,12.317 0.461,1.849 1.147,3.607 2.054,5.231 m 6.584,7.23 C 8.12,29.027 19.805,21.182 24.797,17.544 L 22.013,11.028 C 17.924,13.525 3.518,22.195 -2.436,24.12 c 1.486,2.15 3.352,4.014 5.505,5.495 m 12.119,3.766 c 2.24,0 4.399,-0.347 6.429,-0.985 -4.652,-0.133 -8.188,-1.459 -10.325,-3.868 -2.044,1.082 -4.02,1.986 -5.739,2.544 2.899,1.465 6.165,2.309 9.635,2.309 m 11.918,-3.624 c 1.954,-1.311 3.663,-2.947 5.089,-4.813 -1.978,0.74 -4.437,1.437 -6.709,1.437 -3.634,0 -6.073,-0.914 -7.356,-1.879 -1.61,1.027 -3.326,2.075 -5.04,3.043 2.376,2.348 6.28,2.877 9.292,2.877 2.127,0 3.772,-0.376 4.724,-0.665 m 7.024,-7.812 c 0.59,-1.119 1.09,-2.293 1.477,-3.517 -1.875,0.212 -4.883,0.44 -9.248,0.451 -0.804,0.59 -3.262,2.369 -6.38,4.424 1.011,0.52 2.777,1.078 5.507,1.078 3.153,0 6.913,-1.607 8.644,-2.436 m 2.475,-9.981 c 0,-9.434 -6.107,-17.426 -14.578,-20.282 5.507,7.049 9.792,14.265 10.059,25.032 1.827,-0.108 3.163,-0.251 4.067,-0.37 0.294,-1.415 0.452,-2.879 0.452,-4.38 M 17.441,-4.761 26.687,16.877 C 27.931,16.87 29.072,16.847 30.089,16.81 29.85,6.443 25.794,-0.309 20.263,-7.334 c -0.662,0.642 -1.58,1.485 -2.822,2.573 m 1.395,-4.359 c -1.188,-0.204 -2.402,-0.333 -3.648,-0.333 -0.865,0 -1.712,0.066 -2.55,0.165 -1.227,1.052 -3.276,3.593 -4.436,5.53 2.611,-0.965 5.219,-1.726 7.573,-2.203 1.139,-0.993 2.349,-2.095 3.231,-2.948 -0.056,-0.07 -0.114,-0.141 -0.17,-0.211 M 3.839,-6.176 C 2.796,-4.562 2.306,-2.57 2.106,-1.12 3.204,-1.671 4.343,-2.195 5.499,-2.685 5.974,-4.186 7.584,-6.632 9.234,-8.597 7.309,-8.04 5.5,-7.217 3.839,-6.176 m 11.349,-6.111 c 13.393,0 24.25,10.858 24.25,24.251 0,13.393 -10.857,24.25 -24.25,24.25 -13.393,0 -24.251,-10.857 -24.251,-24.25 0,-13.393 10.858,-24.251 24.251,-24.251"
            style="fill:#fff;fill-opacity:1;fill-rule:nonzero;stroke:none" id="path32" />
        </g>
        <g id="g34" transform="translate(483.9258,479.6025)">
          <path
            d="m 0,0 c 0.904,0.119 2.24,0.262 4.068,0.371 0.266,-10.767 4.551,-17.984 10.059,-25.033 -8.471,2.856 -14.578,10.849 -14.578,20.282 0,1.502 0.158,2.965 0.451,4.38 m 2.023,5.601 c 1.733,0.829 5.493,2.436 8.645,2.436 2.73,0 4.496,-0.558 5.508,-1.078 C 13.057,4.904 10.6,3.125 9.795,2.535 5.43,2.524 2.422,2.296 0.547,2.084 0.934,3.309 1.434,4.482 2.023,5.601 m 7.024,7.812 c 0.953,0.289 2.598,0.666 4.724,0.666 3.012,0 6.916,-0.53 9.293,-2.878 -1.714,-0.968 -3.429,-2.015 -5.041,-3.042 -1.283,0.964 -3.72,1.878 -7.355,1.878 -2.272,0 -4.731,-0.697 -6.709,-1.437 1.426,1.866 3.135,3.502 5.088,4.813 m 11.92,3.624 c 3.469,0 6.736,-0.844 9.635,-2.308 -1.721,-0.559 -3.696,-1.463 -5.739,-2.544 -2.138,2.408 -5.674,3.734 -10.326,3.867 2.029,0.638 4.19,0.985 6.43,0.985 M 38.59,7.776 C 32.637,5.852 18.23,-2.818 14.141,-5.315 l -2.784,6.516 c 4.993,3.637 16.676,11.482 21.727,12.07 2.154,-1.48 4.02,-3.345 5.506,-5.495 M 41.723,0.81 C 38.756,-3.363 23.396,-11.16 16.787,-11.507 l -1.851,4.333 C 23.004,-2.23 35.719,5.038 39.668,6.042 40.576,4.417 41.262,2.66 41.723,0.81 m 0.66,-5.19 c 0,-1.807 -0.248,-3.553 -0.67,-5.229 -2.979,-3.833 -12.465,-8.747 -21.197,-10.627 l -2.911,6.81 c 6.03,0.817 19.456,6.665 24.579,11.822 0.117,-0.911 0.199,-1.833 0.199,-2.776 m -6.836,-15.656 c 0.396,1.417 0.572,2.757 0.607,3.692 1.5,0.847 2.881,1.74 4.078,2.656 -1.164,-2.402 -2.755,-4.549 -4.685,-6.348 m -3.233,-2.484 c -1.66,-1.041 -3.468,-1.864 -5.394,-2.42 1.65,1.964 3.26,4.41 3.734,5.911 1.157,0.49 2.295,1.014 3.393,1.566 -0.199,-1.451 -0.69,-3.443 -1.733,-5.057 M 15.891,-23.678 C 10.359,-16.653 6.305,-9.9 6.064,0.466 7.082,0.503 8.223,0.526 9.467,0.533 l 9.246,-21.638 c -1.242,-1.088 -2.16,-1.931 -2.822,-2.573 m 7.625,-1.953 c -0.838,-0.1 -1.686,-0.166 -2.549,-0.166 -1.246,0 -2.461,0.129 -3.649,0.333 l -0.17,0.211 c 0.881,0.854 2.092,1.955 3.231,2.948 2.353,0.477 4.961,1.238 7.572,2.203 -1.158,-1.937 -3.209,-4.478 -4.435,-5.529 m -2.549,-2.999 c 13.392,0 24.25,10.857 24.25,24.25 0,13.393 -10.858,24.251 -24.25,24.251 -13.395,0 -24.252,-10.858 -24.252,-24.251 0,-13.393 10.857,-24.25 24.252,-24.25"
            style="fill:#fff;fill-opacity:1;fill-rule:nonzero;stroke:none" id="path36" />
        </g>
        <g id="g38" transform="translate(270.8745,451.6396)">
          <path
            d="m 0,0 c -0.687,0 -4.937,-9 -17.125,-9 -4.812,0 -9.812,1.688 -11.5,5.75 4,0 6.75,3.687 6.75,6.5 0,6.75 -15.563,10.438 -19.969,10.438 v -47.563 c 6.469,0 14.326,6.753 17.094,8.875 6.688,5.125 21.5,14.312 29.75,17.938 C 5,-5.75 0.687,0 0,0"
            style="fill:#fff;fill-opacity:1;fill-rule:nonzero;stroke:none" id="path40" />
        </g>
        <g id="g42" transform="translate(223.1558,537.3271)">
          <path
            d="m 0,0 c -3.245,0 -5.875,-2.63 -5.875,-5.875 0,-3.245 2.63,-5.875 5.875,-5.875 3.245,0 5.875,2.63 5.875,5.875 C 5.875,-2.63 3.245,0 0,0"
            style="fill:#fff;fill-opacity:1;fill-rule:nonzero;stroke:none" id="path44" />
        </g>
        <g id="g46" transform="translate(343.4629,528.0635)">
          <path d="M 0,0 2.746,3.701 H -2.123 C -2.244,1.59 -2.268,0.333 0,0"
            style="fill:#fff;fill-opacity:1;fill-rule:nonzero;stroke:none" id="path48" />
        </g>
        <g id="g50" transform="translate(402.7148,410.752)">
          <path
            d="m 0,0 h -0.002 c -0.331,-0.16 -0.667,-0.314 -1.012,-0.46 -0.49,-0.213 -0.99,-0.414 -1.513,-0.59 0,0 2.437,3.813 2.437,6.813 0,7.375 -8.062,11.187 -11.75,11.187 -0.353,0 -0.711,-0.036 -1.066,-0.09 -0.061,-0.009 -0.121,-0.016 -0.181,-0.027 -0.345,-0.061 -0.688,-0.145 -1.027,-0.251 -0.056,-0.018 -0.113,-0.038 -0.169,-0.057 -0.727,-0.244 -1.432,-0.585 -2.077,-1.01 -0.015,-0.01 -0.032,-0.019 -0.046,-0.03 -0.33,-0.219 -0.645,-0.461 -0.938,-0.72 -0.011,-0.011 -0.023,-0.021 -0.034,-0.031 -0.9,-0.804 -1.607,-1.783 -1.978,-2.863 -0.185,-0.538 -0.296,-1.099 -0.296,-1.678 0,-8.555 18,-17.868 18,-37.305 0,-9 -6.438,-19.125 -24.313,-19.125 -19.75,0 -29.25,11.375 -30.062,11.375 -0.813,0 6.187,-25.563 27.375,-25.563 2.5,0 5.812,0.563 10.375,2.563 -8.938,-8.5 -15.563,-25 -15.563,-34 v -19.5 c 0,-5.625 -2.5,-7.5 -5.937,-7.5 -4.5,0 -7.657,-4.532 -6.938,-7.375 -0.014,0.004 -0.026,0.008 -0.039,0.011 -0.01,0.002 -0.017,0.006 -0.025,0.008 -0.237,0.064 -0.465,0.133 -0.684,0.21 0,0 -10e-4,10e-4 -0.002,10e-4 -2.262,0.802 -3.55,2.333 -4.156,4.184 -0.003,0.006 -0.004,0.012 -0.006,0.019 -0.059,0.179 -0.111,0.36 -0.156,0.544 -0.01,0.035 -0.016,0.073 -0.024,0.11 -0.037,0.155 -0.072,0.311 -0.099,0.469 -0.014,0.077 -0.022,0.155 -0.033,0.231 -0.02,0.122 -0.04,0.242 -0.053,0.365 -0.011,0.092 -0.016,0.185 -0.024,0.276 -0.009,0.111 -0.021,0.219 -0.027,0.33 -0.011,0.205 -0.016,0.41 -0.016,0.617 -10.125,0 -10.281,-6.75 -10.281,-9.407 -4.281,1.532 -5.156,6.719 -5.156,9.313 -9.563,0 -13,-1.719 -14.094,-7.688 -0.428,0.268 -0.806,0.577 -1.152,0.906 -0.002,0.001 -0.003,0.002 -0.004,0.003 -0.188,0.176 -0.362,0.361 -0.528,0.552 -0.004,0.005 -0.008,0.009 -0.012,0.014 -0.163,0.19 -0.317,0.384 -0.46,0.584 -0.005,0.008 -0.01,0.015 -0.016,0.022 -0.141,0.199 -0.273,0.401 -0.398,0.608 -0.005,0.01 -0.011,0.018 -0.016,0.027 -0.123,0.206 -0.236,0.414 -0.342,0.626 -0.005,0.011 -0.011,0.022 -0.016,0.032 -0.105,0.21 -0.201,0.422 -0.29,0.635 -0.006,0.012 -0.011,0.024 -0.016,0.035 -0.088,0.212 -0.169,0.424 -0.243,0.636 -0.005,0.015 -0.01,0.028 -0.015,0.042 -0.072,0.211 -0.139,0.42 -0.2,0.628 -0.005,0.015 -0.009,0.029 -0.013,0.045 -0.058,0.206 -0.113,0.41 -0.162,0.612 -0.004,0.017 -0.006,0.033 -0.011,0.05 -0.046,0.198 -0.088,0.393 -0.125,0.584 -0.005,0.023 -0.008,0.044 -0.013,0.065 -0.034,0.185 -0.066,0.367 -0.094,0.542 -0.004,0.027 -0.007,0.052 -0.011,0.079 -0.025,0.169 -0.048,0.334 -0.066,0.492 -0.004,0.032 -0.007,0.06 -0.01,0.091 -0.017,0.149 -0.033,0.296 -0.045,0.434 -0.003,0.041 -0.005,0.077 -0.007,0.118 -0.01,0.121 -0.02,0.242 -0.026,0.352 -0.004,0.066 -0.005,0.124 -0.008,0.186 -0.003,0.075 -0.007,0.154 -0.009,0.222 -0.003,0.126 -0.004,0.24 -0.004,0.341 0,0 -1.479,1.093 -1.479,4.468 0,14.709 23.416,13 25.416,13 2,0 5.063,6 5.063,14.126 0,4.5 -1.688,8.937 -3.125,9.875 -7.313,0 -16.375,4.687 -26.313,21.75 -3.937,0 -21.375,-5.375 -21.375,-14.938 0,-5.125 4.125,-9.062 16.813,-12.187 -17.313,-2.938 -20.83,-12.313 -22.251,-18.313 -2.5,-10.562 -4.75,-14.25 -13.125,-15.75 -5.417,-0.971 -8.422,-4.46 -7.576,-8.771 0.057,-0.288 0.131,-0.579 0.222,-0.874 -6.833,2.583 -8.021,7.041 -8.021,9.489 -2.375,0 -12.219,-1.094 -11.062,-11.438 -5.594,2.563 -6.594,8.813 -6.594,11.563 -5.954,0 -12.146,-2.047 -11.348,-8.692 v 0 c 0.035,-0.295 0.065,-0.587 0.129,-0.902 -2.406,0.688 -5.719,4.375 -5.719,9.281 0,1.594 0.657,3.282 0.657,3.282 0,0 -1.5,2.375 -1.5,6.562 0,8.875 10.687,11.938 16.187,11.938 5.5,0 8.313,-0.938 12.875,-0.938 4.563,0 14.75,3.875 14.75,27.5 0,0 -9.5,3.813 -9.5,12 0,16.75 32.25,38.438 39.719,40.531 0,0 -7.823,14.324 -8.739,14.324 -0.917,0 -10.5,-14.084 -32.167,-21.96 0,0 -2.833,5.167 -10.167,5.167 -7.25,0 -17.125,-5.75 -15.896,-14.562 -2.5,0 -3.656,1 -3.656,1 v -34 h 3.312 v -10.375 h -5.593 c 1.468,-0.687 5.156,-3.062 5.156,-7.656 0,-4.594 -4.375,-8.063 -8.219,-8.063 -3.844,0 -8.77,2.782 -8.77,8.032 0,0.279 0.015,0.549 0.039,0.813 0.009,0.084 0.022,0.165 0.032,0.248 0.022,0.178 0.046,0.355 0.079,0.526 0.017,0.09 0.039,0.178 0.059,0.268 0.035,0.157 0.073,0.314 0.117,0.465 0.025,0.086 0.052,0.17 0.079,0.254 0.05,0.153 0.103,0.303 0.161,0.449 0.029,0.072 0.057,0.146 0.088,0.217 0.068,0.159 0.141,0.312 0.218,0.464 0.026,0.052 0.051,0.105 0.078,0.156 0.102,0.19 0.21,0.376 0.324,0.554 0.004,0.008 0.008,0.014 0.013,0.022 1.011,1.572 2.449,2.646 3.671,3.251 h -5.813 v 5.397 4.978 h 3.5 v 38.272 c -0.215,0.211 -0.427,0.432 -0.634,0.675 -0.011,0.013 -0.022,0.026 -0.033,0.039 -0.062,0.074 -0.123,0.15 -0.184,0.229 -0.019,0.024 -0.038,0.049 -0.056,0.074 -0.055,0.074 -0.11,0.15 -0.164,0.229 -0.023,0.033 -0.046,0.068 -0.068,0.103 -0.05,0.076 -0.101,0.155 -0.149,0.237 -0.024,0.041 -0.048,0.085 -0.072,0.128 -0.046,0.082 -0.093,0.165 -0.138,0.253 -0.023,0.045 -0.044,0.095 -0.067,0.141 -0.076,0.16 -0.15,0.331 -0.221,0.512 -0.03,0.075 -0.061,0.147 -0.089,0.227 -0.029,0.08 -0.055,0.168 -0.083,0.253 -0.031,0.094 -0.062,0.187 -0.092,0.287 -0.026,0.088 -0.05,0.183 -0.074,0.276 -0.029,0.107 -0.057,0.215 -0.084,0.329 -0.023,0.097 -0.045,0.199 -0.066,0.301 -0.026,0.121 -0.052,0.245 -0.075,0.374 -0.02,0.106 -0.039,0.216 -0.057,0.329 -0.023,0.136 -0.044,0.279 -0.065,0.425 -0.016,0.115 -0.031,0.233 -0.046,0.353 -0.019,0.157 -0.037,0.32 -0.054,0.486 -0.012,0.125 -0.025,0.249 -0.036,0.379 -0.015,0.181 -0.029,0.371 -0.041,0.563 -0.009,0.13 -0.018,0.256 -0.025,0.39 -0.012,0.221 -0.02,0.457 -0.028,0.692 -0.004,0.12 -0.01,0.233 -0.013,0.357 -0.009,0.366 -0.015,0.748 -0.015,1.15 -0.708,0 -3.833,-1.042 -5.708,-4.333 0,0 -0.232,0.44 -0.495,1.158 0,10e-4 0,0.002 -0.001,0.003 -0.076,0.209 -0.152,0.44 -0.229,0.697 -0.019,0.063 -0.037,0.123 -0.056,0.189 -0.059,0.21 -0.113,0.432 -0.167,0.668 -0.024,0.108 -0.049,0.209 -0.071,0.323 -0.046,0.229 -0.081,0.472 -0.115,0.72 -0.017,0.122 -0.038,0.236 -0.051,0.362 -0.039,0.376 -0.065,0.765 -0.065,1.171 0,3 1,4.334 2.333,6.167 0,0 -2.833,0.375 -6,-2.5 0,0.602 0.018,1.168 0.046,1.711 v 0 c 0,0.002 0,0.004 0,0.005 0.03,0.585 0.077,1.135 0.137,1.655 0.001,0.011 0.002,0.021 0.004,0.032 0.06,0.517 0.134,1.002 0.22,1.459 0.002,0.008 0.003,0.017 0.005,0.025 0.088,0.458 0.187,0.888 0.297,1.288 0.001,0.002 0.002,0.005 0.002,0.007 0.781,2.831 2.091,4.285 3.353,5.036 0.004,0.003 0.008,0.005 0.012,0.008 0.175,0.104 0.348,0.194 0.518,0.272 l 0.027,0.011 c 0.167,0.077 0.331,0.141 0.491,0.197 0.012,0.004 0.023,0.008 0.035,0.011 0.158,0.054 0.311,0.099 0.46,0.136 0.012,0.003 0.023,0.006 0.035,0.009 0.147,0.035 0.288,0.065 0.423,0.088 0.011,0.002 0.022,0.004 0.034,0.006 0.133,0.022 0.26,0.04 0.378,0.052 0.009,0.001 0.017,0.002 0.026,0.003 0.119,0.013 0.23,0.023 0.33,0.03 0.834,2.959 5.709,6.5 6.521,6.5 v 50.865 c -8.094,0 -6.979,7.302 -6.979,8.26 0,0.958 -3.083,2.5 -3.083,5.292 0,3.333 3.291,4.25 3.291,5.625 0,0.541 -2.666,2 -2.666,5.417 0,4.375 4.791,8.187 9.437,8.187 v 3.125 c -2.531,0 -6.104,1.438 -7.354,2.646 0,0 4.75,0.667 6.167,2.917 -4.834,0 -17.438,9.458 -17.438,21.812 0,0.406 0.027,0.832 0.068,1.269 0.006,0.062 0.01,0.122 0.016,0.184 0.045,0.42 0.111,0.854 0.194,1.297 0.015,0.08 0.03,0.16 0.046,0.241 0.09,0.447 0.196,0.903 0.323,1.368 0.019,0.067 0.04,0.135 0.059,0.203 0.139,0.491 0.294,0.988 0.474,1.491 0.001,0.002 0.001,0.003 0.002,0.005 0.183,0.512 0.393,1.028 0.618,1.547 0.023,0.052 0.044,0.104 0.067,0.157 0.223,0.501 0.467,1.004 0.729,1.507 0.036,0.069 0.072,0.138 0.109,0.208 0.268,0.504 0.554,1.006 0.862,1.505 0.032,0.052 0.065,0.103 0.098,0.154 0.66,1.056 1.407,2.093 2.244,3.088 0.017,0.02 0.033,0.04 0.05,0.06 0.411,0.486 0.846,0.96 1.299,1.422 0.044,0.044 0.087,0.089 0.131,0.133 0.453,0.455 0.927,0.898 1.422,1.323 0.038,0.034 0.077,0.065 0.115,0.098 1.046,0.89 2.181,1.708 3.408,2.426 0.004,0.002 0.007,0.005 0.011,0.007 0.598,0.349 1.221,0.671 1.863,0.971 0.053,0.025 0.106,0.051 0.159,0.075 0.632,0.289 1.283,0.551 1.955,0.785 0.056,0.02 0.113,0.038 0.17,0.057 0.692,0.235 1.403,0.444 2.138,0.615 v 0 c 1.698,0.396 3.507,0.617 5.433,0.617 15.25,0 24.187,-12.563 24.187,-22.938 0,-11.875 -10.437,-20.125 -18.187,-25.312 v -5.167 c 2.875,0 9.875,-7.396 18.5,-12.458 1.051,-0.617 2.792,-1.322 4.97,-2.02 1.026,-0.328 2.155,-0.654 3.358,-0.969 0.087,-0.023 0.174,-0.045 0.262,-0.068 0.359,-0.093 0.725,-0.185 1.097,-0.275 0.132,-0.032 0.269,-0.063 0.403,-0.095 0.589,-0.14 1.193,-0.275 1.809,-0.407 0.239,-0.051 0.476,-0.103 0.718,-0.153 0.293,-0.059 0.59,-0.117 0.886,-0.174 0.303,-0.059 0.608,-0.117 0.915,-0.172 0.268,-0.05 0.536,-0.099 0.808,-0.146 0.551,-0.096 1.106,-0.188 1.668,-0.273 0.173,-0.027 0.348,-0.05 0.521,-0.075 0.451,-0.067 0.904,-0.13 1.36,-0.189 0.216,-0.028 0.433,-0.055 0.65,-0.081 0.481,-0.059 0.963,-0.113 1.447,-0.163 0.148,-0.015 0.295,-0.032 0.444,-0.046 0.622,-0.061 1.246,-0.112 1.87,-0.156 0.159,-0.012 0.318,-0.02 0.477,-0.03 0.493,-0.032 0.985,-0.058 1.475,-0.078 0.18,-0.007 0.359,-0.015 0.538,-0.021 0.632,-0.02 1.262,-0.034 1.886,-0.034 1.25,0 9.875,14.312 9.875,18.375 -10.812,5.125 -7.875,15.312 -5.562,17.25 0,0 0.063,-0.258 0.229,-0.645 0.568,-1.321 2.396,-4.23 7.521,-4.23 0.206,0 0.415,0.022 0.623,0.034 0.721,0.045 1.452,0.167 2.179,0.357 0.003,0.001 0.006,0.002 0.009,0.003 0.357,0.093 0.714,0.205 1.067,0.331 0.013,0.005 0.025,0.01 0.038,0.014 0.342,0.124 0.683,0.263 1.019,0.416 0.026,0.012 0.052,0.024 0.078,0.037 0.322,0.148 0.639,0.31 0.952,0.483 0.042,0.024 0.084,0.049 0.127,0.073 0.294,0.167 0.584,0.344 0.868,0.533 0.06,0.04 0.119,0.083 0.18,0.124 0.262,0.18 0.52,0.367 0.771,0.564 0.078,0.061 0.154,0.126 0.231,0.19 0.228,0.186 0.453,0.377 0.669,0.578 0.092,0.085 0.18,0.175 0.269,0.262 0.195,0.19 0.387,0.381 0.57,0.581 0.101,0.111 0.196,0.228 0.294,0.342 0.161,0.188 0.322,0.376 0.472,0.572 0.105,0.139 0.201,0.283 0.301,0.425 0.129,0.184 0.261,0.366 0.38,0.556 0.103,0.165 0.194,0.337 0.289,0.506 0.1,0.178 0.205,0.355 0.296,0.538 0.095,0.19 0.173,0.388 0.257,0.583 0.073,0.172 0.154,0.341 0.219,0.516 0.081,0.219 0.143,0.445 0.209,0.67 0.049,0.159 0.106,0.316 0.146,0.478 0.063,0.26 0.104,0.526 0.149,0.79 0.022,0.135 0.056,0.267 0.073,0.403 0.05,0.404 0.078,0.813 0.078,1.228 0,6.75 -6.438,9.75 -9.938,8.188 4.239,9.872 13.654,9.816 17.926,9.758 0.326,-0.004 0.625,-0.008 0.887,-0.008 0,0 -0.979,1.125 -0.979,3.125 0,6.75 11.5,12.5 13.75,13.5 0,-17.917 32.373,-20.375 36.748,-21.167 0,-0.708 1.543,-3.75 3.459,-5.25 1.256,-0.983 5.916,-2.417 7.25,-5.875 l -3.166,-5.125 -2.793,1.292 c 0,0 0.334,-3.959 -0.291,-4.334 -0.625,-0.375 -7.707,-10.75 -7.707,-10.75 0,0 2.041,5.292 -4.959,5.334 -4.957,0.029 -8.584,-5.25 -8.584,-8.125 0,-2.875 1.5,-4.209 5.709,-4.209 2.918,0 4.75,0.625 4.75,0.625 -1.541,-6.291 -0.5,-10.916 0.25,-16 0,0 -4.584,6.334 -12.418,6.334 -4.832,0 -8.416,-3.75 -8.416,-12.167 0,-8.416 4.916,-13.667 11.084,-13.667 6.166,0 6.25,5.417 6.25,5.417 0,0 4.332,-3.75 4.332,-10.417 0,-7.333 -7.75,-13.416 -14.082,-13.416 -3.25,0 -4.75,1.166 -4.75,1.166 l -0.918,-10 c 2.918,-3.083 5.979,-10.535 6.584,-17.25 0.834,-9.249 2,-16.083 6.166,-28.166 0.461,-1.336 1.032,-2.547 1.67,-3.675 0.299,-0.528 0.619,-1.029 0.951,-1.515 0.037,-0.053 0.073,-0.108 0.11,-0.162 0.324,-0.463 0.664,-0.905 1.016,-1.331 0.05,-0.059 0.099,-0.119 0.148,-0.178 0.355,-0.42 0.723,-0.821 1.103,-1.204 l 0.141,-0.137 c 0.394,-0.39 0.798,-0.763 1.215,-1.115 0.02,-0.017 0.042,-0.034 0.062,-0.05 2.195,-1.839 4.677,-3.17 7.217,-4.108 0.081,-0.029 0.16,-0.062 0.24,-0.091 0.401,-0.143 0.801,-0.27 1.202,-0.394 0.165,-0.051 0.331,-0.105 0.497,-0.153 0.356,-0.103 0.712,-0.197 1.068,-0.286 0.214,-0.053 0.429,-0.106 0.641,-0.155 0.323,-0.073 0.643,-0.142 0.962,-0.204 0.25,-0.049 0.499,-0.094 0.747,-0.137 0.288,-0.05 0.575,-0.097 0.86,-0.139 0.284,-0.041 0.564,-0.075 0.845,-0.107 0.249,-0.029 0.498,-0.061 0.743,-0.084 0.331,-0.032 0.656,-0.054 0.98,-0.074 0.189,-0.013 0.381,-0.029 0.568,-0.039 0.508,-0.024 1.009,-0.037 1.495,-0.037 6.812,0 11.562,5.125 11.562,10.812 0,5.688 0.188,10.188 -8.25,19.75 -8.437,9.563 -14.312,16.438 -14.312,28.563 0,12.125 9.187,19.125 20.187,29 11,9.875 11.063,12.687 11.063,15.562 0,2.875 -2.313,8.938 -8.188,8.938 -0.347,0 -0.678,-0.014 -1,-0.035 -0.103,-0.007 -0.203,-0.019 -0.304,-0.028 -0.215,-0.019 -0.426,-0.041 -0.631,-0.069 -0.11,-0.016 -0.217,-0.032 -0.323,-0.05 -0.19,-0.032 -0.376,-0.068 -0.556,-0.107 -0.098,-0.021 -0.198,-0.042 -0.293,-0.066 -0.196,-0.049 -0.383,-0.102 -0.566,-0.159 -0.068,-0.021 -0.139,-0.04 -0.207,-0.062 -0.243,-0.082 -0.477,-0.171 -0.702,-0.267 -0.051,-0.022 -0.098,-0.047 -0.147,-0.069 -0.171,-0.078 -0.339,-0.159 -0.498,-0.244 -0.073,-0.038 -0.142,-0.079 -0.211,-0.119 -0.132,-0.076 -0.261,-0.153 -0.384,-0.234 -0.068,-0.044 -0.136,-0.089 -0.201,-0.135 -0.123,-0.085 -0.241,-0.173 -0.354,-0.262 -0.054,-0.043 -0.111,-0.085 -0.164,-0.128 -0.143,-0.12 -0.281,-0.242 -0.412,-0.368 -0.016,-0.015 -0.033,-0.029 -0.049,-0.044 -0.148,-0.146 -0.288,-0.295 -0.42,-0.446 -0.029,-0.034 -0.055,-0.068 -0.084,-0.101 -0.1,-0.119 -0.197,-0.239 -0.288,-0.361 -0.033,-0.045 -0.065,-0.089 -0.096,-0.134 -0.084,-0.117 -0.165,-0.235 -0.241,-0.354 -0.026,-0.04 -0.052,-0.081 -0.077,-0.121 -0.086,-0.14 -0.168,-0.281 -0.244,-0.422 -0.009,-0.017 -0.019,-0.033 -0.027,-0.049 -0.179,-0.338 -0.331,-0.675 -0.458,-1.006 -10e-4,-0.003 -0.002,-0.006 -0.004,-0.009 -0.063,-0.162 -0.119,-0.323 -0.17,-0.482 -0.55,-1.683 -0.514,-3.069 -0.514,-3.069 0,0 -1.125,1.312 -1.125,4.437 0,2.563 3.375,17.688 22.438,17.688 11.562,0 20.25,-8.688 20.25,-22.063 C 11.848,60.575 1.123,53.106 -9.715,45.138 -24.59,34.2 -27.84,25.013 -27.215,25.013 c 0.625,0 8.625,9.937 20.188,9.937 10.375,0 20.062,-6.437 20.062,-17.437 C 13.035,13.898 9.018,4.35 0,0 m -21.965,105.513 c 0.406,-3.094 -1.875,-13.719 -12.375,-13.719 -7.031,0 -10.375,5.969 -10.375,5.969 l 2.906,4.031 c 0,0 2.469,-2.938 8.491,-2.938 8.646,0 11.353,6.657 11.353,6.657 m -83.11,79.373 c -96.481,0 -174.694,-78.213 -174.694,-174.694 0,-96.48 78.213,-174.693 174.694,-174.693 96.481,0 174.694,78.213 174.694,174.693 0,96.481 -78.213,174.694 -174.694,174.694"
            style="fill:#fff;fill-opacity:1;fill-rule:nonzero;stroke:none" id="path52" />
        </g>
        <g id="g54" transform="translate(340.584,524.1812)">
          <path
            d="M 0,0 1.205,1.624 C -2.877,2.274 -3.154,5.421 -2.93,7.583 H -9.709 C -11.293,3.792 -2.793,0 0,0"
            style="fill:#fff;fill-opacity:1;fill-rule:nonzero;stroke:none" id="path56" />
        </g>
        <g id="g58" transform="translate(158.687,559.6396)">
          <path
            d="m 0,0 c 12.505,0 23.062,10.75 23.062,22.187 0,3.063 -1.375,6.875 -1.375,6.875 l -5.5,-1.562 c 0,0 1.125,-3.188 1.125,-5.438 C 17.312,14.688 11,8 4.875,8 c -9.062,0 -20.937,11.812 -20.937,20.937 0,7.062 6.874,13.251 13.062,13.251 3.25,0 6.701,-0.856 6.701,-0.856 l 1.174,5.106 c 0,0 -2.719,0.875 -6.187,0.875 -13.376,0 -22.813,-10 -22.813,-22.938 C -24.125,13.829 -15.688,0 0,0"
            style="fill:#fff;fill-opacity:1;fill-rule:nonzero;stroke:none" id="path60" />
        </g>
        <g id="g62" transform="translate(209.1245,590.7646)">
          <path
            d="M 0,0 -8.875,18.667 4.75,25.25 13.792,6.208 l 9.458,5 L 3.75,52.167 -5.917,47.375 2.417,30.625 -11.167,24 -19.458,41.375 -29.083,36.542 -9.542,-4.792 Z"
            style="fill:#fff;fill-opacity:1;fill-rule:nonzero;stroke:none" id="path64" />
        </g>
        <g id="g66" transform="translate(274.958,611.4731)">
          <path
            d="m 0,0 -1.042,5.417 -17.198,-3.625 -2.723,15.125 15.692,3.187 -0.937,5.375 -16.125,-3.25 -2.625,13.75 16.875,3.188 -1.25,5.5 -27.25,-5.5 9.041,-44.75 z"
            style="fill:#fff;fill-opacity:1;fill-rule:nonzero;stroke:none" id="path68" />
        </g>
        <g id="g70" transform="translate(400.709,589.4077)">
          <path
            d="M 0,0 -15.766,7.773 -8.563,21.35 5.746,14.164 8.328,18.969 -6.359,26.374 0.07,38.809 15.309,30.892 17.723,35.988 -7.104,48.496 -27.635,7.719 -2.527,-4.902 Z"
            style="fill:#fff;fill-opacity:1;fill-rule:nonzero;stroke:none" id="path72" />
        </g>
        <g id="g74" transform="translate(318.666,618.0977)">
          <path d="m 0,0 h -17.166 l 0.584,39.833 H -27.125 L -27.833,-5.708 0,-6.25 Z"
            style="fill:#fff;fill-opacity:1;fill-rule:nonzero;stroke:none" id="path76" />
        </g>
        <g id="g78" transform="translate(429.4062,582.0542)">
          <path
            d="M 0,0 10.76,5.669 6.762,-5.916 Z m 9.469,-30.04 17,50.292 -46.793,-24.084 4.75,-4.375 10.701,5.639 9.81,-8.635 -3.968,-11.503 z"
            style="fill:#fff;fill-opacity:1;fill-rule:nonzero;stroke:none" id="path80" />
        </g>
        <g id="g82" transform="translate(348.541,604.6396)">
          <path
            d="m 0,0 c 7.459,0 14.791,6.167 14.791,14.833 0,12.167 -15.082,12.875 -15.082,20.625 0,2.25 1.791,5.875 5.707,5.875 5.125,0 7.625,-5.098 8.125,-8.625 l 5.293,1.917 c -1.375,7 -7.584,13.083 -15.875,13.083 -7.625,0 -14.209,-6.125 -14.209,-13.708 0,-12.042 14.834,-12.667 14.834,-20.958 0,-2.709 -2.043,-6.575 -6.459,-6.575 -4.418,0 -7.334,3.658 -8.375,8.325 l -5.791,-2.625 C -15.834,7.75 -10.541,0 0,0"
            style="fill:#fff;fill-opacity:1;fill-rule:nonzero;stroke:none" id="path84" />
        </g>
        <g id="g86" transform="translate(148.6245,273.0566)">
          <path
            d="M 0,0 6.792,-6.542 8.667,-4.417 -2,5.916 l -17.458,-18.208 4.208,-4 7.983,8.529 6.017,-5.945 1.958,2.083 -5.961,6.013 z"
            style="fill:#fff;fill-opacity:1;fill-rule:nonzero;stroke:none" id="path88" />
        </g>
        <g id="g90" transform="translate(164.1245,235.7227)">
          <path
            d="m 0,0 c -3,0 -5.583,2.707 -5.583,5.416 0,5.458 6.979,13.646 11.354,13.646 2.698,0 5.354,-2.145 5.354,-5.291 C 11.125,8.5 4.792,0 0,0 m 2.719,22.729 c -6.49,0 -12.636,-7.271 -12.636,-13.813 0,-7.625 6.375,-12.583 12.209,-12.583 5.666,0 13.521,6.552 13.521,13.771 0,6.313 -5.73,12.625 -13.094,12.625"
            style="fill:#fff;fill-opacity:1;fill-rule:nonzero;stroke:none" id="path92" />
        </g>
        <g id="g94" transform="translate(194.9731,218.0723)">
          <path
            d="m 0,0 c -2.944,-0.573 -5.998,1.59 -6.516,4.249 -1.043,5.357 4.243,14.73 8.537,15.566 2.648,0.516 5.666,-1.084 6.267,-4.171 C 9.296,10.47 4.703,0.916 0,0 M -1.676,22.83 C -8.046,21.59 -12.688,13.278 -11.438,6.856 -9.979,-0.628 -2.775,-4.275 2.95,-3.161 8.513,-2.077 14.97,5.854 13.59,12.941 12.384,19.138 5.554,24.237 -1.676,22.83"
            style="fill:#fff;fill-opacity:1;fill-rule:nonzero;stroke:none" id="path96" />
        </g>
        <g id="g98" transform="translate(218.8745,227.9258)">
          <path
            d="m 0,0 4.333,-1.369 -7.291,-21.042 5.458,-2.166 7.375,21.353 4.5,-1.77 0.917,2.875 -14.25,5.083 z"
            style="fill:#fff;fill-opacity:1;fill-rule:nonzero;stroke:none" id="path100" />
        </g>
        <g id="g102" transform="translate(251.5464,210.3115)">
          <path
            d="m 0,0 c -1.094,0 -3.766,0.672 -3.766,0.672 l 1.576,7.697 c 0,0 5.956,-0.291 5.956,-3.916 C 3.766,0.828 1.094,0 0,0 m -1.776,-11.484 c -0.74,0 -4.302,0.968 -4.302,0.968 l 1.815,8.5 c 0,0 6.529,-0.281 6.529,-4.781 0,-4.5 -3.303,-4.687 -4.042,-4.687 M 9.537,3.537 c 0,5.25 -5.834,6.708 -5.834,6.708 l -10.916,2.292 -4.875,-24.667 c 0,0 9.416,-2.625 13,-2.625 3.583,0 7.083,2.708 7.083,6.875 0,4.167 -2.833,5.375 -2.833,5.375 0,0 4.375,0.792 4.375,6.042"
            style="fill:#fff;fill-opacity:1;fill-rule:nonzero;stroke:none" id="path104" />
        </g>
        <g id="g106" transform="translate(458.7383,260.6621)">
          <path
            d="m 0,0 c -0.404,-0.619 -3.164,-3.071 -3.164,-3.071 l -6.121,6.17 c 0,0 3.808,5.311 7.574,2.848 C 2.055,3.484 0.404,0.618 0,0 m -11.264,4.985 -5.58,5.533 c 0,0 3.504,4.824 6.539,2.84 3.034,-1.983 2.264,-4.673 1.664,-5.587 -0.597,-0.917 -2.623,-2.786 -2.623,-2.786 M 2.33,10.148 c -3.488,2.281 -6.049,0.572 -6.049,0.572 0,0 1.733,4.095 -2.662,6.968 -4.394,2.874 -8.807,-1.212 -8.807,-1.212 L -23.08,8.594 -5.102,-8.985 c 0,0 7.35,6.445 9.311,9.444 1.961,2.998 1.609,7.41 -1.879,9.689"
            style="fill:#fff;fill-opacity:1;fill-rule:nonzero;stroke:none" id="path108" />
        </g>
        <g id="g110" transform="translate(274.7593,201.0771)">
          <path
            d="M 0,0 3.22,6.604 5.238,0 Z m -7.733,-8.406 3.583,-0.106 2.848,5.842 7.464,-0.353 2.037,-6.665 h 5.833 L 5.074,17.645 Z"
            style="fill:#fff;fill-opacity:1;fill-rule:nonzero;stroke:none" id="path112" />
        </g>
        <g id="g114" transform="translate(304.707,216.5146)">
          <path d="m 0,0 h -6.041 l 1.043,-24.916 h 15.457 v 3.041 H 0.584 Z"
            style="fill:#fff;fill-opacity:1;fill-rule:nonzero;stroke:none" id="path116" />
        </g>
        <g id="g118" transform="translate(331.834,197.3896)">
          <path d="M 0,0 -3.5,21.708 -9.25,20.833 -5.334,-4.25 9.957,-1.875 9.5,1.584 Z"
            style="fill:#fff;fill-opacity:1;fill-rule:nonzero;stroke:none" id="path120" />
        </g>
        <g id="g122" transform="translate(382.2187,210.7959)">
          <path
            d="m 0,0 c -6.437,0 -9.5,8.656 -9.5,12.656 0,3.813 2.969,7.563 7.219,7.563 3,0 5.5,-2.188 5.5,-2.188 l 1.843,2.563 c 0,0 -2.749,2.125 -7.187,2.125 -6.656,0 -12.736,-5.559 -12.563,-12.938 0.157,-6.687 4.563,-13.437 12.969,-13.437 6.094,0 12.344,4.698 12.344,11.562 L 7.5,8.281 C 7.5,3.344 4.094,0 0,0"
            style="fill:#fff;fill-opacity:1;fill-rule:nonzero;stroke:none" id="path124" />
        </g>
        <g id="g126" transform="translate(409.582,223.9727)">
          <path d="m 0,0 -11.041,19.25 -4.834,-3 L -3.5,-5.667 9.75,1.875 8.168,4.625 Z"
            style="fill:#fff;fill-opacity:1;fill-rule:nonzero;stroke:none" id="path128" />
        </g>
        <g id="g130" transform="translate(428.041,262.7236)">
          <path
            d="M 0,0 -2.584,-2.042 7.791,-15.855 c 0,0 1.314,-1.625 1.314,-2.813 0,-2.542 -3.271,-5.167 -5.314,-5.167 -1.916,0 -3.125,1.667 -3.125,1.667 l -10.832,14.708 -4.709,-3.5 10.959,-14.561 c 0,0 2.094,-3.063 5.469,-3.063 4.75,0 10.875,5.031 10.875,9.531 0,2.75 -1.875,4.907 -1.875,4.907 z"
            style="fill:#fff;fill-opacity:1;fill-rule:nonzero;stroke:none" id="path132" />
        </g>
      </g>
    </g>
  </g>
</svg>